<?xml version="1.0" encoding="UTF-8"?>
<svg id="Layer_2" data-name="Layer 2" xmlns="http://www.w3.org/2000/svg" viewBox="0 0 18.72 20.34">
  <defs>
    <style>
      .cls-1 {
        fill: #c2c8d0;
      }

      .cls-2 {
        fill: #d9b73c;
      }

      .cls-3 {
        fill: #fff;
      }

      .cls-4 {
        fill: #5d4f4c;
      }

      .cls-5 {
        fill: #4b3e3b;
      }

      .cls-6 {
        fill: #735f5b;
      }

      .cls-7 {
        fill: #decfbb;
      }

      .cls-8 {
        fill: #e9edf1;
      }

      .cls-9 {
        fill: #905924;
      }

      .cls-10 {
        fill: #eff2f7;
      }

      .cls-11 {
        fill: #a6712a;
      }

      .cls-12 {
        fill: #dde1e6;
      }

      .cls-13 {
        fill: #d1d6dc;
      }

      .cls-14 {
        fill: #c8972d;
      }

      .cls-15 {
        fill: #a3712a;
      }

      .cls-16 {
        fill: #3d3330;
      }
    </style>
  </defs>
  <g id="Kysthonning">
    <g>
      <path class="cls-10" d="M8.86,5.64c.39-1.22,1.1-2.48,1.75-3.59C10.93,1.5,11.57,.09,12.31,0c1.09-.12,1.05,2.21,1,2.86,0,.07-.05,.13-.1,.17-.08,.27-.3,.42-.63,.66-.8,.59-1.39,1.19-1.97,2-.23,.32-.49,.65-.75,.98-.05,.1-.1,.19-.16,.28-.05,.08-.11,.13-.17,.15-.22,.3-.43,.61-.59,.92-.02,.04-.07,.03-.1,0-.15,.73-.25,1.47-.4,2.21-.01,.06-.11,.05-.1-.01,.07-1.56,.04-3.08,.52-4.59Z"/>
      <path class="cls-10" d="M8.78,8.22c.14-.64,.13-1.45,.51-1.99,.13-.19,.4-.07,.36,.15-.03,.17-.07,.34-.1,.52,.13-.23,.26-.46,.41-.69,.76-1.17,1.71-2.86,3.03-3.44,.11-.05,.19,.09,.09,.16-1.19,.78-2.01,2.59-2.71,3.8-.76,1.31-1.2,2.7-1.53,4.18-.07,.31-.58,.25-.56-.08,.05-.88,.31-1.74,.5-2.61Z"/>
      <path class="cls-4" d="M1.23,11.04c.02-.18,.03-.4,.18-.52,.03-.03,.07-.04,.11-.04,.02-.13,.08-.25,.22-.32,.11-.05,.31,.04,.25,.19-.19,.46-.07,.98-.26,1.43-.01,.03-.06,.05-.09,.05-.01,0-.02,0-.04,0-.08,0-.12-.11-.04-.16-.01,0-.03-.06-.04-.14,0,.02,0,.04,0,.06,0,0,0,0,0,.01-.01,.12-.03,.25-.04,.37-.01,.11-.15,.11-.16,0-.03-.3-.1-.62-.06-.92Z"/>
      <path class="cls-4" d="M2.26,10.08c.09-.18,.36-.05,.32,.13-.07,.29-.24,.57-.32,.86-.09,.31-.12,.63-.17,.95-.01,.08-.15,.08-.17,0-.11-.62,.05-1.39,.34-1.94Z"/>
      <path class="cls-4" d="M2.37,10.95c.06-.12,.12-.23,.17-.35,.04-.1,.11-.22,.11-.33,0-.16,.17-.19,.26-.11,.06,0,.12,.04,.14,.11,0,.01,0,.03,0,.04,0,0,.02-.01,.02-.02,.14-.07,.36,.08,.24,.24-.14,.2-.3,.36-.41,.58-.14,.28-.22,.58-.33,.87-.03,.09-.19,.09-.18-.02,.01-.25,.07-.51,.14-.76,0-.01,0-.02,0-.03-.1,.02-.23-.09-.16-.22Z"/>
      <path class="cls-4" d="M2.85,11.65c.08-.16,.17-.34,.26-.51,.04-.09,.08-.18,.13-.27,.1-.21,.2-.52,.42-.62,.12-.05,.3,.04,.25,.19,0,0,0,.01,0,.02,.02,.04,.03,.1,0,.16-.04,.06-.07,.12-.1,.17,0,0,.01,.01,.02,.02,.16-.21,.31-.43,.61-.38,.16,.03,.14,.27,0,.3-.17,.04-.29,.25-.42,.37-.07,.06-.15,.11-.23,.17-.1,.08-.15,.17-.23,.26-.02,.03-.05,.03-.08,.02-.09,.22-.17,.44-.24,.67-.04,.12-.23,.07-.2-.05,.03-.09,.05-.2,.07-.31-.12,.14-.32-.04-.25-.19Z"/>
      <path class="cls-4" d="M3.59,12.2c.06-.09,.12-.17,.17-.26-.04,.09-.07,.17-.11,.25-.07,.14,.07,.26,.19,.24,.05,.02,.11,0,.15-.05,.08-.11,.17-.25,.27-.38-.02,.04-.05,.07-.07,.1-.03,.05-.03,.1,0,.14-.05,.04-.09,.07-.13,.11-.13,.1,.04,.31,.17,.23,.12-.08,.24-.16,.37-.23-.05,.06-.1,.12-.15,.17-.04,.05-.05,.1-.04,.14-.05,.02-.11,.05-.16,.07-.21,.02-.42,.06-.62,.08-.14,.02-.17,.2-.06,.25-.06,.1-.01,.26,.11,.28-.08,.05-.11,.17-.05,.24-.06,.08-.07,.22,.04,.28,.2,.1,.4,.18,.59,.31,.07,.05,.13,.12,.19,.19-.03-.02-.07-.05-.1-.07-.19-.13-.38-.26-.58-.38-.2-.12-.36,.18-.18,.31,.18,.12,.35,.25,.52,.38,.16,.13,.29,.28,.47,.37,.15,.08,.31-.08,.23-.23-.03-.05-.06-.1-.1-.15,.02,0,.03,.01,.05,.02,.09,.02,.19-.04,.19-.14,0-.13-.05-.23-.12-.33,.02,0,.04,.01,.06,.02,.17,.02,.21-.2,.13-.31-.05-.07-.11-.12-.17-.17,.03,.02,.06,.04,.09,.05,.16,.08,.34-.09,.25-.25-.04-.06-.08-.12-.12-.17,.04,0,.09,.01,.14,0,.11-.02,.14-.18,.07-.25-.13-.12-.22-.21-.36-.27,.02,0,.05-.01,.07-.02,.15-.02,.22-.26,.04-.29-.02,0-.05,0-.07,0,.11-.11,.22-.22,.33-.32,0,0,0,0,.01,0,.16-.01,.23-.22,.08-.3-.13-.08-.27-.09-.42-.06,.14-.12,.27-.24,.38-.38,.11-.13-.06-.3-.19-.19-.08,.07-.16,.14-.24,.21-.04,0-.09,0-.12,.02,0,0,0-.01-.02-.02-.07-.05-.15-.07-.22-.06-.02-.09-.11-.16-.2-.13,0,0,0,0-.01,0,.05-.08-.02-.2-.12-.21-.21-.02-.31,.13-.41,.29-.14,.24-.28,.48-.42,.72-.08,.14,.13,.27,.22,.13Zm.77,1.19c.11,.04,.21,.11,.31,.18-.25-.14-.55-.19-.83-.25,.18-.01,.35,0,.52,.07Z"/>
      <path class="cls-4" d="M.3,11.55c.23,.1,.42,.26,.59,.44-.02-.02-.03-.05-.04-.08-.02-.23-.08-.39-.18-.59-.08-.16-.13-.3-.13-.48,.01-.2,.29-.2,.31,0,.02,.19,.13,.35,.19,.53,.06,.18,.06,.36,.04,.54,0,.11-.13,.14-.2,.09,.04,.04,.08,.09,.12,.13,.11,.12-.06,.29-.18,.18-.13-.11-.25-.23-.4-.31-.13-.08-.27-.11-.36-.24-.1-.14,.09-.27,.22-.22Z"/>
      <path class="cls-4" d="M.22,12.35c.17,0,.29,.11,.43,.19,.18,.11,.34,.22,.5,.35,.09,.08-.01,.23-.12,.2-.01,.07-.08,.12-.16,.07-.24-.16-.49-.3-.66-.53-.01,0-.02,0-.03-.01-.16-.03-.11-.26,.04-.27Z"/>
      <path class="cls-5" d="M2.34,10.95c.07-.08,.25-.05,.26,.07,.03,.2-.06,.39-.11,.59-.04,.18-.08,.36-.12,.54,.02-.02,.03-.04,.05-.06,.09-.23,.17-.45,.29-.66,.06-.12,.24-.08,.28,.02,.03-.06,.06-.11,.08-.17,.06-.19,.39-.17,.37,.05-.02,.15-.07,.3-.13,.44,.15-.18,.34-.36,.53-.35,.1,0,.18,.08,.18,.18,0,.1-.05,.19-.12,.27,.06-.02,.11-.05,.17-.06,.09-.02,.2,.01,.25,.1,.02,.04,.03,.07,.03,.11,0,.1-.07,.18-.16,.21-.01,0-.02,.01-.04,.02,.04,.06,.04,.15-.01,.22,.18-.04,.35-.07,.46,.13,.06,.1,0,.21-.1,.24-.11,.04-.24,.04-.36,.04,.08,.09,.04,.24-.11,.28,.02,0,.04,0,.06,.02,.17,.07,.17,.27,0,.34-.02,0-.04,.01-.07,.02,.14,0,.27,.02,.36,.16,.07,.11-.02,.27-.14,.29,.08,.11,.02,.28-.11,.31-.23,.06-.41-.07-.63-.13-.24-.06-.48-.07-.72-.12-.17-.04-.17-.31,0-.34,.04,0,.09-.02,.14-.02,.04-.04,.1-.04,.14-.01,0,0,0,0,0,0,.21-.02,.41-.06,.61-.1-.06,0-.11,0-.16,0-.23,0-.46-.02-.69-.03-.2-.01-.2-.3,0-.31,.24-.01,.48,0,.72-.05-.08,0-.15,0-.23,0-.1,.03-.24-.09-.18-.2,0-.06,.03-.11,.09-.14,.03-.04,.06-.09,.09-.14-.02,.01-.03,.02-.05,.04-.04,.03-.09,.03-.13,.02-.01,.03-.03,.06-.05,.09-.07,.11-.25,.09-.29-.04-.02-.07-.02-.13-.01-.2-.1,0-.18-.08-.16-.19,0-.03,.01-.05,.02-.08-.01,.01-.02,.02-.03,.03-.02,.04-.04,.08-.06,.12-.02,.04-.04,.06-.07,.08-.06,.11-.11,.21-.16,.32-.07,.15-.35,.04-.28-.12,.01-.03,.02-.06,.03-.09-.03-.02-.05-.05-.06-.1-.04-.51-.09-1.23,.28-1.63Z"/>
      <path class="cls-5" d="M.7,11.52c.14,.14,.18,.34,.25,.52,.04,.11,.09,.21,.13,.32-.02-.09-.04-.18-.06-.28-.04-.24-.12-.57,.14-.71,.09-.05,.19,0,.22,.07,.02,0,.04,.02,.06,.03,.02-.07,.07-.12,.13-.13,0-.17,.05-.34,.25-.34,.06,0,.12,.04,.13,.1,.09,.44,.08,.95,0,1.4,0,.07,.02,.13,.05,.19,.05,.11-.08,.22-.17,.13-.04-.04-.07-.08-.1-.12-.04,.02-.08,.03-.12,.02,.05,.22,.09,.43,.09,.65,0,.12-.18,.14-.21,.03-.06-.21-.19-.4-.27-.6,0,.02-.02,.05-.04,.06,.05,.11,.1,.22,.13,.33,.02,.08-.02,.14-.08,.18,.07,.14,.14,.29,.21,.43,.05,.11-.09,.26-.19,.14-.15-.19-.27-.41-.39-.63-.06-.11-.12-.21-.18-.32-.05-.1-.06-.21-.1-.31,0-.01,0-.02,0-.04-.02-.03-.03-.05-.04-.08-.05-.12,.06-.21,.17-.22-.1-.22-.2-.44-.29-.67-.06-.16,.17-.28,.29-.17Z"/>
      <path class="cls-16" d="M.86,12.57s0,0,0,0c-.04-.07-.09-.15-.13-.22-.1-.16,.15-.3,.25-.14,.02,.03,.04,.06,.05,.09,0-.02,0-.04-.01-.06-.02-.24,.38-.25,.38,0,0,.03,0,.06,.01,.1,0,0,0,0,0,0,.14,.14,.21,.3,.27,.48,.02,.05,.04,.11,.06,.17-.07-.4-.18-.81-.1-1.2,.04-.17,.31-.17,.35,0,.03,.13,.03,.26,.02,.39,.03-.06,.05-.11,.08-.17,.04-.09,.14-.11,.22-.09,.09-.11,.31-.07,.3,.1,0,.06-.02,.12-.03,.17,.11-.1,.23-.18,.36-.18,.17,0,.23,.19,.13,.32,0,0-.01,.01-.02,.02,.03,.03,.05,.07,.05,.12,0,.04,0,.07-.01,.1,.05,0,.1,0,.15,0,.15,.03,.29,.19,.22,.35-.03,.06-.07,.1-.12,.13,.1,.04,.2,.1,.27,.16,.11,.09,.07,.28-.04,.34-.16,.09-.39-.05-.53-.13-.06-.03-.12-.06-.18-.09,0,.01,0,.03,0,.04,.02,.02,.04,.04,.06,.06,.07,.05,.15,.1,.21,.17,.09,.1,.28,.33,.14,.46-.05,.04-.11,.07-.18,.05-.04-.01-.08-.04-.11-.07-.02,.03-.04,.07-.07,.1-.05,.05-.12,.07-.18,.05-.07,.02-.14,.02-.2-.03-.06-.01-.11-.05-.13-.12-.01-.04-.03-.08-.04-.12,0,0-.01,0-.02,0,0,.02,0,.04,.01,.06,.03,.1,.07,.2,.08,.31,.01,.09-.08,.18-.16,.21-.02,0-.04,0-.06,0-.03,0-.05,0-.07,0-.02,0-.03,.02-.05,.02-.1,.03-.23-.05-.23-.17-.08,.07-.2,.09-.27,0,0,0,0,0,0-.01-.05,0-.1-.02-.13-.09-.02-.04-.04-.09-.05-.13,0,0,0,.01-.01,.02-.06,.09-.15,.13-.26,.11h-.03c-.14-.04-.17-.17-.13-.28,.03-.19,.2-.46,.38-.57-.17-.06-.34-.1-.5-.16-.15-.06-.12-.25,.04-.27,.09-.01,.17,0,.26,.02,0,0-.01-.01-.02-.02-.14-.1-.25-.22-.27-.37Z"/>
      <path class="cls-6" d="M1.48,8.24c.08-.49,.28-.97,.5-1.41,.23-.46,.66-.77,1.14-.93,.48-.15,.95-.09,1.29,.29,.31,.35,.51,.86,.45,1.33-.05,.39-.44,.65-.81,.65-.38,0-.73-.4-.71-.78,.02-.32,.45-.63,.69-.31,.21,.29-.03,.62-.32,.36-.08-.07,.03-.21,.11-.15,.09-.04,.08-.08,0-.1-.08-.07-.16-.05-.23,.07-.08,.16,.04,.44,.16,.55,.23,.22,.59,.18,.8-.06,.31-.33,.05-1.02-.18-1.32-.65-.87-1.89-.23-2.27,.57-.32,.68-.53,1.37-.55,2.13-.01,.38-.02,.78,.03,1.16,.06,.43,.17,.84,.24,1.27,0,.03-.05,.05-.05,.01-.11-.53-.3-1.05-.32-1.59-.02-.59-.05-1.17,.04-1.75Z"/>
      <path class="cls-6" d="M.77,6.41c.31-.08,.58-.03,.73,.26,.12,.22,.2,.64-.07,.81-.18,.11-.48-.02-.44-.26,.04-.2,.28-.17,.4-.07,0,0,.01,.02,.01,.03,0,0,0,0,.01,0,.03-.12,.02-.23-.04-.33-.07-.21-.15-.3-.46-.29-.27,0-.45,.19-.56,.41-.22,.44-.21,.86-.12,1.33,.19,.95,.61,1.81,.86,2.75,0,.03-.04,.05-.05,.01-.17-.51-.44-.98-.62-1.5-.17-.5-.33-.98-.42-1.5-.1-.58,.08-1.49,.75-1.66Z"/>
      <path class="cls-14" d="M3.46,11.02c.01,.11,.19,.16,.21,.03,.05-.24,.12-.44,.21-.66,.03-.07,.06-.13,.09-.19-.06,.19-.12,.38-.14,.57-.01,.03-.02,.06,0,.09h0c.05,.13,.2,.17,.28,.05,.06-.08,.1-.17,.14-.27,0,.04,0,.07,0,.11,0,.11,.08,.17,.17,.18-.09,.12-.16,.25-.17,.38-.02,.12,.14,.22,.24,.19,.24-.07,.39-.35,.55-.53,.02-.02,.04-.04,.06-.06-.08,.19-.15,.38-.22,.57-.07,.18,.2,.33,.32,.19,.05-.06,.09-.12,.12-.19,0,.09,0,.18,.01,.27-.1,.03-.19,.12-.2,.26-.05,.82-.13,1.67-.35,2.45-.05,.17,.14,.26,.26,.19,.03,.11,.11,.21,.23,.25,.05,.02,.09,.02,.14,.02,.04,.09,.14,.16,.25,.09,.22-.12,.45-.23,.67-.36-.05,.05-.1,.1-.15,.15-.14,.14,.04,.36,.2,.27,.43-.24,.85-.5,1.24-.79,.29-.21,.66-.49,.75-.85,.05-.23-.26-.47-.43-.25-.05,.06-.1,.12-.16,.18,.02-.06,.02-.11,.01-.17,.18-.22,.27-.46,.1-.7,.12-.12,.22-.26,.21-.42,.15-.08,.29-.16,.49-.16,.18,0,.24-.21,.16-.33,0-.07-.02-.14-.1-.18-.05-.03-.1-.05-.15-.07-.02-.03-.05-.06-.09-.07-.12-.03-.23,0-.32,.05-.18,.04-.34,.15-.5,.28,.05-.12,.09-.25,.14-.37,.03,.11,.17,.2,.29,.09,.15-.14,.29-.29,.44-.43,.13-.12-.01-.29-.16-.27-.26,.04-.35,.26-.52,.45,.03-.1,.06-.19,.1-.28,.05-.12-.02-.3-.17-.28,0-.02-.02-.04-.04-.06,0-.07-.03-.13-.09-.17,0,0,0,0,0-.01,.06-.2-.21-.28-.32-.13-.07,.09-.12,.2-.16,.31,0,0,0,0,0,0,.03-.08,0-.15-.04-.21,.09-.1,.18-.19,.3-.26,.15-.09,.14-.36-.05-.4-.29-.06-.47,.14-.59,.4,.01-.17-.22-.28-.35-.15-.01,.01-.02,.02-.03,.03-.01,0-.02,0-.03,0,.02-.06,.04-.12,.07-.17,.11-.19-.1-.36-.28-.28-.04,.02-.07,.04-.1,.07-.02-.07-.07-.12-.15-.11-.27,.03-.4,.22-.47,.45-.04-.01-.08-.02-.12,0-.12,.03-.21,.08-.29,.16-.04-.04-.09-.06-.15-.07,.07-.14,.15-.25,.25-.39,.12-.18-.11-.36-.28-.28-.1,.05-.18,.12-.25,.19-.06-.03-.13-.03-.19,.01-.11,.08-.18,.17-.24,.28-.05-.11-.2-.17-.33-.11-.49,.23-.42,.99-.37,1.43Zm2.18,1.6c0,.14,0,.28,0,.44-.07,.18-.15,.36-.22,.54,.09-.32,.17-.64,.22-.98Zm.22-2.72c-.02,.14-.03,.29-.03,.42-.03,0-.07,0-.1,0,.03-.15,.07-.29,.13-.42Zm.13,.77c-.02,.08-.04,.16-.06,.25,0,.02,0,.04,0,.06-.03,0-.06,0-.09,.01,.03-.12,.07-.22,.13-.31,0,0,.01,0,.02,0Zm.47,1.13c-.03,.07-.05,.14-.08,.22-.03-.04-.08-.06-.12-.07,0-.05,0-.1,0-.15,.06,.03,.14,.03,.2,0Z"/>
      <path class="cls-11" d="M5.12,14.18c.03-.15,.07-.29,.11-.43,0-.2,0-.4,.01-.59,0-.33,0-.63,.14-.93,.06-.12,.21-.11,.28-.03,.07-.17,.16-.34,.3-.48,.12-.12,.35,0,.3,.17-.21,.69-.5,1.39-.78,2.07-.02,.11-.04,.21-.08,.32-.02,.06-.07,.06-.11,.04-.09,.04-.21-.02-.18-.15Z"/>
      <path class="cls-15" d="M4.81,12.71c.14-.16,.46,0,.38,.22-.04,.09-.06,.19-.09,.29,.04,0,.07,.02,.1,.04,.04-.17,.08-.34,.12-.52,0-.04,0-.07,0-.11-.11,.03-.23-.03-.22-.17,.01-.27,0-.53,0-.8,0-.22-.03-.42,.03-.64,.07-.21,.42-.19,.4,.05,0,.04,0,.09,0,.13,.1-.01,.17,.14,.1,.22-.04,.05-.08,.11-.12,.17,0,.11,0,.22-.01,.33,.04-.14,.1-.28,.2-.38,.14-.15,.37-.05,.41,.12,.03-.24,.1-.46,.35-.56,.12-.05,.21,.09,.19,.19-.03,.13-.12,.21-.18,.33-.05,.11-.07,.24-.1,.36-.04,.16-.3,.13-.29-.04,0-.03,0-.06,0-.09-.05,.18-.1,.35-.16,.52,.08-.11,.17-.21,.29-.27,.05-.02,.11-.03,.16-.01,.02-.1,.04-.2,.06-.3,.03-.16,.1-.26,.25-.32,.15-.06,.27,.13,.2,.26-.05,.08-.07,.2-.1,.29,.05-.05,.1-.09,.16-.13,.17-.1,.37,.1,.27,.27-.13,.2-.27,.4-.42,.59,.01,0,.02,0,.04,0,.08-.08,.16-.16,.25-.23,.15-.11,.46-.24,.57,0,.04,.1,.03,.2-.07,.26-.12,.08-.25,.1-.37,.19-.16,.13-.31,.27-.46,.41,.02,0,.03,0,.05,.02,.29-.27,.66-.55,.83-.21,0,0,0,0,0,0,0,0,0,0,0,0,.05-.05,.08-.1,.13-.14,.12-.11,.25-.22,.43-.2,.17,.02,.3,.28,.1,.37-.13,.06-.27,.14-.39,.21-.12,.07-.26,.15-.38,.04,0,0,0,0,0,0-.03,.01-.07,.02-.11,0,.09,.01-.04,.02-.08,.04-.05,.02-.1,.06-.15,.09,.08-.03,.16-.04,.26,.02,.16,.09,.12,.28,0,.36,.04,.1,.01,.22-.09,.28-.3,.18-.56,.42-.81,.66-.11,.11-.26,.05-.31-.06-.09,.05-.2,.05-.28-.03-.09-.09-.09-.25,0-.33,.03-.03,.06-.06,.1-.09-.05,.03-.1,.06-.15,.09,0,.02-.02,.04-.02,.06,0,0,0,0,0,0,.05,.07,.02,.19-.07,.21-.08,.01-.14,0-.2-.03-.08,.01-.16-.01-.21-.08-.07-.03-.11-.1-.09-.2,.02-.07,.03-.13,.04-.2,0-.01,0-.03,0-.04-.01,0-.03,0-.04-.01-.04,.2-.1,.4-.13,.57-.04,.21-.4,.16-.37-.05,0-.08,.02-.16,.03-.23-.04-.02-.06-.05-.07-.1-.02-.51-.31-1.27,.07-1.7Z"/>
      <path class="cls-9" d="M4.9,14.2c0-.07,.04-.13,.1-.15,0-.03,0-.07,0-.1,0-.22,.04-.39,.12-.6,.09-.22,.39-.19,.41,.06,.02,.17-.03,.34-.06,.51,.1-.33,.22-.65,.44-.92,.16-.19,.41,.05,.32,.24-.19,.4-.37,.8-.56,1.21,.05-.05,.11-.1,.17-.15,.21-.42,.42-.85,.8-1.13,.03-.02,.05-.03,.08-.03,.05-.07,.13-.13,.18-.18,.13-.11,.24-.19,.41-.24,.16-.05,.3,.17,.17,.29-.08,.08-.17,.14-.26,.21-.07,.05-.14,.11-.21,.15-.02,.02-.04,.04-.06,.05,0,.01,0,.03-.01,.04-.07,.13-.15,.26-.23,.39,.06,0,.12,.01,.19,.04,.08,.03,.13,.12,.12,.2,.15,.01,.26,.21,.17,.34-.13,.2-.36,.23-.57,.3-.29,.09-.57,.2-.85,.32-.16,.07-.31-.07-.3-.2-.1,.08-.27,.05-.32-.09-.03,0-.07-.02-.1-.05-.05-.06-.1-.12-.13-.21-.03-.1,0-.2-.02-.29Z"/>
      <path class="cls-9" d="M5.72,12.05c.08-.12,.27-.1,.31,.04,.07,.24,.06,.62-.1,.82-.04,.05-.13,.05-.17,0-.18-.22-.19-.63-.04-.86Z"/>
      <path class="cls-9" d="M6.32,12.6c.08-.18,.19-.36,.32-.51,.1-.13,.28,.03,.22,.17-.09,.18-.16,.39-.31,.52-.13,.12-.3-.03-.23-.18Z"/>
      <path class="cls-15" d="M5.97,10.83c.03-.07,.08-.15,.09-.23,.01-.09,0-.14,.08-.2,.07-.06,.23-.03,.21,.09-.01,.09,0,.15-.05,.24-.04,.08-.09,.15-.13,.22-.08,.13-.26,.02-.2-.12Z"/>
      <path class="cls-15" d="M4.78,10.27c.04-.11,.07-.2,.14-.29,.11-.16,.35-.06,.31,.13-.04,.18-.1,.46-.24,.59-.1,.09-.31,.04-.29-.12,0-.11,.06-.2,.09-.3Z"/>
      <path class="cls-15" d="M7.17,10.79c.13-.06,.31,.07,.21,.21-.1,.15-.23,.41-.43,.42-.06,0-.13-.05-.14-.11-.04-.2,.18-.46,.35-.53Z"/>
      <path class="cls-15" d="M7.31,11.95c.08-.11,.19-.16,.31-.2,.12-.05,.26-.1,.39-.06,.1,.03,.17,.18,.07,.26-.1,.08-.19,.08-.31,.1-.11,.02-.2,.07-.3,.1-.11,.03-.23-.11-.16-.2Z"/>
      <path class="cls-2" d="M5.55,9.97c.01-.2-.02-.4,.08-.58,.06-.1,.23-.11,.29,0,.08,.17,.03,.38,0,.56-.04,.18-.08,.42-.17,.58-.04,.06-.12,.06-.16,0-.09-.15-.05-.39-.04-.55Z"/>
      <path class="cls-2" d="M4.36,9.46c.02-.18,.05-.34,.16-.5,.14-.2,.46-.08,.4,.17-.03,.15-.07,.3-.11,.44-.02,.06-.03,.13-.06,.19-.03,.06-.07,.12-.1,.18-.07,.18-.36,.17-.35-.05,0-.14,.04-.29,.06-.44Z"/>
      <path class="cls-2" d="M6.28,10.02c.09-.15,.17-.3,.25-.45,.07-.12,.15-.23,.3-.27,.13-.03,.25,.11,.18,.23-.06,.1-.11,.2-.18,.29-.09,.12-.17,.24-.26,.36-.13,.16-.4,.02-.29-.17Z"/>
      <path class="cls-2" d="M6.97,10.38c.16-.18,.36-.48,.64-.45,.19,.02,.24,.27,.05,.34-.2,.06-.33,.18-.48,.32-.14,.12-.33-.07-.2-.2Z"/>
      <path class="cls-2" d="M7.61,11.07c.23-.19,.39-.39,.68-.48,.18-.06,.33,.2,.19,.32-.11,.09-.22,.12-.35,.18-.12,.06-.23,.14-.34,.22-.14,.1-.32-.13-.18-.24Z"/>
      <path class="cls-2" d="M7.66,12.32c.06-.03,.12-.06,.18-.09,0-.02,0-.05,0-.07,.06-.16,.22-.23,.34-.33,.13-.11,.24-.2,.4-.25,.16-.05,.3,.16,.21,.29,.11,.06,.14,.23,0,.33-.3,.21-.65,.36-1.01,.45-.18,.05-.32-.23-.13-.32Z"/>
      <path class="cls-2" d="M8.43,12.56c.15-.03,.3-.06,.45-.09,.18-.05,.3,.21,.13,.31-.15,.09-.31,.11-.48,.15-.24,.05-.34-.31-.1-.36Z"/>
      <path class="cls-7" d="M1.79,12.48c.03-.07,.1-.08,.15-.07,.01-.01,.03-.03,.06-.04,.11-.04,.16,.02,.22,.09,.05,.05,.04,.14-.01,.18,.01,.06,.01,.13-.02,.17-.05,.08-.15,.11-.24,.12-.06,0-.09-.02-.11-.06-.03,0-.07-.01-.08-.05-.05-.13-.03-.24,.02-.36Z"/>
      <path class="cls-4" d="M8.43,16.01c.25,.02,.51,.21,.74,.31,.36,.17,.69,.19,1.07,.19-.1-.08-.09-.27,.06-.3,.24-.06,.48-.03,.72-.09,.25-.07,.47-.21,.69-.35,.15-.09,.28,.14,.13,.23-.45,.3-.88,.66-1.44,.56,.06,.07,.03,.21-.1,.21-.36,.02-.72,.09-1.07,.01-.36-.08-.6-.23-.9-.42-.15-.09-.11-.38,.1-.36Z"/>
      <path class="cls-4" d="M6.94,15.44l.02-.03c.06-.07,.14-.09,.21-.05,.32,.03,.58,.34,.79,.55,.12,.12-.04,.35-.19,.24-.11-.09-.22-.18-.34-.26-.12-.08-.25-.13-.37-.2-.11-.02-.2-.16-.12-.26Z"/>
      <path class="cls-15" d="M11.11,15.97c.08,0,.17-.01,.26-.02,0-.01,.01-.03,.03-.04,.2-.17,.35-.35,.62-.39,.31-.05,.63-.05,.91,.12,.24,.15,.79,.79,.4,1.04-.04,.02-.1,.03-.14,0-.19-.14-.23-.42-.41-.59-.16-.15-.38-.18-.59-.2-.16-.02-.28,0-.4,.05,.16,.03,.32,.13,.46,.21,.27,.17,.65,.37,.66,.72,0,.19-.27,.27-.36,.1-.12-.23-.35-.38-.55-.54-.28-.22-.54-.26-.89-.27-.13,0-.13-.19,0-.19Z"/>
      <path class="cls-15" d="M10.89,15.99s.04,.07,0,.07-.04-.07,0-.07Z"/>
      <path class="cls-15" d="M12.18,18.65c.17-.05,.34-.08,.52-.09,.12,0,.17,.04,.23-.07,.03-.06,.02-.19,.02-.26,0-.39-.1-.69-.3-1.02-.05-.08,.06-.14,.12-.09,.39,.3,.56,.92,.55,1.39-.01,.56-.73,.59-1.15,.49-.19-.04-.17-.31,0-.36Z"/>
      <path class="cls-15" d="M9.35,16.61c.14,.07,.19,.23,.28,.35,.1,.14,.22,.28,.33,.41,.04-.09,.15-.16,.27-.1,.3,.15,.61,.27,.87,.48,.28,.22,.49,.55,.71,.83,.12,.15-.08,.37-.22,.22-.24-.27-.47-.61-.78-.79-.24-.14-.58-.21-.78-.41-.04,.07-.14,.11-.21,.03-.23-.25-.56-.53-.66-.87-.04-.12,.1-.21,.2-.16Z"/>
      <path class="cls-4" d="M6.89,14.84c.18-.42,.37-.91,.62-1.29,.08-.11,.19-.23,.31-.33,.25-.48,.47-.97,.82-1.4,.14-.17,.36-.38,.59-.35,.2,.03,.32,.21,.31,.4,0,.01,0,.02,0,.03,0,0,.01-.01,.02-.02,0,0,0,0,0,0,0-.02,0-.04,0-.07,0-.13-.01-.27,0-.41,0-.24,.16-.62,.47-.44,.06,.03,.11,.11,.1,.17-.01,.09-.05,.14-.09,.22-.03,.07-.03,.16-.04,.23-.01,.07-.03,.14-.05,.22,.02,0,.03,.02,.05,.03,.05-.08,.11-.15,.16-.22,.18-.23,.4-.48,.72-.32,.15,.07,.13,.25,.05,.36-.11,.14-.29,.22-.43,.32-.02,.01-.03,.03-.05,.04,.08,.03,.15,.09,.22,.17,.08,.1,.03,.22-.05,.27,.07,.02,.14,.05,.2,.1,.15-.1,.31-.16,.49-.11,0,0,0,0,.01,0,.22-.05,.44-.04,.67,.09,.12,.06,.15,.22,.08,.33,.1,.06,.17,.15,.12,.29,0,0,0,.01-.01,.02,.02,0,.05,.02,.07,.03,.07,.03,.11,.11,.12,.19,.07-.02,.15-.03,.22-.02,.14,0,.21,.1,.33,.15,.16,.07,.11,.33-.05,.36-.14,.03-.25-.02-.36-.1-.09-.07-.2-.07-.31-.07,0,.05-.03,.09-.06,.12,0,0,0,0,0,0,0,0,.02,.02,.03,.02,.07,0,.13,0,.19,0,.12,.02,.2,.06,.28,.13,.01,0,.03,0,.04,0,.21,.01,.42,.22,.54,.38,.05,.07,.02,.18-.04,.22-.07,.06-.16,.04-.23-.01-.1-.08-.2-.17-.31-.24-.02,.01-.05,.02-.07,.02-.01,0-.03,0-.04,0,0,.01,.01,.03,.01,.04,0,.08,0,.15,.01,.23,.03,.02,.06,.05,.09,.09,.13,.03,.22,.1,.25,.26,.03,.14-.09,.28-.24,.24-.08-.02-.16-.05-.23-.07,0,.01-.01,.03-.02,.04-.08,.1-.18,.2-.3,.27-.37,.47-.89,.77-1.5,.7-.12,.17-.31,.32-.53,.51-.18,.16-.46,.14-.59-.08-.07-.06-.1-.11-.1-.16-.06,0-.11-.02-.17-.04-.1,.07-.23,.09-.37,0-.12-.08-.45-.27-.73-.44-.03,0-.05-.01-.08-.01-.1-.02-.16-.07-.2-.14-.03-.01-.05-.03-.08-.04-.13,0-.26-.02-.44-.11-.02,0-.03-.02-.05-.04-.07,0-.13-.05-.15-.13-.05-.18-.1-.33-.11-.45-.07-.02-.12-.12-.09-.2Z"/>
      <path class="cls-5" d="M10.6,12.38c.16-.13,.36,.07,.22,.22-.05,.06-.12,.11-.19,.14-.07,.04-.1,.07-.15,.14-.09,.12-.3,.09-.29-.08,0-.25,.24-.3,.4-.42Z"/>
      <path class="cls-5" d="M7.01,15.02c.03-.38,.16-.66,.4-.95,0-.01,.02-.02,.03-.03,.03-.07,.05-.14,.06-.19,.03-.22,.25-.27,.42-.19,.09-.5,.19-1.05,.57-1.32,.18-.13,.45,.13,.31,.31-.21,.28-.3,.61-.4,.93,.05-.05,.1-.09,.14-.13,.21-.21,.41-.43,.6-.66-.09,.03-.21,0-.22-.12-.04-.29,.09-.57,.11-.85,.02-.2,.34-.29,.39-.05,.03,.15,0,.28-.04,.42-.04,.16-.06,.33-.11,.48,0,0,0,0,0,0,.13-.05,.28,.14,.17,.29-.1,.12-.19,.26-.27,.4,.07,.04,.11,.1,.12,.18,.1-.14,.2-.28,.3-.43,.19-.28,.6-.04,.45,.26-.04,.08-.08,.16-.12,.24,.11-.1,.21-.2,.32-.3,.05-.05,.12-.06,.18-.05,.1-.06,.2-.13,.3-.2,.14-.1,.31,.12,.18,.23-.1,.09-.21,.18-.32,.26,0,0,0,0,0,.01-.15,.2-.29,.4-.44,.6,.2-.15,.42-.27,.6-.45,.07-.07,.16-.04,.21,.02,.06-.03,.13-.06,.2-.1,.16-.08,.32-.19,.46-.3,.18-.14,.42,.08,.25,.25-.13,.14-.27,.26-.42,.37-.08,.06-.15,.1-.23,.14,.18-.02,.35,0,.53,.02,.08,.01,.23,.07,.3,.03,.14-.07,.32,.12,.18,.24-.12,.1-.27,.11-.42,.11-.03,0-.06,0-.09,0,.07,.05,.13,.12,.17,.2,.13,0,.26,0,.39,0,.23,0,.23,.36,0,.36-.14,0-.27,0-.41,0-.02,.03-.04,.06-.06,.09-.1,.11-.22,.19-.36,.25,0,.08-.05,.17-.15,.18-.01,0-.03,0-.04,0,.02,0,.03,0,.05,0,.22,.03,.17,.4-.05,.39-.19-.01-.39-.03-.58-.04,.04,.12-.02,.29-.18,.27-.34-.04-.67-.08-1.01-.14-.08,0-.16,0-.23,0,.27,.18,.49,.36,.84,.39,.18,.01,.18,.29,0,.28-.04,0-.08,0-.11,0,.03,.14-.07,.31-.26,.25-.27-.08-.53-.17-.79-.29-.24-.11-.42-.26-.63-.42-.08-.06-.11-.14-.11-.22-.03-.03-.05-.05-.08-.08-.02,0-.03,0-.05-.02-.06-.04-.08-.09-.12-.14,0,0,0,0-.01-.01-.02,.07-.04,.14-.12,.21-.16,.13-.45,.11-.49-.13-.04-.17-.03-.36,0-.52,0,0,0-.01,0-.02-.17-.01-.33-.13-.31-.34Z"/>
      <path class="cls-16" d="M9.11,14.45c.02-.06,.02-.12,.03-.18,.01-.08,.04-.15,.07-.23,.06-.15,.14-.3,.22-.45,.09-.2,.44-.06,.36,.15-.06,.16-.14,.32-.19,.49-.04,.14-.06,.28-.18,.38-.12,.11-.37,0-.3-.17Z"/>
      <path class="cls-16" d="M9.68,13.08c.06-.09,.07-.22,.11-.32,.07-.21,.39-.13,.33,.09-.05,.18-.06,.33-.22,.45-.13,.1-.32-.1-.23-.23Z"/>
      <path class="cls-16" d="M8.9,12.69c.1-.13,.34,0,.28,.16-.06,.15-.12,.3-.18,.45-.05,.12-.14,.24-.17,.37-.06,.25-.41,.18-.43-.06-.02-.35,.3-.67,.5-.92Z"/>
      <path class="cls-16" d="M7.08,14.17c.05-.12,.19-.13,.29-.08,.01-.04,.03-.07,.04-.1,.07-.18,.15-.42,.35-.49,.13-.04,.22,.09,.2,.2-.01,.07-.06,.13-.08,.2-.03,.07-.04,.15-.05,.23-.03,.14-.03,.33-.14,.43-.03,.02-.06,.04-.09,.05,0,.04,0,.07,0,.11,.05,.02,.09,.04,.12,.09,0,0,0,0,.01,0,0-.07,.02-.14,.03-.21,.04-.28,.13-.49,.24-.75,.06-.13,.24-.07,.28,.04,.07,.2,0,.51,0,.72,0,.22,.03,.45-.01,.66,.03,.03,.06,.06,.08,.09,0,0,0,0,0,.01-.07-.16-.03-.37,.05-.58-.02-.21,.02-.43-.02-.64-.04-.2,.25-.36,.35-.15,.02,.04,.04,.08,.05,.12,.16-.18,.42,.06,.32,.26-.09,.18-.14,.37-.17,.57,0,.06,0,.11,0,.17,.03-.03,.07-.05,.1-.08,.11-.08,.29-.17,.35-.3,.03-.08,.15-.11,.23-.09,.09,.03,.14,.1,.15,.19,.01,.09,0,.17-.04,.24,.19-.08,.37-.17,.55-.27,.12-.06,.22,0,.26,.1,.05,0,.11,.01,.16,.02,0-.08,.04-.16,.12-.21-.1-.04-.18-.19-.07-.28,.21-.18,.45-.3,.67-.44,.15-.09,.27,.13,.13,.23-.16,.11-.3,.23-.45,.35,.05-.03,.11-.05,.17-.07,.07-.02,.14-.03,.2-.05,.05-.02,.09-.05,.14-.07,.08-.02,.17,.02,.19,.11,.04,.2-.18,.3-.33,.38-.08,.04-.16,.1-.24,.15,.1,.02,.19,.03,.29,.04,.21,.03,.22,.35,0,.34-.19,0-.38-.02-.58-.04,.06,.12-.01,.29-.18,.3-.34,.01-.67,.03-1.01,.09-.19,.04-.38,.08-.57,.09,.33,.11,.67,.15,1,.26,.15,.05,.15,.26,0,.31-.27,.08-.58,.06-.87,0-.02,.07-.09,.13-.17,.08-.09-.06-.18-.12-.27-.18-.02,0-.04,0-.05-.01-.37-.08-.76-.14-.97-.49-.01-.02-.02-.04-.03-.06,0,0,0,0,0,0-.26,.18-.53-.07-.58-.32-.04-.17,0-.35,0-.52,0-.05,.02-.08,.03-.12-.05-.02-.1-.07-.12-.13-.07-.18-.13-.34-.05-.53Z"/>
      <path class="cls-4" d="M10.44,12.18c.09-.11,.24-.2,.36-.27,.07-.04,.14-.1,.22-.14,.09-.05,.17-.05,.27-.08,.25-.06,.39,.23,.24,.41-.1,.12-.29,.18-.43,.23-.11,.04-.26,.06-.35,.14-.21,.18-.47-.09-.3-.3Z"/>
      <path class="cls-4" d="M9.14,11.06c.04-.19,.33-.18,.37,0,.04,.19,.12,.46-.03,.62-.06,.06-.19,.07-.25,0-.13-.15-.13-.43-.09-.62Z"/>
      <path class="cls-14" d="M9.79,17.09c0-.17,.15-.33,.32-.32,.02,0,.03,0,.04,0,.03-.04,.07-.08,.11-.1,.1-.05,.16-.08,.27-.09,0,0,.02,0,.04,0,.03-.03,.07-.05,.11-.06,.23-.07,.47-.07,.7-.12,.02,0,.04-.02,.07-.03,0,0,.03,0,.06,0,.06-.02,.13-.04,.19-.06-.09-.23,.13-.55,.46-.4,0,0,.01,0,.02,.01,.03-.13,.14-.24,.27-.27,0,0,0,0,0,0,0,0,0,0,0,0,.13-.12,.27-.22,.45-.27,.06-.02,.13-.03,.19-.03,0,0,.01,0,.02-.01,.07-.05,.15-.02,.2,.03,.1,.02,.2,.05,.28,.11,.1,.07,.1,.23,.02,.3,.07,.04,.13,.09,.19,.14,.12,.12,0,.29-.13,.29,.19,.16,.36,.35,.52,.54,.07,.09,0,.23-.1,.23,.05,.03,.1,.07,.15,.1,.19,.12,.02,.39-.17,.3-.07-.04-.15-.07-.22-.11,0,.02,0,.03,0,.05,0,.02,0,.04-.01,.05,.13,.14,.24,.29,.35,.45,.11,.17-.14,.35-.28,.21-.16-.15-.34-.3-.53-.42,0,0,0,0-.01,0,.02,.02,.05,.05,.07,.07,.14,.16,.22,.36,.3,.56,.05,.14-.07,.23-.19,.23,.03,.05,.06,.1,.09,.16,.04,.07,.09,.15,.02,.22,0,0,0,0,0,0-.04,.04-.12,.06-.17,.02-.12-.07-.22-.17-.33-.25-.05-.04-.11-.08-.16-.11-.01,.04-.03,.07-.05,.1,.1,.14,.19,.29,.29,.43,.09,.14-.12,.31-.24,.18-.05-.06-.1-.11-.15-.16-.04,.06-.11,.11-.19,.13-.21,.05-.38-.03-.55-.12-.07,.03-.16,.04-.24,.03-.23-.05-.37-.23-.52-.38-.01-.01-.02-.02-.03-.03-.04,.14-.25,.2-.33,.05-.06-.11-.14-.24-.22-.39,0,.06,0,.12,.01,.17,.02,.23-.33,.26-.39,.05-.07-.28-.15-.56-.26-.82-.02-.06-.05-.11-.07-.16-.17-.14-.29-.27-.3-.49Z"/>
      <path class="cls-15" d="M13.7,16.68s.02,0,.04,0c.22-.03,.23,.36,0,.35-.08,0-.14-.02-.2-.06-.17-.12-.03-.38,.17-.28Z"/>
      <path class="cls-15" d="M10.27,17.19s0-.02,0-.03c0-.06,.02-.12,.05-.16,.02-.14,.12-.26,.26-.33,.03-.02,.05-.03,.07-.03,.03-.04,.07-.08,.12-.11,.11-.08,.27-.15,.4-.21,.18-.07,.36-.07,.54-.07-.02-.11,.03-.22,.16-.27,.25-.09,.56-.03,.82,0,.03,0,.06,.01,.09,.02-.03-.08,0-.16,.1-.18,.18-.03,.34-.18,.53-.14,.1,.02,.15,.18,.06,.24-.09,.07-.22,.13-.34,.17,.08,.03,.17,.07,.25,.12,.1,.07,.07,.26-.07,.25-.13,0-.26,0-.39,0,.21,.07,.41,.16,.52,.3,.07,.09,.03,.25-.1,.24-.15-.01-.3-.06-.45-.09,.16,.1,.33,.19,.49,.29,.18,.11,.06,.44-.15,.36-.07-.03-.14-.05-.21-.08,0,.02,.01,.04,.02,.06,0,.01,0,.02,0,.04,.16,.07,.31,.13,.47,.19,.21,.08,.13,.39-.09,.34-.24-.05-.5-.1-.72-.21-.02,0-.04,0-.06,0,.22,.15,.4,.34,.6,.53,.15,.14-.05,.42-.23,.3-.17-.12-.33-.25-.5-.36-.17-.11-.32-.18-.44-.36-.12-.18,.09-.33,.25-.28-.02-.03-.05-.05-.07-.08-.05,.12-.22,.17-.32,.03-.03-.05-.07-.09-.1-.13,.13,.33,.19,.69,.31,1.02,.09,.24-.26,.36-.39,.16-.21-.33-.39-.68-.54-1.05,0-.01-.01-.02-.02-.04,0,0-.01,0-.02,0,.03,.04,.05,.08,.07,.12,.09,.18-.1,.42-.29,.31-.08,.12-.29,.13-.36-.05-.03-.08-.05-.15-.08-.23-.03-.04-.07-.08-.1-.12l-.02-.03s.02,.03-.04-.05c0,0,0,0,0,0,0,0,0,0,0,0-.09-.11-.12-.26-.05-.38Z"/>
      <path class="cls-9" d="M9.88,16.99c.05-.1,.18-.17,.29-.14,.03-.02,.06-.05,.09-.06,.08-.03,.17-.02,.25,.01,0,0,0-.02,0-.03-.06-.1-.08-.23,.03-.32,.33-.29,.86-.1,1.25-.08,.11,0,.17,.09,.17,.18,.1,.04,.19,.08,.29,.12,.21,.08,.41,.21,.53,.41,.02,.04,.03,.1,0,.14l-.02,.03s-.06,.05-.11,.04c-.08-.01-.14-.07-.21-.1-.12-.05-.24-.05-.36-.07-.09-.01-.16-.03-.24-.05,.04,.1,0,.24-.09,.29,0,.14-.12,.28-.27,.18-.08-.06-.16-.11-.24-.16-.04,0-.08,0-.12-.01,.02,.03,.03,.07,.02,.11-.08,.22-.37,.21-.56,.15-.04-.01-.08-.03-.12-.05-.01,.14-.22,.22-.32,.07-.08-.12-.19-.21-.26-.34-.05-.1-.08-.22-.02-.32Z"/>
      <path class="cls-2" d="M13.79,16.19c.1,.03,.19,.05,.3,.06,.11,.01,.19,.04,.26,.13,.07,.08,0,.25-.12,.2-.18-.07-.44-.08-.56-.24-.05-.08,.04-.17,.11-.15Z"/>
      <path class="cls-2" d="M13.8,17.15c.16,.04,.31,.24,.4,.37,.1,.15-.11,.29-.24,.18-.11-.09-.28-.26-.31-.4-.02-.09,.06-.17,.15-.15Z"/>
      <path class="cls-2" d="M13.58,18.08c.14,.16,.41,.36,.39,.59-.01,.13-.21,.22-.28,.08-.03-.07-.11-.14-.15-.2-.07-.09-.15-.18-.22-.27-.11-.15,.14-.34,.26-.2Z"/>
      <path class="cls-2" d="M11.69,18.16c.09-.05,.24-.03,.29,.08,.08,.19,.17,.37,.16,.58,0,.21-.31,.26-.37,.05-.04-.14-.09-.28-.15-.42-.05-.1-.03-.22,.08-.29Z"/>
      <path class="cls-2" d="M10.61,18c.25,0,.25,.39,0,.39s-.25-.39,0-.39Z"/>
      <path class="cls-6" d="M5.74,15.1c.05-.08,.11-.18,.19-.24,.02-.02,.1-.03,.11-.04,.03-.05,.13-.05,.14,.02,.03,.22-.12,.47-.17,.68-.09,.38,.1,.8,.19,1.18,.03,.12-.1,.22-.21,.16-.32-.17-.51-.8-.48-1.14,.02-.23,.11-.43,.23-.62Z"/>
      <path class="cls-6" d="M4.94,15.59c.07-.25,.18-.42,.41-.55,.07-.04,.15,.01,.16,.09,0,.09-.02,.15-.05,.23-.03,.07-.1,.26-.08,.33,0,.02,.09,.13,.11,.18,.04,.1,.05,.18,.03,.29-.02,.13-.23,.16-.29,.04-.1-.21-.35-.34-.28-.6Z"/>
      <path class="cls-6" d="M8.36,16c.03-.06,.1-.05,.14-.02,.31,.26,.78,1.07,.8,1.48,.02,.31-.23,.55-.27,.84-.07,.57,.14,1.29,.15,1.88,0,.17-.27,.22-.3,.04-.1-.53-.22-1.11-.27-1.64-.03-.4,.15-.56,.19-.94,.06-.52-.7-1.12-.45-1.64Z"/>
      <path class="cls-6" d="M7.6,15.9c-.03-.08,.07-.15,.14-.11,.3,.2,.56,.75,.61,1.1,.02,.16-.04,.24-.08,.39-.06,.22-.07,.71-.01,.94,.04,.17-.19,.27-.28,.12-.16-.27-.19-.89-.11-1.19,.08-.31,.05-.32-.08-.67-.07-.19-.12-.38-.18-.57Z"/>
      <g>
        <path class="cls-12" d="M7.9,11.93c.49-.84,.67-1.78,.9-2.71,.19-.76,.54-1.39,.91-2.08,.77-1.46,2.03-2.9,3.15-4.1,.99-1.05,2.16-1.03,3.53-1.09,.74-.03,2.24-.48,2.32,.69,.04,.57-.28,1.4-.42,1.95-.16,.61-.27,1.23-.46,1.84-.23,.76-.29,1.61-.52,2.34-.15,.5-.25,.66-.73,.94-1.35,.79-2.93,.57-4.41,.84-1.1,.2-1.92,.59-2.85,1.22-.31,.21-.66,.6-1.06,.47-.06-.02-.12-.06-.17-.11-.12,.05-.28-.06-.2-.2Z"/>
        <path class="cls-13" d="M8.4,11.38s.02-.01,.02-.02c-.08-.02-.15-.09-.12-.2,.46-1.68,.76-3.32,1.75-4.81,.95-1.43,2.25-3.22,3.97-3.73,.06-.02,.1,.06,.05,.09-1.53,1.05-2.73,2.66-3.68,4.24-.79,1.32-1.02,2.88-1.72,4.23,.15-.09,.33-.17,.5-.24-.17-.08-.27-.33-.11-.47,.3-.29,.72-.45,1.16-.57,.45-1.23,1.41-2.4,2.32-3.3,.89-.87,1.85-1.95,2.99-2.47,.06-.03,.11,.08,.05,.11-1.04,.58-1.99,1.72-2.8,2.58-.82,.87-1.51,1.87-2.07,2.94,.2-.05,.39-.11,.57-.18,.96-.38,1.94-.54,2.97-.6,.12,0,.16,.18,.04,.21-.89,.26-1.81,.56-2.65,.95-.44,.21-.91,.34-1.36,.48,.09-.02,.18-.04,.27-.05,1.06-.2,2.06-.42,3.11-.7,.82-.22,1.7-.46,2.38-.98,.93-.7,1.05-1.92,1.43-2.94,.03-.09,.18-.05,.19,.04,.02,.77-.19,1.79-.51,2.49-.34,.76-1.17,1.23-1.88,1.61-.89,.47-2.12,.78-3.1,1.02-.54,.13-1.05,.12-1.58,.21-.65,.12-1.28,.41-1.94,.54-.31,.06-.5-.29-.24-.5Z"/>
        <path class="cls-13" d="M13.69,8.44c1.26-.83,2.28-1.73,3.14-2.96,.03-.05,.11,0,.08,.06-.68,1.35-1.73,2.41-3.1,3.1-.13,.07-.26-.11-.13-.19Z"/>
        <path class="cls-1" d="M8.38,11.62c.07-.05,.13-.1,.2-.14-.09-.03-.15-.12-.14-.24,.15-1.22,.5-2.49,1.1-3.56,.57-1.01,1-2.25,1.95-2.99,.04-.03,.08,.03,.05,.06-.85,.92-1.22,2.27-1.7,3.4-.28,.65-.38,1.39-.56,2.09,.13-.16,.27-.31,.42-.42-.05-.04-.09-.1-.07-.18,.25-1.51,1.45-2.45,2.38-3.53,.06-.06,.17,.01,.12,.09-.31,.5-.73,.89-1.08,1.36-.48,.66-.8,1.39-1.07,2.16,0,.03-.02,.05-.04,.06,.01,.02,.02,.05,0,.08-.13,.33-.38,.65-.56,.96-.05,.09-.1,.18-.15,.28,.28-.12,.56-.21,.85-.3-.13-.03-.21-.19-.11-.33,0,0,0,0,0,0,0-.01,0-.02,.02-.03,.16-.22,.33-.42,.52-.61,.09-.09,.19-.17,.27-.26,.07-.08,.12-.14,.23-.15,.04,0,.08,0,.11,.03,.1-.07,.2-.15,.3-.22,.86-.65,1.59-1.46,2.34-2.24,.05-.05,.13,.02,.08,.08-.71,.77-1.4,1.54-2.1,2.32-.41,.45-.89,1.04-1.43,1.36,.14-.04,.28-.08,.42-.12,.17-.05,.35-.1,.52-.15,.5-.19,1.01-.39,1.49-.63,1.24-.62,2.2-1.58,3.16-2.57,.06-.06,.18,.01,.13,.09-.63,.95-1.37,1.83-2.29,2.51,.04,0,.08-.02,.12-.02,.12-.02,.19,.15,.06,.18-.26,.07-.52,.15-.77,.23-1.06,.63-2.52,1.45-3.75,1.47-.04,0-.07-.01-.1-.03-.24,.14-.46,.3-.72,.43-.31,.15-.48-.32-.25-.51Z"/>
        <path class="cls-8" d="M13.18,4.33c.38-.69,.98-1.32,1.73-1.61,.68-.26,1.63-.53,2.36-.45,.09,0,.14,.08,.16,.16,.07-.02,.14,0,.2,.03-.01-.03-.03-.06-.05-.08-.06-.05-.16-.07-.23-.1-.09-.04-.05-.16,.04-.17,.21-.03,.38-.04,.53,.14,.06,.07,.09,.15,.12,.23,.09-.13,.31-.1,.38,.06,.19,.47-.03,1.05-.16,1.51-.15,.51-.38,1.02-.66,1.48-.06,.1-.24,.05-.2-.07,.26-.81,.36-1.65,.52-2.47-.05,0-.09-.03-.11-.08-.04-.06-.06-.13-.09-.19,0,.01,0,.03-.01,.04-.28,.58-.85,1.08-1.26,1.57-.53,.61-1.09,1.17-1.61,1.79-.08,.1-.22-.03-.14-.13,.5-.68,.99-1.36,1.49-2.04,.18-.24,.44-.74,.73-1.1-.41,.11-.84,.12-1.27,.21-1,.21-1.72,.5-2.35,1.36-.04,.06-.14,0-.11-.07Z"/>
      </g>
      <path class="cls-12" d="M9.92,3.81s.07,0,.05,.03c-.35,.79-.45,1.7-.67,2.54-.03,.13-.06,.26-.09,.38,.08-.26,.18-.51,.28-.77,.04-.11,.22-.07,.18,.05-.2,.61-.22,1.26-.27,1.9-.02,.22-.33,.22-.35,0,0-.05,0-.11,0-.16-.05,.47-.05,.93-.04,1.45,0,.18-.27,.27-.35,.09-.77-1.76,.35-3.98,1.25-5.51Z"/>
      <path class="cls-3" d="M10.54,4.11c.29-.93,.23-2.4,1.23-2.91,.15-.08,.39,.1,.26,.26-.28,.37-.54,.67-.73,1.1-.23,.53-.42,1.05-.6,1.6-.03,.1-.2,.06-.16-.04Z"/>
      <path class="cls-3" d="M11.57,3.02c.16-.31,.24-.6,.35-.92,.07-.2,.11-.48,.35-.53,.17-.04,.27,.15,.16,.28-.14,.18-.22,.42-.32,.62-.11,.22-.28,.42-.39,.64-.05,.1-.2,.01-.15-.09Z"/>
      <path class="cls-3" d="M10.45,5.11c.21-.64,.43-1.31,.91-1.81,.03-.06,.15-.03,.13,.06-.07,.32-.21,.6-.33,.9-.12,.33-.18,.75-.42,1.02-.12,.13-.35,0-.3-.17Z"/>
    </g>
  </g>
</svg>