<?xml version="1.0" encoding="UTF-8"?>
<svg id="Layer_2" data-name="Layer 2" xmlns="http://www.w3.org/2000/svg" viewBox="0 0 61.81 72.24">
  <defs>
    <style>
      .cls-1 {
        fill: #89914b;
      }

      .cls-2 {
        fill: #5e6233;
      }

      .cls-3 {
        fill: #708646;
      }

      .cls-4 {
        fill: #444625;
      }

      .cls-5 {
        fill: #c2cc7e;
      }

      .cls-6 {
        fill: #445327;
      }

      .cls-7 {
        fill: #576a33;
      }

      .cls-8 {
        fill: #e8eeb3;
      }
    </style>
  </defs>
  <g id="_Ådalen_Gård_sommerhonning" data-name="Ådalen Gård, sommerhonning">
    <g>
      <path class="cls-1" d="M24.68,34.36c2.05-.74,4.27-.39,6.35-.13,2.82,.36,5.61,1.12,8.47,1.22,5.2,.18,9.61-2.2,14.36-5.14,.35-.21,.37-.71,.18-.98-3.29-4.72-9.34-6.27-14.82-5.31-4.6,.81-8.42,3.54-12.16,6.75,3.83-4.46,7.91-8.66,12.39-12.14,.58-.45,1.16-.89,1.75-1.32,.91-.08,1.97,.2,2.69,.3,1.11,.16,2.14,.23,3.28,.2,2.02-.05,3.75-.41,5.63-1.66,1.69-1.13,3.17-2.56,4.55-4.17,1.25-1.46,3.76-3.5,4.33-5.46,.09-.32-.03-.59-.23-.75-1.41-1.12-4.19-1.15-5.99-1-1.91,.16-3.94,.7-5.75,1.68-1.91,1.03-3.59,2.28-5.11,4.02-1.43,1.63-2.21,3.4-3.18,5.33-.73,.49-1.45,.99-2.15,1.51-4.25,3.09-8.13,6.88-11.78,10.92,1.9-2.77,3.82-5.71,5.11-8.87,1.22-2.99,2.1-6.03,2.47-9.19,.33-2.82-.27-5.5-.52-8.19-.04-.44-.55-.65-.89-.38-.97,.77-1.72,2.02-2.63,2.93-.99,.99-1.9,2.03-2.71,3.22-1.86,2.7-3.32,5.42-4.39,8.56-1.3,3.82-1.82,7.69-2.33,11.57-.31,2.32-.62,4.65-1.09,6.97-.73,1.34-1.49,2.66-2.28,3.99-1.03,1.73-2.4,3.57-3.26,5.49-1.19,1.77-2.35,3.57-3.47,5.37-.54,.86-1.07,1.73-1.59,2.6,.44-1.14,1.07-2.33,1.56-3.36,.68-1.43,1.16-2.9,1.65-4.4,1-3.08,1.81-6.2,2.56-9.33,.73-3.07,.72-6.06,.37-9.02-.3-2.56-1.37-4.68-1.62-7.27-.04-.43-.5-.56-.82-.34-.95,.63-1.79,2.16-2.48,3.14-1.04,1.46-1.85,3-2.55,4.69-1.18,2.84-1.71,5.66-1.65,8.61,.06,3.15,0,6.24,.68,9.23,.87,3.91,1.23,7.15,.35,11.32-2.93,5.02-5.68,10.23-7.91,15.58-.38,.9,.61,1.6,1.09,.68,2.78-5.27,5.43-10.58,8.34-15.76,.22-.28,.45-.56,.68-.83,1.93-.86,4.32-.2,6.35,0,3.09,.3,5.97-.4,9.1-1.1,2.56-.58,4.89-1.67,7.32-2.97,1.28-.68,2.53-1.45,3.78-2.22,.98-.6,2.34-1.15,3.13-2.09,.21-.25,.22-.58,.06-.81-.64-.9-1.99-1.5-2.88-2.08-1.05-.68-2.22-1.15-3.39-1.55-2.64-.9-5.41-.94-8.29-.21-4.18,1.06-8.46,3.66-11.9,7.19,2.96-4.74,6.15-9.37,9.56-13.72,.55-.43,1.09-.86,1.64-1.29Z"/>
      <path class="cls-5" d="M35.2,11.7c.12-1.47,.17-2.9-.06-4.3-.04-.27-.07-.54-.1-.81,.02-.15,.05-.31,.06-.46,.02-.26-.03-.44-.13-.57-.03-.88-.03-1.76-.15-2.64-.07-.53-.62-.56-.93-.22,.07-.2-.16-.32-.28-.17-.07,.08-.13,.17-.2,.25-.05-.06-.14-.08-.21,.02-1.78,2.45-4.32,3.78-6.05,6.41-1.74,2.64-2.18,5.28-1.55,8.17,.1,.45,.65,.31,.71-.16,.19-1.48,.25-2.88,.77-4.33,.56-1.56,1.47-2.93,2.43-4.22,.11-.14,.21-.27,.32-.41-.13,.3-.25,.61-.36,.95-.1,.3,.24,.5,.43,.27,.87-1.06,1.82-2.22,2.6-3.35,.47-.68,.76-1.47,1.01-2.26-.19,1.04-.2,2.01-.15,2.98-.83,2.47-1.1,5.11-2.02,7.59-.09,.25,.21,.43,.37,.23,.69-.89,1.28-1.66,1.76-2.57-.27,2.83-1.04,5.69-1.95,8.43-.1,.29,.23,.38,.37,.16,1.63-2.5,3.06-6.02,3.31-8.99Z"/>
      <path class="cls-5" d="M17.03,29.1c-.05-1.99-.8-3.69-1.51-5.39,0-.2,.02-.4,.04-.6,.04-.44-.23-.65-.53-.62-.45-1.2-.8-2.42-.79-3.78,0-.27-.33-.31-.41-.03-.55,1.94-.18,3.67,.32,5.37-.17,1.08-.11,2.14-.2,3.25-.16,1.96-1.05,3.74-1.76,5.59-.08,.22,.19,.39,.32,.2,1.03-1.41,2.32-2.88,2.73-4.66,.09,.95,.06,1.86-.06,2.78-.31,1.12-.59,2.26-.93,3.37-.37,1.22-1.16,3.42-2.07,4.37-.18,.19,.01,.44,.2,.33,1.1-.65,1.93-1.74,2.55-3.01,.02-.02,.03-.03,.05-.05,1.35-1.91,2.11-4.82,2.05-7.11Z"/>
      <path class="cls-5" d="M8.03,33.22c-.45-3.64,1.17-7.18,3.07-10.39-.76,1.77-.82,3.72-.83,5.67,0,.3,.36,.27,.4-.03,.2-1.27,.49-2.62,.9-3.85,.38-1.16,1.05-2.21,1.47-3.35,.18-.49-.38-.78-.69-.43-.43,.5-.77,1.02-1.05,1.56-.03-.06-.1-.09-.16-.03-2.46,2.88-5.2,7.44-3.66,11.15,.14,.34,.59,.07,.55-.29Z"/>
      <path class="cls-5" d="M56.03,31.25c-1.43-1.86-2-3.95-4.04-5.19-2.13-1.28-4.35-2.11-6.77-2.62-2-.42-4.32-.24-6.43,.14-1.42,.25-3.69,1.05-4.75,2.45-.61,.43-1.22,.9-1.9,1.41-.2,.15-.11,.56,.13,.44,2.79-1.46,5.69-2.32,8.6-2.44-.73,.64-1.34,1.52-2.06,2.24-.12,.12-.02,.34,.12,.28,1.09-.48,2.15-1.52,3.28-1.73,1.44-.27,2.82,.11,4.19,.32,.21,.03,.4-.03,.54-.15,1.74,.64,3.37,1.55,4.99,2.58-1.37-.06-2.91,.41-4.4,.76-.38-.08-.76-.18-1.16-.25-.41-.07-1.04-.17-1.46,.04-.41,.2-.33,.38-.56,.72,0,.01-.01,.04,0,.06,.03,.04,.05,.08,.08,.12,.06,.1,.17,.19,.3,.13,.53-.27,1.37,.43,1.77,.64,.47,.24,.94,.35,1.46,.44,.66,.11,1.33,.13,2,.03,.4,.04,.8,.03,1.23-.05,1.09-.19,2-.58,3.06-.61,.02,0,.04,0,.06,0,.47,.32,.98,.57,1.53,.63,.18,.02,.32-.22,.2-.38Z"/>
      <path class="cls-5" d="M61.67,6.47c.15-.25,.18-.63,.06-.86-.56-1.03-2.22-1.09-3.21-1.23-1.73-.25-3.54,0-5.32,.46-3.04,.77-6.12,2.63-8.07,5.73-.21,.33,.17,.58,.4,.35,2-1.92,4.49-3.12,6.88-3.85,.34-.11,.69-.2,1.05-.29-1.03,1.01-1.65,2.25-2.43,3.7-.14,.25,.1,.58,.33,.39,1.2-1,2.28-2.18,3.58-3,1.34-.83,2.71-.91,4.09-1.39,.38,.03,.76,.07,1.07,.16-.88,2.25-2.41,3.1-4.37,4.07-.37,.18-.39,.85,.04,.81,1.3-.12,2.49-.55,3.62-1.54,1.03-.9,1.57-2.3,2.28-3.51Z"/>
      <path class="cls-5" d="M41.55,46.34c-1.87-1.39-4.16-2.2-6.2-3.28-.94-.5-1.88-.83-2.85-1.02-4.3-1.44-9.74,.16-13.67,3.46-.21,.17-.13,.62,.14,.48,1.97-1.04,4.29-1.82,6.36-2.22,.37-.07,.73-.11,1.08-.14-.71,.56-1.13,1.42-1.8,2.02-.2,.18-.12,.51,.13,.44,.73-.2,1.3-.7,2.01-.99,.64-.26,1.23-.24,1.87-.23,1.57,.03,3.1,.28,4.68,.23,.68,.26,1.37,.52,2.06,.81,1.87,.78,3.94,1.56,6.08,1.08,.28-.06,.29-.5,.11-.64Z"/>
      <path class="cls-8" d="M34.89,.15c0-.18-.21-.2-.27-.02-.17,.5-.34,.94-.48,1.35-.86,1.48-2.39,2.25-3.58,3.28-.42,.37-.82,.78-1.2,1.23-.14,.13-.27,.27-.4,.39-1.49,1.51-2.41,3.63-2.75,5.75-.03,.21,.24,.26,.33,.08,.98-1.94,2.25-3.56,3.79-4.89-.06,.19-.12,.38-.17,.58-.05,.18,.13,.3,.25,.16,.48-.57,.83-1.2,1.25-1.81,.44-.36,.87-.73,1.25-1.17,.35-.34,.64-.69,.89-1.05,.08,.73,.33,1.39,.35,2.13,.02,.98-.28,1.98-.52,2.94-.07,.28,.27,.45,.4,.17,1.43-3.1,.96-5.98,.86-9.11Z"/>
      <path class="cls-8" d="M15.79,32.78c.65-2.22,1.15-4.1,.95-6.34-.14-1.63-.6-3.13-1.21-4.52-.13-.88-.4-1.72-.52-2.61-.11-.8-.23-2.16,.03-3,.06-.21-.16-.26-.26-.11-1.13,1.63-1.37,4.14-.75,5.92,.08,.68,.26,1.33,.47,1.97,.15,1.12,.33,2.23,.17,3.42-.02,.15,.17,.24,.26,.11,.16-.23,.29-.48,.4-.73,.36,1.89,.2,3.86-.02,5.86-.04,.33,.39,.35,.49,.04Z"/>
      <path class="cls-8" d="M61.47,5.27c-.29-1.05-2.38-1.08-3.19-1.14-4.03-.3-7.25,.73-10.66,3.83-.14,.12-.02,.38,.14,.31,2.29-1.15,4.43-2.13,6.86-2.29,.03,0,.06,0,.08,0-.21,.23-.4,.49-.56,.79-.11,.2,.1,.37,.25,.22,.68-.69,1.69-.8,2.51-.87,1.13,.14,2.28,.31,3.36,.16-.15,.59-.39,1.62-.46,1.85-.11,.41,.36,.62,.57,.24,.39-.71,1.32-2.27,1.09-3.09Z"/>
      <path class="cls-8" d="M56.53,31.78c-.27-.61-.67-1.12-.99-1.69-.33-.59-.52-1.27-.86-1.85-.34-.58-.82-1.13-1.37-1.61-1.21-1.37-3.02-2.18-4.59-2.75-2.64-.96-5.49-.64-8.34-.25-.27,.04-.3,.49-.03,.49,4.33,.02,7.91,.84,11.1,3.35,.33,.41,.66,.84,.99,1.27-.86-.06-1.7,.37-2.53,.86-.16,.1-.12,.43,.07,.39,1.2-.27,2.24,.04,3.2,.68,.66,.44,1.28,.85,2.1,.86,.35,.2,.72,.36,1.12,.46,.09,.02,.17-.1,.13-.19Z"/>
      <path class="cls-8" d="M41.27,45.85c-1.97-1.14-4.09-2.28-6.3-2.95-3.95-1.9-9.07-2.51-12.89,.98-.1,.09,0,.22,.1,.17,1.64-.93,3.46-1.27,5.23-1.26-.28,.12-.56,.26-.83,.43-.18,.11-.07,.38,.1,.33,2.01-.56,4.04-.24,6.01,.3,1.19,.54,2.32,1.23,3.54,1.65,1.56,.63,3.2,1.02,4.9,.82,.21-.03,.32-.37,.14-.47Z"/>
      <path class="cls-3" d="M47.35,32.74c-.56-1.17-1.66-1.66-2.69-2.18-1.34-.68-2.68-1.36-4.17-1.66-1.31-.26-2.57-.3-3.83-.2,1.41-.81,2.36-1.95,3.53-3.67,.11-.17-.04-.4-.2-.33-.95,.46-1.73,1.28-2.65,1.81-1.15,.65-2.34,.77-3.53,1.12-2.21,.65-4.57,1.77-6.55,3.25-.09,.06-.15,.14-.21,.21-1.83,.82-3.58,1.9-5.13,3.3,.09-.19,.18-.38,.26-.57,.97-1.51,1.9-3.04,2.73-4.64,.98-1.9,1.57-3.98,2.09-6.05,1.61-3.75,2.19-8.1,1.47-11.83-.05-.24-.37-.18-.39,.09-.12,2.07-.83,4.56-1.26,6.62-.14,.68-.33,1.33-.54,1.96-.03,.03-.06,.05-.1,.09-.15,.16-.67,.79-.85,.78-.18,0-.38-.68-.45-.88-.14-.41-.19-.84-.22-1.3-.02-.23-.09-.53-.14-.81,.06-.33,.13-.66,.2-.99,.17-.75,.29-2.07,.66-2.74,.03-.06,0-.14-.06-.13-.75,.14-1.09,1.13-1.38,1.87-.87,2.24-1.57,4.78-1.82,7.13-.29,2.65-.28,4.97-.96,7.64-.69,2.69-1.49,5.28-2.59,7.82-.03,.05-.06,.1-.09,.15-.05,.08-.07,.16-.08,.23-.07,.15-.13,.3-.2,.45-.09,.19-.08,.35-.02,.47-.44,.64-.86,1.29-1.23,1.95-.25,.44,.23,.85,.55,.48,1.52-1.74,2.99-3.53,4.51-5.26,.86-.98,1.71-1.73,2.59-2.32,.51-.3,1.03-.57,1.55-.83,.67-.28,1.38-.49,2.16-.63,2.18-.39,4.03-.52,6.09-.01,1.27,.31,2.57,.52,3.79,.96,.14,.11,.29,.18,.44,.21,.03,0,.07,.02,.1,.02,.01,0,.02,0,.03,0h0c.25,.11,.49,.23,.73,.38,.2,.12,.42-.21,.28-.4-.16-.22-.32-.42-.5-.62,0-.19-.09-.36-.22-.46-.39-.29-.72-.94-.83-1.52,.41-.54,1.21-.53,1.74-.6,.06,0,.12-.02,.18-.02,2.36,.43,4.53,1.77,6.91,2,.16,.02,.34-.18,.25-.37Z"/>
      <path class="cls-3" d="M56.42,12.56c-1.75-1.04-4.87-1.02-6.92-.41-.63,.19-1.25,.43-1.86,.7,.7-.96,1.28-2.03,1.71-3.21,.07-.19-.15-.31-.27-.17-2.15,2.56-4.84,4.13-7.11,6.49-.02,.02-.03,.04-.05,.05-.86,.5-1.71,1.07-2.52,1.63-.99,.7-1.77,1.72-2.72,2.44-.12,.09-.06,.33,.08,.26,1.83-.95,3.6-2.02,5.45-2.94,.89-.45,1.57-.74,2.33-.87,1.06,.35,2.35,.39,3.42,.56,1.32,.2,2.36-.57,3.64-.86,.15-.03,.16-.31,.02-.33-.29-.06-.49-.31-.84-.37-.12-.12-.23-.24-.31-.38,0,0,0,0,0,0,.25-.34,.44-.72,.74-1,.21-.2,.44-.36,.68-.5,.38-.04,.76-.06,1.15-.09,.76-.05,1.58-.04,2.34-.23,.27-.07,.65-.34,.92-.34,.2,0,.29-.35,.13-.44Z"/>
      <path class="cls-3" d="M36.83,46.35c-3.42-.65-6.95-1.08-10.54-.33-3.48,.72-7.06,1.79-10.38,3.63-1.56,.86-3.07,1.71-4.45,2.79-.54,.31-1.06,.67-1.55,1.09-.07,.06-.12,.12-.17,.19-.13,.08-.26,.17-.39,.26,.11-.23,.21-.47,.29-.7,.13-.06,.24-.17,.3-.35,1.7-5.59,2.86-11.02,5.37-16.37,.1-.21-.03-.41-.22-.36-.96,.27-1.81,1.75-2.39,2.63-.24,.37-.47,.76-.68,1.16,.02-2.25-.18-4.5-.63-6.61-.58-2.72-1.45-4.88-1.25-7.88,.01-.22-.25-.29-.35-.08-.97,1.89-1.1,3.86-.76,5.82,.29,1.63,.52,3.19,.7,4.77-.21,1.13-.95,.21-1.54-.34-.02-.04-.04-.08-.07-.12,0,0,0,0-.01-.01-.1-.22-.19-.45-.27-.69-.07-.23-.42-.09-.42,.16,0,1.26,.21,2.22,.54,3.28-.03,1.21-.13,2.45-.09,3.6,.06,1.63,.07,3.31,.19,4.92,.11,1.43,.47,2.74,.46,4.21,0,.64-.02,1.26-.02,1.87-.14,.81-.26,1.63-.36,2.45-.03,.23,.11,.34,.27,.33,0,0-.01,.02-.02,.02-1.95,2.88-3.81,5.62-5.12,8.92-.2,.49,.4,.63,.65,.27,1.72-2.53,3.39-5.05,5.21-7.5,.68-.92,1.32-1.68,2.01-2.33,.29-.11,.58-.19,.9-.21,.93-.06,1.93,.18,2.85,.25,2.06,.15,4.02,.26,6.13,.02,2.51-.28,4.95-1.22,7.27-2.52,.2-.02,.41-.06,.6-.11,1.61-.42,2.38-1.54,3.45-2.91,.09-.03,.17-.05,.26-.08,.82,.18,1.62,.14,2.65-.6,.2-.14,.17-.57-.09-.51-.85,.19-1.92-.46-2.74-.89,1.43-.09,2.86-.19,4.29-.44,.32-.05,.46-.62,.12-.68Zm-10.72,1.94c1.55,.02,3.16,.27,4.55,.62,.02,0,.03,0,.05,.01-.33,.11-.67,.22-1,.27-1.31,.2-2.48-.04-3.75-.16-.22-.02-.32,.33-.12,.4,.66,.25,1.18,.8,1.9,.91,.54,.08,1.19,0,1.75-.04,.18-.02,.36-.05,.55-.08-.85,.4-1.71,.61-2.77,.33-1.24-.32-2.31-1.17-3.52-1.62,.78-.24,1.57-.45,2.36-.64Zm-7.29,5.05c-.54,0-1.09-.03-1.65-.1,.53,0,1.09,.03,1.65,.1Z"/>
      <path class="cls-7" d="M24.72,25.97c0-.33-.14-.57-.34-.71,0-.02,.01-.05,.01-.07,.28-1.43,.45-2.76,.43-4.17,0-.24-.32-.39-.44-.11-.3,.71-.52,1.46-.72,2.22,.06-1.43,.2-2.87,.28-4.3,.01-.19-.21-.2-.27-.02-.51,1.61-1,3.14-1.19,4.8-.11,.92-.12,1.83-.19,2.75,0,.08-.02,.17-.03,.25-.88,2.47-1.16,5-1.82,7.53,0,.01,0,.03,0,.04-1.23,2.45-2.66,5.05-3.47,7.69-.12,.38,.36,.59,.54,.22,2.6-5.3,7.17-9.88,7.22-16.12Z"/>
      <path class="cls-7" d="M9.81,52.24c.45-2.12,.63-4.41,.62-6.52-.01-2.59-.64-4.68-1.26-7.02-.1-.38-.59-.2-.55,.21,.5,4.4-.1,8.78-.13,13.24,0,.83,1.12,1.03,1.32,.1Z"/>
      <path class="cls-7" d="M51.89,12.47c-.94-.04-2.38-.19-3.19,.78-.18,.22-.28,.45-.33,.67-.3-.06-.63,.05-.95,.17-.53,.21-1.07,.42-1.6,.63-.09,.04-.15,.09-.2,.16-.37,.16-.73,.34-1.1,.53-.5,.26-.39,1.12,.16,.92,.91-.34,1.79-.67,2.71-.84,.59-.11,1.29,.03,1.84-.24,.3-.15,.56-.67,.27-.93-.43-.39,.77-.86,1.01-.96,.47-.19,.92-.4,1.39-.6,.15-.07,.13-.3-.02-.3Z"/>
      <path class="cls-7" d="M38.42,30.35c-1.55-.67-3.31-.82-5.08-.63,.36-.21,.71-.4,1.08-.58,1.21-.59,2.61-1.19,3.58-2.32,.13-.15,0-.36-.16-.26-1.33,.89-3.03,.85-4.44,1.53-1.52,.74-2.97,1.64-4.36,2.72-.58,.45-.32,1.65,.38,1.28,.09-.05,.17-.1,.26-.14,.15,.13,.35,.2,.6,.14,1.65-.41,3.28-.77,4.94-.89,1.08-.08,2.04-.12,3.12-.4,.17-.04,.23-.37,.08-.43Z"/>
      <path class="cls-7" d="M25.58,51.06c-1.62-1.5-4.99-3.28-7.3-1.42-.15,.12-.27,.25-.37,.38-.08,0-.17,0-.28,.02-.52,.11-1.01,.21-1.52,.41-.63,.25-1.68,.57-2.17,1.19-.15,.2-.24,.42-.27,.63-1.88,.39-3.69,.99-5.36,2.44-.47,.4-.3,1.34,.32,1.07,2.64-1.12,5.04-1.82,7.76-2.04,1.3-.11,3.4,.79,4.59-.31,.11-.11,.18-.35,.14-.49-.08-.31-.19-.35-.34-.56-.2-.27-.72-.41-.96-.64-.25-.11-.42-.3-.5-.59-.29-.38-.17-.48,.36-.29,1.65-.7,4.23,.03,5.68,.6,.17,.07,.35-.27,.21-.39Z"/>
      <path class="cls-6" d="M23.44,23.61c-.03-.17-.25-.12-.27,.06-.3,2.86-1.07,6.01-2.2,8.7-.36,.87,.54,1.5,1.05,.65,1.67-2.76,2-6.51,1.41-9.42Z"/>
      <path class="cls-6" d="M19.43,52.96c-2.34-1.78-5.87-1.83-8.58,.19-1.27,.94-2.24,2.05-3.08,3.49-1.01,1.74-2.32,3.3-3.26,5.09-.27,.51,.3,1.07,.66,.58,1.61-2.2,3.07-5.01,5.12-6.71,2.58-2.14,6.14-2.89,8.88-1.98,.33,.11,.51-.46,.26-.65Z"/>
      <path class="cls-2" d="M51.49,29.39c-2.4-1.03-5.29-1.06-7.93-1.11-.22,0-.45,0-.67,0,.4-.14,.79-.28,1.18-.43,1.14-.42,2.58-.85,3.48-1.91,.07-.08,0-.22-.09-.15-1.02,.91-2.47,1.19-3.64,1.58-1.17,.38-2.34,.82-3.53,1.02-.03,0-.06,.02-.09,.03-.98,.09-1.96,.24-2.95,.4-.26,0-.52,0-.78,0,1.43-.8,2.75-1.83,3.54-3.48,.06-.12-.07-.25-.15-.13-1.15,1.55-2.5,2.53-4.08,3.28-.66,.32-1.38,.61-2.06,.96-2.84,.57-5.75,1.63-8.51,2.85-.25,.11-.5,.24-.74,.37,2.25-2.54,4.48-5.13,6.89-7.45,2.8-2.7,5.96-5.22,9.04-7.39,.51-.36,1.03-.68,1.55-.98,1.12-.33,2.22-.72,3.37-.82,1.53-.13,3-.08,4.4,.47,.07,.03,.12-.11,.06-.15-1.5-1.05-3.22-1.21-4.99-.97,1.5-.7,3.02-1.34,4.51-2.1,.12-.04,.23-.07,.35-.09,.75-.14,1.51-.25,2.25-.3,1.2-.08,2.36,.06,3.56-.09,.1-.01,.14-.19,.04-.21-1.2-.23-2.31-.41-3.56-.36-.28,.01-.56,.05-.84,.09,3.09-1.7,6.17-3.12,9.19-5.07,.15-.09,.07-.36-.09-.29-1.42,.66-2.85,1.32-4.28,2,.88-.82,1.49-1.87,2.29-2.78,.1-.11,0-.27-.12-.2-.95,.58-1.71,1.8-2.58,2.54-.53,.45-1.07,.95-1.62,1.42-1.14,.56-2.27,1.15-3.39,1.77-.54,.3-1.08,.58-1.62,.84,1.43-1.55,2.6-3.51,3.43-5.45,.05-.11-.07-.18-.13-.08-.91,1.39-1.73,2.77-2.8,4.01-.76,.87-1.62,1.59-2.39,2.43-1.91,.88-3.82,1.72-5.69,2.82-.23,.08-.46,.16-.69,.24-.14,.05-.21,.19-.23,.33-.22,.14-.44,.28-.66,.43-6.09,4.2-11.58,9.49-16.4,15.6,.07-.18,.14-.37,.2-.55,.27-.54,.54-1.09,.8-1.64,.97-1.51,1.89-3.06,2.91-4.54,1.04-1.51,2.16-3.45,3.46-4.68,.08-.07,0-.19-.09-.14-1.43,.9-2.69,2.75-3.72,4.19-.27,.37-.52,.74-.77,1.12,.6-1.46,1.17-2.94,1.72-4.41,.66-1.29,1.47-2.46,2.22-3.72,.76-1.28,1.44-2.62,2.22-3.87,.05-.08-.05-.16-.1-.09-.93,1.23-1.8,2.5-2.64,3.81-.19,.3-.39,.6-.59,.89,.64-1.71,1.28-3.42,1.87-5.14,.84-2.46,2-5.41,2.07-7.98,0-.1-.12-.09-.13,.01-.2,1.4-.93,2.79-1.4,4.12-.48,1.37-.96,2.73-1.48,4.09-.47,1.21-.93,2.43-1.39,3.64,.2-2,.13-4.03-.02-5.93,0-.11-.18-.08-.18,.04-.03,3.15-.56,6.36-1.15,9.49,0,.02-.01,.03-.02,.05-.67,1.84-1.41,3.65-2.18,5.43,.36-2.88,.08-5.71-.12-8.6,0-.08-.13-.05-.13,.03,.04,3.85-.23,7.67-1.1,11.54-.5,1.07-1.02,2.13-1.56,3.19-1.21,1.89-2.5,3.73-3.74,5.58-2.3,3.44-4.21,7.12-6.43,10.62-.59,.93-1.21,1.84-1.84,2.74,.57-1.99,.86-4.05,1.03-6.12,1.08-2.84,1.78-6,3.51-8.54,.08-.11-.06-.22-.15-.13-1.51,1.68-2.42,3.89-3.19,6.09,.03-.57,.06-1.15,.09-1.72,.05-1.03,.05-2.05,.03-3.07,.29-1.2,.57-2.39,1.02-3.56,.3-.8,.66-1.6,1.02-2.38,.21-.46,.62-1.7,1-2.07,.06-.06,0-.17-.07-.11-.99,.86-1.72,2.57-2.29,3.79-.3,.64-.54,1.29-.73,1.95-.03-1.46-.05-2.92,.06-4.38,.01-.16,.03-.31,.05-.47,.29-.83,.54-1.67,.88-2.49,.59-1.4,1.36-2.7,1.95-4.1,.09-.22-.12-.35-.25-.16-.89,1.32-1.6,2.61-2.18,3.97,.45-2.33,1.12-4.57,1.74-6.95,.05-.18-.16-.22-.22-.05-1.01,2.84-2.15,5.36-2.6,8.36-.09,.57-.15,1.14-.2,1.71-.03-.13-.06-.26-.09-.38-.16-.73-.25-1.49-.36-2.24-.09-.62-.4-1.27-.38-1.92,0-.09-.12-.11-.14-.01-.12,.56,0,1.15,0,1.7,.02,.8,.04,1.52,.18,2.29,.17,.97,.41,1.9,.62,2.84-.08,1.93-.05,3.85-.05,5.78,0,.71,0,1.41-.03,2.12-.13-.58-.28-1.17-.44-1.76-.48-1.78-1.56-3.11-2.12-4.81-.03-.08-.14-.01-.13,.07,.3,1.71,1.11,3.12,1.56,4.74,.52,1.89,.79,3.78,.87,5.79-.33,3.17-.99,6.3-2.19,9.37-.91,1.34-1.79,2.71-2.55,4.16-2,3.79-3.83,7.72-4.98,11.87-.07,.26,.23,.31,.33,.08,1.72-4.28,3.93-8.78,6.35-12.67,.11-.18,.23-.36,.35-.54,1.39-1.71,2.92-3.18,4.56-4.47,1.41-.7,2.66-1.03,4.22-.83,1.29,.17,2.61,.63,3.9,.68,.1,0,.11-.16,.03-.19-.87-.28-1.51-.77-2.47-.91-.81-.12-1.61-.34-2.44-.36-.38,0-.74,0-1.09,.05,.96-.64,1.94-1.24,2.94-1.8,3.57-.91,6.93-.09,10.02,1.63,.17,.1,.34-.21,.18-.33-2.25-1.57-5.15-2.61-8.04-2.43,.24-.12,.48-.24,.73-.36,1.29-.62,2.56-1.07,3.82-1.4,3.61,.07,7.09,.12,10.29,1.9,.13,.07,.25-.15,.13-.25-1.75-1.37-4.22-2.14-6.7-2.34,3.25-.35,6.49-.14,9.83-.05,.12,0,.15-.21,.04-.24-2.5-.57-5.08-.76-7.68-.6,.27-.19,.52-.42,.77-.63,.77-.64,1.44-1.21,1.95-2.16,.06-.11-.05-.2-.14-.12-.73,.73-1.49,1.37-2.27,2.01-.52,.42-1.08,.7-1.63,1-1.96,.2-3.92,.6-5.87,1.19,1.54-1.09,3.05-2.49,3.78-4.2,.04-.09-.04-.18-.12-.1-1.06,1.14-2.09,2.25-3.24,3.27-.68,.6-1.41,1.07-2.11,1.59-.55,.2-1.11,.4-1.66,.63-1.38,.57-2.75,1.24-4.08,2.01,.17-.19,.33-.38,.5-.57,.94-1.1,2.03-2.01,2.58-3.44,.03-.09-.07-.14-.12-.08-1.48,1.7-2.97,3.5-4.56,5.09-.99,.66-1.95,1.39-2.86,2.2,1.14-1.6,2.28-3.21,3.31-4.91,2.07-3.44,4.04-6.87,6.26-10.2,.37-.55,.8-1.19,1.25-1.87,.37-.41,.74-.81,1.12-1.23,1.28-1.4,2.9-2.07,4.49-2.74,.29-.12,.58-.24,.87-.35,3.77-.62,7,.01,10.35,1.75,.06,.03,.14-.07,.08-.12-1.62-1.78-4.19-2.73-6.81-2.86,1.16-.34,2.33-.64,3.52-.91,.86-.19,1.74-.38,2.61-.54,3.13,.4,6.26,1.12,8.75,3.19,.11,.09,.23-.12,.16-.23-1.08-1.56-3.05-2.18-4.67-2.81-.58-.23-1.18-.41-1.79-.56,3.88-.55,7.8-.62,11.37,.51,.14,.05,.27-.25,.13-.31Z"/>
      <path class="cls-4" d="M44.3,28.37c-2.28-.63-4.32-1.01-6.76-.61-2.07,.34-3.98,1.02-6.01,1.87-2.32,.97-4.62,1.66-6.94,2.55-.73,.28-1.4,.72-2.03,1.26,1.24-2.19,2.41-4.71,2.34-6.85,0-.12-.16-.12-.17,.01-.2,2.19-1.57,4.3-2.63,6.19-1.12,1.99-2.28,3.81-3.6,5.64-1.97,2.73-3.42,5.85-5.35,8.58-1.13,1.59-2.36,3.11-3.56,4.68,.61-1.99,.95-4.01,.94-6.1,0-1.73-.2-3.43,.02-5.18,.16-1.31,.42-2.64,.38-3.93,0-.12-.16-.11-.17,.01-.08,1.32-.54,2.73-.75,4.06-.21,1.38-.1,2.63-.09,3.98,.01,3.4-1.03,6.31-2.06,9.52-.36,.53-.71,1.06-1.04,1.61-1.19,1.98-2.15,4.32-2.93,6.62-.69,1.22-1.24,2.46-1.57,3.65-.08,.29,.28,.47,.41,.17,.18-.41,.36-.81,.54-1.22,.09,.01,.2-.04,.24-.17,.19-.54,.39-1.07,.61-1.6,.44-.85,.91-1.68,1.46-2.47,1.56-2.23,3.07-3.69,5.01-5.45,2.89-2.61,5.6-4.81,8.86-6.58,.02-.01,0-.05-.01-.04-3.86,1.22-6.8,4.18-10.05,6.95-1.16,.99-2.42,2.33-3.57,3.83,.84-1.62,1.78-3.17,2.82-4.6,1.2-1.63,2.25-3.35,3.47-4.96,1.15-1.52,2.2-2.92,3.09-4.63,1.65-3.17,3.74-5.85,5.6-8.84,1.7-1.76,3.01-2.92,5.33-3.6,1.94-.57,3.68-1.4,5.54-2.26,1.85-.85,3.64-1.66,5.56-2.06,2.49-.52,4.63-.36,7,.17,.13,.03,.2-.21,.07-.24Z"/>
      <path class="cls-4" d="M10.92,35.13c.03-1.9-.05-3.66,.36-5.58,.3-1.41,.88-2.93,1.02-4.34,0-.06-.07-.07-.09,0-.39,1.7-1.05,3.38-1.38,5.12-.31,1.66-.23,3.21-.15,4.83,0,.17,.24,.17,.24-.02Z"/>
      <path class="cls-4" d="M28.45,20.85c.79-2.29,1.38-4.64,2.12-6.94,.03-.11-.11-.17-.15-.06-.93,2.13-1.55,4.29-2.26,6.49-.74,2.31-1.91,4.45-2.62,6.76-.06,.18,.16,.22,.23,.05,.85-2.14,1.92-4.12,2.68-6.3Z"/>
      <path class="cls-4" d="M52.19,11.13c-2.27,.66-4.44,1.9-6.59,3.1-1.99,1.11-4.04,1.95-6.04,3.04-3.82,2.08-6.42,5.85-9.67,8.95-.09,.09,0,.26,.11,.18,3.31-2.7,6-6.25,9.65-8.24,1.75-.95,3.57-1.63,5.3-2.61,2.42-1.37,4.82-2.85,7.29-4.05,.21-.1,.15-.43-.06-.37Z"/>
      <path class="cls-4" d="M31.83,46.36c-1.63-.34-3.57,.1-5.26,.38-2.01,.33-3.93,.58-5.92,1.24-.22,.07-.15,.44,.06,.37,1.94-.56,3.89-.81,5.83-1.16,1.64-.3,3.64-.86,5.23-.62,.11,.02,.17-.18,.06-.2Z"/>
      <path class="cls-5" d="M8.52,45.79c-.28-1.63-.46-3.29-.73-4.92-.27-1.63-.14-3.31-.32-4.94-.01-.1-.15-.07-.16,.04-.06,1.68-.29,3.17-.07,4.83,.23,1.77,.59,3.4,.99,5.1,.05,.2,.32,.1,.28-.11Z"/>
      <path class="cls-5" d="M39.74,46.73c-2.06,.02-4.28,1.91-6.15,3.03-2.72,1.62-5.63,3.01-8.49,4.06-.16,.06-.11,.32,.05,.27,2.8-.75,5.48-1.63,8.18-3.02,2.14-1.1,4.22-2.95,6.46-3.6,.38-.11,.31-.74-.04-.74Z"/>
      <path class="cls-5" d="M47.43,33.09c-1.42,.3-2.83,.14-4.21,.03-.4-.03-4.05-.87-3.99-1.17,.02-.09-.08-.14-.12-.05,0,.01-.02,.03-.02,.04-.02,.03-.02,.08,0,.11,.91,.96,2.22,1.7,3.65,2.08-1.11,.21-2.22,.43-3.33,.52-1.78,.15-3.41-.19-5.13-.33-.11,0-.18,.19-.06,.21,1.66,.36,3.13,.98,4.89,1.03,2.04,.05,3.7-.4,5.67-1.16,.94,0,1.86-.19,2.7-.6,.31-.15,.35-.79-.04-.71Z"/>
    </g>
  </g>
</svg>