<?xml version="1.0" encoding="UTF-8"?>
<svg id="Layer_2" data-name="Layer 2" xmlns="http://www.w3.org/2000/svg" viewBox="0 0 31.4 138.23">
  <defs>
    <style>
      .cls-1 {
        fill: #256443;
      }

      .cls-2 {
        fill: #51824e;
      }

      .cls-3 {
        fill: #b6cf89;
      }

      .cls-4 {
        fill: #546e43;
      }

      .cls-5 {
        fill: #7da663;
      }

      .cls-6 {
        fill: #6f9459;
      }

      .cls-7 {
        fill: #d3e6af;
      }

      .cls-8 {
        fill: #3b5937;
      }
    </style>
  </defs>
  <g id="_Ådalen_Gård_sommerhonning" data-name="Ådalen Gård, sommerhonning">
    <g>
      <path class="cls-4" d="M26.21,89.62c-1.99,1.21-3.92,2.68-5.86,3.99-1.28,.87-2.37,1.85-3.28,3.12-1.13,1.57-2.13,3.48-2.95,5.46,.82-5.8,1.2-11.65,1.34-17.52,.01-.04,.04-.08,.05-.12,.2-1,.48-1.94,.81-2.84,1.13-1.62,3.74-2.57,5.24-3.62,1.55-1.08,2.88-2.32,3.92-3.91,2.1-3.2,2.91-7.02,3.36-10.76,.12-.96-1.11-1.21-1.64-.58-3.25,3.85-7.76,4.97-10.09,9.75-.53,1.08-1.08,2.25-1.58,3.47-.01-2.38-.04-4.77-.08-7.14-.05-2.88-.18-5.77-.34-8.66,.01-.02,.03-.04,.04-.07,1.25-3.54,4.85-5.53,7.17-8.38,2.36-2.9,4.23-6.16,5.03-9.83,.21-.93-.91-1.64-1.55-.8-2.32,3.09-6.31,3.55-8.56,6.71-1.16,1.62-1.9,3.51-2.52,5.44-.3-5.6-.51-11.2-.16-16.77,.04-.67,.09-1.33,.15-1.99,.02-.02,.04-.05,.06-.08,1.23-3.44,5.15-4.7,7.86-6.8,2.68-2.08,4.98-4.55,7.16-7.13,.48-.57-.32-1.52-.96-1.12-1.52,.95-3.21,.52-4.85,1.04-1.41,.45-2.7,1.39-3.77,2.37-1.98,1.8-3.55,4.02-4.83,6.38,.96-5.97,2.67-11.75,5.28-17.21,1.18-1.37,2.72-2.38,3.83-3.84,1.24-1.63,1.8-3.85,2.2-5.84,.08-.43-.42-.84-.82-.73-1.97,.54-3.51,1.5-4.58,3.27-1.24,2.07-.98,4.37-1.57,6.58-2.71,4.45-4.42,9.3-5.46,14.35-.12-.2-.24-.4-.35-.59-.04-.1-.06-.22-.1-.32-.8-2.21-1.75-3.96-1.63-6.41,.09-1.95,.52-3.83,.53-5.79,0-.5-.44-1.06-1.01-.89-3.49,1.03-4.93,4.49-4.86,7.87,.04,1.91,.49,3.79,1.59,5.37,1.51,2.18,4.23,3.42,4.96,6.07-.85,7-.7,14.28-.42,21.38-.48-1.39-1.02-2.78-1.55-4.27-.66-1.87-1.53-3.65-2-5.59-.37-1.56-.53-3-1.32-4.41-.42-.74-1.35-.62-1.71,.09-1.84,3.71-3.12,8.36-1.97,12.47,1.3,4.62,5.85,5.02,8.82,8.07,.02,.51,.04,1.01,.06,1.51,.06,1.61,.11,3.2,.14,4.76,.01,.53,.02,1.06,.03,1.59-1.3-2.2-3.13-4.03-3.99-6.5-.28-.79-1.67-.53-1.64,.31,.21,4.61-.73,9.37,.45,13.9,.88,3.36,3.89,6.03,5.26,9.15-.13,6.08-.5,12.15-1.35,18.14-.04,.3-.09,.61-.14,.91-.02-.09-.04-.17-.06-.26,.01-.62-.24-1.39-.78-2.18,0,0,0,0,0-.01-.07-.16-.15-.31-.23-.47-1.99-3.76-5.77-6.37-8.36-9.71-.47-.61-1.33-.31-1.61,.3-1.24,2.73-1.67,7.16,.4,9.58,2.87,3.35,8.43,4.3,9.54,8.9-1.98,9.67-5.05,19.02-8.18,28.4-.34,1.02,1.18,1.57,1.58,.57,3.48-8.67,6.27-17.69,8.19-26.86,2.55-3.51,7.61-4.52,10.44-8,2.65-3.26,4.03-8.22,4.53-12.32,.08-.66-.73-1.27-1.33-.91Z"/>
      <path class="cls-8" d="M23.93,97.97c-.03-.17-.25-.17-.32-.02-1.52,3.32-3.19,5.26-6.26,7.03,.15-.19,.3-.37,.45-.56,.81-.97,1.25-1.88,1.79-3,.12-.24-.23-.45-.41-.28-.62,.56-1.33,1.01-2.02,1.49,.6-1.45,1.18-2.91,1.96-4.28,1.14-2.01,2.63-3.9,4.2-5.58,.14-.15,.04-.41-.18-.37-5.15,.8-7.6,8.06-9.08,12.23-.16,.45-.03,.81,.22,1.03-.24,.41-.46,.84-.62,1.31-.03,.09-.05,.17-.06,.25-.95,.75-1.72,1.69-2.06,3-.12,.46,.41,.95,.82,.56,3.91-3.72,12.97-5.63,11.57-12.8Z"/>
      <path class="cls-8" d="M24.78,69.69c-.74,1.35-1.35,2.84-2.29,4.06-1.13,1.46-2.79,2.08-4.27,3.08-.93,.63-1.59,1.25-2,1.98,.54-1.47,1.63-2.71,2.8-3.71,.73-.63,1.42-1.23,1.95-1.97,.88-.98,1.6-2.09,2.02-3.38,.07-.22-.24-.32-.33-.12-.19,.41-.96,.63-1.31,.92-.16,.14-.32,.29-.47,.45-.13,.01-.25,.06-.36,.15-.25,.22-.51,.44-.77,.66,.83-1.14,1.65-2.44,2.67-3.4,.18-.17-.07-.47-.25-.29-1.27,1.19-2.92,1.87-4.18,3.12-1.09,1.08-1.99,2.46-2.2,4-.02,.16,0,.3,.04,.43-.29,.47-.51,.97-.6,1.52-.15,1.04,.36,1.92,.36,2.94,0,.11,.09,.16,.17,.15-.05,.43-.05,.89,0,1.41,.03,.23,.38,.16,.35-.07-.28-2.36,4.94-3.76,6.45-4.9,2.01-1.51,3.05-3.86,3.86-6.17,.34-.97-1.13-1.81-1.65-.85Z"/>
      <path class="cls-8" d="M12.41,108.9c.06-.09,.1-.2,.1-.33,0-.94-.24-1.77-.62-2.53,.05-.13,.07-.27,.06-.43-.11-1.6-.72-3.02-1.64-4.33-.42-.6-.9-1.17-1.43-1.67-.76-.71-1.55-.84-2.44-1.34-.17-.1-.32,.09-.22,.24,.98,1.43,2.08,2.8,2.86,4.31-1.97-1.62-4.31-3-5.67-4.77-.13-.17-.37,.02-.3,.2,.37,.98,.56,1.94,1.22,2.78,.74,.94,1.75,1.69,2.61,2.52,1.67,1.6,3.19,3.15,4.15,5.29,.07,.16,.2,.27,.35,.34-.11,.35,.04,.8,.52,.84,.67,.05,.84-.78,.44-1.12Z"/>
      <path class="cls-8" d="M14.99,76.77c-.06-.16-.13-.32-.2-.48,.04-.12,.06-.25,.05-.4-.14-1.65-.48-3.23-1-4.8-.58-1.75-1.55-3.17-2.34-4.81-.08-.17-.39-.08-.33,.11,.62,1.95,1.03,4.07,1.39,6.18-.38-.55-.77-1.11-1.12-1.68-1.29-2.11-1.56-4.3-2.32-6.56-.06-.18-.4-.22-.38,.02,.05,1.04-.55,1.92-.5,2.98,.05,1.15,.37,2.32,.8,3.38,1.01,2.47,2.79,4.62,4.04,6.97,.65,1.23,2.37,.34,1.91-.93Z"/>
      <path class="cls-8" d="M23.82,46.28c-2.48,1.75-3.84,4.59-6.19,6.53-1.13,.94-2.5,2.07-3.33,3.43-.11-1.24-1.18-2.36-2.11-3.18-.88-.78-4.69-2.84-4.08-4.28,.05-.12-.14-.23-.21-.11-.76,1.3,.15,2.66,.97,3.71,.78,1,1.66,1.85,2.37,2.82-.32-.12-.65-.25-.97-.39-3.82-1.64-5.85-7.85-4.89-11.77,.04-.18-.19-.27-.27-.1-1.62,3.31-1.31,7.12,.45,10.33,1.93,3.54,5.73,3.28,8.15,5.95,.09,.17,.23,.31,.39,.39,.47,.35,1.22,.05,1.33-.51,.81-1.11,1.39-2.25,2.43-3.24,.97-.93,2.11-1.7,3.03-2.69,1.74-1.86,2.4-4.36,3.27-6.68,.08-.2-.16-.33-.32-.22Z"/>
      <path class="cls-8" d="M22.37,24.57c0-.17-.27-.27-.33-.07-.04,.15-1.32,.7-1.57,.9-.52,.43-.87,1.02-1.33,1.51-.1,.11-.21,.19-.32,.29,.2-.48,.45-.95,.75-1.4,.8-1.18,1.86-2.1,2.78-3.18,.12-.14-.11-.29-.23-.16-.73,.82-1.74,1.11-2.61,1.75-.57,.42-1.1,.94-1.53,1.51-.69,.91-1.06,1.95-1.27,3.03-.35,.28-.67,.58-.95,.9,.02-.18-.02-.38-.13-.59,0-.01-.01-.02-.02-.03,.07-.34-.04-.72-.41-.99-.11-.08-.22-.16-.33-.24-1.01-1.52-2.22-2.89-2.97-4.59-.83-1.89-.93-3.74-1.18-5.74-.01-.09-.13-.15-.21-.1-1.15,.63-1.39,2.22-1.32,3.63-.63-1.39-1.19-2.83-1.3-4.28-.01-.14-.24-.15-.27-.02-.65,2.64,0,5.02,.96,7.52,.83,2.15,2.21,3.39,3.92,4.54,.43,.53,.89,1.03,1.36,1.46,.37,.35,.89,.38,1.29,.2-1.4,2.05-1.76,4.67-1.67,7.22,0,.15,.24,.23,.28,.06,.44-1.85,1.03-3.74,2.11-5.33,1.05-1.55,2.57-2.21,3.91-3.4,.98-.87,2.62-3.09,2.57-4.4Z"/>
      <path class="cls-8" d="M23.84,21.18c-.12,0-.13,.17-.01,.18,.12,0,.13-.17,.01-.18Z"/>
      <path class="cls-8" d="M24.01,5.71c0-.18-.26-.26-.33-.07-.82,2.35-3.26,4.26-4.47,6.46-1.41,2.55-2.4,5.27-2.69,8.18-.06,.6,.79,.62,.9,.07,.8-3.82,2.13-6.54,4.41-9.63,1.09-1.47,2.21-3.12,2.18-5.01Z"/>
      <path class="cls-5" d="M20.96,40.4c.03-.71-.91-1.35-1.48-.75-2.39,2.53-4.9,5.2-6.21,8.48-1.26,3.15-.82,6.42-.13,9.65,.12,.59,.7,.88,1.21,.78,.01,.02,.02,.04,.03,.05,.14,.19,.48,.02,.42-.2,0-.02,0-.03,0-.05,.07-.06,.13-.12,.19-.19,.85-1.2,1.32-2.53,1.67-3.91,.57-1.05,1.16-2.08,1.72-3.14,1.78-3.34,2.41-6.96,2.59-10.72Z"/>
      <path class="cls-5" d="M15.29,15.46c-.31-.65-1.27-.57-1.51,.08-1.05,2.79-1.55,5.74-1.32,8.72,.18,2.45,1.16,4.75,1.31,7.19,.01,.17,.2,.24,.35,.19,.26,.09,.59,.02,.76-.21,3.47-4.77,2.78-10.93,.42-15.98Z"/>
      <path class="cls-5" d="M14.31,76.53c-.44-1.78-1.02-3.39-2.23-4.81-2.3-2.7-6.43-3.84-9.86-4.09-.54-.04-1.12,.5-.95,1.07,.89,3.06,2.27,5.84,4.65,8.03,1.85,1.7,4.82,2.69,6.86,4.34,.43,.65,.89,1.3,1.37,1.96,.42,.58,1.57,.25,1.54-.5-.09-2.07-.88-4-1.38-6Z"/>
      <path class="cls-5" d="M18.09,86.14c-.15-.59-.75-.92-1.33-.66-7.58,3.42-7.86,14.75-4.95,21.28,.37,.82,1.5,.65,1.83-.1,.15-.35,.29-.7,.43-1.05,1.88-1.91,3.11-4.07,3.78-6.93,.87-3.72,1.2-8.79,.25-12.53Z"/>
      <path class="cls-2" d="M15.37,81.17c-.04-.37-.11-.71-.2-1.05,0-.04,.02-.07,.02-.11,0-2.3-.89-5.23-2.16-7.17-1.37-2.1-3.52-2.64-5.65-3.7-.13-.07-.24,.15-.12,.23,1.86,1.23,3.95,2.42,5.03,4.46,.49,.92,.75,1.88,.96,2.86-1.32-1.46-3.06-2.62-4.64-3.89-.16-.13-.39,.12-.24,.27,1.28,1.3,2.49,2.97,3.49,4.51-.7-.47-1.48-.88-2.32-1.3-2.53-1.25-3.83-3.16-5.86-4.97-.14-.13-.35,.11-.22,.25,.8,.89,.95,2.36,1.61,3.36,.55,.84,1.31,1.57,2.11,2.18,.93,.7,2.02,1.14,3,1.76,1.21,.77,2.11,1.85,3.25,2.7,.14,.11,.3,.14,.46,.14,.49,.75,1.6,.39,1.5-.53Z"/>
      <path class="cls-1" d="M13.57,78.76c-.44-1.26-1.68-2-2.82-2.57-1.58-.78-3.1-1.31-4.28-2.7-.11-.13-.3,.04-.2,.18,.76,1.09,1.51,2.12,2.62,2.89,.58,.4,1.2,.75,1.78,1.15,.72,.51,1.21,1.15,1.83,1.75,.54,.52,1.32,0,1.07-.71Z"/>
      <path class="cls-1" d="M14.46,78.39c-.52-1.39-1.94-2.37-3.11-3.18-.14-.1-.27,.11-.15,.21,1.09,.92,2.06,1.96,2.81,3.19,.17,.28,.56,.08,.45-.22Z"/>
      <path class="cls-3" d="M10.37,72.47c-.71-1.17-1.57-2.41-2.85-2.99-1.33-.6-2.83-.47-4.14-.97-.37-.24-.73-.48-1.08-.74-.04-.03-.08-.01-.1,.01-.02-.02-.05-.04-.07-.06-.11-.11-.31,0-.24,.16,.52,1.08,1.46,1.7,2.53,2.11,.05,.05,.11,.09,.16,.14,.89,.75,1.63,1.75,2.55,2.44,.16,.12,.43-.04,.37-.24-.18-.66-.67-1.21-1.21-1.69,1.34,.52,2.44,1.17,3.68,2.18,.21,.17,.54-.11,.4-.35Z"/>
      <path class="cls-2" d="M20.58,40.04c-.01-.2-.36-.23-.4-.03-.85,3.57-1.62,6.7-3.56,9.87-.21,.35-.41,.69-.6,1.02,.1-.58,.19-1.17,.28-1.75,.04-.27-.35-.32-.44-.09-.6,1.41-1.13,2.8-1.54,4.22-.04-.61,0-1.24,.19-1.88,.18-.61-.57-.96-.96-.49-1.14,1.37-1.05,3.25-.72,4.92,.5,2.54,.95,5.1,1.48,7.64,.05,.24,.41,.28,.49,.04,.43-1.4,.59-2.84,.53-4.29,1.73-4.07,3.87-8.39,4.75-12.78,.57-2.07,.66-4.22,.51-6.39Z"/>
      <path class="cls-2" d="M17.62,42.36c-1.56,2.13-4.23,4-4.23,6.9,0,.24,.31,.31,.41,.09,1.1-2.46,2.93-4.43,4.09-6.85,.08-.16-.17-.27-.26-.14Z"/>
      <path class="cls-2" d="M16.35,24.62c-.2-.3-.59,0-.56,.27,.11,1.3-.17,2.49-.61,3.65-.08-.74-.26-1.46-.45-2.18-.22-1.96-.36-3.93,.13-5.86,.03-.13-.15-.25-.23-.12-.19,.31-.35,.63-.49,.95,.29-2.08,1.05-4.11,.58-6.24-.03-.12-.18-.12-.23-.02-1.21,2.37-2.48,5.16-2.42,7.89,.03,1.08,.34,2.07,.7,3.05,.13,2.04,.81,3.91,.87,5.92-.27,.77-.41,1.55-.25,2.43,.03,.18,.27,.17,.34,.03,1.22-2.65,4.65-6.71,2.62-9.78Z"/>
      <path class="cls-2" d="M18.24,93.44c0-.22-.35-.33-.41-.09-.69,2.83-2.73,5.44-4.09,8.17-.09-.17-.23-.31-.42-.39-.06-2.24,0-4.45,.47-6.75,.05-.26-.33-.44-.51-.26-.67,.66-1.16,1.43-1.51,2.26,.02-.3,.04-.59,.05-.86,.07-2.05,.01-4.31,1.17-6.1,.14-.21-.13-.46-.33-.3-1.93,1.6-2.43,4.35-2.67,6.82-1.56,4.42,.79,9.28,1.57,13.6-.15,.97-.31,1.94-.52,2.9-.06,.28,.3,.42,.42,.15,.98-2.14,1.92-4.23,2.64-6.41,2.12-3.8,4.2-8.4,4.14-12.75Z"/>
      <path class="cls-1" d="M12.53,96.31c.77-2.22,1.72-4.22,1.67-6.62,0-.1-.15-.15-.18-.04-.66,2.56-2.21,4.78-2.86,7.33-.6,2.34,.05,4.65,.54,6.94,.03,.15,.28,.15,.28-.02-.08-2.62-.31-5.08,.57-7.61Z"/>
      <path class="cls-1" d="M16.2,100.09c.1-.43-.45-.63-.65-.23-1.52,3.16-4.58,6.25-3.57,10,.04,.13,.22,.09,.21-.04-.34-3.71,3.2-6.32,4.01-9.73Z"/>
      <path class="cls-1" d="M15.69,55.11c.91-1.32,2.06-2.52,2.76-3.93,.86-1.74,1.35-3.71,.74-5.6-.03-.1-.19-.17-.25-.05-1.17,2.08-1.67,4.38-3.02,6.4-.87,1.3-1.46,2.44-1.74,3.75-.32,.78-.51,1.59-.51,2.45,0,1.16,.74,2.16,.74,3.28,0,.11,.15,.12,.16,.01,.17-1.25-.05-2.47,.14-3.71,.14-.95,.51-1.79,.98-2.6Z"/>
      <path class="cls-1" d="M16.72,48.2c-.01-.11-.16-.1-.2-.02-1.1,2.19-3.87,4.13-3.37,6.82,.06,.3,.55,.37,.63,.05,.58-2.4,3.24-4.27,2.94-6.85Z"/>
      <path class="cls-1" d="M14.78,28.73c-.35-1.33-1.1-2.48-1.47-3.79-.09-.32-.56-.31-.59,.03-.1,1.06,0,2.08,.33,3.09,.41,1.23,1.22,2.49,1.24,3.82,0,.21,.33,.32,.4,.08,.33-1.13,.4-2.09,.09-3.25Z"/>
      <path class="cls-1" d="M15.15,25.91c-.36-1.31-1.09-2.71-.71-4.11,.11-.43,.35-.83,.48-1.26,.2-.65,.18-1.33,.32-1.99,.01-.05-.06-.1-.09-.05-1.48,2.46-1.88,5.01-.39,7.54,.11,.18,.45,.11,.38-.13Z"/>
      <path class="cls-3" d="M19.71,40.36c-1.51,.55-2.53,1.96-3.03,3.45-.41,1.22-.57,2.4-1.25,3.52-.44,.72-.92,1.35-1.24,2.14-.15,.38,.37,.59,.6,.31,1.08-1.32,2.14-2.41,2.62-4.09,.27-.95,.46-1.88,.92-2.77,.44-.85,1.07-1.56,1.53-2.39,.06-.11-.04-.22-.15-.18Z"/>
      <path class="cls-3" d="M19.21,42.29c-.58,1-.94,2.08-1.32,3.17-.09,.26,.31,.41,.41,.15,.42-1.06,.71-2.16,1.09-3.23,.04-.11-.12-.2-.18-.09Z"/>
      <path class="cls-3" d="M17.86,21.86c.04-2.3-1.76-3.54-2.19-5.63-.01-.07-.13-.07-.13,0,0,.44,.08,.86,.19,1.27-.24-.42-.47-.84-.6-1.32-.24-.83-.22-1.68-.63-2.46-.03-.06-.12-.04-.13,.02-.09,.74-.37,1.47-.35,2.22,.03,.91,.42,1.64,.86,2.42,1.01,1.8,.82,3.6,.95,5.58,.01,.19,.3,.15,.32-.02,.18-1.34,.6-2.68,.49-4.01,.2,.58,.35,1.19,.33,1.84-.07,2.25-1.14,4.52-1.52,6.76-.05,.31,.42,.39,.53,.11,.5-1.29,.85-2.65,1.32-3.96,.33-.91,.56-1.87,.58-2.84Z"/>
      <path class="cls-3" d="M17.31,85c-.08-.11-.28-.07-.31,.06-.39,1.39-.19,2.7-.14,4.11-.24-.9-.73-1.74-.87-2.73-.02-.14-.21-.11-.23,.01-.23,1.27,.14,2.43-.03,3.69-.2,1.48-.91,2.92-1.58,4.24-.04,.09,.09,.15,.15,.08,.68-.93,1.7-1.76,2.27-2.79-.05,.18-.1,.36-.16,.54-.47,.8-1.05,1.53-1.52,2.32-.89,1.5-1.21,2.86-.54,4.49,.05,.11,.23,.05,.2-.07-.68-2.58,1.88-4.46,2.99-6.48,.04-.07,.07-.14,.1-.21,.53-.65,.96-1.37,1.06-2.39,.18-1.78-.35-3.45-1.39-4.88Z"/>
      <path class="cls-7" d="M17.51,87.28s-.09,0-.08,.04c.44,1.97-.6,3.97-1.07,5.87-.04,.14,.15,.21,.22,.08,.89-1.81,2.76-4.08,.94-5.99Z"/>
      <path class="cls-7" d="M16.29,93.48c-.07,0-.08,.1,0,.11,.07,0,.08-.1,0-.11Z"/>
      <path class="cls-7" d="M6.15,69.47c-1.09-.55-2.73,.1-3.66-.63-.14-.11-.33,.1-.21,.23,.68,.69,1.41,.89,2.34,1.11,1.36,.33,2.33,.84,3.34,1.82,.12,.12,.35,.04,.31-.15-.21-1.06-1.2-1.9-2.13-2.37Z"/>
      <path class="cls-7" d="M19.93,41.01c-.72,.71-1.44,1.42-1.79,2.39-.18,.52-.21,1.05-.23,1.59-.03,.88-.25,1.52-.52,2.34-.09,.27,.28,.46,.44,.23,.68-.97,.89-1.56,.91-2.74,.02-1.45,.6-2.45,1.41-3.61,.09-.14-.1-.32-.22-.2Z"/>
      <path class="cls-7" d="M15.71,19.7c-.07-.93-.43-1.73-1.01-2.45-.09-.12-.31-.05-.31,.1-.03,1.68,.7,3.71,.25,5.33-.06,.2,.23,.31,.31,.11,.41-1.08,.85-1.9,.76-3.1Z"/>
      <path class="cls-7" d="M16.25,18.01c-.3-.78-.84-1.31-1.46-1.85-.09-.08-.19,.05-.16,.14,.24,.67,.46,1.33,.82,1.95,.4,.68,.77,1.3,.93,2.08,.03,.13,.23,.12,.24-.01,.01-.78-.09-1.57-.37-2.31Z"/>
      <path class="cls-8" d="M11.57,111.11s-.05,.06,0,.06c.04,0,.05-.06,0-.06Z"/>
      <path class="cls-6" d="M8.97,45.72c-.64-1.43-.84-2.87-1.09-4.4-.05-.3-.33-.46-.6-.46,.07-.39,.14-.78,.2-1.17,.09-.59-.82-.92-1.12-.4-1.64,2.95-1.99,7.02,.54,9.53,.16,.16,.44,0,.34-.22-.58-1.32-.69-2.62-.6-3.92,.07,.29,.17,.59,.29,.88,.69,1.68,2.05,2.73,3.09,4.15,.14,.18,.42,.02,.38-.18-.24-1.39-.87-2.53-1.44-3.81Z"/>
      <path class="cls-6" d="M26.81,64.6c-1.79,.97-3.29,2.42-4.29,4.2-1.13,2.02-1.37,4.87-3.22,6.44-.14,.12-.03,.38,.16,.33,1.54-.45,2.79-2.05,3.53-3.4,1.38-2.52,2.49-4.71,4.39-6.91,.3-.34-.19-.86-.57-.66Z"/>
      <path class="cls-6" d="M11.33,62.65c-.37-.7-.97-1.25-1.32-1.96-.45-.93-.49-1.88-1.02-2.78-.1-.17-.33-.2-.45-.03-.96,1.23-.9,2.88-.15,4.22,.4,.73,1.05,1.25,1.5,1.93,.56,.86,.64,1.83,.75,2.83,.07,.61,.88,.44,.99-.06,.28-1.33,.35-2.9-.3-4.14Z"/>
      <path class="cls-6" d="M7.31,99.69c-1.31-2.23-2.69-4.41-4.08-6.59-.23-.93-.3-1.9-.56-2.82,.14-.59,.19-1.16-.12-1.82-.07-.15-.28-.16-.38-.03-.44,.59-1.13,.8-1.52,1.49-.45,.8-.6,1.84-.62,2.75-.04,1.68,.26,3.35,1.43,4.6,.35,.38,.9-.02,.73-.48-.24-.62-.33-1.28-.33-1.95,.41,.76,.94,1.46,1.47,2.09,1.08,1.28,2.35,2.03,3.64,3.05,.18,.14,.46-.09,.34-.3Z"/>
      <path class="cls-6" d="M25.23,91.53c-.21-.03-.43,.04-.64,.24-1.39,1.38-2.61,3.17-3.7,4.79-.86,1.28-1.1,2.51-.96,4.02,.02,.23,.36,.23,.43,.03,.52-1.53,1.61-2.6,2.67-3.76,.44-.48,.87-1,1.27-1.54-.08,.58-.15,1.16-.18,1.77-.01,.32,.43,.41,.55,.12,.72-1.69,1.58-3.08,1.66-4.99,.03-.69-.65-.93-1.11-.69Z"/>
      <path class="cls-6" d="M27.25,37.92c.01-.21-.27-.26-.35-.07-.52,1.21-.91,2.45-1.27,3.7-.31,.47-.64,.93-.97,1.39-1.71,1.8-3.26,3.77-4.77,5.71-.1,.12,.06,.29,.19,.23,.72-.37,1.43-.78,2.1-1.23,.03,0,.05,0,.08-.02,.76-.39,1.5-.98,2.17-1.69-.25,.85-.52,1.69-.84,2.53-.1,.26,.25,.52,.46,.32,3.04-2.85,2.99-6.99,3.2-10.84Z"/>
      <path class="cls-6" d="M28.02,.07c-.89,.99-2.5,1.2-3.6,1.91-.65,.42-1.22,.96-1.69,1.59-1.46,1.33-2.26,3.44-1.98,5.37,.03,.23,.34,.22,.42,.03,.77-1.7,1.83-3.05,3.04-4.34,.67-.54,1.33-1.08,2.06-1.54,1.03-.65,2.16-1.48,2.15-2.83,0-.18-.24-.37-.39-.2Z"/>
      <path class="cls-6" d="M14.57,9.94c-1.82-.19-3.25,1.15-4.36,2.44-1.29,1.49-1.87,3.59-1.37,5.52,.09,.34,.52,.36,.66,.05,.48-1.05,.82-2.06,1.34-3.02-.19,1.14-.04,2.31,.62,3.17,.16,.2,.54,.14,.61-.11,.5-1.93,.22-4.24,1.14-6.08,.49-.54,.99-1.06,1.49-1.57,.14-.14,.08-.38-.13-.4Z"/>
      <path class="cls-6" d="M31.04,16.12c-.81,1.09-1.99,2.12-3.18,2.79-1.17,.66-2.5,.92-3.66,1.59-.43,.25-.4,1.08,.2,1.06,.28-.01,.55-.03,.83-.06-.59,.25-1.16,.53-1.72,.88-.48,.29-.29,1.23,.34,1.02,.46-.15,.88-.34,1.3-.55-1.33,.97-2.3,2.01-2.75,3.62-.06,.22,.21,.35,.35,.18,1.26-1.51,2.97-2.15,4.5-3.29,1.28-.96,2.19-2.43,2.71-3.92,0-.02,0-.03,0-.05,.72-.87,1.07-1.91,1.43-3.08,.07-.22-.22-.37-.35-.18Z"/>
    </g>
  </g>
</svg>