<?xml version="1.0" encoding="UTF-8"?>
<svg id="Layer_2" data-name="Layer 2" xmlns="http://www.w3.org/2000/svg" viewBox="0 0 77.28 121.31">
  <defs>
    <style>
      .cls-1 {
        fill: #c195c4;
      }

      .cls-2 {
        fill: #334731;
      }

      .cls-3 {
        fill: #fef9c6;
      }

      .cls-4 {
        fill: #936096;
      }

      .cls-5 {
        fill: #527552;
      }

      .cls-6 {
        fill: #719671;
      }

      .cls-7 {
        fill: #93c293;
      }

      .cls-8 {
        fill: #5b2b5c;
      }

      .cls-9 {
        fill: #302e1f;
      }

      .cls-10 {
        fill: #efd3e6;
      }

      .cls-11 {
        fill: #e3d981;
      }

      .cls-12 {
        fill: #d1a32b;
      }

      .cls-13 {
        fill: #744075;
      }

      .cls-14 {
        fill: none;
        stroke: #334731;
        stroke-linecap: round;
        stroke-linejoin: round;
        stroke-width: 0px;
      }

      .cls-15 {
        fill: #40593f;
      }
    </style>
  </defs>
  <g id="_Ådalen_Gård_sommerhonning" data-name="Ådalen Gård, sommerhonning">
    <g>
      <path class="cls-5" d="M33.06,105.51c1.14-3.79,0-8.16-2.19-10.83-1.42-1.73-3.39-3.4-5.6-3.54,2.26-3.21,3.86-6.59,5.61-10.26,.34-.71,.66-1.4,.98-2.09,.76-.69,1.64-1.12,2.56-1.59,1.75-.88,3.72-1.37,5.39-2.43,.29-.19,.24-.64-.05-.71-2.04-.52-4.52,.87-6.44,1.78-.06,.03-.12,.07-.18,.1,2.32-5.4,3.95-10.58,4.53-16.71,.03-.27-.31-.25-.41-.03-.93,2.21-1.58,4.28-2.23,6.43-.16-1.02-1.08-1.97-1.75-2.58-.44-.4-.78-.75-1.02-1.33-.18-.43-.27-.74-.64-1.01-.25-.18-.68,.11-.67,.44,.01,.68,.03,1.31,.19,1.91-.24,0-.47,.02-.69,.1-.19,.06-.25,.37-.08,.45,.56,.28,1.23,.85,1.77,1.5,.27,.55,.53,1.1,.78,1.69,.04,.1,.09,.18,.14,.25,.21,1.54-.15,3.09-.32,4.67-.02,.19,.02,.34,.08,.48-1.48,3.41-3.41,6.68-4.98,10.01-2.15,4.56-4.77,8.28-7.98,12.1-.8,.95-1.59,1.87-2.35,2.8,.1-1.03,.05-2.06-.13-3.05-.27-1.5-.53-3.06-.9-4.52-.44-1.72-1.36-3.11-1.91-4.77-.15-.44-.8-.25-.72,.25,.22,1.32,.71,2.54,.9,3.87,.21,1.42,.17,2.9,.35,4.33,.21,1.69,.38,3.1,.05,4.86-.21,1.11-.54,2.18-.65,3.3-.53,.93-7.26,13.64-7.63,14.71-.38,1.1,1.1,1.63,1.67,.64,2.27-3.99,11.61-19.26,14.54-22.77,2.73-.22,4.56,.96,6.3,3.09,1.66,2.04,2.99,5.5,2.85,8.39-.02,.51,.67,.56,.83,.06Z"/>
      <path class="cls-8" d="M58.59,50.6c-.34-.22-1.01-.27-1.41-.35-.71-.13-1.44-.22-2.16-.25-.6-.02-.88,.05-1.41,.39-.54,.34-1.09,.57-1.47,1.14-.22,.33-.02,.74,.29,.82,.27,.07,.5,0,.78-.06,.8-.06,1.6-.16,2.4-.23,.8-.07,1.6-.03,2.4-.14,.71-.1,1.39-.82,.6-1.33Z"/>
      <path class="cls-8" d="M57.04,59.51c-.96-1.15-3.15,.12-4.4,.29-.05,0-.09,.02-.14,.04-.06-.03-.12-.08-.17-.1-.23-.1-.6,0-.79-.09-.1-.05-.25,.05-.21,.18,.08,.28,.33,.48,.59,.67-.05,.22-.02,.45,.16,.62,.25,.24,.55,.39,.89,.51,.2,.24,.42,.47,.73,.64,.82,.47,2.76,1.15,3.69,.33,.77-.68,.12-2.52-.35-3.08Z"/>
      <path class="cls-5" d="M75.57,14c.04-.95-.43-1.32-1.14-1.37-1.12-.52-3.09,.09-4.06,.28-1.66,.33-4.02,1.33-4.84,3.15-.5,1.09-.28,2.22-.9,3.32-.11,.19-.24,.38-.38,.56-1.57,.8-3.14,1.58-4.59,2.54-.2,.13-.39,.29-.58,.44,.27-.81,.5-1.64,.7-2.48,1.03-1.9,1.97-3.8,3.03-5.63,1.11-.85,2.44-1.36,3.45-2.38,2.85-2.86,5-6.27,4.38-10.36-.76-5.08-6.76,1.07-8.75,2.68-1.56,1.26-2.9,2.78-3.19,4.88-.17,1.2,.33,2.07,.48,3.23,.09,.66,.14,1.4,.15,2.15-.35,1.72-.68,3.47-1.16,5.2-.83,2.09-1.67,4.17-2.61,6.23-.03,.06-.05,.12-.08,.19-1.69,2.41-3.16,5-4.26,7.71-2.15,5.27-5.74,10.13-8.49,15.1-.31,.56,.44,1,.76,.44,2.51-4.37,5.36-8.6,7.8-13.03,1.11-1.53,1.96-3.13,2.74-4.77,.23-.03,.45-.16,.63-.44,2.14-3.44,3.88-6.06,7.02-8.01,.13-.05,.26-.11,.4-.16,1.14-.39,2.25-.7,3.34-1.04,1.5,.02,2.97,.16,4.42-1.19,.47-.44,.88-.98,1.27-1.52,.62-.49,1.21-1.03,1.75-1.62,.86-.94,2.65-2.66,2.72-4.1Z"/>
      <path class="cls-4" d="M51.46,25.28c0-.35-.02-.71-.04-1.07,.08-.69,.14-1.36,.07-2.04-.15-1.33-.79-2.29-1.43-3.27-.29-.53-.6-1.04-.91-1.52-.06-.12-.13-.24-.18-.37-.72-1.69-.33-3.05-1.84-4.19-.97-.73-2.33-1.48-3.53-.47-1.04,.88-.95,1.8-.72,2.89,.57,2.72-.61,5.21-.92,7.97-.36,3.24,1.24,6.8,4.02,7.89,3.55,1.39,5.58-2.35,5.5-5.82Z"/>
      <path class="cls-5" d="M48.54,41.25c.85-1.57,1.36-3.05,2.04-4.7,.12-.29,.26-.58,.39-.87,.12-.05,.23-.14,.3-.3,.5-1.16,.43-2.33,.19-3.49-.42-2.03-.32-3.25,.24-5.39,.6-2.35-.27-3.63-1.25-5.39-.08-.14-.28,0-.22,.14,.27,.69,.42,1.45,.54,2.2,.28,1.89-.63,3.32-1.01,5.12-.05-.1-.09-.19-.14-.29-.39-.79-1.16-2.31-.81-3.27,.12-.32-.29-.41-.46-.17-.59,.84-.37,2.02-.17,2.94-.58-.55-1.14-1.11-1.49-1.87-.64-1.38-.71-2.79-.63-4.36,0-.16-.19-.19-.27-.06-.86,1.31-.55,3.67-.19,4.95,.45,1.63,1.63,2.77,2.64,4.06-.79-.26-1.63-.46-2.28-.93-1.34-.96-2.8-2.25-3.24-4-.03-.13-.23-.14-.27,.02-.5,2.19,1.24,3.98,2.59,5.16,1.12,.98,3.34,1.17,4.05,2.54,.8,1.57-.13,3.27-.42,4.92-.4,.88-.84,1.72-1.23,2.45-1.33,2.5-2.72,5.02-3.98,7.55-.35,.71,.5,1.19,.93,.53,1.58-2.41,2.8-4.97,4.16-7.49Z"/>
      <path class="cls-1" d="M48.37,21.24c-.16-1.46-.8-2.87-1.22-4.24-.36-1.18,.22-3.85-1.59-3.63-.45-.42-1.15-.61-1.73-.35-.26,.12-.25,.52,.04,.51,.27,0,.78,.61,.88,.9,.12,.35,.07,1.02,.1,1.4,.03,.39,0,.79,.05,1.18,.04,.36,.3,.64,.34,.98,.02,.21,.33,.17,.38-.03,.07-.28,.1-.57,.13-.85,.16,.52,.45,.99,.69,1.46,.27,.53,.63,.99,.9,1.52,.27,.52,.37,.9,.79,1.29,.1,.1,.26-.01,.24-.16Z"/>
      <path class="cls-1" d="M44.26,24.68c-.31-.74-.74-1.53-.86-2.36-.11-.77,.05-1.82,.12-2.63,.13-1.38,.43-2.73,.14-4.06-.03-.13-.23-.13-.26,.02-.19,.85-.54,1.64-.71,2.49-.22,1.07-.33,2.07-.44,3.14-.07,.69-.14,1.33,.09,1.96,.15,.41,.42,.8,.67,1.14-.02-.02,.7,.7,.7,.58,0,.21,.27,.38,.43,.17,.02-.02,.04-.05,.06-.07,.09-.12,.12-.24,.07-.38Z"/>
      <path class="cls-10" d="M47.31,16.85c-.23-1,0-2.23-.39-3.18-.14-.34-.35-.59-.61-.75,.08,.02,.15,.02,.23,.05,.15,.05,.3-.21,.18-.32-.23-.21-.41-.47-.7-.6-.24-.11-.57-.16-.83-.2-.25-.03-.52-.03-.76,.1-.08,.05-.14,.1-.19,.17-.04-.01-.09-.02-.15-.02-.59,.03-1.4,.87-1.47,1.5-.03,.33,.13,.55,.34,.73,.18,.15,.42,.27,.58,.45,.12,.14,.18,.32,.31,.45,.14,.13,.4-.06,.3-.25-.1-.2-.08-.46-.17-.67-.11-.24-.35-.44-.43-.69,0-.01,0,0,0-.01,0,0,.01,0,.02-.02,.03-.05,.06-.09,.1-.13,.05-.02,.11-.03,.16-.08,.03-.03,.06-.06,.09-.08,.02,0,.03,.01,.06,.02,.13,.06,.3,.06,.44-.02,.11,.34,.26,.43,.58,.54,.59,.2,.99,.23,1.17,.96,.19,.77,.38,1.65,.9,2.23,.09,.1,.27-.02,.24-.16Z"/>
      <path class="cls-13" d="M50.09,27.03c.16-1.12,.39-2.27,.11-3.34-.1-.37-.12-.77-.29-1.1-.24-.48-.58-.87-.79-1.38-.07-.16-.27-.02-.26,.13,.03,.33,.09,.63,.17,.94-.3-.28-.63-.51-1-.89-.78-.82-1.09-1.68-1.45-2.78-.06-.17-.31-.15-.33,.07-.08,1.65,.2,2.92,1.36,3.97,.84,.76,1.3,1.13,1.7,2.31,.1,.3,.21,.61,.33,.91,0,.42,.01,.84,.09,1.25,.04,.21,.32,.13,.35-.07Z"/>
      <path class="cls-13" d="M46.96,28.76c-.25-.7-.96-1.03-1.3-1.68-.4-.76-.4-2.26-.62-3.15-.45-1.8-.85-3.81-1-5.7,0-.11-.16-.06-.17,.03-.23,2.16,.03,4.36,.4,6.42,.17,.96,.07,2.1,.5,2.97,.37,.75,1.14,.96,1.61,1.57,.25,.33,.69-.13,.57-.47Z"/>
      <path class="cls-15" d="M50.15,35.25c.25-1.19,.33-2.55-.44-3.4-.39-1.97-1.57-2.84-2.69-4.34-1.04-1.38-1.09-2.85-.89-4.64,0-.08,.19-2.58,0-2.46,.07-.05,.03-.17-.05-.14-.04,.01-.07,.03-.11,.04-.03,.01-.05,.04-.06,.07-.47,1.86-1.27,4.86-.62,6.66,.64,1.78,2.32,2.82,3.49,4.24-.65-.19-1.39-.16-2.05-.38-.85-.27-3.22-1.9-3.4-2.91-.01-.08-.1-.09-.16-.04-.02,.02-.05,.04-.07,.06-.06,.05-.05,.13-.03,.19,.61,1.74,1.77,3.46,3.52,4.04,.34,.11,.7,.11,1.04,.24,1.78,.68,1.4,1.62,1.13,3.19-.22,1.25-.09,2.53-.5,3.75-.12,.36,.36,.53,.55,.21,.73-1.22,1.07-3.02,1.35-4.38Z"/>
      <path class="cls-6" d="M51.56,32.68c-.09-2.03,.32-3.94,.41-5.99,.04-1.03,.19-2.06,.07-3.07-.14-1.26-.55-1.78-.92-2.98-.05-.16-.26-.08-.25,.08,.23,2.25,.15,4.33,0,6.64-.05,.85-.24,1.77-.2,2.61,.05,.96,.49,1.82,.56,2.77,.01,.19,.33,.13,.32-.07Z"/>
      <path class="cls-6" d="M69.3,3.72c.15-.24,.3-.51,.33-.79,0-.05,0-.1-.01-.15,.01-.02,.03-.05,.05-.1,.15-.39-.05-.78-.18-1.11-.07-.17-.16-.29-.27-.39,0-.11,.02-.23,.02-.34,0-.12-.06-.2-.15-.24,0-.3-.3-.56-.62-.48-2.81,.68-4.61,3.06-5.84,5.7-.1,.21,.14,.34,.27,.15,.79-1.15,2-2.37,3.1-3.14,.63-.44,1.34-.76,2-1.16,.07,.11,.15,.21,.23,.32-.95,1.66-2.83,2.47-4.02,3.97-1.2,1.52-1.77,3.55-1.79,5.38,0,.22,.27,.23,.35,.02,.48-1.24,1.16-2.55,1.87-3.67,.72-1.14,1.81-1.7,2.67-2.68,.47-.53,.92-1.15,1.27-1.81,0-.02-.1,.32-.12,.4-.07,.37-.02,.9-.19,1.22-.12,.22,.17,.39,.3,.17,.26-.41,.45-.86,.72-1.28Z"/>
      <path class="cls-7" d="M70.15,.7s-.08-.06-.13-.08c0,0,0,0,0,0,0-.02,0-.05,0-.07,0-.24-.13-.47-.37-.52-.64-.12-.99,.3-1.5,.68-.27,.2-.53,.42-.8,.62-.15,.11-.37,.41-.53,.44-.22,.04-.25,.32-.06,.39,.18,.07,.37,0,.55-.07,.18-.08,.37-.12,.56-.17-.88,.77-1.81,1.58-2.56,2.47-.74,.87-1.04,1.94-1.55,2.96-.06,.12,.09,.21,.16,.09,.84-1.3,1.78-2.4,2.97-3.35,.83-.66,1.64-1.18,2.01-2.21,.05-.05,.1-.11,.16-.16,.03,.02,.05,.05,.08,.07-.01,.04-.02,.08-.03,.11-.13,.34-.25,.64-.34,.99-.08,.32,.26,.51,.49,.28,.51-.5,1.62-1.8,.9-2.46Z"/>
      <path class="cls-15" d="M66.08,11.91c.11-.14-.01-.37-.17-.25-.64,.5-1.49,.7-2.19,1.09-.28,.16-.52,.33-.76,.52,.39-1.08,.72-2.19,1.3-3.18,.66-1.12,1.38-2.44,2.16-3.47,.1-.13,0-.35-.16-.24-1.26,.91-2.17,1.76-2.99,3.14-.76,1.27-.97,3.01-1.13,4.52-.11,.12-.22,.25-.33,.38-.09,.11-.16,.23-.24,.34,.06-.6,.05-1.21-.02-1.78-.09-.79-.3-1.56-.56-2.29-.11-.31-.41-.6-.49-.89-.04-.16-.28-.17-.33,.02-.13,.51-.17,.93-.18,1.35-.03-.16-.06-.32-.07-.49-.07-1.83,.92-3.01,1.69-4.64,.06-.13-.07-.24-.17-.14-.85,.83-1.75,1.15-2.33,2.24-.4,.76-.46,1.39-.52,1.87-.12,.92-.07,1.68,.23,2.53,.27,.77,.65,1.37,.88,2.14-.05,.13-.08,.28-.06,.46,.34,2.3-1.36,4.71-2.33,6.84-1.04,2.29-1.74,4.87-2.89,7.09-.16,.31,.24,.54,.41,.24,1.56-2.7,3-5.33,4.44-8.12,.28-.55,.59-1.11,.87-1.68,.2-.32,.38-.64,.55-.97,.75-1.14,1.5-2.27,2.36-3.31,.97-1.17,2.04-2.16,3.03-3.33Z"/>
      <path class="cls-2" d="M59.88,18.99c.61-1.27,1.39-2.68,1.21-4.07-.01-.09-.14-.09-.18-.01-.21,.37-.4,.76-.6,1.14,.29-2.29-.35-4.61-1.15-6.79-.02-.06-.13-.06-.16,0-.79,1.74,.03,3.09,.07,4.79,.05,2.01-.37,3.95-.76,5.96-.52,1.01-1.04,2.1-1.24,3.14-.05,.24,.21,.34,.35,.14,.91-1.26,1.79-2.9,2.46-4.29Z"/>
      <path class="cls-6" d="M75.43,14.17c.35-1.01-.4-1.41-1.16-1.62-1.59-.45-3.45-.08-5,.88-.06,.02-.12,.04-.18,.07-.48,.21-.97,.37-1.39,.72-.49,.42-.69,.97-1.09,1.46-.17,.21,.05,.46,.26,.28,.53-.47,1.12-.76,1.75-.99,0,0,.01,0,.02,0,.51-.19,1.08-.19,1.62-.13-.43,.25-.82,.53-1.15,.82-1.35,1.22-1.53,3.15-2.77,4.4-.18,.18-.01,.43,.19,.38,1.65-.44,1.93-1.78,3.02-3.03,.99-1.14,2.48-1.3,3.67-2.01-.41,.55-.83,1.07-.93,1.18-.19,.2,.02,.49,.24,.35,1.05-.65,2.46-1.46,2.92-2.77Z"/>
      <path class="cls-15" d="M71.89,18.14c.09-.15-.08-.25-.19-.15-.9,.8-1.5,2.02-2.49,2.68-.59,.39-1.21,.5-1.85,.54,.38-.28,.74-.59,1.03-.95,.65-.81,1.01-1.85,1.65-2.7,.09-.12,0-.25-.13-.18-1.53,.78-2.57,2.44-4.09,3.35-1.09,.65-2.39,.92-3.51,1.48-1.05,.37-2.05,.89-3.06,1.67-2.14,1.66-2.86,3.73-4.21,6.06-.13,.22,.16,.47,.32,.25,1.35-1.8,2.73-3.75,4.51-5.08,1.49-1.12,2.96-1.46,4.53-1.93,1.21-.14,2.43-.17,3.78-.57,2.33-.68,2.55-2.51,3.72-4.46Z"/>
      <path class="cls-2" d="M70.23,20.88c-.8,.26-1.48,.81-2.33,.91-.79,.1-1.56-.06-2.35,.07-.6,.1-1.15,.36-1.72,.58-.34,.13-.68,.16-.9,.5-.09,.13,.04,.26,.16,.22,.52-.14,1.03-.19,1.55-.3,.37-.08,.72-.23,1.1-.25,.45-.02,.8,.14,1.23,.16,1.32,.06,2.51-.48,3.4-1.64,.09-.12,.03-.31-.13-.25Z"/>
      <path class="cls-7" d="M75.53,13.2c-.13-.37-.51-.48-.83-.59,.17,.06-.14-.05-.23-.06-.16-.01-.33,0-.49,0-.03,0-.06,0-.08,.01-.65-.29-1.62-.2-2.23-.02-.63,.18-1.29,.5-1.89,.82-.65,.35-1.13,.96-1.76,1.3-.17,.09-.07,.37,.1,.3,1.07-.4,2.1-.79,3.2-1.07,.51-.13,.94-.18,1.41-.11-.04,.02-.09,.03-.13,.05-.22,.1-.39,.27-.6,.38-.2,.1-.07,.38,.11,.34,.32-.07,.45-.02,.74,.06,.24,.07,.5,.06,.75,.03,.3-.03,.46-.13,.72-.3,.19-.13,.38-.14,.57-.27,.01,0,.02-.02,.03-.03,0,0,0,.01,0,.02-.04,.16,.14,.23,.24,.09,.23-.33,.54-.49,.37-.94Z"/>
      <path class="cls-2" d="M49.01,31.74c-.63-.36-1.37-.48-2.08-.64-.4-.09-1.35-.07-1.61-.43-.07-.1-.21,.02-.2,.13,.11,.76,1.15,1.07,1.7,1.32,.54,.24,1.46,.36,1.87,.82,.56,.64,.12,1.61,.25,2.38,.01,.08,.14,.08,.16-.01,.28-1.29,1.3-2.79-.08-3.58Z"/>
      <path class="cls-4" d="M76.44,32.13c-.81-.57-1.69-.38-2.64-.56-.82-.16-1.62-.43-2.47-.56-1.7-.26-3.21-1.49-4.99-1.35-1.54,.12-2.78,.86-4.1,1.74-1.46,.97-3.1,2.04-4.44,3.19-2.5,2.16-2.9,6.21,.59,6.7,1.28,.18,2.59-.2,3.91-.58,3.27,.18,6.38,1.24,9.5-1.48,1.52-1.32,3.34-2.67,4.71-4.17,.97-1.06,1.06-2.14-.08-2.94Z"/>
      <path class="cls-1" d="M77.14,33.99c.16-2.36-2.46-3.09-5.12-3.35-1.09-.45-2.12-1.01-3.22-1.43-1.61-.62-3.46-.61-5.13,.46-2.34,1.49-7.51,4.61-7.29,8.06,.02,.26,.3,.34,.46,.1,.62-.93,1.46-1.76,2.4-2.5,2.49-1.52,5.25-2.02,7.99-1.83,1.25,.09,2.54,.1,3.8,.1,2.16,0,3.7,.19,5.73,.71,.18,.05,.37-.13,.38-.33Z"/>
      <path class="cls-10" d="M76.37,32.33c-.88-1.16-2.79-1.31-4.07-1.85-1.63-.68-3.05-2.26-4.98-2.24-2.49,.03-5.4,2.21-6.75,4.53-.09,.15,.04,.36,.2,.29,1.3-.59,2.26-1.69,3.65-1.99,1.45-.31,2.73-.27,4.05,.22,1.08,.4,1.92,1.04,3.08,1.26,1.47,.28,3,.18,4.48,.37,.31,.04,.52-.33,.33-.58Z"/>
      <path class="cls-13" d="M75.77,34.33c-1.29,.34-2.24,1.67-3.3,2.5-1.13,.89-2.46,1.39-3.79,1.65-.37,.07-.71,.08-1.03,.06,1.47-.63,2.62-1.68,4.04-2.37,.23-.11,.34-.55,.03-.58-2.27-.19-4.85,.63-7.17,.97-.85,.12-1.74,.23-2.64,.35,.06-.03,.11-.07,.18-.1,.57-.3,1.13-.52,1.74-.7,.59-.17,1.46-.6,2.05-.56,.2,.02,.29-.27,.1-.33-.79-.23-1.19-.37-2.04-.21-.7,.13-1.4,.28-2.1,.47-1.44,.39-2.53,1.1-3.55,2.15-.26,.08-.52,.16-.77,.26-.87,.33-1.2,1.45-.63,2.11,.73,.86,1.93,.93,3.2,.73,1.04,.53,2.21,.46,3.46,.43,1.82-.03,3.25,.78,5.16,.33,1.34-.32,2.97-.96,4.09-1.92,1.51-1.29,2.27-3.08,3.33-4.75,.18-.28-.08-.56-.34-.49Z"/>
      <path class="cls-8" d="M72.44,38.75c-2.36,1.52-4.27,1.56-6.65,.86-.9-.27-1.77-.41-2.65-.5,.4-.36,.8-.72,1.28-.97,.27-.14,.16-.61-.11-.56-.49,.08-.98,.02-1.48,.12-.49,.09-.96,.27-1.44,.4-.97,.27-2.04,.23-2.99,.62-.73,.31-.98,1.37-.3,1.76,.56,.33,1.18,.4,1.82,.32,1.8,.85,4.19,1.19,6.09,1.22,2.67,.03,4.64-.88,6.7-2.89,.21-.21-.03-.53-.26-.38Z"/>
      <path class="cls-5" d="M69.22,34.23c.08,0,.1-.13,.03-.15-2.27-.49-4.23-.85-6.61-.21-1.51,.41-3.19,1.17-4.54,2.29,.08-.17,.15-.33,.23-.5,.57-1.15,1.41-2.2,2.24-3.17,.08-.09,.02-.25-.1-.2-2.08,.81-3.54,2.69-4.47,4.8-.18,.22-.36,.43-.57,.62-.24,.22-.52,.38-.81,.51-.6-.04-1.21-.04-1.69,.02-3.82,.49-7.55,5.33-8.78,8.96-.25,.73,.67,.97,1.05,.4,2.54-3.76,5.16-7.93,9.73-7.51,1.79,.17,2.91,1.65,4.84,1.72,1.54,.06,3.22,.38,4.77,.28,.22-.01,.27-.35,.07-.4-1.06-.26-1.77-1.01-2.86-1.22-1.09-.22-2.08-.08-3.1-.61-.14-.07-.27-.16-.4-.25,.2-.08,.39-.16,.59-.25,.86-.41,1.74-.71,2.61-1.13,.19-.09,.14-.38-.07-.32-.43,.12-.85,.2-1.28,.2-.43,0-.84-.14-1.28-.08-.18,.03-.36,.09-.54,.15,1.47-1.33,2.82-2.57,4.77-3.25,2.12-.74,4.03-.59,6.17-.7Z"/>
      <path class="cls-15" d="M62.09,41.57c-.47-.2-.93-.25-1.43-.35-1.27-.26-2.03-.69-3.11-1.36-.43-.26-.9-.47-1.38-.61,.58-.34,1.12-.76,1.64-1.22,.87-.77,1.66-2.11,2.73-2.56,.14-.06,.14-.31-.02-.28-.98,.16-1.71,.81-2.55,1.39-1.07,.75-2.22,1.31-3.34,1.95-.04,.01-.07,.02-.11,.03-.34,.11-.63,.26-.92,.44-.49,.04-.98,.11-1.48,.25-1.68,.48-2.99,1.69-4.26,2.96-1.64,1.64-3.86,4.8-4.41,7.05-.12,.5,.47,.96,.85,.48,2.72-3.52,4.83-9.06,9.59-9.33,1.94-.11,3.17,.8,4.88,1.35,.79,.26,2.52,.47,3.31,0,.07-.04,.08-.17,.01-.2Z"/>
      <g>
        <path class="cls-13" d="M38.81,36.34c-.18-1.33-.63-2.72-1.17-3.94-.08-.65-.18-1.3-.33-1.94-.26-1.09-.65-3.81-2.34-3.14-1.49,.59-.62,2.7-.16,3.55,.48,.91,1.08,1.72,1.44,2.72,.42,1.16,.71,2.29,1.32,3.34,.37,.64,1.35,.21,1.24-.59Z"/>
        <path class="cls-4" d="M41.25,40.57c.18-.79,.28-1.57,.31-2.22,.08-1.87-.17-4.11-.75-5.78-.46-1.34-1.2-3.89-2.39-4.67-.25-.17-.73-.12-.96,.17-.82,1.04-.54,2.08-.3,3.23,.04,.19,.06,.38,.1,.58-1.26-1.5-2.69-3.02-4.12-3.92-1.61-1.03-4.01-1.76-4.7,1-.33,1.32,.03,2.94,0,4.25-.02,1.5-.6,2.91-.47,4.41,.27,2.92,3.09,5.34,5.1,6.93,1.75,1.39,4.3,2.35,6.48,.6,1.41-1.14,1.8-2.9,1.68-4.56Z"/>
        <path class="cls-13" d="M38.91,32.13c-.11-.18-.43-.12-.44,.14-.02,.7,.11,1.44,.31,2.18,.04,.68,.06,1.37,.05,2.07-.01,.1-.02,.2-.03,.3-.04,.27-.09,1.02-.23,1.22-.47,.66-1.33,.28-1.73,0-.87-.58-1.68-1.28-2.53-1.91-.11-.13-.23-.25-.34-.4-.82-1.06-2.16-2.19-2.35-3.66-.03-.26-.44-.19-.45,.08-.06,2.29,.86,4.34,2.16,6.02,.39,.5,.84,.93,1.29,1.38,0,.02,.02,.05,.03,.07,.27,1.26-1.21,.49-1.79,.23-1.04-.46-2.21-1.03-3.12-1.82,0-.01-.01-.02-.01-.02,0,0,0,0,0,0,0,0,0,0,0,0h0c-.34-.76-1.32-2.04-.93-2.93,.07-.15-.14-.27-.25-.15-1.47,1.78-.24,5.41,.67,6.66,.66,.91,1.73,1.57,2.85,2.09,.61,.5,1.26,.95,1.94,1.33,1.62,.91,2.83,1.69,4.76,.47,5.04-3.2,2.14-9.98,.16-13.38Z"/>
        <path class="cls-8" d="M37.89,43.47c-.04-.79-.2-1.62-.56-2.28-.48-.88-1.55-1.1-2.11-1.88-.13-.19-.39,.07-.32,.26,.27,.75,.5,1.44,.83,2.17,.19,.41,.33,.9,.38,1.39-.02,.03-.04,.06-.06,.1-1.54-.56-3.16-.64-4.37-1.85-1.09-1.09-2.71-1.69-3.32-3.23-.05-.12-.24-.03-.21,.1,.18,.79,.17,1.55,.57,2.25,.5,.87,1.33,1.66,1.95,2.43,1.26,1.55,3.32,2.1,5.32,2.05,.1,0,.19-.03,.28-.06,.11,.1,.25,.18,.41,.21,.26,.05,.55-.07,.71-.33,.13-.21,.14-.42,.15-.62,.21-.18,.37-.43,.35-.71Z"/>
        <path class="cls-1" d="M37.94,35.14c-.53-1.55-.62-3.03-1.52-4.41-1.05-1.6-2.34-2.81-4.25-3.16-.1-.02-.19,0-.27,0-.02-.02-.05-.04-.07-.05-.18-.09-.38-.07-.57,0-.14-.08-.3-.13-.47-.1-.01-.01-.02-.03-.03-.04-1.85-1.31-3.05,2.32-2.44,3.74,.05,.12,.16,.42,.28,.48,.13,.07,.2,.07,.25,.05,0,.01,0,.02,0,.03-.13,.59-.23,1.17-.15,1.75,.22,1.56,1.35,2.3,2.25,3.35,.13,.15,.38-.06,.29-.24-.41-.84-.75-1.69-.9-2.66-.13-.91,.31-1.63,.34-2.47,.01-.4-.19-.6-.37-.89-.39-.63-.38-1.11-.04-1.59,.21,.35,.5,.66,.68,.86,.31,.35,.55,.78,.91,1.09,.29,.25,.7,.22,.99,.47,.14,.12,.36-.16,.23-.29-.31-.32-.43-.79-.55-1.25,1.19,.54,2.03,1.44,2.88,2.56,.7,.92,1.72,1.93,2.2,3,.11,.24,.43,.01,.35-.22Z"/>
        <path class="cls-1" d="M41.06,34.72c-.53-1.62-.57-3.45-.99-5.12-.17-.68-.23-1.2-.77-1.63-.4-.31-.92-.45-1.34,.02-.27-.26-.88,0-.74,.46,.12,.38,.09,.77,.18,1.15,.06,.26,.35,.54,.33,.82-.02,.24,.33,.29,.4,.04,.09-.36,.15-.75,.16-1.12,.1,.16,.19,.33,.26,.56,.17,.54,.26,1.09,.47,1.61,.48,1.2,1.24,2.23,1.69,3.43,.09,.25,.44,.02,.36-.23Z"/>
        <path class="cls-10" d="M34.94,30.75c-.24-.69-.52-1.49-.99-2.02-.25-.28-.59-.39-.88-.6-.33-.23-.28-.33-.52-.68-.74-1.07-2-.55-2.96,.05-.15,.1-.16,.38,.02,.41,.33,.05,.61,.24,.93,.33,.19,.05,.61,.05,.77,.18,.15,.12,.15,.44,.26,.61,.32,.51,.82,.45,1.32,.64,.43,.17,1.52,.89,1.8,1.29,.1,.16,.31-.06,.26-.21Z"/>
        <path class="cls-10" d="M39.77,29.98c-.17-.49,0-1.09-.24-1.53-.22-.4-.65-.49-1.06-.58-.56-.12-.81,.74-.3,.94,.64,.24,.91,.8,1.26,1.38,.13,.21,.42,.02,.34-.21Z"/>
      </g>
      <path class="cls-5" d="M38.35,59.31c1.11-2.75,2.44-5.15,4.15-7.56,1.01-1.42,2.17-2.76,2.91-4.36,.88-1.91,1.37-3.9,1.96-5.88,.04-.13-.15-.21-.21-.08-1.7,3.83-4.45,7.12-6.84,10.53,.05-.24,.1-.48,.13-.72,.18-1.52,.05-2.88-.3-4.17,.03-.28,.06-.56,.07-.84,0-.37,0-.72,.03-1.07,.53-.61,.91-1.51,1.09-2.12,.29-.96,.6-2.07,.48-3.04-.11-.84-.65-1.42-.79-2.18-.03-.16-.28-.09-.27,.08,.06,1.41-.15,2.84-.59,4.22,0-.09,.03-.19,.03-.27,.04-1.05-.52-1.81-.7-2.77-.04-.2-.31-.07-.28,.12,.05,.36-.09,1.05-.13,1.43-.05,.46-.04,.91-.13,1.36-.77-1.94-3.11-3.3-4.34-4.76-.06-.08-.21,.04-.17,.13,.54,1.31,1.48,2.25,2.28,3.32,.51,.68,1.03,1.63,1.05,2.55,.01,.53-.1,.99-.13,1.48-1.02-.16-2.06,.05-3.08-.2-1.18-.29-3.03-1.04-3.85-1.95-.11-.13-.34,.09-.24,.23,.9,1.23,1.79,2.32,3.2,2.96,.52,.24,1.08,.36,1.65,.41,.53,.11,1.09,.07,1.64,.21,.86,.22,1.54,.68,1.96,1.52,0,.01,.01,.03,.02,.04,0,.03,.02,.05,.02,.08,.26,1.11,.24,2.4,.14,3.57-.14,1.81-.94,3.47-1.54,5.18-1.37,3.06-2.22,6.36-2.45,9.55-.04,.5,.69,.71,.92,.2,1.04-2.32,1.34-4.85,2.29-7.2Z"/>
      <path class="cls-15" d="M39.94,48.71c.03-.7-.03-1.41-.19-2.01-.14-.5-.5-.99-.85-1.33-.26-.26-.82-.39-1-.71-.05-.09-.19-.04-.2,.07-.04,.38,.06,.69,.2,.98-.37-.29-.78-.53-1.19-.65-.77-.23-1.54-.22-2.29-.26-.7-.14-1.39-.3-2-.6-.05-.03-.1,0-.13,.05-.24-.15-.47-.33-.69-.58-.06-.07-.19,.03-.14,.12,.57,.96,1.38,1.78,2.43,2.13,.62,.21,1.31,.1,1.95,.18,.82,.11,1.62,.46,2.27,1,1.96,2.04,.66,5.81,.07,8.39-.09,.41,.4,.5,.56,.12,.86-2.11,1.64-4.71,1.22-6.89Z"/>
      <path class="cls-2" d="M57.89,40.55c-.51-.4-1.35-.78-1.94-.99-.59-.22-1.24-.33-1.9-.24-1.52,.21-2.75,1.27-3.98,2.25-.07,.05-.06,.19,.04,.18,.59-.11,1.06-.54,1.64-.75,.74-.26,1.51-.64,2.27-.76,1.15-.19,2.73,.09,3.76,.51,.12,.05,.21-.12,.11-.2Z"/>
      <path class="cls-14" d="M49.81,41.84s.02,0,0-.01"/>
      <path class="cls-2" d="M39.81,48.91c-.11-.88-.21-1.65-.88-2.17-.66-.51-1.5-.85-2.34-.96-.11-.01-.16,.16-.05,.19,3.73,.97,2.49,6.26,1.71,9.38-.08,.31,.31,.39,.43,.09,.8-2.01,1.4-4.46,1.14-6.54Z"/>
      <path class="cls-4" d="M58.04,64.4c-.12-1.18-2.07-1.92-2.9-2.36-.27-.14-.55-.27-.83-.41,.61-.06,1.23-.18,1.87-.38,3.17-1,8.02-4.63,4.47-7.76-1.25-1.1-3.16-1.77-4.67-2.4-.34-.14-.66-.24-.98-.31,1.32-.4,2.67-.65,3.84-1.53,.35-.26,.49-.92,.06-1.11-2.5-1.08-6.49,.22-8.84,1.91-.81,.58-1.83,1.34-2.77,2.21-1.02,.46-1.96,1.07-2.79,2.05-.84,.99-2.05,2.61-1.49,3.84,.45,1,1.72,1.39,3.05,1.57,.49,.19,.97,.38,1.46,.57,1.19,.86,2.3,1.86,3.51,2.81,1.42,1.12,4.31,3.36,6.42,2.38,.44-.2,.66-.58,.61-1.07Z"/>
      <path class="cls-4" d="M31.01,62.41c-.01-.06-.03-.11-.04-.17-.04-.16-.14-.25-.26-.29,0-.01,0-.02,0-.03,.25-.56,.29-1.25,.12-1.96,.39-1.24,.01-2.63-.58-3.75-.58-1.09-1.47-2.21-1.75-3.49-.35-1.67,.72-3.3,1.37-4.71,.19-.41,.21-.86-.08-1.17-.89-.96-2.84-1.31-4.02-.32-1.23,1.03-1.6,2.89-1.73,4.46-1.33-1.03-2.8-1.84-4.3-2.07-2.23-.35-2.89,1.88-2.74,3.8,.12,1.52,.23,3.16,.8,4.52-1.44-.28-2.79-.2-3.69,.59-.28,.24-.35,.69-.3,1.01,.47,2.99,4.27,4.15,7.05,4.52-1.91,.76-4.17,1.99-4.34,3.72-.26,2.58,3.3,1.34,4.47,.53,1.27-.88,2.43-1.92,3.74-2.73,1.3-.8,2.57-1.03,3.86-1.5,.93-.09,1.89-.25,1.79-.48,.03,0,.05,0,.08,0,.27,.13,.67-.12,.58-.48Z"/>
      <path class="cls-1" d="M62.13,56.29c.26-.56,.23-1.05-.1-1.48-1.28-1.68-3.57-2.59-5.48-3.44-.94-.42-1.79-.74-2.8-.6,.04,0,.07-.02,.11-.03,1.07-.19,2.23-.32,3.26-.62,.48-.14,.95-.34,1.19-.86,.07-.16,.06-.35-.09-.43-.72-.39-1.19-.81-2.13-.86-.96-.05-2.04,.04-2.98,.36-1.1,.37-2.02,1.03-2.96,1.76-1.15,.89-1.84,2.25-2.98,3.13-.35,.27-.1,.77,.28,.57,1.17-.64,1.96-1.68,3.22-2.14,.79-.29,1.57-.52,2.37-.71-1.68,.54-2.6,1.76-4.1,2.57-.31,.17-.12,.62,.18,.53,1.25-.35,2.58-.94,3.85-1.02,1.51-.1,2.41,.5,3.58,1.2,.53,.32,1.06,.58,1.57,.86,0,0-.01,0-.02,0-.39,.05-.62-.14-.98-.28-1.14-.45-2.33,.05-3.44,.69-.22,.13-.14,.51,.1,.48,.63-.07,1.43-.26,2.01-.02,.56,.23,.91,.87,1.49,1.1,.5,.2,.87-.06,1.36-.06,.03,0,.05,0,.07,0-.7,.72-1.44,1.41-2.22,1.97-1.13,.82-3.17,.89-4.42,.71-.34-.05-.63,.52-.28,.66,1.74,.71,3.2,1.95,5.3,.81,.97-.53,1.91-1.36,2.8-2.05,.7-.54,1.4-1.14,1.63-1.96,.23-.22,.43-.49,.59-.84Z"/>
      <path class="cls-1" d="M57.57,63.81c-1.73-1.08-4.08-.96-5.6-2.47-1.11-1.11-2.02-1.32-3.52-1.91-.14-.05-.27,.11-.18,.24,1.34,1.76,.98,3.04,2.92,4.36,1.46,.99,4.28,2.08,6.12,1.19,.58-.28,.79-1.07,.24-1.41Z"/>
      <path class="cls-10" d="M61.84,56.6c.37-.36,.46-1.17-.14-1.22-.09,0-.18,.01-.26,0-.18-.05-.38-.05-.58,.02-.42,.04-.84,.12-1.25,.27-.78,.29-1.59,.05-2.38,.15-.17,.02-.26,.2-.2,.35,.33,.83,1.3,1.08,2.12,1.07,.02,0,.04,0,.06,0-.17,.31-.34,.61-.53,.87-.73,1.03-1.54,1.76-2.59,2.39-.26,.15-.11,.59,.16,.48,1.18-.46,2.34-.38,3.35-1.42,.74-.77,1.93-1.86,2.24-2.97Z"/>
      <path class="cls-1" d="M28.85,60.09c-1.13-2.23-2.67-4.09-2.73-6.87-.03-1.72,.46-2.94,1.8-4.04,.68-.56,1.54-.81,2.1-1.53,.25-.32,.12-.72-.25-.73-2.33-.05-4.68,1.26-5.72,3.6-.16-.08-.33-.16-.47-.28-.5-.39-.85-.93-1.39-1.27-.84-.51-4.64-.97-4.43,1-.01,.02-.03,.04-.04,.06-.73,1.67-.61,3.51-.23,5.12,.11,.48,.3,.85,.53,1.17-1.02,.07-2.02,.3-2.93,.72-.35,.16-.56,.42-.67,.7-.35,.19-.57,.53-.64,1-.17,1.22,.93,1.57,1.71,2.03,1.17,.7,2.24,1.73,3.65,1.95,1.06,.17,3.88,.34,4.24-1.42,.08-.41-.2-.8-.62-.65-.97,.34-2.04,.16-2.99,0-.92-.16-1.74-.78-2.45-1.35-.07-.05-.3-.26-.56-.46,3.49-.48,6.85,.76,9.52,2.88,.2,.16,.65,0,.53-.35,0-.02-.01-.03-.02-.05,.16,.14,.33,.27,.49,.4,.87,.63,2.02-.76,1.56-1.67Zm-7.88-3.51c-.38-.73-.71-1.48-.84-2.33-.03-.22-.05-.44-.07-.65,.27,.36,.57,.69,.93,.96,.34,.25,.75-.29,.6-.64-.27-.61-.23-1.43-.42-2.09-.02-.07-.05-.13-.07-.19,.16,.2,.31,.4,.51,.58,.42,.39,1.19,.6,1.5,1.04,.21,.29,.33,.74,.41,1.22,.03,.36,.08,.71,.15,1.06,.05,.4,.1,.78,.17,1.07,.04,.17,.12,.3,.22,.41,.15,.45,.33,.88,.53,1.3-1.03-.83-2.28-1.41-3.61-1.73Z"/>
      <path class="cls-1" d="M22.77,65.18c-.69,.19-1.29,.47-1.96,.77-.28,.13-.93,.45-1.43,.54-.05-.1-.12-.19-.21-.27,.06-.08,.11-.15,.18-.22,.43-.47,.96-.74,1.47-1.09,.76-.51,1.71-1.01,2.54-1.37,.46-.19,.32-.93-.15-.76-.84,.31-1.76-.04-2.64,.26-1.01,.35-1.97,.92-2.73,1.75-.56,.61-1.34,1.48-1.22,2.35,.07,.53,.37,.8,.74,.93,.08,.15,.19,.28,.34,.39,1.61,1.14,4.3-1.22,5.46-2.55,.32-.36,.05-.86-.37-.74Z"/>
      <path class="cls-10" d="M25.01,52.25c-.13-.92-.26-1.32-.81-2.11-.4-.59-.76-1.06-1.49-1.19-.76-.14-1.3-.04-2.02-.29-.78-.28-1.32-.35-2.11,.15-.4,.25-.47,.71-.31,1.04-.1,.21-.12,.45-.02,.67,.14,.31,.38,.51,.55,.79,.15,.25,.41,.4,.65,.55,.3,.19,.69-.11,.72-.48,.03-.39-.01-.79-.14-1.13,.04,0,.08,0,.12,.02,.39,.08,.72,.2,1.12,.21,.77,.02,1.35-.13,1.98,.46,.4,.37,1.09,.92,1.21,1.51,.08,.37,.6,.18,.55-.19Z"/>
      <path class="cls-10" d="M22.44,58.26c-.84-.76-2.22-1.69-3.26-.74-.44-.04-1.38-.41-1.85-.38-.82,.05-1.57,.49-2.07,1.22-.36,.52,.07,1.14,.57,1.12,.39-.01,.47-.1,.84-.2,.49-.14,.79-.12,1.27-.05,.41,.05,.83,.23,1.24,.21,.52-.02,.68-.28,1.07-.61,.03-.08,.07-.16,.1-.24,.25,.03,.51,.05,.76,.08,.33,.04,.66,.11,.98,.19,.29,.07,.57-.38,.34-.59Z"/>
      <path class="cls-10" d="M19.68,64.44c.15-.01-.2-.03-.22-.03-.07,0-.17,.02-.24,.04-.28,.1-.55,.36-.78,.56-.53,.46-.88,1.04-1.29,1.6-.52,.72,.52,1.55,1.09,.86,.35-.43,.63-.91,.97-1.35,.21-.28,.47-.54,.64-.84,.34-.26,.31-.88-.17-.84Z"/>
      <path class="cls-13" d="M29.65,46.99c-.06-.43-.13-.4-.46-.61-.26-.16-.38-.48-.67-.63-.37-.17-.74-.17-1.11-.06-.61,.01-1.32,.34-1.7,.74-.9,.95-1.31,2.66-1.56,3.87-.07,.33,.24,.49,.49,.28,.94-.83,1.41-2.48,2.55-3.01,.21-.1,.52-.21,.78-.36,.09,0,.18-.02,.28-.01,.22,.02,.41,.12,.63,.12,.2,0,.4-.07,.6-.07,.13,0,.21-.15,.19-.26Z"/>
      <path class="cls-13" d="M30.45,61.55c.09-.25,.11-.51-.01-.75,.06-.1,.1-.22,.12-.35,.15-1.04-.3-2.11-.44-3.1-.13-.87-.29-1.53-.77-2.22-.24-.35-.75,.14-.6,.5,.35,.83,.2,1.84,.11,2.82-.32-.72-.6-1.48-.82-2.24-.41-1.41-.7-3.21-.37-4.76,.07-.31-.24-.49-.47-.27-1.75,1.61-1.75,3.76-1.48,5.84,.16,1.22,.52,2.87,1.27,4.03-.76-.53-1.62-1.03-2.53-1.22-.83-.17-1.69-.09-2.54-.08-.48,0-.61,.81-.15,.89,1.12,.21,2.02,.97,2.95,1.65-1.29,.91-2.27,2.2-3.75,2.78-.3,.12-.46,.64-.13,.78,1.22,.52,2.37,.25,3.63-.5,1.02-.61,1.84-1.07,2.97-1.28,.86-.16,1.71-.22,2.48-.75,.55-.38,.76-1.21,.54-1.77Z"/>
      <path class="cls-8" d="M30.08,61.09c-.18-.02-.36-.02-.55-.02-.94-.49-3.01-1-3.47,.45-.06,.18,.04,.43,.23,.44,.03,0,.05,0,.08,.01-.13,.09-.26,.18-.39,.28-.6,.5-1.14,1.09-1.77,1.55-.45,.33-1.46,1.17-1.98,1.15-.44-.02-.46,.63-.13,.76,.97,.37,2.56-.01,3.55-.53,.67-.35,1.24-.99,1.93-1.27,.73-.3,1.62-.23,2.38-.44,1.09-.31,1.25-2.28,.11-2.38Z"/>
      <path class="cls-13" d="M25.32,59.15c-1.03-1.21-.3-2.77-.79-4.15-.24-.66-.74-1.25-1.32-1.66-.02-.02-.05-.04-.07-.05-.29-.19-.59-.35-.9-.43-.01,0-.03,0-.04,0-.56-.22-1.05-.53-1.71-.55-.1,0-.24,.11-.26,.22-.15,.85,.27,1.39,.62,1.73,.34,.33,.77,.37,1.13,.63,0,0,0,0,0,0-.2-.05-.41-.13-.61-.11-.4,.04-.4,.62-.03,.64,.29,.02,.8,.52,.97,.71,.25,.28,.38,.66,.42,1.06,.04,.51,.56,.6,.95,.39,.25,.83,.66,1.52,1.34,2.01,.23,.17,.5-.24,.32-.44Z"/>
      <path class="cls-5" d="M31.89,62.37c.28-.99,.2-2.41-.03-3.35-.14-.55-.45-.78-.72-1.22-.12-.19-.16-.42-.31-.6-.16-.2-.4-.26-.58-.44-.25-.23-.65,.1-.51,.42,.11,.26,.28,.38,.27,.71,0,.28-.09,.53-.05,.81,.06,.33,.1,.42,.06,.77-.02,.22-.03,.41-.05,.62-.1-.11-.21-.22-.35-.33-.75-.58-1.76-1.03-2.13-2.02-.11-.29-.56-.05-.5,.24,.19,.9,.11,1.7,.67,2.44,.25,.33,.58,.61,.82,.94,.21,.29,.25,.6,.35,.98,0,.02,.01,.03,.02,.05-.24,.1-.48,.19-.71,.23-.49,.08-.99,.15-1.48,.23-.21,.03-.4,.04-.59,.15-.07,.04-.44,.38-.29,.27-.27,.2-.32,.63-.04,.78-.11-.06,0,0,.05,.08,.05,.07,.1,.15,.15,.22,.21,.24,.46,.36,.77,.42,.54,.1,1.22,.02,1.78-.04,.5-.06,1.1-.36,1.56-.61,.4-.22,.77-.52,.97-.93,.39-.1,.74-.41,.86-.84Z"/>
      <path class="cls-15" d="M32.05,62.78c.14-.5-.24-.99-.71-.88-.25-.18-.55-.32-.8-.46-.23-.13-.44-.28-.67-.41-.33-.18-.73-.29-1-.57-.27-.29-.69,.18-.46,.49,.44,.6,.62,1.34,1.09,1.89-.86,.51-1.72,1-2.75,1.07-.19,.01-.33,.25-.24,.43,.52,1.02,1.57,.8,2.58,.49,.94-.28,2.65-.91,2.97-2.04Z"/>
      <path class="cls-13" d="M55.07,57.63c-.66-.12-1.15-.12-1.73-.45-.54-.31-1.1-.61-1.74-.68-.65-.07-1.32,.17-1.97,.18-.3,0-.58-.05-.85-.14,.29-.14,.57-.28,.87-.44,.67-.36,1.3-.54,1.98-.83,.59-.24,1.6-.72,2.26-.61,.24,.04,.42-.33,.19-.45-1.19-.65-2.51-.34-3.84,.06-.82,.24-1.6,.72-2.4,1.05-.72,.3-1.49,.43-2.21,.68,0,0,0,0,0,0,.18-.19,.37-.36,.58-.51,.77-.53,1.61-1.02,2.4-1.5,.25-.15,.09-.49-.15-.43-.99,.22-2.16,.27-3.09,.81-.73,.42-1.78,1.17-1.95,2.08-.02,.13-.02,.26,.01,.37-.13,1.24,.22,2.54,1.45,2.86,.53,.14,1.1-.04,1.62,.09,.43,.1,.5,.31,.81,.53,.3,.22,.59,.22,.93,.37,.19,.08,.44-.13,.33-.35-.15-.3-.19-.65-.27-.97,.97,.11,1.74-.3,2.72-.48,1.44-.27,3.14,1.31,4.26-.64,.13-.23,.03-.53-.2-.57Z"/>
      <path class="cls-8" d="M49.28,58.24c.21-.01,.34-.27,.26-.45-.31-.69-1.07-1.04-1.73-1.28-.79-.29-1.69-.12-2.49,.28-.16,.08-.27,.2-.34,.34,0-.19-.05-.34-.12-.47,.17-.21,.32-.46,.54-.61,.38-.26,.19-.95-.26-.75-.41,.18-.87,.52-1.19,.93-.4,.04-.79,.29-.9,.81-.25,1.29,.2,2.07,1.27,2.48,.96,.37,1.85,.29,2.81-.37,.23-.16,.22-.55-.04-.6-.19-.04-.39-.12-.58-.21,.3-.06,.6-.14,.92-.19,.64-.1,1.22,.12,1.85,.08Z"/>
      <path class="cls-5" d="M46.85,60.15c.02-1.12-1.32-1.15-2.02-1.54,0,0,0,0,0,0-.1-.1-.2-.21-.3-.31-.08-.08-.15-.17-.22-.25,.06-.03,.13-.06,.18-.09,.18-.13,.25-.32,.23-.53-.04-.34-.33-.54-.64-.65,.51-.62,.93-1.37,1.34-2.02,.61-.97,1.41-1.67,2.15-2.51,.14-.15,.05-.37-.13-.37-1.26,0-2.26,.66-3.16,1.72-.49,.58-.97,1.23-1.43,1.84-.21,.29-.42,.57-.53,.9-1.06,.33-2.23,1.27-2.79,1.83-1.79,1.81-3.37,4.39-4.11,6.82-.18,.6,.6,.9,.91,.35,1.53-2.69,2.72-4.92,5.29-6.63,.01,0,.04-.02,.07-.04,.03,.13,.1,.26,.21,.37,.57,.53,1.33,1.17,2.11,1.31,.36,.06,.73,.09,1.09,.14,.35,.05,.97-.14,1.27-.02,.2,.08,.48-.05,.49-.32Z"/>
      <path class="cls-15" d="M46.46,59.99c-2.58,0-4.37-3.39-6.71-.72-1.25,1.43-2.62,3.27-3.45,5.19,.04-.12,.08-.23,.12-.35,.51-1.69,.53-3.4,.75-5.12,.02-.19-.26-.21-.31-.02-.67,2.72-1.7,5.41-2.74,8.07-.06-.66-.23-1.29-.45-1.92-.68-1.96-1.83-3.3-4.02-2.34-.47,.21-.65,1.08-.05,1.14,1.11,.11,1.7-.12,2.36,.98,.33,.54,.53,1.2,.73,1.82,.41,1.29,.16,2.52,.08,3.8-1.64,4.19-3.72,8.41-5.95,12.32-3.16,5.54-7.47,10.45-10.97,15.82,0-.07,.03-.14,.03-.21,.18-1.79-.18-3.59-.33-5.34-.02-.2-.29-.12-.31,.06-.18,1.77-.23,3.61-.63,5.37-.36,1.58-7.43,14.89-7.71,16.43,0,.03,0,.05,0,.08-.16,.73,.75,1.17,1.23,.43,4.57-7.21,16.3-25.62,20.53-33.03,2.15-3.77,3.94-7.89,5.42-11.96,.52-1.42,1.11-2.85,1.65-4.28-.08,.36-.14,.71-.17,1.07-.02,.3,.35,.28,.45,.03,.58-1.38,.85-2.72,1.63-4.03,.65-1.08,2.47-3.58,3.69-3.85,.81-.18,1.82,.75,2.55,.96,.92,.25,1.69,.2,2.64-.06,.19-.05,.15-.34-.03-.34Z"/>
      <path class="cls-15" d="M31.92,100.35c-.3-.95-.29-1.77-.78-2.64-.57-1.01-1.26-1.91-2.12-2.64-1.28-1.08-2.81-2.37-4.62-2.32-1.44,.05-2.27,.64-3.21,1.81-1.51,1.87-3.02,3.77-4.23,5.86-.13,.22,.13,.42,.31,.24,1.85-1.87,3.66-4.81,5.89-6.1,1.79-1.03,3.46,.58,4.79,1.45,1.76,1.14,2.67,2.63,3.67,4.48,.08,.15,.36,.04,.3-.15Z"/>
      <path class="cls-15" d="M38.06,75.73c.18-.07,.16-.34-.03-.34-5.93,.05-8.54,6.16-10.66,11.16-.13,.31,.31,.56,.52,.29,1.64-2.15,2.42-4.81,4.05-6.98,1.46-1.95,4-3.29,6.12-4.14Z"/>
      <path class="cls-2" d="M50.19,41.43c.13-.13-.02-.34-.17-.24-2,1.27-3.93,3.36-5.31,5.35-1.48,2.14-3.25,4.57-4.17,7.01-.1,.26,.22,.38,.39,.22,1.75-1.67,3.32-3.39,4.51-5.53,1.19-2.16,3.01-5.11,4.74-6.81Z"/>
      <path class="cls-2" d="M41.09,59.19c-1.82,.66-3.41,3.06-4.51,4.69-1.13,1.68-1.62,3.48-2.31,5.35-.15,.4,.43,.62,.62,.24,.65-1.33,1.01-2.75,1.66-4.07,1.02-2.06,2.86-4.58,4.62-5.98,.11-.08,.06-.28-.08-.23Z"/>
      <path class="cls-2" d="M33.81,66.3c-.2-1.02-1.07-2.32-2.02-2.67-1.36-.5-2.88,.64-4.17,1.21-.16,.07-.11,.3,.05,.26,1.78-.44,3.46-1.38,4.6,.63,.49,.87,.35,1.71,.28,2.74-.18,2.87-1.26,5.82-2.43,8.53-.13,.29,.2,.5,.38,.22,1.87-2.92,3.95-7.51,3.3-10.91Z"/>
      <path class="cls-2" d="M15.56,96.57c-.01-.2-.27-.19-.3,.02-.31,2.32-7.68,16.07-8.39,18.28-.19,.6,.53,.77,.85,.32,1.39-1.93,8.01-16.43,7.85-18.63Z"/>
      <path class="cls-2" d="M28.25,95.36c-.87-1.06-2.05-2.06-3.48-2.11-1.59-.05-3.29,1.2-4.65,2.11-.55,.37-.13,1.13,.42,.84,1.25-.64,2.77-1.83,4.12-1.9,1.22-.06,2.39,.73,3.36,1.36,.17,.11,.35-.16,.23-.31Z"/>
      <g>
        <path class="cls-4" d="M20.91,86.87c-.97-1.49-2.25-2.57-3.59-3.64-.08-.07-.16-.14-.24-.21,.28-.15,.56-.3,.85-.47,2.44-.56,4.93-.92,7.17-2.65,2.12-1.64,4.14-5.71,2.46-7.96-1.95-2.61-5.28,0-7.19,1.96-1.58,1.62-3,3.26-4.65,4.78-.04,.04-.1,.09-.14,.13,.89-1.45,1.44-2.95,1.45-4.64,0-2.28-.88-7.33-3.85-6.95-2.26,.29-4.43,3.06-4.19,5.4,.18,1.77,.99,3.84,1.57,5.46,.24,.68,.62,1.42,.96,2.17-.1-.05-.2-.1-.29-.15-.02-.01-.04-.02-.07-.04-2.18-2.47-4.93-4.41-8.41-3.67-1.47,.31-2.78,1.41-2.73,3.16,.05,1.99,2.43,2.61,3.88,3.03,1.99,.58,4.27,1.48,6.51,1.67-.08,.07-.15,.14-.23,.21-.82,.17-1.64,.36-2.42,.78-1.76,.94-3.82,2.21-5.17,3.82-2.06,2.46-1.99,5.17,.73,6.38,2.51,1.12,4.85-.45,6.33-2.95,1.2-2.02,2.34-4.12,3.49-6.18,.08,1.43,.43,2.84,.87,4.35,.68,2.31,2.81,5.52,5.51,3.6,2.28-1.62,2.72-5.41,1.41-7.43Z"/>
        <path class="cls-1" d="M26.49,72.64c.05-.16-.16-.25-.25-.1-.43,.75-.91,1.45-1.35,2.19-.93,1.56-1.57,1.83-3.11,2.54-1.99,.92-4.46,1.59-6.17,3.08-.57,.49-.05,1.41,.58,1.19,2.65-.93,5.53-1.93,7.94-3.6,1.85-1.28,1.77-3.29,2.37-5.3Z"/>
        <path class="cls-13" d="M26.59,72.64c.11-.25,.03-.64-.15-.8-.72-.62-1.65-.13-2.43,.49-1.03,.64-1.97,1.54-2.62,2.58-.16,.25,.11,.51,.34,.37,.63-.37,1.28-.66,1.9-1.05-.3,.33-.6,.62-.81,.84-.66,.67-1.66,1.43-2.62,2-.64,.23-1.28,.44-1.91,.64,.36-.25,.71-.51,1.06-.81,.11-.09,0-.24-.11-.22-.88,.21-1.72-.02-2.6,.47-1.03,.58-1.92,1.82-2.43,2.89-.21,.46,.15,.97,.62,.68,.03-.02,.06-.04,.09-.06,.11,.07,.24,.1,.39,.05,.66-.23,1.19-.72,1.83-1.03,.64-.31,1.32-.46,1.95-.8,.58-.31,1.44-.79,2.07-1.34,2.26-.88,4.4-2.45,5.45-4.9Z"/>
        <path class="cls-10" d="M26.82,73.17c.05-.12-.09-.16-.17-.1-.56,.48-.88,1.1-1.38,1.65-1.05,1.13-2.32,1.41-3.6,2.05-1.85,.93-3.7,2.04-5.54,3.03-.49,.26-.22,1.04,.28,.88,2.65-.89,5.15-2.4,7.63-3.78,1.45-.81,2.19-2.21,2.78-3.72Z"/>
        <path class="cls-13" d="M20.4,89.98c.03,.25,.39,.28,.51,.05,1.49-2.81-1.85-5.54-4.26-7,.91-.04,1.87-.46,2.77-.7,1.21-.32,2.51-.51,3.69-1.01,1.85-.79,3.19-2.4,3.97-4.33,.06-.15-.11-.26-.22-.18-.77,.48-1.24,1.14-1.91,1.77-.7,.66-1.42,1.04-2.2,1.31,.27-.19,.53-.4,.75-.62,.2-.19,.02-.5-.21-.43-1.12,.32-2.28,.51-3.4,.84-1.26,.37-2.41,1.19-3.54,1.94-.41,.2-.56,.64-.47,.98-.23-.12-.44-.24-.63-.33-.25-.12-.5-.07-.72,.05-.24-.08-.52-.08-.81,.07-.07,.04-.14,.08-.22,.12-.01,0-.02,.01-.03,.02-1.54,.85-2.87,2.2-3.86,3.72-.67,1.02-1.73,2.57-2,3.75-.07,.31,.25,.55,.49,.29,.84-.89,1.71-1.68,2.51-2.67,.17-.21,.36-.41,.54-.6-.1,.29-.13,.58-.25,.87-.22,.58,.51,.75,.82,.33,.53-.73,1.14-1.4,1.76-2.05,.12,.22,.23,.45,.31,.7,.26,.82,.25,1.78,.41,2.64,.38,2.06,1.25,2.77,2.67,3.94,.36,.29,.84-.1,.69-.56-.34-1.06-.82-1.88-.86-3.07-.02-.65-.02-1.3-.04-1.95,.09,.16,.17,.33,.21,.51,.17,.72,1.24,.38,1.1-.35-.11-.57-.2-1.07-.41-1.56,.02,.02,.05,.04,.07,.05,1.14,.89,2.56,1.8,2.76,3.48Z"/>
        <path class="cls-8" d="M26.1,73.42c.22-.55-.5-.73-.79-.32-1.04,1.45-2.3,2.16-3.8,2.93-.98,.5-1.88,1.2-2.84,1.69-.12,.06-.05,.28,.07,.23,2.45-1.09,6.17-1.59,7.35-4.53Z"/>
        <path class="cls-8" d="M18.05,78.04c-.54-.16-1.18,.05-1.67,.4-.61,.43-1.33,.96-1.72,1.63-.29,.51,.2,1.04,.68,.75,.51-.3,.93-.81,1.39-1.2,.44-.38,.85-.63,1.36-.88,.32-.15,.22-.63-.04-.71Z"/>
        <path class="cls-8" d="M21.57,80.08c-.84-.19-1.67-.03-2.5,.35-.78,.36-2.22,.65-2.52,1.62-.02,.05,0,.1-.01,.15-.22,.36,.03,.96,.54,.87,.52-.1,1.03-.4,1.51-.7,.17,.02,.37-.14,.41-.33,.14-.1,.28-.2,.4-.28,.71-.5,1.43-.81,2.2-1.19,.21-.11,.17-.45-.03-.49Z"/>
        <path class="cls-1" d="M14.6,80.2c.07-.09,.14-.19,.19-.31,.23,0,.46-.1,.65-.34,1.11-1.38,1.85-3.37,1.74-5.1-.11-1.75-1.23-2.71-2.4-3.65-.26-.21-.64,.24-.5,.52,.26,.53,.25,1.14,.42,1.7,.21,.68,.35,1.31,.18,2.07-.1,.44-.25,.88-.4,1.31-.08-.14-.16-.28-.25-.41-.19-.28-.55-.55-.67-.88-.18-.47-.88-.19-.91,.3-.04,.55,.1,1.15,.21,1.71-.19-.16-.37-.31-.53-.5-.43-.5-.79-1.11-1.13-1.69-.23-.4-.66-.81-.84-1.22-.12-.28-.6-.14-.6,.19,.01,1.18,.27,2.43,.55,3.54,.17,.67,.43,1.14,.79,1.68,.52,.77,.47,1.58,.89,2.39,.3,.58,.85,.73,1.46,.61,.12-.02,.23-.05,.35-.07,.81-.16,1.1-1.21,.8-1.86Z"/>
        <path class="cls-10" d="M14.39,79.78c.04-.14,.05-.27,.06-.39,.09-.08,.16-.17,.2-.32,.19-.66,.22-1.36,.25-2.03,.04-.66-.85-.6-.94,.04-.05,.35-.13,.68-.22,1.01-.09-.09-.19-.18-.28-.29-.27-.3-.53-.61-.81-.89-.17-.17-.7-.41-.78-.6-.17-.42-.8-.18-.83,.27-.03,.4,.18,.63,.29,.98,.18,.54,.3,1.05,.52,1.56,.1,.22,.19,.42,.31,.62,.23,.38,.19,.26,.13,.13,.24,.46,.36,.87,.99,.82,.46-.04,.98-.4,1.11-.92Z"/>
        <path class="cls-13" d="M16.2,71.08c-.03-.12,.07-.41,.06-.56,0-.19-.07-.3-.11-.48-.1-.43-.17-.77-.38-1.15-.19-.35-.42-.61-.68-.8-.16-.61-.67-1.05-1.33-1.18-1.04-.21-1.99,.44-2.7,1.32-1.33,1.67-1.91,3.17-1.65,5.22,.03,.2,.25,.17,.35,.03,.65-.88,.84-2.02,1.52-2.89,.28-.05,.58-.11,.84-.1,.08,0,.14,.03,.2,.06,.09,.2,.15,.41,.15,.67,0,.34-.02,.69,.02,1.02,.06,.45,.3,.78,.42,1.2,.12,.43,.7,.34,.77-.14,.07-.54,.13-1.1,.33-1.62,.18-.46,.4-.86,.44-1.35,.07,.07,.14,.12,.21,.19,.29,.32,.66,.75,1.04,.93,.22,.1,.53-.11,.47-.39Z"/>
        <path class="cls-1" d="M15.24,68.36c-.71-1.59-2.43-1.91-3.9-.65-.81,.69-1.24,1.34-1.56,2.34-.35,1.09-.33,2.19-.7,3.28-.14,.4,.38,.59,.6,.24,.75-1.21,.39-2.74,1.25-3.94,1.11-1.55,2.63-1.88,3.99-.93,.18,.13,.41-.15,.32-.34Z"/>
        <path class="cls-8" d="M14.46,69.73c.07-.62-.22-1.41-.79-1.57-.12-.03-.27,0-.4,.07-.21-.41-.98-.16-.95,.36,.02,.4-.16,.84-.07,1.22,.04,.19,.23,.33,.43,.26,.22-.08,.38-.23,.5-.41,.03,.05,.05,.09,.08,.14,.17,.32,.16,.81-.03,1.18-.14,.28,.17,.59,.4,.32,.35-.41,.78-1.05,.84-1.58Z"/>
        <path class="cls-1" d="M11.6,83.44c-.37-.41-.59-.87-1.06-1.2-.52-.37-1.22-.69-1.89-.91-.76-.57-1.78-.69-2.7-.92-1.18-.29-2.37-.67-3.32-1.43-.23-.18-.47,.23-.33,.44,.34,.48,.72,.88,1.13,1.24-.98-.16-1.82-.5-2.45-1.34-.14-.19-.45,.03-.41,.26,.22,1.19,.66,1.97,1.71,2.43,.53,.23,1.15,.33,1.71,.48,.26,.07,.53,.16,.79,.24,.71,.34,1.46,.54,2.27,.73,1.43,.33,2.79,.59,4.29,.57,.28,0,.43-.39,.26-.59Z"/>
        <path class="cls-13" d="M12.01,81.45c-1.12-1.27-1.82-3.1-3.32-3.98-.97-.56-2.35-1-3.61-.85-.48-.13-.98-.18-1.42-.16-.97,.05-1.85,.54-2.5,1.37-.16,.21-.06,.59,.23,.47,.65-.26,1.54-.14,2.16-.02,.44,.09,.85,.24,1.26,.41-.09-.02-.18-.05-.28-.07-.54-.15-1.08-.3-1.66-.29-.35,0-.47,.6-.12,.67,.54,.1,1.01,.59,1.51,.82,.55,.25,1.11,.43,1.71,.52,.56,.08,1.06-.8,.56-1.1,.13,0,.25-.04,.35-.11,.48,.21,.94,.46,1.37,.79,1.12,.88,2.08,1.46,3.37,2.01,.27,.12,.6-.25,.37-.5Z"/>
        <path class="cls-10" d="M8.56,81.71c-.79-.15-1.6-.22-2.38-.42-.97-.25-1.82-.71-2.73-1.08-.35-.14-.84,.12-.93,.49,0,0,0,0-.01-.01-.34-.25-.65-.51-.91-.85-.19-.25-.36-.48-.61-.67-.24-.18-.53,.2-.43,.45,.09,.2,.07,.42,.11,.64,.04,.24,.13,.47,.24,.68,.26,.46,.62,.73,1.11,.86,.37,.1,.62-.19,.68-.5,.6,.86,1.62,1.31,2.66,1.41,.57,.06,1.11,.03,1.68,.02,.55-.01,.91-.26,1.47-.37,.31-.06,.32-.58,.04-.64Z"/>
        <path class="cls-1" d="M10.85,88.63c.03-.28-.32-.34-.46-.11-.85,1.4-1.97,2.48-3.16,3.52-.72,.64-1.43,.91-2.23,1.1,1.1-1.44,1.88-3.16,3.3-4.35,.21-.17,.07-.54-.17-.51-.41,.04-.82,.17-1.22,.33,1.38-1.05,3.05-1.86,4.13-3.21,.21-.26,.06-.64-.27-.55-3.71,1-9.16,2.59-8.75,7.81,.07,.89,.76,1.09,1.41,.85,.07,.07,.16,.12,.25,.17-.36,.47-.36,1.24-.03,1.66,.94,1.21,3.41,.24,4.39-.84,1.55-1.7,2.59-3.62,2.82-5.87Z"/>
        <path class="cls-10" d="M4.54,91.54c.27-.26,.49-.57,.74-.86,.2-.23,.46-.62,.71-.79,.24-.17,.12-.51-.15-.46-.11,.03-.21,.07-.32,.11,.31-.39,.66-.75,1.1-1.06,.91-.66,1.73-1.25,2.49-2.11,.13-.15,0-.38-.18-.27-1.19,.75-2.54,.96-3.73,1.68-.11,.07-.2,.15-.3,.22-.02,0-.03,.01-.05,.02-.05,.03-.08,.07-.12,.11-.11,.09-.22,.17-.31,.27,0,0,0,0,0,0-.56,.56-.97,1.27-1.26,2.05-.08,.23-.07,.42,0,.58-.13,.45-.13,.94-.29,1.38-.13,.35,.31,.46,.5,.2,.24-.34,.5-.64,.74-.96,.14,.04,.3,.01,.44-.12Z"/>
        <path class="cls-8" d="M15.96,89.84c-.42-1.05,0-2.44-.01-3.57,0-.19-.03-.34-.05-.51,.26,.09,.59-.17,.67-.47,.17,.12,.34,.22,.5,.34,.45,.33,1.09-.52,.67-.9-.47-.43-.95-.83-1.44-1.22-.16-.13-.33-.12-.48-.04-.14-.23-.29-.46-.48-.66-.23-.24-.57-.18-.82,0,.24-.51,.49-1.03,.73-1.54,.25-.52-.36-.89-.68-.4-.26,.41-.53,.81-.79,1.22-.33-.21-.71-.36-1.12-.35-.21,0-.4,.1-.55,.23-.39-.1-.79-.18-1.1-.46-.01-.01-.03-.01-.04-.02,.23-.17,.38-.46,.2-.73-.62-.94-1.95-2.08-3.14-2.01-.19,.01-.37,.12-.51,.27-.34-.14-.69-.33-.93-.39-.35-.09-.69-.07-1.06-.08-.32-.01-.47,.51-.2,.65,.8,.43,1.79,1.4,2.72,1.43,.2,0,.37-.11,.5-.26,.64,.3,1.31,.98,1.82,1.23,.03,.02,.07,.02,.11,.03-.08,.13-.11,.29,.01,.44,.42,.52,.96,.99,1.51,1.4,.16,.16,.34,.27,.54,.37,.13,.09,.27,.11,.4,.1-.13,.13-.26,.27-.39,.38-.55,.5-1.07,1.15-1.28,1.88-.13,.46,.41,.64,.66,.27,.37-.54,1.03-.84,1.67-1.16,.26,.65,.39,1.26,.51,2.06,.17,1.18,.73,1.89,1.33,2.81,.19,.29,.64,.03,.5-.32Z"/>
        <path class="cls-1" d="M19.43,93.94c.04-.11,.04-.23,.06-.35,.25-.02,.5-.16,.66-.47,.34-.66,.48-1.35,.4-2.06-.01-.13-.06-.23-.11-.32,.06-.59,.13-1.26-.13-1.81-.44-.91-1.39-1.57-2.2-2.05-.32-.19-.73,.33-.46,.61,.41,.42,1.24,1.54,1.26,2.27,0,.35-.13,.71-.25,1.07-.21-.35-.44-.68-.67-1.03-.26-.38-.81,.14-.65,.53,.27,.68,.34,1.35,.38,2.11,.01,.26,0,.51,0,.76-.12,0-.23,0-.35-.02-.33-.02-.63-.15-.92-.29-.42-.2-.78,.43-.41,.71,.57,.43,1,.89,1.73,1.02,.14,.02,.25,0,.36-.05,.42,.25,1.13-.08,1.32-.63Z"/>
        <path class="cls-10" d="M19.41,93.62c.37-.72,.1-1.48,.32-2.22,.1-.33-.35-.54-.51-.2-.14,.3-.25,.61-.37,.92-.04,.09-.07,.25-.11,.4-.02-.05-.04-.09-.06-.13-.1-.17-.24-.3-.31-.5-.1-.31-.6-.19-.68,.13-.12,.51-.12,1.01-.1,1.52,.02,.56,.51,.98,1.06,.63,.01,0,.03-.02,.04-.03,.08-.05,.14-.12,.19-.19,.19,.02,.4-.06,.53-.32Z"/>
        <path class="cls-12" d="M16.39,83.62c-.25-.18-.49-.43-.75-.64,0-.21-.05-.42-.21-.6-.02-.02-.04-.02-.06-.04,.11-.15,.22-.3,.32-.43,.24-.29-.07-.64-.35-.38-.13,.12-.26,.21-.4,.3,0,0,0,0,0-.01,.07-.55-.54-.89-.98-.59-.01,0-.02,.02-.03,.02,0-.09,.02-.18,.03-.27,.07-.39-.44-.36-.57-.05-.13,.31-.32,.65-.42,.99-.02,.03-.04,.06-.06,.09-.45-.1-.94-.08-1.36,.08-.47,.18-.47,.79-.06,.95,.26,.1,.51,.24,.76,.39-.06,.19-.04,.37,.07,.52,0,0,.01,.01,.02,.02,.02,.2,.16,.38,.34,.44-.05,.25-.09,.47-.03,.72,.12,.53,.74,.56,1.05,.1,.09-.14,.18-.28,.26-.42,.17,.29,.43,.47,.84,.38,.23-.05,.48-.37,.47-.62,0-.14-.03-.26-.07-.39,.24,.11,.48,.2,.68,.33,.49,.32,.98-.55,.52-.89Z"/>
        <path class="cls-11" d="M13.68,84.91s0,0,.01,0c.05-.01,.09-.04,.14-.07,0,0,.01,0,.02-.01,.03-.02,.06-.05,.08-.08,.03-.04,.06-.09,.08-.15,0,0,0,0,0,0,0,0,0,0,0,0,0-.01,.01-.03,.01-.04h0c.03-.11,.03-.19,.02-.27,.26-.26,.38-.72,.1-.95-.06-.05-.11-.09-.16-.12-.03-.09-.07-.14-.12-.17,.15,0,.29-.13,.34-.28-.12,.35,.1,.76,.44,.79,.5,.05,.79-.5,.65-.94-.04-.21-.16-.34-.38-.35-.22-.01-.36,.09-.53,.25-.08,.07-.13,.15-.16,.24,.02-.07,.01-.15-.02-.22,0-.02-.02-.03-.02-.05-.12-.25-.35-.2-.51-.06-.09-.08-.2-.12-.33-.07-.27,.11-.39,.25-.49,.55-.06,.21-.02,.36,.08,.46-.17,.32-.16,.77,.15,.93,.03,.02,.08,.04,.12,.06-.02,.07-.03,.16-.01,.26,0,0,0,0,0,0,0,.01,0,.03,0,.04,0,0,0,0,0,0,0,0,0,0,0,0,.01,.05,.03,.1,.06,.14,.02,.03,.04,.05,.07,.08,0,0,0,0,.01,.01,.04,.03,.08,.05,.13,.06,0,0,0,0,.01,0,.03,0,.07,0,.1,0,.04,0,.07,0,.1-.02Z"/>
        <path class="cls-11" d="M14.92,81.36c0-.18-.01-.32,.03-.5,.08-.31-.15-.59-.45-.49-.44,.14-.74,.57-.75,1.05,0,.26,.14,.54,.4,.58,.1,.02,.19,.01,.3-.01,.23-.06,.48-.36,.47-.62Z"/>
        <path class="cls-11" d="M12.55,82.45c-.21-.02-.07-.37-.17-.59-.14-.3-.48-.3-.75-.16-.18,.09-.27,.31-.3,.5-.03,.21,.03,.44,.16,.59,0,.12,.02,.24,.12,.35,.23,.26,.58,.18,.89,.11,.37-.08,.43-.76,.05-.8Z"/>
        <path class="cls-3" d="M13.11,82.57c-.07-.01-.13-.03-.19-.06-.51-.17-.81,.77-.28,.9,.11,.03,.19,.03,.31,.02,.45-.05,.61-.75,.16-.86Z"/>
        <path class="cls-3" d="M14.29,83.44s.01-.05,.02-.08c.11-.42-.27-.75-.64-.52-.02,.01-.05,.03-.07,.04-.88,.53,.42,1.56,.69,.56Z"/>
        <path class="cls-3" d="M13.96,81.28s-.05-.01-.07-.02c-.67-.17-.76,1.12-.06,.89l.08-.03c.4-.13,.44-.75,.05-.84Z"/>
        <path class="cls-3" d="M15.53,82.76c-.43-.47-1.2,.33-.77,.8,.43,.47,1.2-.33,.77-.8Z"/>
        <path class="cls-3" d="M14.99,81.79c-.24-.26-.66,.18-.42,.44,.24,.26,.66-.18,.42-.44Z"/>
        <path class="cls-9" d="M14.65,82.33c-.06-.35-.59-.19-.54,.15,.06,.37,.61,.22,.54-.15Z"/>
        <path class="cls-9" d="M13.59,83.42s-.03-.03-.04-.04c-.19-.18-.49,.12-.32,.33,.01,.01,.02,.03,.03,.04,.17,.21,.52-.15,.32-.34Z"/>
        <path class="cls-9" d="M13.18,82.43c.08-.22-.19-.29-.31-.12-.06,.09-.08,.12-.12,.22-.08,.21,.2,.3,.31,.13,.06-.09,.07-.13,.11-.22Z"/>
        <path class="cls-9" d="M14.06,83.09s0-.07,0-.1c-.04-.46-.68,.21-.25,.26,.03,0,.06,0,.1,.01,.1,.01,.17-.07,.16-.17Z"/>
        <path class="cls-9" d="M15.1,83.17s-.05-.01-.07-.02c-.29-.07-.32,.48-.02,.38l.08-.03c.16-.05,.17-.29,.02-.33Z"/>
        <path class="cls-9" d="M14.49,81.5c-.05-.06-.15,.04-.1,.1,.05,.06,.15-.04,.1-.1Z"/>
        <path class="cls-9" d="M13.74,82.61c-.16-.18-.45,.12-.29,.3,.16,.18,.45-.12,.29-.3Z"/>
      </g>
      <g>
        <path class="cls-4" d="M54.62,71.27s-.01-.05-.02-.08c.28-.69,.11-1.37-.94-1.79-.06-.02-.12-.03-.17-.05-1.28-.96-3.33-.78-5.08-.39-1.79,.4-3.38,1.36-4.9,2.5,.19-.36,.38-.74,.55-1.12,.03-.03,.07-.07,.09-.1,1.24-1.59,1.54-3.27,1.77-5.17,.3-2.49,0-6.51-3.36-4.85-1.96,.97-2.22,2.63-3.11,4.47-.89,1.83-1.73,3.57-2.19,5.52-.3-.2-.59-.41-.87-.61-1.2-.88-2.11-1.85-3.48-2.42-.37-.15-.81-.34-1.28-.5-.92-.87-2.02-1.51-3.39-1.41-4.88,.36-.55,8.37,1.77,9.16,1.21,.41,2.82,.39,4.1,.45,.47,.02,.99,.1,1.53,.17-1.95,1.46-3.8,3.42-4.79,4.76-1.58,2.16-3.53,7.36-.91,8.92,1.34,.8,2.82,.47,4.11-.38,1.53-.48,2.6-2.08,3.32-4.06,.65-1.27,1.23-2.54,1.76-3.85,.28,.34,.58,.65,.9,.96,.77,.76,1.32,1.75,2.09,2.47,.96,.89,2.66,1.92,3.93,2.31,1.07,.33,1.95,.11,2.9-.64,2.36-1.85,1.01-4.46-.49-6.09-.83-.91-1.87-1.89-2.94-2.48-.06-.03-.13-.06-.2-.09,1.44-.31,2.83-.88,4.27-1.3,2.45-.72,5.79-.58,5.03-4.3Z"/>
        <path class="cls-1" d="M33.48,85.32c.71-1.63,1.27-3.38,2.24-4.9,.2-.32-.21-.64-.45-.36-1.04,1.17-2.08,2.26-2.95,3.6-.2,.31-.38,.61-.58,.89,.13-.48,.23-.94,.32-1.3,.5-1.98,1.1-4.22,2.49-5.82,.26-.3-.02-.76-.37-.53-2,1.35-3.31,2.35-4.18,4.77-.39,1.08-1.45,3-1.29,4.32-.16,.73,.09,1.27,.65,1.68,.21,.66,.91,1.13,1.58,.6,1.14-.9,1.91-1.52,2.54-2.96Z"/>
        <path class="cls-1" d="M38.23,80.85c-.03-.19-.17-.31-.33-.38,.33-1.22,.51-2.47,.64-3.46,.04-.29-.4-.4-.53-.12-.55,1.26-1.44,2.44-2.07,3.69-.61,1.21-1.48,2.28-1.66,3.62-.07,.48,.35,.7,.74,.63-.07,.3,.26,.62,.53,.39,1.21-1.01,3-2.62,2.69-4.37Z"/>
        <path class="cls-1" d="M49.18,84.08c.33-.18,.6-.52,.66-1.01,.11-.99-.05-1.99-.55-2.76-.59-.92-1.55-1.18-2.49-1.56-.39-.16-.96,.43-.56,.75,.52,.42,1.11,1.12,1.36,1.77,.06,.15,.1,.31,.12,.47-.59-.34-1.11-.7-1.57-1.21-.36-.41-.99,.27-.64,.68,.42,.49,.8,1.01,1.19,1.52,0,0,.01,.02,.02,.03-.47-.09-.93-.23-1.4-.48-1.05-.56-2.12-1.26-2.99-2.09-.26-.25-.77,.12-.57,.47,1.41,2.36,3.18,5.76,6.53,4.74,.58-.18,.89-.77,.89-1.33Z"/>
        <path class="cls-1" d="M54.19,73.36c0-.58-.3-.85-.76-.93,.09-.15,.15-.31,.18-.47,.62-.19,.99-.86,.73-1.48-.15-.34-.37-.54-.63-.69-.08-.46-.4-.83-.91-.75-.35,.06-.66,.04-1,.14-.96,.13-1.92,.25-2.89,.37-.58,.08-.6,.92-.04,.95,.13,0,.26,.01,.39,.02-2.5,.47-5.05,2.08-6.33,4.34-.17,.3,.07,.61,.37,.52,.8-.22,1.43-.79,2.2-1.12,.67-.29,1.37-.5,2.05-.71,.64-.2,1.3-.4,1.95-.54,.46-.1,.87-.09,1.27-.04-1.06,.39-2.05,.87-2.44,.98-.59,.17-.39,1.07,.19,.93,.97-.24,1.9-.36,2.88-.41,.72-.04,1.67,.18,2.33-.29,.26-.18,.46-.49,.47-.81Z"/>
        <path class="cls-1" d="M43.87,68.02c.05-.08,.08-.16,.12-.24,.19-.28,.35-.57,.46-.89,.12-.32,.21-.73,.3-1.1,.05-.11,.08-.21,.08-.33,.02-.09,.05-.19,.07-.26,.34-1.03-.49-1.65-1.29-1.52,.01-.07,.03-.14,.03-.22,.09-.93-1.04-1.31-1.66-.64-1.09,1.18-1.77,2.6-1.74,4.14,.02,.95-.18,1.79-.37,2.74-.12,.58-.25,.99-.03,1.48,.08,.18,.34,.25,.52,.12,.8-.58,1.33-1.85,1.68-2.94,.46,.48,1.31,.49,1.82-.35Z"/>
        <path class="cls-10" d="M36.38,73.02c-.9-.44-1.72-.7-2.7-.92-1.22-.27-2-1.07-3.12-1.47-.16-.06-.34,.11-.47,.09-.52-.08-.69-.2-1.2-.7-.84-.82-1.55-1.73-2.05-2.83-.05-.1-.18-.04-.2,.07-.23,1.95,1.31,4.77,3.15,5.02,.36,.05,.45-.13,.79-.05,.33,.08,1.01,.71,1.36,.85,1.22,.5,2.78,.85,4.15,.91,.48,.02,.69-.78,.29-.98Z"/>
        <path class="cls-13" d="M36.75,71.87s-.01-.06-.03-.08c-.68-.79-1.9-1.44-2.83-1.89-.44-.21-.88-.42-1.31-.65-.28-.15-.97-.31-1.16-.57-.09-.13-.31,.06-.24,.2,.09,.18,.21,.35,.33,.52-.03,0-.04-.02-.07-.03-.96-.32-1.69-.42-2.55-1.1-.67-.53-1.05-1.39-1.76-1.84-.12-.08-.24,.09-.2,.21,.3,.83,.27,1.68,.82,2.4,.66,.86,1.8,1.59,2.76,1.97,.27,.11,.53,0,.82,.12,.26,.11,.58,.48,.85,.65,1.15,.72,2.4,1.08,3.76,1.31,.71,.11,1.1-.75,.8-1.23Z"/>
        <path class="cls-8" d="M37.07,72.26c-.83-.42-1.75-.25-2.65-.53-.86-.27-1.45-.91-2.21-1.3-.61-.31-1.2-.3-1.9-.49-1.1-.31-1.85-1.05-2.79-1.63-.09-.06-.23,.08-.17,.18,.43,.76,.83,1.54,1.52,2.03,.74,.53,1.61,.47,2.4,.78,.84,.33,1.5,1.03,2.34,1.37,1.09,.45,2.03,.41,3.23,.38,.39,0,.57-.63,.23-.8Z"/>
        <path class="cls-1" d="M33.82,68.51c-.3-.28-.56-.62-.88-.87-.25-.19-.52-.31-.79-.46-.24-.38-.7-.63-1.05-.89-.79-.6-1.57-1.15-2.63-.88-.27,.07-.4,.27-.43,.48-.36,.01-.64,.45-.38,.75,.36,.41,.85,.46,1.33,.67,.4,.17,1.09,.38,1.33,.78,.12,.2,.45,.06,.4-.19-.03-.14-.07-.27-.13-.4,.17,.09,.39,.21,.54,.32,.07,.19,.19,.33,.38,.47,.22,.17,.51,.02,.67-.22,.51,.16,.97,.38,1.45,.69,.12,.08,.29-.14,.18-.24Z"/>
        <path class="cls-1" d="M44.02,68.19c.51-.96,1.06-1.87,1.37-2.91,.28-.95,.64-2.4,.5-3.35-.06-.43-.22-.63-.44-.96-.04-.07-.14-.09-.22-.12-.01-.15-.18-.61-.13-.5-.11-.24-.36-.36-.62-.35-.79,.02-1.5,.66-1.49,1.55,0,.3,.27,.6,.59,.46,.11-.05,.3-.19,.49-.3,.17,.3,.35,.59,.37,.66,.19,.72-.23,2.22-.45,2.96-.22,.77-.53,1.53-.83,2.28-.31,.79-.44,1.84-.79,2.57-.05,.11,.02,.24,.14,.2,.75-.26,1.15-1.49,1.51-2.18Z"/>
        <path class="cls-10" d="M44.75,64.11c.16-.46,.3-.93,.44-1.41,.2-.66,.34-1.26,.09-1.88-.2-.49-.6-.89-1.17-.73-.15,.04-.32,.09-.52,.15-.07-.12-.15-.21-.38-.3-.14-.05-.31,.04-.42,.15-.45,.42-.69,.97-.84,1.56-.04,.16,.14,.27,.25,.15,.2-.21,.48-.49,.62-.74-.03-.35-.03-.41,0-.17,.02,.08,.05,.15,.1,.21,.12,.2,.3,.26,.52,.2,.05-.01,.18-.06,.21-.09,.07,.02,.13,.05,.2,.05,.09,0,.26-.08,.32-.08,.1-.12,.16-.11,.17,.02,.07,.14,.11,.3,.12,.47,.02,.48-.24,1.08-.4,1.58-.05,.04-.1,.09-.13,.16-.36,.79-.69,1.64-.92,2.47-.2,.73-.16,1.41-.18,2.14,0,.21,.25,.21,.33,.02,.5-1.26,1.46-2.57,1.6-3.93Z"/>
        <path class="cls-10" d="M44.14,61.62c-.16-.53-.98-.44-.99,.2-.02,.74-.3,1.37-.63,2.04-.31,.63-.61,1.25-.91,1.89-.1,.22,.16,.38,.29,.17,.77-1.22,2.71-2.73,2.24-4.31Z"/>
        <path class="cls-13" d="M48.46,85.31c-2.36-.56-4.28-1.69-5.71-3.71-.52-.73-1.09-1.57-1.63-2.43,.3,.23,.6,.47,.85,.76,.2,.25,.6-.11,.47-.39-.13-.27-.27-.52-.42-.78,.37,.33,.72,.77,1.27,.52,.03-.01,.05-.04,.04-.07-.05-.43-.28-.76-.5-1.1-.1-.16-.2-.32-.3-.48,.09-.16,.13-.35,.1-.56-.02-.09-.06-.18-.08-.27,.42,.68,.78,1.44,1.35,1.97,.65,.59,1.97,1.11,2.88,.77,.26-.1,.35-.5,.11-.64-.59-.32-1.3-.63-1.74-1.16-.16-.2-.3-.44-.42-.68,.21,0,.41-.02,.62-.09,.14-.05,.31-.14,.44-.22,.03-.02,.23-.16,.33-.24,.11-.03,.3-.09,.31-.09,.3-.05,.59-.09,.89-.14,.52-.09,1.04-.2,1.56-.29,.3-.05,1.13-.08,1.22-.52,.03-.17-.08-.3-.24-.25-.17,.05-1.05-.19-1.35-.21-.54-.03-1.08,0-1.63,.01-.46,0-.87,.01-1.32,.16-.62,.2-1.03,.35-1.55,.13,.65-.09,1.3-.19,1.93-.41,.66-.23,1.15-.6,1.73-1.01,.38-.26,.09-.83-.3-.6-1.05,.64-2.29,.59-3.41,.76-.34,.05-.54,.33-.59,.62-.13-.17-.28-.31-.42-.44,.19-.19,.38-.38,.58-.56,.6-.53,1.28-.92,1.96-1.31,1.22-.7,2.51-1.31,3.78-1.82,.23-.09,.2-.44-.03-.43-1.26,.01-2.56,.31-3.78,.82,.36-.3,.73-.53,1.03-.49,.13,.02,.22-.14,.14-.24-.56-.73-1.65-.13-2.35,.31-.04,.02-.08,.06-.11,.08,.21-.27,.4-.55,.54-.85,.34-.68,.59-1.54,.74-2.27,.15-.69,0-1.4,.13-2.05,.07-.33-.34-.42-.46-.1-.47,1.3-.96,2.55-1.72,3.74-.13,.2-.27,.38-.42,.56,.13-.31,.23-.61,.22-.97,0-.13-.07-.22-.18-.25-.02,0-.04-.01-.05-.02-.14-.04-.25,.08-.28,.22-.11,.14-.22,.28-.33,.42,.21-1.26,.31-2.59,.86-3.8,.1-.21-.07-.43-.28-.3-1.01,.61-1.34,1.99-1.67,3.06-.22,.72-.38,1.51-.69,2.21,.03-.22,.05-.44,.05-.67-.01-.37-.22-.65-.52-.71,.08-.41,.19-.82,.28-1.19,.05-.21,.16-1.14,.32-1.21,.23-.1,.24-.41,.02-.48-.25-.08-.48,.02-.7,.22,.69-1.76,1.64-4.62,3.12-5.25,.18-.07,.21-.3,.07-.4-1.67-1.17-3.8,3.74-4.35,4.85-.62,1.23-1.73,3.63-1.66,5.39-.96-.63-2.06-1.13-2.96-1.69-.25-.16-.54,.25-.35,.47,.84,.97,1.76,1.86,2.65,2.77,.38,.39,.69,.68,.92,1.13-.28,.06-.56,.15-.82,.3-.39,.23-.49,.69-.38,1.06-.77,.63-1.44,1.39-1.92,2.3-.16,.31,.17,.58,.42,.34,.15-.15,.3-.3,.46-.44-1.79,2.27-2.33,5.08-3.82,7.51-.23,.37,.26,.79,.54,.43,1.37-1.79,2.48-4.17,3.89-6.18-.97,2.05-1.31,4.23-2.22,6.31-.11,.25,.16,.56,.37,.29,1.26-1.65,1.91-3.13,2.74-5,.44-.98,.95-1.76,1.54-2.47,.02,.21,.07,.42,.11,.64,.13,.74,.06,1.43-.08,2.2-.06,.36,.35,.45,.49,.11,.17-.41,.38-.81,.54-1.22,.22,.33,.44,.67,.65,1.01,.62,1.04,1.26,2.13,2.03,3.04,1.48,1.73,4.07,3.23,6.46,2.11,.19-.09,.23-.38,.02-.43Z"/>
        <path class="cls-10" d="M55.12,72.12c.02-.22-.06-.41-.17-.58,.37-.79-.13-1.9-.8-2.23-.57-.28-1.24-.65-1.89-.72-.29-.03-.59-.02-.89,.04-.26,.05-.78,.33-1.03,.32-.15,0-.22,.25-.09,.31,.19,.08,.35,.1,.55,.12,.75,.09,1.2,.16,1.8,.65,.2,.16,.4,.24,.6,.32-.36-.08-.75-.1-1.04-.12-.97-.05-1.86,.28-2.83,.48-.26,.06-.23,.52,.04,.48,.61-.08,1.24,0,1.85,.14-.73,0-1.32-.07-2.07,.14-1.56,.43-3.09,1.09-4.49,2.02-.26,.17-.12,.63,.17,.5,1.51-.67,3.65-1.27,5.22-1.26,.51,0,1.04,.06,1.59,.08-.03,.02-.05,.03-.08,.05-.19,.15-.25,.45-.03,.57,.25,.14,.55,.12,.84,.15,.3,.03,.59,.09,.89,.05,.28-.04,.67-.09,.93-.24,.26-.14,.35-.37,.5-.59-.03,.06,.18-.15,.21-.18,.13-.16,.2-.31,.22-.51Z"/>
        <path class="cls-13" d="M34.58,87.33c1.26-.7,2.14-2.14,2.97-3.34,.18-.26-.16-.5-.37-.29-.93,.94-1.9,1.81-3.06,2.28-.72,.29-.89,1.43-1.56,1.64-.77,.25-.69,1.52,.11,1.45,.53-.05,.91-.27,1.26-.73,.19-.25,.4-.6,.52-.88,.02-.05,.03-.09,.05-.12,0,.02,.03,.03,.09,0Z"/>
        <path class="cls-8" d="M46.29,76.53c.27-.07,.27-.51,.03-.55-1.44-.29-2.58-.78-3.74-1.66-.03-.02-.05-.04-.08-.06,.31-.18,.61-.36,.89-.5,.5-.25,.92-.46,1.34-.87,.44-.42,1.04-1.16,1.56-1.41,.2-.09,.14-.41-.07-.33-.49,.17-.94,.21-1.42,.44-.46,.21-.85,.53-1.32,.7-.12,.04-.23,.09-.34,.14,.33-.24,.67-.48,1.04-.66,.33-.16,.11-.62-.19-.55-.57,.14-1.12,.35-1.67,.56,.38-.5,.66-1.08,1.06-1.59,.14-.17,0-.43-.21-.3-.56,.37-1.1,.77-1.65,1.15,.05-.19-.11-.37-.29-.35,.59-1.21,.43-3.01,1.11-4.13,.09-.14-.09-.28-.2-.16-.57,.62-.95,1.17-1.22,1.97-.23,.7-.45,1.34-.76,1.96-.12-.05-.24-.07-.37-.03,0-.28,0-.55,.1-.83,.12-.35-.31-.46-.5-.19-.25,.36-.41,.77-.53,1.2-.02,.09-.05,.18-.08,.28-.02-.15-.06-.3-.08-.46-.17-1.13,0-2.16,.41-3.28,.47-1.3,1.81-3.07,1.78-4.43,0-.11-.11-.14-.18-.07-1.49,1.32-2.69,3.57-3.2,5.49-.2,.74-.52,2.83,.09,3.61-.3,.03-.61,.1-.91,.12-.71,.05-1.59-.08-2.29-.18-.27-.04-.5,.39-.22,.52,.81,.39,1.51,1.01,2.44,1.08,.26,.02,.5,0,.73,.02-.28,.21-.43,.57-.31,.9-.04,.02-.07,.04-.11,.06-.84,.47-1.52,1.5-2.03,2.34-.2,.34,.21,.66,.47,.38,.36-.38,.85-.82,1.33-1.13-.25,.23-.48,.47-.7,.79-1.28,1.86-1.86,4.14-3.13,6.04-.18,.27,.17,.53,.38,.3,1.33-1.44,2.36-2.87,3.36-4.58,.46-.8,1.05-1.31,1.67-1.76,.05,.08,.1,.16,.13,.25,.23,.6,.08,1.37,.25,2.01,.37,1.38,1.1,2.12,2.34,2.63,.23,.1,.48-.1,.45-.38-.07-.62-.44-1.06-.71-1.58-.3-.59-.44-1.21-.47-1.89,.03,.04,.06,.08,.09,.11,.18,.18,.37,.36,.58,.49,.3,.19,.76,.25,.98,.56,.23,.32,.72-.13,.57-.47-.15-.33-.24-.68-.43-.98-.09-.15-.19-.29-.28-.43,.1,.05,.19,.1,.23,.18,.15,.25,.63,.16,.61-.21,0-.08-.03-.15-.04-.22,.13,.06,.25,.14,.38,.19,1.13,.43,2.15,.08,3.33-.22Z"/>
        <path class="cls-10" d="M32.61,85.82c.43-.68,.69-1.42,1.05-2.12,.1-.19-.04-.36-.22-.32-.88,.22-1.56,1.44-2.2,2.05-.17,.16-.35,.33-.52,.5,0-.11-.01-.23-.04-.34-.07-.23-.21-.36-.36-.44,.12-1.07,.24-1.99,.8-3.12,.57-1.16,1.34-2.16,1.78-3.38,.06-.17-.14-.25-.25-.14-1.17,1.16-2.43,2.17-3.22,3.69-.65,1.25-.56,2.67-.74,3.98-.05,.39,.24,.63,.52,.74,.02,0,.05,.02,.07,.03,0,.22,.04,.45,.25,.74,.09,.12,.2,.18,.33,.19,0,.05,0,.1,.01,.15,.14,.7,1.03,.56,1.27-.08,.34-.94,.96-1.33,1.47-2.14Z"/>
        <path class="cls-10" d="M37.32,82.9c.28-.53,.79-1.46,.51-2.01-.11-.23-.32-.29-.53-.24,.02-.08,.04-.16,.05-.24,.03-.12-.14-.15-.16-.04-.02,.11-.05,.23-.07,.34-.06,.03-.12,.06-.17,.1-.25,.22-.41,.46-.39,.8,0,.1,.05,.2,.1,.28,0,.02,0,.03-.01,.05-.08,.28-.19,.56-.29,.83-.16,.45-.34,.9-.51,1.36,0,0,0,0,0,0-.04,.12,.04,.25,.18,.26,.55,.03,1.05-1.07,1.28-1.5Z"/>
        <path class="cls-10" d="M48.9,80.11c-.45-.24-1.13,.38-.83,.88,.21,.34,.44,.66,.63,1.01-.49-.12-1.04-.09-1.5-.27-.24-.1-.46,.26-.23,.4,.49,.32,.92,.73,1.36,1.11,.13,.12,.09,.04,.07,.28-.01,.12-.01,.22-.01,.31-.16,.21-.17,.42-.29,.69-.34,.8-1.05,.95-1.75,1.16-.24,.07-.19,.43,.03,.43,.82,0,1.52,.13,2.27-.48,.27-.22,.34-.45,.52-.73-.18-.04-.21-.06-.07-.08,.08,0,.16-.04,.24-.09,.12-.09,.25-.15,.36-.26,1.43-1.3,.41-3.72-.81-4.38Z"/>
        <path class="cls-12" d="M41.57,75.15c-.24-.28-.54-.51-.81-.76-.03-.03-.07-.06-.1-.09,.1-.13,.18-.27,.31-.4,.21-.22,.45-.2,.71-.26,.61-.13,1.01-.35,1.31-.98,.04-.09-.03-.17-.12-.12-.72,.43-1.51-.03-2.24,.34h0c.16-.31,.32-.62,.45-.94,.08-.19-.19-.34-.31-.18-.12,.16-.23,.32-.35,.48-.09-.25-.5-.16-.51,.15,0,.07-.06,.16-.13,.25-.01-.04-.03-.07-.04-.11-.07-.28-.08-.57-.07-.87,.01-.39-.49-.52-.69-.15-.25,.46-.38,1-.33,1.49-.26-.12-.51-.25-.78-.35-.15-.05-.28,.17-.22,.3,.16,.35,.32,.66,.62,.9,.18,.14,.36,.26,.51,.43,0,0,.02,.02,.02,.03-.26,.01-.53,.09-.78,.18-.17,.06-.36,.14-.53,.23-.07,.04-.13,.07-.19,.13-.09,.09-.13,.13-.05,.11-.2,.05-.21,.34-.07,.43,.36,.25,1.11-.07,1.43,0-.05-.01,.25,.13,.29,.14,.04,0,.08,0,.12,0,0,.02-.01,.05-.02,.07-.06,.34-.12,.68,.04,.97,.1,.19,.41,.15,.47-.09,.11-.42,.45-.74,.7-1.1,.02,.01,.05,.03,.07,.04,.29,.19,.57,.31,.92,.36,.31,.05,.56-.36,.35-.61Z"/>
        <path class="cls-11" d="M40.89,74.27c.02-.14-.01-.26-.07-.37,.03-.11,0-.24-.11-.3-.08-.05-.13-.1-.21-.16-.21-.18-.48-.16-.68,.05-.02-.14-.09-.24-.18-.35,.09,.08,.21,.1,.34,.02l.13-.08c.25-.15,.26-.47,.12-.66-.13-.18-.3-.24-.51-.29-.25-.06-.49,.21-.51,.46-.04,0-.08,0-.12,.02-.39,.2-.19,.62-.08,.93,0,0,0,.01,0,.02-.25,.42,.19,.76,.51,.6-.05,.03-.09,.06-.14,.12,.07,.02,.07,.03,0,.04-.05,0-.1,.02-.15,.04-.08,.03-.15,.06-.22,.1-.16,.09-.31,.21-.45,.33-.18,.16,.02,.42,.21,.31,.07-.04,.35-.08,.34-.16,.05,.43,.7,.49,.9,.07,.02-.05,.05-.1,.07-.15,0,0,0-.02,0-.03,.11,.06,.24,.09,.36,.05,0,0,.02,0,.02,0,.25-.1,.39-.32,.42-.58Z"/>
        <path class="cls-11" d="M40.74,72.67c.12-.1-.14,.06-.17,.08-.08,.06-.13,.15-.2,.23-.18,.22,.01,.47,.24,.35-.09,.05,.14,.08,.28,.1,.01,0,.03,.01,.04,.01h.06c.72,0,.46-1.41-.27-.77Z"/>
        <path class="cls-11" d="M41,75.56c.02-.11,.03-.2,.03-.31,0-.04-.02-.07-.03-.11,0-.08-.01-.16-.1-.22-.02-.01-.03-.02-.05-.03-.14-.09-.28,0-.35,.14-.03,.03-.06,.04-.08,.08,0,.01-.01,.02-.02,.03-.24,.16-.38,.52-.08,.66,.03,.01,.05,.02,.08,.04,.21,.1,.52,0,.59-.29Z"/>
        <path class="cls-11" d="M38.52,74.34c-.1-.28-.27-.37-.55-.4-.44-.05-.73,.56-.34,.81,.11,.07,.24,.1,.35,.16,.34,.19,.67-.24,.54-.58Z"/>
        <path class="cls-11" d="M41.24,73.91s-.04,.08-.06,.11c-.09,.19,0,.44,.21,.42h.11c.76-.11,.07-1.19-.26-.53Z"/>
        <path class="cls-3" d="M39.52,73.84c-.09,.12-.12,.26,0,.37,.11,.09,.21,.13,.36,.08,.68-.25-.13-1.04-.35-.44Z"/>
        <path class="cls-3" d="M39.02,73.15c-.05-.12-.24-.17-.35-.08-.14,.11-.24,.18-.32,.34-.05,.1-.03,.19,.02,.25-.2,.34,.28,.61,.49,.27,.15-.24,.26-.52,.16-.78Z"/>
        <path class="cls-3" d="M39.43,74.63s.15,.06-.04,.05c0,0-.02,0-.03,0-.36-.01-.4,.67-.03,.61l.14-.02c.47-.07,.35-.81-.05-.63Z"/>
        <path class="cls-3" d="M40.76,74.15c0-.4-.5-.42-.64-.05-.05,.13-.04,.22-.01,.32,0,.03,.02,.06,.03,.1,0,0,0,.02,0,.03,0,0,0,0,0,0,0,.01,0,.03,.02,.05,0,0,.01,.02,.02,.02,.15,.17,.45,.06,.52-.18,.03-.1,.04-.18,.04-.29Z"/>
        <path class="cls-3" d="M40.5,72.99c-.06-.05-.11-.09-.17-.14-.39-.32-.81,.41-.34,.59,.07,.03,.13,.05,.2,.08,.25,.09,.51-.36,.3-.53Z"/>
        <path class="cls-3" d="M39.6,72.93c0-.24-.32-.22-.35,.02-.03,.23-.16,.43-.19,.66-.04,.26,.34,.33,.45,.1,.14-.29,.08-.48,.09-.79Z"/>
        <path class="cls-9" d="M40.43,73.53c-.12-.07-.23,.14-.12,.21s.23-.14,.12-.21Z"/>
        <path class="cls-9" d="M39.5,73.35l-.06,.11c-.16,.29,.23,.51,.39,.22l.06-.11c.16-.29-.23-.51-.39-.22Z"/>
        <path class="cls-9" d="M40.51,72.9c-.03-.07-.12-.03-.15,.03-.04,.08-.13,.15-.17,.24-.08,.17,.11,.36,.24,.19,.13-.17,.15-.28,.07-.46Z"/>
        <path class="cls-9" d="M39.97,74.07s-.05,.01-.08,.02c-.3,.06-.33,.38-.18,.51-.03,0-.07,0-.09,.03-.02,.03-.05,.06-.07,.1-.13,.17,.11,.32,.2,.11,.02-.04,.03-.08,.05-.11,.01-.03,0-.06-.02-.09,.06,.02,.13,.02,.22-.02,.02-.01,.05-.02,.07-.04,.24-.12,.15-.56-.1-.51Z"/>
        <path class="cls-9" d="M39.28,73.41c-.12-.07-.24,0-.31,.1-.04,0-.07,0-.12,0-.14,0-.15,.2-.04,.24,.04,.02,.08,.02,.12,.03,.02,.05,.03,.09,.08,.12,.27,.16,.55-.33,.28-.49Z"/>
      </g>
      <g>
        <path class="cls-4" d="M34.81,120.72c2.63-1.5,3.2-5.88,2.57-8.4-.35-1.38-.84-2.84-1.42-4.19,.21,.15,.43,.29,.65,.43,0,.01,.02,.03,.03,.04,1.03,1.48,2.24,2.98,3.81,3.84,2.19,1.19,6.96,1.41,7.78-2.24,.66-2.92-2.24-5.49-4.43-6.19-2.21-.7-4.52-.66-6.87-.7-.03,0-.07,0-.1,0,.76-.42,1.51-.87,2.18-1.42,1.5-1.24,2.66-3.24,3.56-4.98,1.65-3.2,.59-8.26-2.55-9.49-1.15-.45-2.69,.49-3.59,1.46-.92,.99-1.24,2.63-1.65,3.89-.61,1.88-.46,3.67-.73,5.58-.09,.61-.18,1.13-.34,1.59-.15,.24-.3,.48-.45,.72-.07,.12-.12,.25-.19,.37-.16,.18-.34,.36-.56,.53-.21,.16-.4,.32-.58,.47-.61-.49-1.13-1.14-1.6-1.69-1.34-1.58-2.28-3.45-3.88-4.76-1.13-.93-2.35-.82-3.84-.41-2.38,.65-4.6,4.01-2.84,6.19,1.09,1.35,2.8,2.1,4.38,2.63,1.67,.56,3.38,.49,5.08,.56-1.21,.46-2.45,.81-3.64,.94-1.75,.21-3.49,.53-5.11,1.53-2.18,1.34-4.9,4.93-2.61,7.11,.99,.94,2.67,.77,3.99,.79,1.82,.02,3.11-1.01,4.78-1.85,1.62-.82,2.72-1.59,3.79-3.09-.08,.28-.16,.56-.22,.84-.39,1.62-.79,3.26-.53,4.86,.44,2.69,1.56,7.06,5.12,5.04Z"/>
        <path class="cls-1" d="M39.53,95.77c1.09-2.65,.28-4.61,.21-7.15,0-.21-.07-.37-.17-.47,.15-.17,.23-.4,.11-.6-.85-1.39-2.85,.72-3.47,1.61-.82,1.18-1.11,2.3-1.26,3.66-.16,1.48-.48,3.06-.33,4.51,.04,.43,.43,.49,.74,.33-.23,.44-.47,.87-.75,1.26-.17,.24,.16,.48,.35,.28,.53-.56,1.06-1.09,1.53-1.68,.05,0,.11,.01,.17,0-1.09,1.3-2.44,2.4-3.31,3.87-.14,.23,.14,.43,.32,.25,.91-.92,2.16-1.38,3.14-2.23,1.15-1,2.14-2.2,2.73-3.64Z"/>
        <path class="cls-4" d="M36.7,97.42c.35-.78,.89-1.78,.46-2.54-.06-.11-.15-.19-.25-.24,.12-1.01,.32-2.03,.38-3.05,.02-.36-.43-.35-.55-.04-.14,.34-.26,.72-.39,1.08,.24-1.59,.98-3.08,2.1-4.33,.15-.17,.06-.42-.14-.42-1.42,0-2.5,1.81-3.03,3.02-1.05,2.37-.43,5.02-1.11,7.48-.06,.23-.04,.41,.03,.56-.11,.15-.22,.3-.31,.47-.31,.58,.25,1.28,.81,.87,.98-.71,1.51-1.76,2.01-2.87Z"/>
        <path class="cls-13" d="M41.26,96.61c.68-1.5,.76-3.28,.49-4.93,.04,.1,.07,.21,.13,.29,.26,.38,.49,.35,.48,.94,0,.12,.17,.11,.18-.01,.05-.43,.28-.76,.24-1.19-.05-.51-.05-1.04-.11-1.55-.14-1.21-.91-2.05-1.95-2.42-.12-.04-.24-.03-.35,.03-.31-.06-.67,.09-.77,.54-.3,1.24,.08,2.04,.41,2.91,.06,.32,.11,.64,.13,.96,.04,.76,.07,1.54,0,2.29-.43,1.43-1.4,2.74-2.5,3.88-.88,.6-1.85,1.08-2.72,1.66-1.22,.81-1.89,1.73-2.74,2.95-.22,.32,.22,.67,.47,.37,2.36-2.8,6.96-3.01,8.64-6.71Z"/>
        <path class="cls-1" d="M42.28,96.96c.2-.54,.36-1.17,.41-1.74,.05-.59-.2-.98-.25-1.52-.02-.19-.27-.13-.32,.02-.32,.93-.45,1.83-.88,2.74-.37,.79-.86,1.45-1.4,2.09-1.41,1.2-2.95,2.12-4.46,3.18-.21,.14-.16,.5,.1,.48,1.41-.14,3.36-.88,4.63-2.07,.99-.8,1.73-1.97,2.17-3.18Z"/>
        <path class="cls-10" d="M39.84,95.41c.28-.91,.53-2.22,.4-3.12-.16-1.15-.56-2.17-.56-3.4,0-.37-.46-.39-.59-.04-.58,1.56,.1,3.04-.05,4.53-.21,2.1-1.35,4.1-3.01,5.41-.14,.11-.14,.42,.08,.38,1.66-.34,3.2-2.03,3.73-3.76Z"/>
        <path class="cls-8" d="M40.87,89.83c-.04-.76-1.13-.73-1.15,.08-.06,2.36,1.15,4.18-.49,6.6-1.22,1.79-2.96,2.7-4.6,3.9-.14,.1-.11,.34,.07,.32,2.33-.17,4.39-1.87,5.81-3.93,1.6-2.31,.49-4.63,.37-6.97Z"/>
        <path class="cls-8" d="M38.98,101.09c-.56,.08-1.1,.38-1.65,.56-.9,.31-1.75,.24-2.65,.4-.12,.02-.25,.05-.39,.09,.33-.29,.69-.55,.99-.88,.15-.17,.1-.43-.1-.47-1.01-.24-2.11,.96-2.83,1.67-.23,.23-.21,.54-.06,.73-.24,.23-.43,.48-.53,.77-.18,.5,.29,.89,.72,.76,.48-.15,.9-.51,1.35-.76,.77-.43,1.45-.49,2.26-.67,1.12-.24,2.16-.97,3.03-1.8,.14-.14,.05-.41-.13-.38Z"/>
        <path class="cls-1" d="M26.91,108.88c1.02-.35,1.89-.34,2.76-1.11,.13-.11,.03-.3-.1-.3-2.07,.05-3.7,.09-5.58,1.4-.95,.66-1.91,1.16-2.88,1.75-.67,.41-1.34,.6-2.02,.98-.02,.01-.03,.03-.05,.04,.02-.03,.04-.05,.06-.08,.69-.38,1.26-1.05,2-1.36,.3-.1,.46-.33,.5-.56,.21-.12,.45-.26,.56-.32,.52-.29,1.04-.61,1.58-.86,.39-.18,.28-.79-.13-.65-.51,.17-1.1,.31-1.68,.49,.02-.01,.04-.03,.06-.04,.65-.35,1.65-.76,2.34-.87,1.16-.19,2.23-.62,3.35-.9,.24-.06,.25-.47,.02-.5-1.1-.16-2.38-.17-3.64,.05-.03-.02-.07-.04-.12-.03-1.53,.21-2.91,.43-4.26,1.44-1.08,.81-2.38,2.57-2.63,3.95-.5,2.73,2.11,3.56,4.29,3.37,.14,.03,.27,.05,.38,.07,1.06,.18,1.93-.3,2.74-1.12,.8-.81,2.19-1.26,2.69-2.36,.09-.2-.03-.46-.26-.37-.45,.17-.94,.38-1.43,.6,.05-.12,.05-.26-.08-.31-.69-.27-1.58,.08-2.31,.14-.14,.01-.27,.09-.37,.19-.02,0-.04,0-.06,0,.39-.23,.78-.48,1.17-.72,1.07-.68,1.89-1.59,3.11-2.01Z"/>
        <path class="cls-10" d="M26.07,108.02c-.62,.05-1.05-.13-1.68,.08-.65,.21-1.24,.48-1.82,.89-.64,.45-1.21,.96-1.87,1.36-.7,.43-1.46,.57-2.15,1.06-.3,.21-.34,.62-.18,.86-.19,.09-.37,.21-.54,.4-.18,.21-.21,.44-.16,.64-.11,.19-.13,.42,.04,.56,.4,.35,1.24,.97,1.84,.65,.34-.18,.64-.49,.99-.68,.12-.07,.25-.12,.37-.19,.16-.1,.24-.23,.39-.34,.21-.15,.11-.51-.14-.42-.53,.19-1.08,.25-1.61,.4-.05,.02-.11,.03-.16,.05-.03,0-.03,0-.05,0-.04-.03-.13-.09-.2-.13,.23-.07,.47-.12,.71-.18,.47-.12,.88-.27,1.3-.55,.22-.14,.15-.5-.1-.48-.17,.01-.35-.03-.53-.05,.59-.28,1.14-.67,1.73-1.2,.62-.56,1.13-1.09,1.83-1.54,.67-.43,1.31-.63,2.02-.89,.18-.06,.16-.35-.03-.34Z"/>
        <path class="cls-10" d="M24.14,106.69c-1.61,.49-3.38,.28-4.54,1.95-.2,.3,.14,.55,.39,.41,.41-.23,.79-.55,1.2-.75,.38-.18,.76-.27,1.15-.37,.34-.08,.66-.11,.99-.27,.39-.2,.59-.48,.92-.76,.11-.09,0-.24-.11-.21Z"/>
        <path class="cls-13" d="M32.94,105.74c.04-.45-.3-.67-.65-.64-.05-.01-.1-.04-.15-.04-.11-.32-.49-.52-.87-.32-.11,.05-.21,.1-.32,.16,.03-.3-.16-.6-.49-.58-.56,.05-1.05,.33-1.56,.59-.25,.12-.5,.23-.75,.3-.12,.04-.68,.27-.76,.2-.15-.12-.43,0-.37,.24,.12,.49,.67,.51,1.14,.45-.62,.21-1.26,.39-1.94,.48-1.09,.15-2.32,.44-3.06,1.47-.11,.16,.1,.3,.23,.18,.87-.82,2.24-.5,3.18-.48,.54,.01,1.13-.06,1.67-.19,.62-.14,1.22-.32,1.78-.56-.04,.05-.08,.1-.13,.14-.14,.14-.94,.85-1.48,1.33-.21-.2-.57-.24-.9,.05-.88,.78-1.95,1.36-2.93,1.97-.35,.22-.08,.69,.26,.52,.49-.24,1.27-.7,1.99-1.01,.03,.09,.07,.16,.14,.22,.33,.27,.69,.27,1.04,.16-.27,.28-.54,.56-.83,.83-.16,.15-.06,.48,.15,.44,2.22-.38,5.38-3.5,5.6-5.92Z"/>
        <path class="cls-8" d="M33.35,104.43c.09-.42-.41-.85-.73-.42-.18,.24-.35,.5-.51,.76-.02-.01-.03-.04-.05-.05,.11-.18,.18-.38,.17-.59,0-.27-.19-.54-.47-.49-.57,.09-.96,.63-1.43,.98-.44,.33-.96,.7-1.46,.89-.15,.06-.3,.26-.25,.43,.11,.34,.38,.43,.68,.41-.15,.09-.31,.17-.47,.24-.93,.36-1.87,.35-2.8,.63-.29,.09-.21,.49,.04,.51,1.11,.07,2.06,.4,3.2,.08,.49-.14,1.02-.38,1.51-.71-.02,.04-.04,.08-.07,.11-.17,.27,.18,.55,.39,.31,.41-.46,.9-.73,1.28-1.24,.42-.57,.8-1.17,.96-1.86Z"/>
        <path class="cls-1" d="M35.96,114.75c.67-1.31,1.05-3.12,.26-3.91-.43-.43-1.41,.06-1.18,.77,.18,.58,.02,1.19-.14,1.8-.12,.44-.24,.97-.53,1.34-.06,.07-.12,.12-.19,.18-.02-.03-.05-.04-.07-.07,.02-.02,.04-.04,.06-.07,.52-.78,.54-2.04,.41-2.89-.04-.23-.17-.37-.33-.44-.07-1.2-.41-2.37-.51-3.64-.03-.34-.5-.33-.52,.04-.07,1.46,.13,3.18-.34,4.67-.04-.37-.06-.74-.05-1.13,.02-.76,.03-1.58,.12-2.33,.03-.22-.31-.25-.36-.03-.2,.93-.78,1.74-.92,2.71-.05,.37-.07,.74-.06,1.11-.08-.56-.12-1.13-.21-1.7-.05-.3-.51-.28-.58,.04-.16,.79-.39,1.55-.43,2.34-.08-.09-.27-.03-.28,.13-.05,.95,.17,2,.5,2.83,.14,.36,.31,.82,.63,1.04,.32,.21,.71,.13,1.03,.32,.72,.41,1.3,.66,2.12-.03,.83-.7,1.4-2.04,1.57-3.09Z"/>
        <path class="cls-13" d="M36.72,118.46c.15-.18,.28-.36,.39-.58,.74-1.43,.57-2.93,.3-4.35-.01-.06-.04-.09-.08-.12,.1-1.03-.05-1.92-.53-2.94-.07-.14-.3-.06-.3,.1-.03,1.93-.45,3.9-1.38,5.71-.22,.42-.43,.9-.82,1.17-.56,.39-.24,.11-.68,.22-.67,.16-1.32,.38-1.52-.33-.1-.35-.39-.46-.66-.37-.36-1.48-.72-2.96-1.1-4.44-.05-.18-.35-.15-.34,.07,.09,2.49-.58,6.42,1.42,8.05,1.9,1.55,4.6,.16,5.3-2.19Z"/>
        <path class="cls-8" d="M36.16,116.77c.15-.33,.02-.62-.19-.75,.13-.24,.26-.49,.33-.77,.2-.78,.22-1.55,.36-2.33,.03-.19-.19-.24-.26-.06-.28,.71-.64,1.38-.92,2.09-.25,.63-.73,1.17-.84,1.85-.01,.09,0,.17,.03,.24-.17,.13-.37,.23-.67,.36-.33,.14-.54,.27-.83,.49-.71,.55-.48,.2-.97-.39-.16-.2-.41-.27-.57-.45-.23-.26-.22-.58-.3-.93-.11-.52-.15-1.24-.55-1.58-.09-.07-.24,.03-.18,.15,.4,.82-.3,2.12,.23,2.94,.24,.37,.45,.68,.67,1.09,.13,.26,.31,.56,.57,.7,.61,.33,1.16-.13,1.71-.47,.46-.28,.98-.35,1.4-.67,.47-.36,.75-.96,.99-1.49Z"/>
        <path class="cls-10" d="M34.22,114.71c.16-.26,.31-.53,.44-.82,.37-.85,.39-1.75,.35-2.63,0-.1-.03-.18-.06-.26,0-.08,0-.16,0-.23,0-.97-.15-1.92-.29-2.85-.04-.28-.48-.19-.47,.1,.03,.87-.03,1.74-.19,2.62-.07,.39-.21,.79-.32,1.18-.05-.04-.1-.06-.15-.09-.04-.2-.05-.55-.09-.72-.1-.41-.24-.81-.38-1.2-.1-.3-.56-.16-.48,.17,.12,.51,.2,1.07,.12,1.62-.05,.37-.23,.7,0,1.01,.11,.16,.27,.19,.36,.37,.09,.19,.06,.49,.07,.71,0,.39,0,.78,.12,1.13-.15,.35-.31,.7-.46,1.06-.11,.25,.15,.54,.37,.29,.35-.4,.66-.79,.94-1.21,.06-.06,.11-.14,.14-.23Z"/>
        <path class="cls-10" d="M32.81,113.84c-.05-.47-.15-1.62-.69-1.73-.14-.03-.24,.11-.23,.25,0,.02,0,.05,.03,.07,.14,.13,.16,.53,.19,.72,.05,.3,.09,.6,.13,.9,.06,.4,.62,.19,.58-.2Z"/>
        <path class="cls-13" d="M36.08,110.61c.45-1.22,.32-2.38,.04-3.58-.13-.56-.37-1.06-.6-1.57-.28-.62-.43-1.34-.9-1.82-.37-.37-.94-.03-1.01,.5-.02,.14,0,.26,0,.39-.19,.04-.39,.15-.51,.32-.53,.75-.52,1.61-.67,2.47-.2,1.09-.63,2.06-1.15,3.05-.2,.39,.26,.62,.5,.29,.62-.84,1.35-1.63,1.75-2.61,.05-.13,.1-.28,.15-.42,0,.02,.01,.04,.02,.07,.11,.46,.76,.23,.69-.24-.04-.27-.06-.54-.08-.81,.09,.18,.19,.36,.27,.54,.41,.94,.98,2.28,.87,3.37-.04,.41,.49,.4,.62,.04Z"/>
        <path class="cls-1" d="M28.86,101.59c-.79-.56-1.09-1.86-1.63-2.67-.39-.58-.86-1.01-1.4-1.42-.45-.34-1.01-.68-1.61-.94,.8-.03,1.58,.25,2.39,.58,.24,.1,.5-.21,.32-.43-1.34-1.66-3.66-2.42-5.49-.41-.21,.23-.27,.46-.24,.67-.06,.04-.13,.07-.19,.13-3.45,3.42,1.25,8.4,4.82,6.15,.24-.15,.15-.52-.1-.51-2.02,.05-4.74-1.59-3.94-3.86,.12,.13,.24,.25,.36,.38,.15,.5,.54,.84,1.03,1.01,.32,.1,.61-.42,.37-.65-.07-.06-.25-.25-.29-.41,.16-.23,.23-.56,.1-.79-.09-.15-.2-.28-.31-.41,1.2,.39,2.34,.82,3.28,1.78,.91,.93,1.15,1.74,2.42,2.07,.14,.04,.21-.18,.11-.25Z"/>
        <path class="cls-13" d="M32.86,102.89c-.06-.11-.12-.23-.18-.35,.28-.2,.54-.44,.75-.74,.43-.6,.55-1.32,.81-1.99,.1-.26-.23-.32-.37-.14-.33,.45-.67,.94-1.04,1.36-.2,.23-.43,.39-.67,.54-.36-.66-.77-1.3-1.33-1.78-.04-.04-.09-.07-.14-.1-.2-.42-.54-.74-.97-1.08-.96-.77-2.03-1.35-2.92-2.22-.13-.13-.39,.07-.28,.24,.29,.46,.57,.95,.88,1.39-.21,.05-.36,.38-.19,.53,.48,.41,.97,.82,1.45,1.25-.27-.06-.53,.3-.34,.58,.28,.4,.57,.88,.92,1.25-.89-.25-1.74-.52-2.51-1.09-.98-.72-1.73-1.3-2.93-1.63-.18-.05-.35,.24-.21,.37,.39,.36,.76,.75,1.12,1.13-.04,.07-.06,.15-.02,.24,.36,.74,1.26,1.19,1.95,1.68,.01,.04,.02,.09,.04,.12,.2,.37,.55,.69,.98,.94-1.46,.26-2.65,.16-4.04-.42-.26-.11-.5,.28-.25,.45,1.11,.72,2.23,1.24,3.6,1.23,.78,0,1.56-.12,2.34-.18,.69-.06,1.37,.05,2.06-.14,.19-.05,.32-.18,.41-.33,.58,.31,1.45-.42,1.07-1.12Z"/>
        <path class="cls-13" d="M42.5,111.77c-1.81-1.34-3.43-3.07-4.88-4.92,1.35,.71,2.93,1.08,4.4,1.28,.25,.03,.44-.28,.27-.48-.51-.62-1.36-.96-2.03-1.36-.32-.19-.66-.38-1-.57,.05,0,.1,0,.15,.01,.75,.05,1.5,.15,2.24,.26,.51,.07,1.53,.05,1.94,.36,.11,.09,.3-.08,.26-.22-.17-.56-.72-.92-1.33-1.17,.52-.02,1.04-.05,1.54-.14,.19-.03,.27-.28,.12-.39-1.04-.74-2.43-.93-3.71-.97-1.69-.05-3.35-.34-5.04-.39-.21,0-.38,.08-.5,.22-.63-.29-1.51,.41-1.14,1.24,1.03,2.34,2.6,3.64,4.28,5.39,1.29,1.34,2.34,2.07,4.2,2.37,.31,.05,.47-.37,.23-.55Z"/>
        <path class="cls-1" d="M48.46,109.42c-.19-2.55-2.38-5.15-4.97-4.48-.3,.08-.23,.52,.04,.52,1.52,.03,2.49,1.65,3.08,3.14-.26-.1-.53-.2-.79-.32-.21-.1-.41-.07-.58,.02-.66-.24-1.31-.47-1.99-.68-.36-.11-.61,.51-.29,.68,.37,.2,.77,.39,1.16,.6-.67-.07-1.36-.11-2.08-.22-1.91-.28-3.69-1.66-4.89-3.14-.13-.16-.35,.07-.29,.24,.6,1.61,1.92,2.94,3.31,3.78,.11,.07,.23,.12,.35,.17-.29,.18-.11,.57,.17,.51,.36-.08,.87,.14,1.21,.21,.58,.12,1.17,.22,1.75,.35,.96,.21,1.79,.82,2.8,.8,.51-.01,.84-.73,.61-1.13,.09-.24,.09-.51-.04-.7,0,0,0,0,0,0,.27,.69,1.5,.59,1.44-.34Z"/>
        <path class="cls-13" d="M47.91,110.78c-1.74,.94-3.35,1.05-4.9,.66,.75-.06,1.48-.26,2.22-.45,.21-.05,.19-.36,.02-.41-.81-.23-1.58-.44-2.42-.59-1.14-.2-2.15-.84-3.19-1.32-.01-.02-.03-.04-.04-.06-.28-.38-.68-.58-.99-.92-.79-.85-1.6-1.84-2.14-2.9-.3-.58-1-.24-1.13,.29-.25,.21-.4,.57-.25,.96,1.28,3.21,3,5.21,6.01,6.55,2.4,1.07,5.12,1.04,7.03-1.57,.12-.17-.08-.32-.23-.24Z"/>
        <path class="cls-8" d="M40.89,111.48c-.08-.7-.79-1-1.18-1.48-.83-1-1.28-2.26-2.15-3.22-.3-.33-.61-.7-.94-1.08,.49,.2,.99,.37,1.53,.47,.31,.05,.58-.47,.26-.61-.36-.15-.69-.38-1.01-.61,1.35,.21,2.71,.43,4.02-.03,.21-.07,.26-.45,.02-.48-2.11-.24-3.77-1.43-5.91-1.31,0-.1-.04-.2-.14-.25-.17-.1-.36-.14-.55-.18-.2-.11-.41-.11-.67-.08v.02c-.17,.03-.34,.15-.44,.31-.02-.05-.06-.1-.08-.15,.57-.89,1.05-2.04,.81-2.95-.08-.3-.54-.24-.55,.11-.02,.46-.38,1.03-.61,1.43-.09,.16-.2,.32-.3,.47-.1-.11-.19-.22-.3-.32-1.22-1.11-2.71-1.76-3.88-2.98-.18-.19-.54,.09-.4,.34,.53,.98,1.16,1.95,1.97,2.69,.45,.41,.82,.76,1.14,1.15-.39-.05-.77-.08-1.15-.05-.72-.26-1.42-.47-2.2-.55-.4-.04-.58,.55-.19,.67,.29,.09,.58,.22,.86,.34-.37,.15-.73,.27-1.19,.27-.87,0-1.75-.16-2.6-.25-.35-.04-.49,.46-.17,.58,1.14,.4,2.65,1.09,3.94,.87,.77-.13,1.21-.42,2.02-.28,.19,.03,.37,.06,.55,.09,.19,.09,.38,.19,.57,.27,.14,.06,.27,.05,.39,.02,0,.04-.02,.08-.02,.12,.03,1.26-.94,2.61-1.77,3.51-.26,.29,.03,.71,.35,.51,.96-.61,2.1-1.63,2.55-2.8,.01,.36-.02,.73,.02,1.09,.03,.31,.47,.19,.5-.1,.03-.26,.23-.58,.3-.85,0-.03,.01-.06,.02-.1,1.08,.9,2.09,1.94,2.94,3.04,.45,.58,.86,1.16,1.42,1.63,.48,.4,1.42,.61,1.8,1.05,.19,.22,.51-.04,.48-.31Z"/>
        <path class="cls-10" d="M47.63,109.77c.01-.08,.02-.17,.02-.25,.01-.07,0-.11-.02-.13,.3-.05,.52-.46,.39-.74-.22-.43-.36-.89-.63-1.3-.22-.32-.45-.76-.86-.81-.1-.01-.21,.12-.15,.21,0,0,0,0,0,0,.31,.48,.62,1.17,.72,1.82-.09,.07-.17,.16-.24,.26-.24,.39-.19,.85-.05,1.22,.17,.44,.77,.14,.82-.28Z"/>
        <path class="cls-10" d="M20.38,100.36c-.21-.42-.24-.92-.18-1.42,.08-.61,.35-.86,.74-1.27,.48-.5,1.14-1.65,1.85-1.7,.17-.01,.19-.25,.05-.3-.39-.14-.94,.12-1.32,.33-.35,.2-.66,.48-1,.69-.23,.14-.51,.24-.7,.44-1.02,1.08-.36,2.6,.28,3.46,.11,.15,.35-.06,.27-.22Z"/>
        <path class="cls-12" d="M35.61,104.53c.21,.06,.38-.26,.24-.42-.33-.35-.68-.5-1.13-.62,.08-.09,.28-.34,.31-.33,.21,.02,.4-.31,.18-.42-.22-.11-.46,.04-.68,.16-.08,.04-.15,.09-.23,.12-.03,.01-.06,.02-.09,.03,.19-.26,.38-.52,.52-.8,.13-.25-.15-.49-.35-.28-.28,.3-.58,.62-.84,.94,0,0,0,0,0-.01-.12-.22-.26-.42-.54-.41-.27,0-.51,.19-.59,.48-.08,.27,.03,.59,.21,.82-.07-.07-.17-.1-.29-.06-.52,.19-.56,.81-.25,1.16,.04,.04,.08,.07,.13,.09,.07,.22,.19,.42,.33,.53,.11,.08,.27-.01,.33-.14,.08,.24,.43,.29,.57,.02,.06-.11,.09-.19,.11-.28,.06,.08,.11,.17,.18,.24,.22,.24,.5,.35,.77,.5v-.02c.26,.14,.71-.1,.59-.48-.11-.37-.41-.57-.57-.93,0,0,0,0,0,0,.05-.02,.09-.05,.14-.08,.32,.06,.65,.12,.97,.2Z"/>
        <path class="cls-11" d="M35,103.77c-.38-.14-.33-.67-.67-.79-.26-.09-.56,.19-.78,.36-.42-.18-1.04,.18-.97,.75,.02,.12,.06,.23,.15,.32,.02,.01,.03,.03,.05,.04-.1,.11-.21,.22-.23,.25-.1,.11-.19,.28-.3,.37-.17,.15-.01,.48,.19,.38,.24-.12,.46-.31,.69-.46l.04,.03c.08,.07,.23,.09,.32-.02-.06,.08,.03,.02,.11-.02,.02,.13,.06,.24,.12,.33,.14,.19,.5-.04,.43-.28-.03-.1,.05-.38,.05-.49,0-.03,0-.06-.01-.09,.03,0,.06,.01,.09,.02,.26,.09,.42-.24,.34-.46,.1,.02,.2,.03,.31,.06,.18,.05,.26-.25,.09-.31Z"/>
        <path class="cls-3" d="M33.33,103.33c-.05,.19,0,.26,0,.44,0,.16,.2,.21,.28,.06,.07-.07,.13-.15,.19-.23,.34-.45-.35-.73-.47-.27Z"/>
        <path class="cls-3" d="M34.9,103.62c.12-.27-.04-.54-.32-.46h-.03c-.09,.03-.16,.12-.19,.21-.02,.06-.03,.12-.03,.18,0,.29,.41,.44,.55,.12,0-.02,.02-.04,.02-.06Z"/>
        <path class="cls-3" d="M34.08,103.99s-.02,0-.03,0c-.11,0-.2,.09-.25,.2-.02-.06-.07-.11-.15-.1-.03,0-.07,0-.1,0-.02,0-.04,0-.06,0v.02c-.26,.03-.32,.44-.02,.46h.06c.09,.01,.14-.04,.18-.1,.04-.02,.06-.05,.08-.09,0,.02,0,.03,0,.05,0,0,.01,.02,.02,.03,.29,.52,.87-.48,.27-.47Z"/>
        <path class="cls-3" d="M33.15,104.29s-.01-.03-.02-.04c-.23-.49-.97,.22-.49,.52,.13,.08,.24,.12,.41,.06,.23-.09,.29-.42,.11-.54Z"/>
        <path class="cls-3" d="M32.94,103.21c-.15-.11-.29-.14-.47-.19-.27-.07-.44,.36-.21,.5,.15,.09,.29,.17,.46,.22,.29,.09,.44-.37,.22-.52Z"/>
        <path class="cls-9" d="M33.72,103.83c.03-.06,.05-.12,.08-.19,.11-.24-.21-.42-.31-.18-.05,.11-.08,.18-.11,.29,0,.02,0,.03,0,.05-.28-.11-.54,.36-.26,.52,.23,.13,.45-.14,.41-.36,.08,0,.16-.03,.2-.14Z"/>
        <path class="cls-9" d="M34.24,103.84c-.22-.12-.44,.26-.22,.38s.44-.26,.22-.38Z"/>
        <path class="cls-9" d="M34.19,103.33c-.26-.15-.52,.31-.26,.46s.52-.31,.26-.46Z"/>
      </g>
    </g>
  </g>
</svg>