<?xml version="1.0" encoding="UTF-8"?>
<svg id="Layer_2" data-name="Layer 2" xmlns="http://www.w3.org/2000/svg" viewBox="0 0 37.15 110.17">
  <defs>
    <style>
      .cls-1 {
        fill: #4f1e37;
      }

      .cls-2 {
        fill: #824a67;
      }

      .cls-3 {
        fill: #deabc5;
      }

      .cls-4 {
        fill: #361525;
      }

      .cls-5 {
        fill: #ddabc5;
      }

      .cls-6 {
        fill: #87964b;
      }

      .cls-7 {
        fill: #8e9b56;
      }

      .cls-8 {
        fill: #798743;
      }

      .cls-9 {
        fill: #5d6733;
      }

      .cls-10 {
        fill: #713252;
      }

      .cls-11 {
        fill: #6a763a;
      }

      .cls-12 {
        fill: #ba849f;
      }

      .cls-13 {
        fill: #99a85e;
      }

      .cls-14 {
        fill: #9a607d;
      }
    </style>
  </defs>
  <g id="_Ådalen_Gård_sommerhonning" data-name="Ådalen Gård, sommerhonning">
    <g>
      <path class="cls-8" d="M20.39,28.81c.41,.61,.8,1.23,1.11,1.89,.68,1.41,1.05,2.94,1.48,4.43,1.23,4.21,2.2,8.49,2.52,12.87,.4,5.37,1.11,10.67,1.63,16.01,.23,2.37,.66,4.69,1.16,7-.03-.38-.05-.77-.07-1.15,0-.06,.09-.08,.11-.03,.67,1.5,.73,3.25,1.01,4.87,.37,2.07,.9,4.07,1.5,6.08,.88,2.96,6.21,26.25,6.3,29.38-.49-.12-.98-.18-1.48-.17-.09-.98-.33-1.96-.45-2.93-.29-1.12-5.3-22.36-5.49-23.51-.15-.1-.29-.25-.35-.49-3.11-10.81-4.59-21.84-5.54-33.01-.4-4.64-1.06-9.16-2.23-13.68-.82-3.15-2.36-5.98-3.39-9.02-.01,.01-.03,.03-.04,.04-1.3,1.31-2.83,2.44-4.15,3.75-1.03,1.02-2,2.14-2.62,3.47-.45,.96-.32,2.23-.91,3.07-.09,.13-.35,.13-.37-.06-.08-.61-.18-1.11-.24-1.6-.9-2.5-.88-5.31,.69-7.5,.83-1.16,2.35-2.14,3.63-2.67,.98-.41,2.35-1.05,3.55-1.15,.35-.25,.76-.36,1.35-.16,.32,.1,.57,.51,.44,.85-.02,.05-.05,.1-.07,.15,.01,.1,.01,.2,0,.3,2.07,.12,5.15,1.06,6.53,2.62,2.16,2.44,2.36,6.01,2.48,9.07,0,.21-.28,.26-.38,.09-.07-.12-.13-.25-.19-.38-.06-.02-.11-.06-.13-.12-.73-2.42-2.38-4.58-4.19-6.28-.94-.89-2.09-1.44-3.21-2.04Z"/>
      <path class="cls-11" d="M24.8,48.93c.26,4,.3,7.95,.73,11.94,.39,3.58,.97,7.1,1.51,10.65,0,0,0,.02,.01,.03,.1,.03,.21,.06,.31,.06,.43-.02,.72-.4,1.15-.18,.05,.02,.06,.1,.03,.14-.21,.3-.48,.5-.8,.67-.12,.06-.25,.12-.39,.14,.03,.08,.06,.16,.09,.24,.11,.2,.23,.4,.25,.45,.14,.39,.24,.8,.34,1.21,.51,1.51,.96,3.03,1.24,4.63,.47,2.75,5.75,25.59,6.15,28.35,.13,.92,.27,1.84,.4,2.76-.38,0-.77,.04-1.15,.11-.11-.83-.22-1.66-.3-2.47-.27-2.79-5.62-25.75-6.14-28.5-.42-2.25-1.16-4.41-1.68-6.62-.08-.18-.14-.37-.12-.55-.09-.42-.18-.83-.24-1.26-1.82-6.7-2.45-13.44-2.86-20.44-.23-3.79-.94-7.55-1.62-11.28-.34-1.87-.9-4-1.55-5.79-.7-1.94-1.89-3.68-2.36-5.7-.09-.39,.22-.67,.54-.67-.28-.78-.5-1.56-.56-2.32-.04-.46,.66-.6,.85-.2,1.44,3.04,2.15,6.34,3.29,9.51,.03,.07-.05,.12-.11,.11,1.7,4.84,2.69,10.01,3.01,14.99"/>
      <path class="cls-9" d="M26,69.96c.09-.06,.16-.08,.27-.09,.16-.01,.25-.06,.41-.12,.24-.09,.57-.12,.8-.02,.04,.02,.06,.09,.03,.12-.13,.16-.31,.21-.5,.29-.19,.09-.36,.21-.57,.2-.07,0-.18-.05-.25-.02-.08-.03-.09,0-.02,.09,.01,.04,.02,.08,.03,.11,.07,.29,.13,.58,.18,.87,.03,.15-.18,.19-.22,.05-.1-.35-.21-.7-.31-1.05-.06-.2,0-.34,.17-.45Z"/>
      <path class="cls-9" d="M19.68,26.83c-.04-.09,.07-.18,.14-.1,.12,.13,.25,.26,.37,.4,.7,.06,1.31,.18,1.99,.36,.53,.15,1.49,.3,1.81,.82,.03,.05-.03,.1-.08,.07-.22-.15-.77-.25-1.04-.32-.07-.02-.14-.02-.21-.04,.52,.19,1.02,.43,1.44,.71,1,.67,1.54,1.52,2.09,2.55,.08,.14-.13,.31-.24,.17-.72-.93-1.61-1.71-2.69-2.2-.03-.01-.05-.02-.08-.03,.45,.35,.86,.73,1.18,1.02,1.46,1.31,3.01,3.41,3.1,5.4,0,.1-.16,.14-.2,.05-.7-1.71-2.36-3.8-3.85-4.96-.91-.71-2.16-1.14-2.99-1.89-.12-.11-.11-.26-.04-.39-.19-.18-.31-.41-.42-.67-.04-.09-.08-.18-.12-.27-.04-.04-.06-.09-.06-.14,0-.01-.01-.03-.02-.04-.08-.17-.03-.35-.1-.51Z"/>
      <path class="cls-9" d="M17.73,25.78c.42-.16,.64,.29,.56,.63,.14,.11,.21,.3,.09,.5-.45,.72-.86,.83-1.49,1.32-.61,.47-1.04,1.14-1.67,1.61-1.04,.77-1.81,1.19-2.56,2.28-.44,.64-.75,1.35-1.31,1.9,0,0,0,0,0,0-.31,.73-.55,1.48-.74,2.22-.04,.14-.27,.11-.26-.04,.25-4.49,3.11-8.8,7.38-10.41Z"/>
      <path class="cls-6" d="M20.06,26.89c1.45,.15,3.15,.69,4.41,1.41,.77,.44,1.47,.94,1.94,1.72,.45,.74,.72,1.58,1.16,2.31,.05,.08-.07,.16-.12,.09-1.21-1.34-1.85-2.91-3.64-3.67-1.2-.51-2.94-.6-3.94-1.43-.17-.14-.02-.45,.19-.43Z"/>
      <path class="cls-6" d="M10.42,34.47c.37-.98,.15-2.1,.62-3.06,.29-.6,.7-1.32,1.1-1.84,1.28-1.69,3.05-2.86,4.94-3.7,.23-.1,.44,.17,.26,.36-.64,.68-1.58,.97-2.29,1.6-.69,.62-1.4,1.28-2.01,1.96-.52,.58-1.02,1.26-1.41,1.94-.53,.91-.39,1.97-1.05,2.82-.06,.07-.2,.03-.16-.07Z"/>
      <path class="cls-13" d="M26.43,69.44c.21-.18,.43-.33,.73-.27,.14,.03,.26,.1,.39,.13,.03,0,.07,0,.1,.01-1.17-6.65-2.24-13.37-2.28-20.14,0-.07,.11-.08,.12-.01,.46,3.49,.99,6.99,1.33,10.51,.17,1.75,.42,3.49,.69,5.21,.23,1.43,.58,2.88,.74,4.32,0,0,0,0,0,0,.14,.41-.03,.77-.5,.76-.21,0-.38-.08-.57-.17-.23-.12-.45-.07-.7-.12-.1-.02-.12-.16-.05-.22Z"/>
      <path class="cls-7" d="M27.08,71.03c0-.08,.05-.17,.13-.21,.28-.13,.3-.14,.58,0,.05,.02,.04,.08,.01,.12-.38,.39,.3,1.87,.43,2.4,.2,.87,.26,1.76,.45,2.62,.04,.18-.22,.24-.28,.07-.29-.94-.46-1.87-.79-2.81-.23-.65-.59-1.48-.53-2.17Z"/>
      <g>
        <path class="cls-3" d="M23.04,24.36c.49-.81,1.16-1.44,1.82-2.07-.77,.13-1.53-.93-1.15-1.76,1.05-2.28,2.13-4.44,3.01-6.75-.49,.32-1.25,.15-1.42-.54-.5-2-.48-4.18-.73-6.22-.11-.9-.62-2.11-.19-2.96,.04-.08,.15-.14,.24-.13,1.21,.2,1.66,1.59,2.04,2.59,.63,1.65,1.01,3.41,.81,5.14,.4-1.18,1.04-2.72,1.03-3.9,0-.22,.32-.29,.42-.1,1.59,3.02,.5,7.38-1.3,10.86,.41-.63,.86-1.22,1.3-1.83,.22-.3,.68-.1,.59,.27-.21,.9-.22,1.73-.55,2.62-.3,.83-.68,1.7-1.16,2.44-.87,1.36-2.34,2.26-3.47,3.38-.68,.67-1.79-.24-1.3-1.05Z"/>
        <path class="cls-3" d="M18.22,0c2.93,.23,4.62,3.43,5.52,5.9,.33,.9-.98,1.19-1.44,.56-.78-1.07-1.33-2.28-2.09-3.35-.68-.97-1.53-1.83-2.16-2.83-.07-.12,.03-.28,.17-.27Z"/>
        <path class="cls-3" d="M13.2,1.72c.04-.23,.16-.45,.41-.5,1.09-.2,1.55,1.06,1.94,1.85,.66,1.33,1.12,2.69,1.58,4.1,.33,1-1.15,1.45-1.65,.64-.63-1.02-1.08-2.14-1.53-3.25-.34-.85-.9-1.9-.75-2.84Z"/>
        <path class="cls-3" d="M10.81,1.35c-.09-.47,.58-.77,.82-.31,1.13,2.19,1.57,4.46,2.09,6.85,.17,.77-.87,1.15-1.27,.49-1.27-2.11-1.18-4.68-1.64-7.02Z"/>
        <path class="cls-3" d="M7.91,2.38c.16-.4,.85-.49,.93,.03,.42,2.67,.78,5.37,1.14,8.04,.15,1.12-1.42,1.94-1.99,.77-1.25-2.56-1.15-6.24-.07-8.84Z"/>
        <path class="cls-3" d="M4.45,3.95c.19-.37,.78-.17,.76,.23-.13,2.04-.28,3.9,.77,5.77,.99,1.77,2.83,2.73,3.76,4.55,.39,.76-.32,1.75-1.19,1.46-2.18-.72-4.33-3.18-5.04-5.35-.79-2.4-.18-4.51,.93-6.65Z"/>
        <path class="cls-3" d="M0,9.16c-.01-.34,.51-.46,.65-.16,.95,2.06,1.96,3.99,3.48,5.67,1.35,1.5,3.4,2.16,4.45,3.89,.68,1.13-.33,2.2-1.42,2.31-2.43,.23-4.93-2.01-5.99-4.03C-.2,14.25,.09,12.01,0,9.16Z"/>
        <path class="cls-3" d="M.35,19.63c.05-.38,.41-.6,.77-.41,1.3,.69,2.5,1.47,3.77,2.23,1.64,.97,3.36,1.77,5.01,2.74,1.48,.87,.34,2.88-1.16,2.58-2.01-.4-4.4-1.77-5.93-3.11-1.04-.91-2.67-2.49-2.45-4.02Z"/>
        <path class="cls-12" d="M20.98,8.67c-1.18-1.64-1.75-3.74-2.76-5.5-.23-.4,.1-.88,.54-.88,1.95,.03,3.31,1.64,4,3.43,0-.2,0-.4,.03-.58,.04-.28,.28-.4,.53-.28,1.7,.78,2.34,2.98,2.64,5.02,.07-.36,.17-.7,.34-1.01,.13-.24,.58-.26,.69,.02,.72,1.86,1.46,3.66,1.26,5.73-.24,2.5-1.78,5.1-3.28,7.03-.62,.81-2.07,.33-1.72-.78,.78-2.45,2.22-4.72,2.52-7.3,.02-.15,.03-.31,.04-.47-.6,.4-1.69,.12-1.99-.67-.43-1.12-.6-2.38-.73-3.6-.45,.64-1.63,.54-2.12-.14Z"/>
        <path class="cls-12" d="M14.34,1.83c.95-.4,1.6,.24,2.26,.87,1.13,1.07,1.81,2.79,2.13,4.29,.16,.77-.91,1.51-1.46,.79-.84-1.08-1.13-2.37-1.81-3.53-.38-.65-.85-1.3-1.27-1.92-.1-.15-.03-.43,.15-.5Z"/>
        <path class="cls-12" d="M9.94,5.2c-.09-.69-.22-1.42-.14-2.12,.08-.68,.92-.9,1.29-.31,.75,1.2,.95,3.05,1.06,4.44,.09,1.1-1.44,1.02-1.76,.17-.27-.71-.36-1.43-.45-2.19Z"/>
        <path class="cls-12" d="M3.13,7.5c.17-.39,.69-.4,.83,.03,.59,1.75,.92,3.57,1.79,5.21,.19,.35,.42,.66,.67,.95-1.19-1.6-1.72-3.88-1.27-5.73,.39-1.61,1.1-4,2.95-4.45,.32-.08,.53,.27,.39,.54-.14,.26-.04,1.03-.11,1.35-.2,.91-.45,1.74-.54,2.69-.2,2.09,.98,3.81,1.18,5.85,.06,.65-.75,1.15-1.34,.97,.9,.81,1.74,1.64,1.89,2.97,.12,1.08-.71,2.15-1.89,1.78-2.25-.71-4.78-3.29-5.41-5.58-.67-2.44-.16-4.33,.84-6.57Z"/>
        <path class="cls-12" d="M5.25,24.39c1.13-.15,2.26,.32,3.38,.37,.3,.02,.61,.01,.91,0-.83-.13-1.65-.39-2.45-.62-.95-.28-2-.59-2.68-1.37-1.07-1.23-1.79-3.28-1.92-4.88-.05-.57,.73-.75,1.08-.41,.48,.46,.98,.89,1.45,1.37,.48,.48,.92,1.34,1.5,1.67,.72,.41,1.73,.39,2.53,.58,.99,.23,1.98,.58,2.85,1.13,1.08,.69,.72,1.95-.19,2.42,.83-.05,1.66-.08,2.49,.01,1.44,.15,1.77,2.25,.26,2.61-3.11,.74-7.8,1.18-9.54-2.12-.15-.28,0-.73,.34-.78Z"/>
        <path class="cls-14" d="M8.15,24.5c-2.32-.81-2.91-2.38-3.3-4.61-.07-.41,.21-.66,.53-.7-.24-.35-.46-.7-.66-1.05-.47-.83-.52-1.79-.92-2.58-.23-.45,.19-.9,.68-.81,.38,.08,.72,.28,1.04,.56-.3-.6-.54-1.2-.67-1.81-.51-2.36,.18-4.18,1.39-6.16,.28-.46,1.05-.24,1.01,.29-.02,.37-.05,.75-.06,1.12,.44-.61,.96-1.17,1.6-1.63,.09-.62,.17-1.22,.22-1.81,.03-.36,.62-.46,.69-.07,.08,.4,.13,.81,.18,1.22,.46-.23,.93-.45,1.42-.63-.07-.6-.05-1.19,.16-1.73,.09-.24,.37-.36,.61-.23,.56,.32,.89,.83,1.14,1.39,.45-.09,.9-.15,1.34-.18-.4-.55-.8-1.1-1.18-1.66-.23-.35,.25-.7,.58-.53,1.44,.76,3.07,1.29,4.01,2.69,.51,.08,1.01,.2,1.48,.36-.1-.27-.19-.54-.29-.8-.07-.2,.03-.46,.19-.6,.11-.1,.2-.17,.35-.18,1.22-.03,2.47,2.16,2.8,3.09,.06,.17,.11,.33,.15,.5,.17,.17,.34,.35,.5,.53,.02-.15,.05-.29,.08-.44,.07-.3,.47-.33,.67-.16,1.46,1.25,1.82,3.32,1.69,5.45,.44,1.85,.47,3.8,.04,5.62-.09,.36-.2,.71-.32,1.05,.45-.37,.91-.73,1.4-1.05,.28-.19,.71,.14,.57,.44-1.5,3.28-5.08,7.67-9.22,7.58-.8,.26-1.63,.41-2.46,.44-.2,.04-.39,.09-.61,.12-1.47,.23-3.12,.47-4.6,.41-1.28-.06-2.18-.67-3.32-1.03-.58-.18-.63-1.13,.05-1.23,.81-.12,1.61,.02,2.41-.08,.18-.02,.36-.07,.54-.1-.22-.19-.44-.38-.65-.6-.44-.13-.88-.27-1.3-.42Z"/>
        <path class="cls-2" d="M7.11,20.69c-.21-.36-.12-.84,.17-1.12,.26-.25,.59-.32,.95-.3-.56-1.24-.52-2.69-.25-4.02-.15,0-.3-.02-.42-.09-1.21-.67-1.27-2.58-1.39-3.81-.07-.74-.05-2.31,.96-2.36,.22-.01,.43,.27,.34,.48-.16,.37,.08,.75,.18,1.11,.12,.47,.24,.91,.4,1.37,.25,.73,.52,1.53,.62,2.31,.19-.02,.39,.02,.53,.18,.95,1.09,1.04,2.7,2.08,3.68-.31-.91-.47-1.81-.27-2.47,.07-.24,.28-.4,.52-.45-.16-.29-.28-.6-.35-.94-.21-1.11-.24-2.36,.52-3.25,.25-.29,.81-.19,.96,.15,.24,.54,.64,1.33,1,1.98,.15,.27,.35,.51,.58,.74,0-.03-.01-.06-.02-.1-.12-.75,.77-1.04,1.19-.46,.02,.03,.06,.06,.08,.09-.29-1.4-.28-2.86,.18-4.22,.15-.44,.69-.57,1.02-.24,.73,.73,.82,1.79,1.08,2.75,.24,.86,.56,1.68,.76,2.53,0-.05,.02-.1,.03-.15,0-.03,.03-.05,.04-.07-.08-.83-.37-1.88,.05-2.65,.09-.17,.36-.24,.52-.12,.95,.68,1.58,1.99,1.87,3.35,.19-.98,.33-2.06,.92-2.79,.05-.06,.12-.09,.19-.09-.26-.78-.07-1.46,.09-2.26,.18-.94-.08-1.86,.08-2.8,.04-.25,.4-.5,.6-.23,1.15,1.54,.95,3.49,.59,5.28-.05,.27-.29,.43-.55,.48,.51,.54,.73,1.35,.8,2.16,.72-.89,1.45-1.76,1.89-2.82,.13-.31,.55-.32,.65,.02,.52,1.76-.42,3.43-1.04,5.02-.2,.52-.48,1.05-.8,1.55,.34-.32,.69-.63,1.09-.9,.33-.22,.65,.22,.49,.52-.39,.73-.28,1.64-.58,2.41-.34,.89-.89,1.71-1.48,2.45-1.11,1.4-2.85,2.63-4.64,2.96-.42,.08-.82-.07-1.12-.33-2.44,2.03-6.71,3.18-8.77,.02-.24-.37,.04-.83,.42-.94-.1,.03,.06-.04,.28-.13-.2-.15-.4-.31-.58-.49-.93-.92-1.81-1.87-2.45-2.99Z"/>
        <path class="cls-10" d="M11.25,22.89c.23,.73,.75,1.43,1.28,1.99-.33,.12-.54,.36-.57,.72,0,.01,0,.03,0,.04-.04,.41,.35,.61,.62,.81,.42,.29,.78,.61,1.26,.8,1.23,.47,2.51,.42,3.7-.08,.35-.15,.54-.43,.62-.75,1.61,.77,3.51-.34,4.74-1.43,1.51-1.32,1.65-2.73,2.1-4.55,.13-.5-.51-.76-.8-.36-.09,.12-.19,.25-.3,.37,0-.19,0-.38-.04-.57-.05-.28-.23-.6-.22-.89,.02-.39-.39-.57-.7-.43-.49,.21-.78,.71-1.06,1.13-.33,.49-.7,.88-1.15,1.27-.36,.31-.73,.65-1.09,.99-.12-.09-.24-.18-.37-.26,2.07-1.04,3.18-3.84,2.1-5.98-.06-.13-.2-.19-.34-.2,.85-1,.84-2.28,.7-3.56-.08-.69-.22-1.36-.52-1.99-.3-.63-.67-.78-1.2-1.14-.29-.19-.62,.1-.57,.41,.37,2.05-.28,4.15,.06,6.19,.08,.5,.65,.68,1.06,.5-.23,.37-.54,.71-.77,1.07-.2,.32-.39,.65-.58,.97-.1-.65-.35-1.29-.57-1.91-.3-.83-.55-1.44-1.25-1.98-.26-.2-.65,.05-.66,.35,0,.1,0,.2-.01,.29-.02-.05-.02-.1-.04-.16-.36-.81-.88-1.48-1.19-2.32-.37-.98-.59-1.89-1.1-2.82-.16-.29-.64-.26-.73,.08-.34,1.26-.64,2.28-.44,3.61,.18,1.16,.74,2.03,1.61,2.8,.67,.6,1.52,.31,1.84-.3-.1,1.18-.18,2.4,.33,3.42-.32-.53-.61-1.07-.88-1.58-.32-.61-1.23-.35-1.27,.3-.04,.66,0,1.52,.15,2.41-.76-.75-1.69-1.31-2.37-2.12-.59-.7-.92-1.78-2.03-1.36-.82,.32,.04,2.52,.28,3,.3,.59,.76,1.18,1.3,1.69-.3-.08-.6-.04-.88,.2-.33,.28-.16,.99-.06,1.31Zm4.73,.2c-.57-.1-1.15-.19-1.68-.42,.53,.06,.95-.28,1.15-.75,.15,.42,.32,.81,.53,1.17Z"/>
        <path class="cls-1" d="M13.63,23.43s0-.02,0-.03c0,0,0-.01,0-.02,.11-.25,.33-.48,.63-.45,.73,.08,1.47,.47,2.12,.78,.35,.17,.71,.33,1.06,.49,.26-.29,.55-.54,.84-.81,.17-.16,.3-.33,.43-.5-.53,.33-1.32,.19-1.61-.62-.28-.8-.29-1.72-.05-2.53,.2-.7,.41-1.13,.91-1.64,.46-.48,1.07,.08,.98,.6-.16,.98,.14,2.09,.26,3.07,.03,.25-.02,.45-.09,.63,.61-.67,1.13-1.45,1.44-2.32,.13-.37,.63-.34,.74,.02,.3,.92,.1,1.97-.15,2.91,.38-.26,.77-.53,1.18-.59,.24-.03,.54,.08,.58,.36,.12,.79-.67,1.55-1.15,2.12-.61,.72-1.61,1.46-2.6,1.42-.14,.29-.39,.52-.73,.58-1.27,.21-2.39-.21-3.42-.95-.8-.57-1.74-1.43-1.39-2.52Z"/>
        <path class="cls-10" d="M8.45,10.89c-.03-.73,.02-1.62,.57-2.14,.14-.14,.42-.07,.46,.14,.05,.3,.2,.58,.27,.88,.08,.36,.09,.74,.15,1.11,.12,.77,.45,1.56,.39,2.35-.04,.47-.63,.74-.97,.37-.71-.76-.83-1.7-.86-2.7Z"/>
        <path class="cls-2" d="M12.39,4.09c.75-.66,1.53,.4,2,.95,.78,.92,1.66,2.24,1.55,3.5-.06,.68-.88,.84-1.25,.3-.49-.74-.61-1.67-1.05-2.46-.21-.37-.46-.72-.68-1.08-.15-.24-.28-.64-.53-.79-.14-.08-.17-.31-.04-.42Z"/>
        <path class="cls-2" d="M17.46,9.87c0-1.15,.07-2.23-.1-3.38-.1-.64-.31-1.35-.28-1.99,.01-.26,.36-.42,.55-.21,.59,.68,.87,1.18,1.15,2.07,.37,1.19,.26,2.33,.12,3.55-.11,.91-1.43,.88-1.43-.05Z"/>
        <path class="cls-2" d="M3.93,12.44c0-.56,.78-.71,1.04-.25,.73,1.3,1.66,2.52,2.34,3.85,.33,.64-.45,1.57-1.11,1.05-1.43-1.13-2.28-2.83-2.27-4.66Z"/>
        <path class="cls-1" d="M13.49,18.98c-.02-.51,.18-.9,.24-1.39,.04-.33,.5-.5,.67-.16,.56,1.12,.81,2.45,1.61,3.45,.53,.66-.17,1.57-.93,1.15-.66-.36-1.17-1.22-1.39-1.91-.11-.36-.19-.75-.2-1.13Z"/>
        <path class="cls-1" d="M20.62,18.3c.6-1.07,1.3-2.07,1.84-3.17,.07-.14,.33-.14,.39,0,.19,.48,.18,1.28,0,1.75-.28,.72-.62,1.49-1.06,2.13-.5,.73-1.6,.05-1.17-.72Z"/>
        <path class="cls-5" d="M4.87,10.22c.1-.48,.19-.99,.43-1.42,.25-.44,.64-.66,.91-1.05,.05-.07,.14-.02,.13,.06-.13,.79-.4,1.53-.53,2.34-.11,.68-.03,1.39-.17,2.05-.04,.21-.3,.26-.47,.18-.7-.37-.44-1.51-.31-2.14Z"/>
        <path class="cls-5" d="M4.03,15.84c-.09-.1,0-.24,.13-.21,.45,.08,.68,.97,.86,1.33,.2,.4,.39,.83,.67,1.19,.24,.31,.56,.54,.81,.84,.21,.26,0,.61-.33,.54-.78-.17-1.22-.82-1.52-1.52-.17-.4-.3-.8-.41-1.21-.05-.19-.09-.8-.21-.94Z"/>
        <path class="cls-5" d="M13.94,3.1c.79-.49,1.8,.56,2.31,1.03,.8,.75,1.23,1.63,1.07,2.74-.03,.19-.24,.24-.35,.08-.46-.67-.71-1.46-1.29-2.04-.56-.57-1.06-1.15-1.75-1.58-.09-.06-.08-.19,0-.24Z"/>
        <path class="cls-5" d="M19.92,4.6c.74-.12,1.41,.77,1.72,1.34,.56,1.04,.75,1.77,.61,2.92-.02,.19-.3,.3-.39,.09-.65-1.4-.96-2.97-1.99-4.17-.05-.06-.03-.16,.05-.18Z"/>
        <path class="cls-5" d="M24.27,12.7c-.04-.79,.41-1.47,.33-2.27-.07-.68-.23-1.45-.52-2.07-.05-.11,.04-.24,.16-.2,.78,.25,.97,1.18,1.15,1.88,.25,.98,0,1.97-.49,2.85-.18,.32-.62,.12-.63-.19Z"/>
        <path class="cls-5" d="M5.1,20.28c-.07-.09-.03-.27,.11-.25,.02,0,.04,0,.06,0,.06,0,.12,.03,.15,.09,.44,1.03,.88,1.94,1.83,2.59,.58,.39,1.24,.76,1.62,1.36,.12,.19-.05,.51-.29,.47-.97-.14-1.89-.83-2.6-1.48-.41-.38-.73-.86-.89-1.41-.06-.2-.05-1.45,0-1.37Z"/>
        <path class="cls-5" d="M7.08,26.08c.5-.19,1.27,.35,1.71,.57,.43,.22,.94,.4,1.42,.44,.47,.04,.8,.07,1.23,.29,.36,.18,.11,.64-.2,.66-.93,.07-1.66-.07-2.49-.47-.33-.16-.59-.36-.9-.56-.22-.14-.54-.46-.78-.54-.2-.07-.17-.32,.01-.39Z"/>
        <path class="cls-12" d="M13.18,4.22s0-.02,0-.03c0-.08,.06-.11,.12-.11,.07-.12,.24-.13,.36-.07,1.37,.72,2.4,2.46,2.26,4-.03,.3-.42,.41-.58,.14-.48-.82-.55-1.82-1.14-2.6-.2-.27-.45-.49-.65-.76-.08-.1-.14-.22-.21-.32-.06-.09-.11-.13-.05-.1-.06-.02-.09-.07-.1-.13Z"/>
        <path class="cls-12" d="M17.93,9.86c-.04-.88,.3-1.65,.18-2.56-.11-.8-.36-1.59-.46-2.39-.01-.12,.08-.24,.21-.2,.83,.29,1.18,1.48,1.38,2.24,.26,1,.31,2.34-.35,3.2-.32,.41-.93,.25-.96-.29Z"/>
        <path class="cls-12" d="M16.82,10.82c-.08-.36-.18-.71-.28-1.07-.03-.1-.13-.35-.09-.45,0-.01,.01-.03,.02-.04,.04-.11,.18-.22,.3-.16,.54,.25,.83,.94,1.04,1.45,.32,.79,.71,1.76,.6,2.62-.06,.45-.71,.71-.94,.22-.37-.78-.47-1.74-.65-2.58Z"/>
        <path class="cls-12" d="M22.62,10.81c.06-.52,.07-1.02,.08-1.53,0-.41,0-.8-.04-1.21-.02-.23,.06-.55,0-.77-.03-.1,.09-.18,.17-.13,.53,.33,.81,1.29,.9,1.87,.14,.9,.28,1.93-.2,2.76-.24,.4-.79,.24-.92-.15-.1-.3-.03-.54,0-.85Z"/>
        <path class="cls-12" d="M23.72,17.74c.4-.75,.62-1.52,1.04-2.25,.59-1.02,.95-2.16,1.24-3.29,.03-.1,.18-.12,.23-.02,.59,1.15,.24,2.53-.34,3.62-.37,.69-1.11,2.22-2.02,2.22-.14,0-.21-.16-.15-.28Z"/>
        <path class="cls-12" d="M8.32,14.86s.13-.04,.17,0c.5,.54,.26,1.65,.33,2.31,.14,1.37,.75,2.36,1.33,3.57,.12,.24-.1,.61-.4,.49-2.14-.9-3.01-4.59-1.44-6.37Z"/>
        <path class="cls-12" d="M7.37,20.3c.7,.37,1.17,1.37,1.66,1.97,.66,.82,1.38,1.3,2.22,1.89,.38,.26,.26,1.03-.29,.95-1.11-.16-1.82-.8-2.49-1.66-.36-.46-.6-.96-.84-1.48-.21-.45-.3-1-.51-1.43-.08-.16,.09-.32,.25-.24Z"/>
        <path class="cls-12" d="M10.94,14.38c-.14-.91-.4-1.96,.4-2.58,.07-.05,.2-.04,.21,.06,.08,.78,.34,1.5,.53,2.25,.14,.56,.25,1.12,.53,1.63,.27,.48,.64,.82,.84,1.34,.12,.32-.12,.84-.54,.66-1.38-.61-1.76-1.98-1.98-3.35Z"/>
        <path class="cls-12" d="M17.39,14.1c.49,.04,.83,.77,1.04,1.14,.32,.57,.65,1.3,.61,1.96-.01,.18-.24,.22-.33,.08-.32-.48-.52-.99-.74-1.52-.12-.29-.27-.58-.4-.87-.06-.13-.16-.51-.26-.59-.08-.07,0-.21,.09-.2Z"/>
        <path class="cls-12" d="M13.53,9.56c.03-.07,.15-.06,.18,0,.35,.75,.03,1.81,.2,2.61,.16,.76,.4,1.5,.85,2.13,.28,.38,.58,.71,.78,1.14,.14,.29-.11,.65-.44,.55-1.24-.39-1.92-1.74-2.16-2.92-.27-1.32,.01-2.32,.58-3.51Z"/>
        <path class="cls-14" d="M13.57,12.14c-.15-.89-.18-1.45,.25-2.19,.06-.1,.21-.05,.22,.07,.03,1.56,.81,3.14,1.29,4.6,.08,.24-.25,.48-.45,.33-.91-.69-1.12-1.74-1.3-2.8Z"/>
        <path class="cls-14" d="M11.63,12.33c.05-.16,.26-.21,.37-.09,.56,.59,.6,1.52,.83,2.27,.28,.86,.8,1.63,1.06,2.5,.1,.35-.31,.58-.59,.43-1.4-.76-2.11-3.66-1.67-5.1Z"/>
        <path class="cls-14" d="M16.14,9.78c-.03-.17,.19-.33,.32-.18,.84,1,1.21,2.41,1.32,3.7,.04,.43-.67,.6-.83,.2-.47-1.17-.6-2.48-.81-3.72Z"/>
        <path class="cls-14" d="M20.21,14.82c.02-.34,.09-.58,.21-.89,.25-.67,.32-1.18,.28-1.89-.05-.89-.15-1.75-.43-2.6-.05-.16,.15-.29,.28-.2,.8,.52,1.16,1.46,1.3,2.39,.21,1.39,.04,2.31-.76,3.46-.26,.38-.92,.23-.89-.27Z"/>
        <path class="cls-14" d="M10.27,17.06c.04-.17,.28-.22,.39-.09,.57,.68,.61,1.67,1.18,2.37,.58,.71,1.31,1.3,1.9,1.99,.3,.35-.02,.8-.44,.71-1.01-.2-1.8-1.24-2.36-2.05-.52-.75-.89-2.03-.67-2.94Z"/>
        <path class="cls-14" d="M10.95,21.99c0-.23,.35-.31,.44-.11,.29,.62,.53,1.23,.89,1.82,.37,.62,.96,1.02,1.33,1.63,.25,.43-.27,.86-.67,.64-1.44-.8-1.92-2.44-1.98-3.99Z"/>
        <path class="cls-14" d="M16.62,20c.1-.67,.55-1.82,1.34-1.81,.15,0,.24,.18,.16,.31-.79,1.29-.64,2.76-.33,4.15,.09,.41-.38,.6-.67,.36-.87-.71-.66-2.04-.51-3.01Z"/>
        <path class="cls-14" d="M20.93,19.1c.24-.54,.73-.94,1.01-1.47,.33-.63,.51-1.28,.88-1.89,.08-.13,.25-.03,.22,.1-.15,.85,.05,1.64-.36,2.45-.28,.55-.71,1.27-1.39,1.32-.23,.01-.46-.29-.36-.5Z"/>
        <path class="cls-14" d="M19.2,24.08c.36-.6,.81-1.08,1.06-1.75,.25-.67,.3-1.32,.45-2,.04-.17,.29-.23,.4-.1,.54,.67,.38,1.64,.17,2.41-.23,.82-.64,1.7-1.43,2.12-.43,.23-.91-.27-.65-.68Z"/>
        <path class="cls-4" d="M14,24.16c.64,.27,1.09,.79,1.69,1.11,.31,.16,.63,.35,.94,.49,.38,.17,.7,.18,1,.5,.16,.17,.14,.51-.09,.61-.83,.35-1.63-.26-2.29-.72-.64-.45-1.16-1.11-1.42-1.83-.03-.09,.08-.2,.17-.16Z"/>
        <path class="cls-4" d="M18,25c-.03-.26,.32-.36,.4-.09,.12,.42,.27,.83,.3,1.27,.29-.2,.6-.21,1-.3,.71-.15,1.23-.59,1.79-1.02,.58-.45,1.2-.86,1.84-1.23,.2-.11,.34,.14,.22,.3-.68,.84-1.18,1.71-2.04,2.42-.74,.62-1.99,1.26-2.92,.72-.14-.08-.21-.22-.21-.37-.16,.03-.34-.02-.43-.19-.28-.53,.12-.97,.06-1.5Z"/>
      </g>
    </g>
  </g>
</svg>