<?xml version="1.0" encoding="UTF-8"?>
<svg id="Layer_2" data-name="Layer 2" xmlns="http://www.w3.org/2000/svg" viewBox="0 0 81.9 93.37">
  <defs>
    <style>
      .cls-1 {
        fill: #4f1e37;
      }

      .cls-2 {
        fill: #bbc983;
      }

      .cls-3 {
        fill: #824a67;
      }

      .cls-4 {
        fill: #deabc5;
      }

      .cls-5 {
        fill: #361525;
      }

      .cls-6 {
        fill: #ddabc5;
      }

      .cls-7 {
        fill: #87964b;
      }

      .cls-8 {
        fill: #798743;
      }

      .cls-9 {
        fill: #5d6733;
      }

      .cls-10 {
        fill: #713252;
      }

      .cls-11 {
        fill: #7a8742;
      }

      .cls-12 {
        fill: #ba849f;
      }

      .cls-13 {
        fill: #99a85e;
      }

      .cls-14 {
        fill: #9a607d;
      }
    </style>
  </defs>
  <g id="_Ådalen_Gård_sommerhonning" data-name="Ådalen Gård, sommerhonning">
    <g>
      <g>
        <path class="cls-11" d="M79.47,93.18c-2-2.38-3.78-4.98-5.98-7.18-2.11-2.11-4.21-4.23-6.32-6.34-4.25-4.25-8.5-8.51-12.91-12.6-2.23-2.07-4.25-4.33-6.5-6.4-2.21-2.03-4.5-3.99-6.52-6.21-3.98-4.37-8.4-8.64-11.57-13.67-1.77-2.81-3.72-5.45-5.38-8.34-1.71-2.99-3.13-6.14-5.16-8.94-.12-.17,.14-.33,.27-.17,3.74,4.55,6.43,9.84,10.08,14.48,1.93,2.45,3.59,5.08,5.71,7.41,2.09,2.31,4.1,4.68,6.31,6.88,4.2,4.16,8.75,7.99,12.78,12.32,2.09,2.25,4.44,4.31,6.71,6.38,2.17,1.99,4.14,4.09,6.23,6.15,4.87,4.83,9.67,9.5,13.22,15.42,.35,.59-.49,1.39-.98,.81Z"/>
        <path class="cls-8" d="M19.19,27.64c-.13-.57-.04-1.1,.24-1.62,.14-.25,.28-.52,.47-.75-.04-.4,.22-.84,.68-.84,1.63,0,3.34-.43,4.93-.85,1.26-.34,2.17-.96,3.49-.8,1.46,.17,4.58,1.83,3.74,3.75-.08,.18-.31,.08-.34-.07-.11-.68-.72-1.24-1.45-1.63-.82-.11-1.85,.06-2.39,.39-1.03,.63-1.76,1.53-2.88,2.05-1.49,.69-3.58,.45-4.81-.71-.19,.29-.37,.53-.34,.96,.04,.52,.2,1.01,.42,1.47,.22,.46,.36,.97,.59,1.43,.1,.19-.15,.45-.32,.26-.86-.98-1.75-1.7-2.04-3.03Z"/>
        <path class="cls-9" d="M49.32,62.09c-2.07-2.2-4.41-4.04-6.73-5.96-2.41-1.99-4.88-4.36-6.84-6.78-1.11-1.36-2.45-2.84-3.55-4.38-1.57-1.69-2.78-3.64-4.13-5.52-1.25-1.75-2.71-3.7-3.66-5.7-.18-.26-.36-.51-.53-.78-1.18-1.84-2.41-3.69-3.4-5.65-.04,.13-.09,.29-.09,.37-.02,.24-.33,.32-.42,.07-.05-.14-.21-.24-.28-.38-.05-.09-.1-.21-.12-.3-.03-.15-.02-.28,.02-.43,0-.03,.02-.05,.03-.08,0,0,0-.01,0-.02,0-.24,.13-.4,.23-.58-.08-.19-.17-.39-.25-.58-.18-.44,.49-.71,.73-.34,0,0,0,.01,.01,.02,.02-.02,.04-.03,.07-.05,.28-.18,.6-.02,.72,.26,.07,0,.14,0,.21,.04,.39,.14,.77,.26,1.18,.33,.43,.07,.84,0,1.28,.02,.83,.06,1.71-.27,2.52-.46,.17-.04,.3,.19,.13,.29-.27,.16-.47,.39-.72,.58-.02,.01-.03,.02-.05,.03,.74-.34,1.44-.77,2.14-1.17,1.24-.72,3.12-1.56,4.03,0,.09,.15-.07,.3-.22,.24-1.4-.57-2.74,.86-3.81,1.53-.94,.59-2.03,1.19-3.14,1.4-1.07,.2-2.04-.06-2.87-.6,.99,1.72,1.93,3.47,3.01,5.14,1.38,2.13,3.04,4.12,4.29,6.34,1.57,2.09,2.94,4.31,4.7,6.25,3.24,3.57,6.6,7.02,9.83,10.6,.04,.03,.08,.07,.12,.1,4.06,3.29,7.63,7.03,10.8,11.19,.08,.11-.08,.24-.18,.15-1.73-1.7-3.43-3.4-5.1-5.17Z"/>
        <path class="cls-7" d="M21.45,24.33c.75,.03,1.36,.01,2.09-.22,.71-.22,1.33-.68,2.02-.95,.84-.34,2.27-.79,3.1-.28,.1,.06,.08,.24-.05,.24-.65,0-1.5,.55-2.1,.86-.73,.37-1.37,.89-2.12,1.25-1.04,.5-2.33,.93-3.31,.12-.38-.31-.14-1.04,.37-1.02Z"/>
        <path class="cls-2" d="M21.48,24.35c.4-.09,.79-.18,1.19-.26,.49-.11,.9-.32,1.37-.47,.4-.13,.9-.39,1.33-.41,.3-.01,.46,.17,.75,.22,.12,.02,.13,.21,.01,.23-.49,.11-.83,.36-1.25,.62-.4,.24-.83,.44-1.25,.67-.63,.34-1.54,.6-2.23,.33-.4-.16-.34-.83,.08-.93Z"/>
        <path class="cls-13" d="M77.59,88.64c-1.09-1.36-2.03-2.84-3.25-4.09-2.69-2.78-5.26-5.59-8.12-8.22-1.62-1.49-3.37-2.84-4.96-4.38-1.43-1.39-2.65-2.96-4.1-4.33-1.68-1.59-3.38-3.15-5.07-4.73-1.54-1.45-2.87-3-4.27-4.53-.04-.05,0-.14,.07-.1,1.43,.91,2.68,2.22,3.95,3.34,1.83,1.61,3.63,3.25,5.45,4.87,1.53,1.36,2.92,2.83,4.33,4.31,1.58,1.65,3.42,3.03,5.13,4.52,2.81,2.45,5.77,4.99,8.16,7.85,2.46,2.93,4.74,5.99,6.9,9.17,.26,.39-.23,1-.65,.72-1.56-1.06-2.42-2.93-3.58-4.38Z"/>
      </g>
      <g>
        <path class="cls-12" d="M18.94,9.19c-.26-.98,.26-1.93,.13-2.93-.07-.53-.16-1.06-.27-1.58-.1-.48-.33-.96-.36-1.44-.01-.23,.19-.36,.4-.34,1.22,.12,1.74,1.97,1.96,2.95,.25,1.11,.3,2.77-.58,3.63-.39,.38-1.12,.3-1.28-.28Z"/>
        <path class="cls-12" d="M21.31,12.02c-.13-.6,0-1.04,.28-1.58,.41-.76,.55-1.27,.43-2.14-.09-.68-.55-2.52,.21-2.95,.03-.02,.06-.02,.09,0,.47,.28,.56,.9,.69,1.39,.17,.61,.38,1.22,.5,1.83,.26,1.34-.27,2.41-.89,3.57-.27,.51-1.17,.52-1.31-.11Z"/>
        <path class="cls-12" d="M21.82,15.87c.68-1.49,2.23-2.5,2.61-4.11,.23-.97,.25-1.97,.63-2.91,.08-.21,.44-.18,.49,.04,.25,1.22,.62,2.55,.34,3.8-.33,1.48-1.67,3.07-2.7,4.12-.67,.68-1.76-.08-1.37-.95Z"/>
        <path class="cls-12" d="M14.81,9.16c-.61-1.29-.82-2.46-1.88-3.5-.87-.86-1.59-1.86-2.48-2.7-.22-.21-.02-.53,.26-.5,1.43,.15,2.86,1.34,3.88,2.28,1.12,1.03,1.79,2.69,1.47,4.2-.11,.53-.98,.79-1.25,.22Z"/>
        <path class="cls-12" d="M10.64,8.85c-.63-1.02-1.13-2.14-1.72-3.19-.57-1-1.49-1.74-1.95-2.8-.06-.14,.1-.32,.25-.27,2.31,.77,4.43,3.45,4.79,5.83,.12,.76-1,1.02-1.37,.43Z"/>
        <path class="cls-12" d="M6.29,7.76c-.68-1.22-.95-2.58-1.57-3.83-.11-.23,.1-.55,.36-.4,.92,.53,1.4,1.28,2,2.12,1.01,1.41,2.05,2.41,3.52,3.35,1.03,.65,.27,2.24-.87,1.71-1.37-.64-2.7-1.61-3.45-2.96Z"/>
        <path class="cls-12" d="M4.04,9.48c-.69-.99-1.54-2.2-1.25-3.45,.04-.16,.24-.29,.4-.19,.98,.63,1.73,1.76,2.51,2.62,1.01,1.13,2.4,1.82,3.27,3.08,.49,.72-.39,1.64-1.14,1.25-1.54-.82-2.79-1.89-3.78-3.31Z"/>
        <path class="cls-12" d="M.73,11.97c0-.25,.28-.38,.48-.22,1.47,1.19,2.41,2.76,4.23,3.55,1.63,.71,3.44,.58,5.02,1.4,.81,.42,.52,1.63-.37,1.69-3.75,.25-9.38-1.97-9.36-6.42Z"/>
        <path class="cls-12" d="M3.01,12.59c-.82-.82-1.72-1.96-1.77-3.16-.01-.3,.38-.41,.55-.17,.52,.77,1.62,1.53,2.34,2.12,.87,.69,1.92,.85,2.83,1.43,.54,.34,.43,1.21-.27,1.26-1.49,.09-2.63-.41-3.67-1.46Z"/>
        <path class="cls-12" d="M.53,18.46c-.13-.18,.1-.43,.3-.32,1.13,.66,2.39,1.5,3.69,1.75,1.04,.2,2.11,.04,3.13,.3,.6,.15,.65,.84,.21,1.19-.96,.78-2.8,.51-3.9,.19-1.65-.49-2.49-1.77-3.43-3.1Z"/>
        <path class="cls-12" d="M2.77,22.34c1.23,.16,2.41,.71,3.67,.67,1.23-.05,2.38-.57,3.62-.49,.82,.05,1.32,1.13,.51,1.63-1.17,.71-3.04,.96-4.39,.85-1.42-.12-2.79-.86-3.87-1.75-.44-.36-.01-.96,.46-.9Z"/>
        <path class="cls-12" d="M7.08,26.91c.18-.31,.35-.35,.69-.44,.63-.16,1.14-.23,1.75-.51,1.34-.63,2.75-1.32,4.13-1.83,.82-.3,1.47,.8,.9,1.42-1.09,1.17-2.72,1.75-4.24,2.14-.56,.15-1.22,.33-1.81,.25-.46-.07-.76-.34-1.16-.46-.23-.07-.41-.33-.27-.57Z"/>
        <path class="cls-12" d="M21.35,21.48c1.8-2.76,5.16-4.64,5.78-8.13,.04-.25,.42-.26,.49-.02,1.1,3.53-2.65,7.27-5.11,9.21-.62,.49-1.59-.4-1.16-1.06Z"/>
        <path class="cls-12" d="M12.04,9.65c-.4-1.02-.58-2.1-1.09-3.07-.38-.72-1.06-1.57-1.22-2.35-.02-.07,.04-.13,.11-.12,1.08,.1,1.78,1.2,2.29,2.05,.62,1.01,1.01,2.27,.9,3.45-.05,.56-.82,.47-.99,.04Z"/>
        <path class="cls-12" d="M4.77,6.67c-.02-.11,.09-.18,.18-.11,.73,.51,1.05,1.29,1.49,2.03,.7,1.15,1.81,1.69,2.69,2.65,.35,.38,.09,1.22-.52,1.01-2.53-.83-3.39-3.19-3.84-5.58Z"/>
        <path class="cls-12" d="M4.8,13.65c-.5-.59-1.19-1.3-1.02-2.13,.03-.13,.19-.22,.31-.15,.6,.34,1.14,.91,1.64,1.39,.46,.43,1.22,.64,1.52,1.18,.2,.35-.01,.8-.43,.82-.85,.05-1.5-.49-2.02-1.11Z"/>
        <path class="cls-12" d="M17.36,9.15c-.44-.72-.43-1.64-.57-2.46-.09-.55-.19-1.08-.38-1.61-.13-.36-.23-.6-.14-.97,.04-.16,.25-.24,.37-.12,1.31,1.27,1.76,3.03,1.81,4.81,.02,.58-.79,.86-1.1,.34Z"/>
        <path class="cls-4" d="M9.56,3.86c-.72-.93-1.59-1.74-2.44-2.55-.15-.14-.02-.37,.18-.34,2.6,.39,4.02,2.65,5.38,4.66,.44,.65-.47,1.38-1.04,.87-.88-.78-1.38-1.74-2.08-2.64Z"/>
        <path class="cls-4" d="M14.88,7.1c-.81-1.43-1.29-3.01-2.15-4.42-.49-.8-1.22-1.48-1.61-2.31-.11-.23,.09-.44,.32-.35,2.61,.97,4.35,4,4.7,6.68,.09,.68-.93,.97-1.26,.39Z"/>
        <path class="cls-4" d="M18.02,8.52c-.75-1-.65-2.26-1.05-3.39-.2-.56-.45-1.11-.67-1.66-.21-.53-.61-.97-.73-1.52-.04-.16,.08-.28,.24-.26,1.37,.13,1.88,1.27,2.48,2.39,.67,1.24,.89,2.68,.94,4.07,.02,.69-.83,.88-1.21,.38Z"/>
        <path class="cls-4" d="M22.27,11.93c.15-1.22,1-2.35,1.01-3.57,0-.54-.06-1.1-.07-1.64-.01-.56,.05-1.56-.22-2.05-.11-.2,.1-.48,.32-.35,1.03,.57,1.35,2.7,1.47,3.77,.17,1.46-.46,3.08-1.2,4.3-.42,.69-1.41,.33-1.31-.47Z"/>
        <path class="cls-4" d="M22.91,15.93c.94-.74,1.95-1.38,2.59-2.41,.45-.72,.56-1.61,1.09-2.25,.15-.18,.41-.04,.43,.16,.3,2.48-1.07,4.93-3.56,5.69-.75,.23-1.11-.75-.55-1.19Z"/>
        <path class="cls-4" d="M1.89,9.31c-.35-.43-.73-.9-.98-1.4-.29-.57-.31-1.22-.54-1.81-.1-.26,.26-.37,.41-.19,.64,.81,1.45,1.39,2.18,2.1,.74,.72,1.51,1.43,2.41,1.95,.76,.44,.38,1.72-.53,1.5-1.26-.3-2.15-1.15-2.94-2.15Z"/>
        <path class="cls-4" d="M7.54,7.47c.19,.35,.39,.7,.6,1.04,.36,.57,1.35,.3,1.28-.4-.15-1.71-1.11-3.19-2.15-4.51-.95-1.21-1.82-1.66-3.2-2.12-.2-.07-.4,.22-.27,.38,.31,.37,.61,.73,.9,1.09-.47-.48-.94-.96-1.4-1.45-.22-.24-.59,.1-.43,.36,.56,.87,1.05,1.76,1.66,2.55-.47-.54-.88-1.12-1.47-1.54-.18-.13-.43,0-.37,.23,.52,2.07,1.81,4.44,4.16,4.69,.27,.03,.52-.12,.67-.32Zm-1.17-1.54c.1,0,.2-.05,.29-.1,.09,.16,.18,.32,.26,.48-.18-.13-.37-.26-.55-.38Z"/>
        <path class="cls-4" d="M1.96,13.42c-.68-.79-1.67-1.8-1.69-2.9,0-.31,.37-.5,.61-.28,1.77,1.58,3.4,3.23,5.32,4.65,.74,.55-.13,1.47-.84,1.21-1.38-.49-2.46-1.58-3.4-2.68Z"/>
        <path class="cls-4" d="M.04,15.45c-.15-.22,.12-.51,.35-.38,1,.53,1.91,1.28,2.94,1.74,1.13,.5,2.42,.57,3.63,.85,.53,.12,.68,.86,.2,1.15-1.07,.66-3.1,.32-4.16-.22-1.35-.68-2.15-1.91-2.96-3.14Z"/>
        <path class="cls-4" d="M1.22,20.64c-.18-.27,.14-.63,.43-.47,1.04,.55,2.2,.95,3.34,1.24,1.3,.32,2.67,.25,3.98,.54,.73,.16,.86,1.33,.07,1.52-2.55,.62-6.36-.55-7.82-2.82Z"/>
        <path class="cls-4" d="M4.55,26.02c-.1-.17-.05-.36,.11-.48,.31-.23,.7-.18,1.06-.16,.68,.03,1.33,.01,2.01-.05,1.35-.13,2.67-.42,4-.64,.81-.14,.93,.97,.43,1.36-1.1,.85-3,1.02-4.35,1.01-.99,0-2.7-.06-3.26-1.03Z"/>
        <path class="cls-4" d="M11.02,29.98c.14-.3,.35-.44,.62-.6,.57-.34,1.01-.7,1.52-1.13,.65-.55,1.33-1.15,1.78-1.88,.43-.69,.7-1.42,1.18-2.1,.41-.57,1.32-.01,1.18,.61-.42,1.78-1.05,3.3-2.63,4.37-1.1,.74-2.08,1.32-3.44,1.19-.21-.02-.29-.29-.22-.45Z"/>
        <path class="cls-14" d="M11.07,27.69c.24-.27,.56-.47,.92-.64-.95-.14-1.85-.38-2.68-.81-.03,0-.05,0-.08,0-1.39,.1-3.48-.56-4.55-1.44-.27-.22-.09-.71,.26-.71,.71,0,1.38-.05,2.08-.03-1.3-.74-2.9-2.2-3.1-3.52-.02-.17,.15-.36,.32-.35,.27,.02,.54,.09,.81,.19-1.01-.62-2.09-1.61-2-2.64,.02-.26,.16-.43,.43-.47,.39-.06,.76,.06,1.11,.25-.32-.42-.61-.88-.82-1.4-.52-1.24-1.6-3.79-.66-5.09,.19-.26,.56-.04,.6,.22,.06,.47,.49,1,.72,1.4,.16,.29,.31,.58,.46,.88,.06-.25,.13-.51,.21-.76-1.26-1.6-1.96-3.45-1.06-5.02,.17-.31,.58-.18,.63,.14,.13,.79,.78,1.7,1.48,2.51,.06-.11,.13-.22,.2-.33-.63-1.07-.78-1.96-.65-3.31,.03-.31,.47-.34,.62-.11,.38,.6,.85,1.17,1.32,1.73,.05-.06,.1-.12,.16-.18,.03-.03,.05-.05,.08-.08-.14-.12-.28-.26-.42-.44-.26-.35-1.55-2.3-.88-2.75,.02-.01,.03-.02,.05-.03,.13-.09,.33-.1,.47-.02,.49,.29,.9,.73,1.34,1.11-.04-.08-.09-.16-.12-.24-.05-.15,.05-.34,.2-.38,.98-.27,2-.02,2.93,.48,.07-.02,.15-.03,.23-.04-.42-.54-.81-1.09-1.09-1.71-.1-.22,.12-.52,.36-.51,1.45,.06,2.64,1.11,3.53,2.28,.19,.04,.39,.09,.59,.14-.48-.9-1.04-1.74-1.76-2.49-.35-.36-.07-1.05,.47-.91,2.06,.5,3.31,2.4,4.17,4.33-.22-1.07-.86-1.98-1.06-3.04-.05-.25,.17-.45,.41-.34,1.78,.75,2.51,2.68,2.95,4.55,.06-.14,.25-.22,.42-.19-.11-.41-.23-.8-.37-1.18-.14-.37,.34-.82,.69-.58,1.16,.79,1.8,2.24,2.1,3.76,0-.14,.02-.29,.03-.43,.03-.42,.59-.7,.85-.26,.84,1.44,.93,2.95,.7,4.5,.27,.61,.47,1.2,.59,1.81,.2-.49,.39-.98,.55-1.47,.1-.3,.63-.43,.7-.03,.51,2.76-.6,5.52-2.5,7.61-.6,1.18-1.43,2.21-2.58,2.61-.16,.11-.34,.21-.51,.32-.57,.91-1.49,1.55-2.53,1.97-.47,.41-1,.75-1.59,1.01-1.1,.48-2.14,.8-3.33,.87-.71,.04-1.41-.24-2.08-.2-.28,.02-.43-.33-.25-.54Z"/>
        <path class="cls-12" d="M12.13,8.32c-.31-.48-.41-1.07-.67-1.58-.29-.55-.63-1.07-.92-1.62-.06-.11,.04-.22,.16-.17,1.24,.49,2.36,1.65,2.43,3.06,.03,.55-.71,.76-1,.31Z"/>
        <path class="cls-12" d="M15.23,9.27c-.33-.83-.47-1.74-.75-2.58-.29-.84-1.01-1.52-1.23-2.35-.03-.11,.06-.21,.17-.19,1.84,.31,3.08,3.24,3.17,4.88,.04,.82-1.08,.95-1.36,.24Z"/>
        <path class="cls-12" d="M19.41,11.38c-.12-.86,.24-1.73,.16-2.61-.09-.94-.26-1.85-.52-2.76-.05-.18,.17-.34,.32-.2,.81,.76,1.31,1.75,1.6,2.82,.25,.93,.3,2.44-.47,3.14-.41,.38-1,.16-1.08-.39Z"/>
        <path class="cls-12" d="M7.45,9.02c-.08-.15,.07-.34,.23-.26,.49,.27,.95,.79,1.36,1.17,.43,.4,.96,.69,1.38,1.09,.42,.41,.07,1.18-.54,1.04-1.39-.31-1.81-1.97-2.43-3.05Z"/>
        <path class="cls-12" d="M3.7,11.38c-.1-.26,.23-.4,.41-.26,.76,.57,1.41,1.27,2.14,1.88,.8,.67,1.59,1.16,2.5,1.65,.62,.33,.47,1.42-.3,1.41-2.22-.05-4.01-2.82-4.74-4.68Z"/>
        <path class="cls-12" d="M4.96,18.07c-.1-.2,.09-.47,.32-.35,.67,.36,1.34,.82,1.97,1.24,.94,.62,2.01,.95,2.89,1.66,.52,.42,.03,1.21-.57,1.1-2.05-.38-3.7-1.86-4.61-3.66Z"/>
        <path class="cls-12" d="M5.01,22.81c.95,.03,1.86,.79,2.79,1.02,1.25,.3,2.48-.35,3.74-.13,.56,.1,.7,.92,.21,1.2-1.03,.6-2.74,.88-3.89,.49-1.13-.39-2.02-1.35-2.98-2-.23-.15-.22-.6,.13-.59Z"/>
        <path class="cls-12" d="M22.58,19.12c.29-1.33,1.39-2.17,1.75-3.42,.19-.67,.15-1.95,.82-2.35,.13-.08,.31,0,.31,.16,.03,.95,.24,2.08-.01,3.01-.29,1.07-1.21,2.24-1.87,3.11-.36,.48-1.13,.02-1.01-.52Z"/>
        <path class="cls-12" d="M17.15,15.17c.09-.61,.39-1.16,.52-1.76,.12-.53,.11-1.06,.1-1.59-.02-.84-.29-1.66-.18-2.5,.02-.19,.28-.16,.34-.02,.42,1.03,1.03,1.84,1.19,2.98,.17,1.21-.12,2.49-.88,3.45-.42,.53-1.17,0-1.09-.56Z"/>
        <path class="cls-12" d="M12.2,9.82c-.02-.11,.05-.21,.17-.19,.62,.12,.91,.88,1.23,1.37,.52,.8,1.18,1.48,1.7,2.27,.32,.48-.26,1.12-.77,.84-1.62-.89-2.02-2.61-2.34-4.29Z"/>
        <path class="cls-12" d="M8.97,13.74c-.17-.29,.19-.58,.45-.38,.57,.45,1.04,1.05,1.59,1.53,.62,.54,1.31,.84,1.98,1.3,.45,.31,.4,1.09-.24,1.11-2.1,.07-2.9-2.07-3.78-3.56Z"/>
        <path class="cls-12" d="M5.35,16.69c-.35-.37-.9-.8-.85-1.35,0-.1,.13-.15,.21-.14,.42,.04,.94,.56,1.26,.81,.62,.48,1.21,.94,1.88,1.35,.55,.33,.13,1.15-.45,.88-.82-.38-1.44-.89-2.06-1.55Z"/>
        <path class="cls-3" d="M17.21,10.09c-.46-.91-.41-2.05-.6-3.04-.2-1.02-.61-1.91-.99-2.87-.07-.18,.14-.31,.29-.24,1.91,.84,3.12,4.23,2.38,6.11-.17,.42-.88,.46-1.08,.05Z"/>
        <path class="cls-3" d="M8.04,5.38c-.05-.23,.24-.49,.43-.27,.59,.67,1.18,1.33,1.74,2.03,.48,.6,.9,1.19,1.54,1.63,.43,.29,.81,.47,1.15,.86,.3,.35,.16,.91-.34,.94-2.58,.18-4.04-3.09-4.52-5.19Z"/>
        <path class="cls-3" d="M4.92,8.99c-.1-.21,.21-.36,.36-.23,1.19,1.01,2.24,2.13,3.49,3.07,.64,.48-.01,1.31-.64,1.25-2.02-.21-2.52-2.56-3.21-4.09Z"/>
        <path class="cls-3" d="M10.07,25.18c.24,.2,.48,.37,.76,.51,.55,.28,1.2,.47,1.81,.54,.04,0,.09,0,.14,.01-.19,.21-.05,.6,.23,.7,1.26,.44,2.59,1.02,3.88,.45,1.2-.52,2.47-1.03,3.34-2,.11-.08,.22-.16,.33-.25,.99-.81,1.7-1.86,2.4-2.91,1.16-1.73,1.92-3.43,2.08-5.52,.04-.48-.47-.56-.79-.36,.02-.69-.08-1.37-.29-1.93-.09-.24-.37-.3-.55-.12-.21,.21-.36,.47-.48,.75,.24-.7,.29-1.54,.32-2.18,.04-1-.07-2.2-.7-3.02-.08-.11-.24-.2-.38-.14-.02,0-.03,.01-.05,.02-.21,.09-.2,.36-.22,.56-.07,.57-.08,1.14-.17,1.71-.14,.82-.51,1.71-.68,2.58-.14-1.49-.82-2.94-1.96-3.89-.23-.19-.68,.02-.53,.34,.37,.82,.46,2.04,.48,2.99-.23-.42-.49-.83-.75-1.25-.19-.32-.61-.06-.55,.25,.08,.42-.05,.94-.07,1.38-.02,.44,.03,.87,.04,1.31,0,.03,0,.05,0,.08-.07-.03-.14-.05-.21-.07,.14-1.06-.2-2.14-.61-3.13-.54-1.31-1.09-2.57-2.17-3.54-.23-.21-.53,.08-.4,.34,.57,1.11,.62,2.52,.92,3.72,.18,.71,.22,1.51,.34,2.27-.02,0-.03-.02-.05-.03-1.03-.56-1.86-1.03-2.72-1.85-.78-.74-1.53-1.56-2.4-2.2-.24-.18-.66,.09-.44,.37,.61,.75,1.14,1.95,1.79,3.02-.05-.04-.11-.07-.16-.11-.3-.2-.63,.23-.46,.5,.29,.46,.44,.95,.68,1.41-.58-.18-1.24-.22-1.78-.54-1.12-.66-2.18-1.41-3.31-2.06-.24-.14-.52,.17-.36,.4,.94,1.34,2.19,2.92,3.75,3.67-.44-.14-.88-.29-1.3-.48-.26-.11-.52,.16-.38,.41,.57,1,1.71,2.11,3.01,2.82-.85-.16-1.69-.47-2.46-.79-.51-.21-.93,.39-.55,.79,.4,.43,.85,.8,1.33,1.12-.42-.06-.84-.15-1.25-.31-.93-.36-1.81-.79-2.66-1.33-.21-.14-.48,.17-.34,.37,.76,1.03,1.41,1.94,2.57,2.57,.51,.28,1.09,.47,1.68,.56-.07,.02-.13,.05-.2,.09-.38,.27-.33,.94,.18,1.03-.17-.03,.22,.26,.34,.36Zm12.25-8.34c-.03-.24-.07-.47-.13-.69,.04-.03,.08-.05,.12-.08,.23-.21,.4-.48,.53-.79-.18,.49-.29,1.02-.47,1.47-.01,.03-.03,.07-.04,.1Zm-9.01,1.51c.27,.25,.59,.53,.94,.79-.78-.14-1.54-.22-2.31-.54-.24-.1-.48-.18-.72-.27,.31,.05,.62,.07,.95,.05,.35-.03,.59-.24,.68-.5,.15,.16,.3,.32,.45,.47Z"/>
        <path class="cls-10" d="M12.5,25.38c.77,.35,1.33,.76,2.21,.9,.74,.12,1.43,0,2.14-.16,1.33-.3,2.8-.91,3.46-2.19,.01-.02,.01-.05,.02-.07,.58-.21,1.12-.61,1.54-1,1.39-1.3,1.98-3.32,1.52-5.12h0s-.04-.1-.08-.14c0,0-.01-.02-.02-.02-.1-.12-.24-.12-.36-.08,.12-1.52-.41-3.21-1.38-3.87-.14-.1-.3,.04-.35,.17-.28,.82,.04,1.82-.14,2.68-.06,.29-.11,.58-.18,.86-.16-.49-.42-.92-.83-1.14-.34-.19-.7,.17-.61,.51,.04,.15,0,.41-.05,.64-.14-1.6-1.16-3.36-2.26-4.21-.18-.14-.49-.04-.47,.22,.1,1.03,.6,1.97,.74,2.99,.07,.55,.03,1.17,.12,1.73-.25-.24-.52-.47-.76-.72-.4-.42-.75-.88-1.3-1.09-.32-.12-.71,.13-.59,.49,.37,1.1,.86,2.44,1.85,3.15,0,0,0,0-.01,0-.45-.3-.94-.52-1.39-.83-.49-.34-.97-.68-1.5-.94-.39-.19-.75,.24-.55,.6,.61,1.11,1.45,2.36,2.73,2.74,.03,.07,.06,.14,.09,.21-.5,.09-1.01,.21-1.46,.27-.99,.13-2.39,.08-3.3-.38-.38-.19-.79,.37-.43,.63,.57,.41,.89,1.03,1.49,1.42,.52,.34,1.14,.52,1.76,.57,.51,.04,1.02,0,1.53-.07-.37,.11-.74,.21-1.15,.27-.53,.08-1.26,.38-1.78,.34-.36-.03-.62,.47-.23,.65Zm8.58-5.09c.05-.01,.1-.03,.15-.05-.12,.18-.24,.35-.37,.5,0-.08,0-.16,0-.24,.02-.06,.04-.13,.06-.19,.06,0,.11,0,.17-.02Z"/>
        <path class="cls-1" d="M19.61,15.87c-.23-1.05,.19-2.07,.05-3.14-.12-.92-.28-1.87-.32-2.79,0-.17,.22-.19,.28-.05,.15,.34,.47,.61,.64,.94,.26,.53,.48,1.12,.68,1.68,.4,1.11,.29,2.18-.01,3.3-.16,.6-1.16,.77-1.32,.06Z"/>
        <path class="cls-1" d="M14.72,23.56c.37-.33,.88-.55,1.36-.77-.14-.02-.29-.05-.43-.07-.42-.08-.88-.13-1.27-.31-.35-.16-.57-.44-.86-.68-.05-.04-.08-.09-.1-.15-1.07-.54-1.69-1.69-2.57-2.65-.21-.23,.08-.55,.33-.36,1.11,.85,2.3,1.42,3.57,1.94-.32-.22-.17-.75,.25-.67,0,0,0,0,.01,0-.03-.04-.07-.07-.1-.1-.52-.59-.73-1.34-1.18-1.96-.16-.22,.16-.45,.35-.29,.51,.42,1.08,.81,1.6,1.21,.51,.39,1.13,.65,1.59,1.11,.24,.24,.23,.58,.06,.81,.2,.06,.39,.1,.59,.14-.35-.68-.47-1.53-.76-2.23-.33-.79-.65-1.58-.97-2.37-.06-.15,.1-.33,.26-.28,1.03,.31,1.46,1.02,2.03,1.88,.08,.12,.15,.24,.22,.37-.07-.6-.18-1.19-.45-1.74-.1-.2,.08-.41,.3-.32,1.08,.45,1.63,1.54,1.9,2.7,.07-.11,.15-.23,.21-.35,.42-.81,.65-1.67,1.11-2.46,.17-.29,.56-.18,.61,.13,.09,.56,.26,1,.27,1.58,0,.58-.15,1.11-.33,1.66-.03,.08-.06,.15-.09,.23,.05-.04,.1-.08,.14-.13,.33-.3,.82,.02,.64,.45-.53,1.3-1.42,2.86-2.92,3.17-.09,.02-.19,.02-.28,0-.09,.11-.22,.2-.4,.26-.83,.27-1.65,.56-2.49,.8-.3,.09-.63,.18-.95,.19-.33,.02-.63-.14-.95-.09-.32,.05-.55-.43-.3-.64Z"/>
        <path class="cls-5" d="M16.2,24.06c-.19-.19-.1-.61,.22-.6,.67,.04,1.27,.36,1.95,.35,.23,0,.45-.02,.67-.03-.21-.31-.36-.67-.56-.96-.21-.3,.18-.74,.5-.55,.16,.1,.34,.21,.52,.34,.03-.21,.08-.42,.09-.63,.01-.21-.04-.4-.06-.6-.02-.16,.07-.36,.26-.37,.45-.03,.57,.66,.71,.98,.3-.22,.48-.43,.71-.84,.35-.59,.68-1.38,1.38-1.57,.23-.06,.41,.13,.38,.35-.08,.7-.09,1.39-.25,2.05,.09-.04,.19-.07,.3-.08,.22-.02,.28,.23,.18,.38-.15,.21-.19,.48-.34,.69-.16,.23-.33,.46-.5,.68-.23,.29-.49,.54-.81,.67,.04,.35-.13,.75-.5,.87-.9,.28-1.97,.43-2.9,.23-.83-.18-1.36-.77-1.93-1.34Z"/>
        <path class="cls-14" d="M19.77,19.64c-.06-.24-.02-.47-.04-.71-.03-.31-.14-.62-.22-.92-.15-.55-.31-1.11-.45-1.66-.03-.11,.07-.18,.17-.14,.68,.26,1.03,1.16,1.28,1.79,.24,.6,.51,1.61-.3,1.89-.17,.06-.4-.05-.44-.23Z"/>
        <path class="cls-14" d="M11.34,20.26c-.02-.13,.12-.2,.23-.19,.49,.05,.92,.48,1.32,.75,.37,.24,.87,.5,1.31,.58,.36,.06,.39,.63,.03,.71-.59,.14-1.16-.11-1.65-.43-.51-.33-1.14-.78-1.24-1.42Z"/>
        <path class="cls-14" d="M16.41,13.7c-.11-.99-.78-1.79-1-2.74-.02-.09,.05-.2,.15-.17,.51,.17,.97,.83,1.24,1.27,.27,.44,.54,1.19,.42,1.7-.11,.47-.76,.39-.81-.07Z"/>
        <path class="cls-14" d="M11.92,16.38c-.09-.17,.1-.32,.25-.21,.51,.38,.94,.81,1.35,1.29,.59,.68,1.27,1.11,2.07,1.51,.38,.19,.15,.71-.23,.66-1.78-.22-2.65-1.83-3.43-3.25Z"/>
        <path class="cls-14" d="M21.16,18.31c.25-.92,.76-1.71,.72-2.69-.02-.46-.07-.92-.11-1.37-.02-.3-.12-.56,.02-.84,.06-.12,.24-.16,.34-.06,.57,.59,.69,1.79,.74,2.57,.07,1.04-.36,1.95-1.01,2.75-.25,.3-.79,.02-.69-.35Z"/>
        <path class="cls-12" d="M8.26,16.05c-.08-.14,.06-.29,.21-.23,.66,.3,1.11,.71,1.69,1.13,.46,.33,1.19,.42,1.56,.84,.18,.21,.08,.49-.19,.53-1.44,.22-2.64-1.18-3.26-2.28Z"/>
        <path class="cls-12" d="M15.01,15.72c.06-.53,.36-1,.42-1.53,.03-.26,.05-.53,.05-.79,0-.16,0-.25,.09-.38,.08-.1,.22-.02,.24,.09,.03,.2,.21,.45,.27,.65,.08,.25,.12,.5,.11,.76-.01,.51-.18,1.03-.4,1.49-.22,.46-.84,.17-.79-.28Z"/>
        <path class="cls-12" d="M10.76,24.35c.86-.06,1.73,.14,2.6,0,.46-.08,.96-.11,1.42-.23,.4-.11,.73-.24,1.15-.19,.39,.04,.34,.59,.03,.7-.5,.18-.91,.46-1.44,.57-.45,.09-.95,.19-1.4,.22-.43,.03-.85-.08-1.26-.18-.46-.11-.75-.35-1.18-.5-.21-.07-.1-.38,.08-.39Z"/>
        <path class="cls-12" d="M21.96,19.76c.21-.68,.45-1.36,.75-1.99,.15-.32,.22-.6,.28-.94,.05-.3,.15-.49,.25-.77,.03-.1,.19-.13,.22-.01,.21,.7,.48,1.1,.24,1.85-.26,.81-.52,1.55-1.04,2.23-.24,.32-.82,.02-.71-.36Z"/>
        <path class="cls-12" d="M9.07,8.25c-.26-.49-.66-1.1-.53-1.68,0-.04,.07-.05,.09-.02,.15,.24,.37,.38,.57,.58,.2,.21,.34,.47,.5,.72,.41,.62,.99,1.03,1.52,1.53,.27,.26-.04,.73-.38,.55-.75-.39-1.36-.95-1.75-1.7Z"/>
        <path class="cls-12" d="M20.27,14.73c.03-.29,.16-.56,.19-.84,.03-.3,.03-.64,.02-.95-.03-.62-.39-1.22-.37-1.82,0-.14,.21-.24,.28-.09,.32,.63,.75,1.13,.82,1.88,.03,.32,.09,.71,.05,1.03-.04,.33-.17,.64-.26,.96-.13,.47-.79,.32-.74-.16Z"/>
        <path class="cls-6" d="M4.62,13.8c-.48-.65-.73-1.45-1.07-2.19-.04-.09,.07-.21,.15-.12,.52,.6,.93,1.27,1.44,1.87,.5,.59,1.15,1.05,1.69,1.62,.29,.31-.11,.76-.45,.49-.62-.49-1.27-1.04-1.75-1.67Z"/>
        <path class="cls-6" d="M15.06,9.89c-.18-.82-.26-1.63-.56-2.42-.27-.7-.51-1.39-.77-2.08-.06-.14,.14-.25,.25-.16,.67,.61,.95,1.15,1.33,1.99,.34,.74,.7,1.83,.45,2.64-.09,.31-.61,.42-.7,.03Z"/>
        <path class="cls-6" d="M20.85,14.14c.06-.38,.23-.69,.25-1.08,.02-.33,.05-.66,.06-.99,.02-.6-.26-1.18-.2-1.78,.01-.12,.17-.09,.2,0,.54,1.25,1.1,2.9,.15,4.09-.18,.22-.5,0-.46-.24Z"/>
        <path class="cls-6" d="M5.47,19.25c-.16-.18,.06-.42,.25-.28,.9,.7,1.86,1.33,2.87,1.86,.66,.34,1.37,.43,2.05,.73,.15,.07,.12,.3-.03,.34-2.05,.68-3.93-1.33-5.14-2.66Z"/>
        <path class="cls-6" d="M17.13,19.64c-.04-1.12-.68-2.31-1.25-3.26-.06-.11,.06-.26,.17-.19,.61,.38,.93,.98,1.24,1.61,.3,.62,.58,1.18,.44,1.89-.07,.34-.59,.29-.6-.05Z"/>
      </g>
    </g>
  </g>
</svg>