<?xml version="1.0" encoding="UTF-8"?>
<svg id="Layer_2" data-name="Layer 2" xmlns="http://www.w3.org/2000/svg" viewBox="0 0 89.94 117.2">
  <defs>
    <style>
      .cls-1 {
        fill: #4f1e37;
      }

      .cls-2 {
        fill: #bbc983;
      }

      .cls-3 {
        fill: #824a67;
      }

      .cls-4 {
        fill: #deabc5;
      }

      .cls-5 {
        fill: #361525;
      }

      .cls-6 {
        fill: #ddabc5;
      }

      .cls-7 {
        fill: #87964b;
      }

      .cls-8 {
        fill: #9b607e;
      }

      .cls-9 {
        fill: #8e9b56;
      }

      .cls-10 {
        fill: #798743;
      }

      .cls-11 {
        fill: #5d6733;
      }

      .cls-12 {
        fill: #713252;
      }

      .cls-13 {
        fill: #7a8742;
      }

      .cls-14 {
        fill: #6a763a;
      }

      .cls-15 {
        fill: #ba849f;
      }

      .cls-16 {
        fill: #6a7639;
      }

      .cls-17 {
        fill: #99a85e;
      }

      .cls-18 {
        fill: #9a607d;
      }
    </style>
  </defs>
  <g id="_Ådalen_Gård_sommerhonning" data-name="Ådalen Gård, sommerhonning">
    <g>
      <g>
        <path class="cls-10" d="M64.25,26.66c-.58,.44-1.16,.9-1.67,1.42-1.1,1.11-1.95,2.44-2.85,3.7-2.54,3.57-4.84,7.31-6.58,11.35-2.13,4.94-4.53,9.72-6.76,14.6-.99,2.16-2.15,4.22-3.38,6.24,.15-.35,.3-.71,.44-1.07,.02-.06-.06-.11-.1-.06-1.12,1.2-1.75,2.83-2.55,4.27-1.02,1.84-2.18,3.55-3.4,5.26-1.8,2.52-14.42,22.79-15.53,25.73,.5,.05,.99,.15,1.45,.32,.4-.89,.95-1.74,1.39-2.62,.64-.97,12.3-19.41,12.86-20.43,.18-.04,.35-.15,.49-.35,6.46-9.21,11.46-19.15,16-29.39,1.89-4.25,3.99-8.32,6.57-12.2,1.8-2.71,4.18-4.88,6.14-7.42,0,.02,.02,.04,.02,.05,.81,1.66,1.88,3.23,2.7,4.9,.64,1.3,1.19,2.67,1.34,4.14,.11,1.05-.43,2.21-.14,3.2,.04,.15,.28,.24,.38,.06,.28-.55,.53-.99,.74-1.44,1.67-2.07,2.56-4.73,1.79-7.31-.41-1.37-1.53-2.79-2.56-3.71-.79-.7-1.87-1.76-2.99-2.25-.25-.35-.6-.58-1.23-.59-.34,0-.71,.29-.7,.66,0,.06,.01,.11,.02,.17-.05,.09-.08,.19-.09,.29-1.99-.56-5.21-.68-7.03,.35-2.84,1.6-4.19,4.91-5.3,7.76-.08,.2,.18,.33,.33,.21,.11-.09,.21-.2,.31-.3,.06,0,.12-.02,.17-.07,1.48-2.05,3.74-3.55,6-4.57,1.18-.53,2.45-.68,3.7-.88Z"/>
        <path class="cls-14" d="M53.51,44.24c-1.55,3.7-2.87,7.42-4.58,11.05-1.54,3.26-3.24,6.39-4.9,9.57,0,0-.01,.02-.02,.02-.11,0-.22-.01-.31-.05-.4-.16-.55-.62-1.03-.55-.05,0-.09,.07-.08,.12,.1,.35,.29,.63,.54,.9,.1,.1,.2,.19,.32,.26-.05,.07-.11,.13-.16,.2-.17,.15-.34,.3-.38,.35-.26,.32-.49,.68-.72,1.03-.98,1.26-1.9,2.55-2.68,3.97-1.34,2.44-13.78,22.32-15.06,24.79-.43,.83-.85,1.65-1.28,2.48,.36,.12,.71,.29,1.06,.48,.38-.75,.75-1.5,1.08-2.24,1.16-2.55,13.71-22.51,15.1-24.94,1.13-1.99,2.53-3.79,3.75-5.71,.13-.14,.25-.3,.3-.47,.22-.36,.44-.73,.64-1.11,3.9-5.74,6.7-11.91,9.37-18.39,1.45-3.51,3.35-6.83,5.21-10.13,.93-1.65,2.16-3.49,3.36-4.97,1.3-1.6,2.99-2.86,4.09-4.61,.22-.34,0-.7-.29-.81,.51-.64,.98-1.31,1.29-2.01,.19-.43-.43-.78-.74-.47-2.35,2.41-4.1,5.3-6.21,7.91-.05,.06,0,.13,.07,.14-3.18,4.02-5.81,8.59-7.74,13.19"/>
        <path class="cls-11" d="M45.52,63.73c-.06-.08-.13-.13-.22-.17-.15-.06-.22-.14-.35-.24-.19-.16-.5-.3-.75-.27-.04,0-.08,.06-.07,.1,.07,.2,.23,.3,.37,.44,.15,.14,.27,.31,.48,.37,.07,.02,.19,.01,.24,.06,.09,0,.08,.03,0,.1-.02,.03-.04,.07-.06,.1-.16,.25-.31,.51-.46,.77-.07,.13,.11,.24,.19,.12,.21-.3,.43-.59,.64-.89,.12-.17,.11-.32-.01-.48Z"/>
        <path class="cls-11" d="M65.56,25.02c.07-.07,0-.19-.1-.14-.16,.08-.33,.17-.49,.26-.68-.17-1.29-.26-1.99-.31-.55-.04-1.5-.2-1.97,.18-.04,.03,0,.11,.05,.09,.26-.07,.81,.02,1.08,.04,.07,0,.14,.02,.22,.03-.56,.01-1.11,.08-1.6,.2-1.16,.3-1.95,.93-2.81,1.73-.12,.11,.02,.34,.17,.24,.99-.64,2.08-1.09,3.26-1.21,.03,0,.06,0,.09,0-.54,.18-1.05,.41-1.45,.58-1.8,.76-3.95,2.25-4.69,4.09-.04,.09,.1,.19,.17,.11,1.22-1.39,3.47-2.83,5.26-3.43,1.09-.37,2.42-.37,3.44-.81,.15-.06,.19-.21,.16-.35,.24-.11,.43-.28,.61-.49,.07-.08,.14-.15,.2-.22,.05-.03,.08-.06,.1-.11,.01-.01,.02-.02,.03-.04,.13-.13,.14-.32,.26-.45Z"/>
        <path class="cls-11" d="M67.74,24.66c-.34-.29-.7,.06-.74,.42-.17,.05-.29,.21-.24,.44,.19,.82,.54,1.06,.98,1.74,.42,.65,.61,1.42,1.05,2.06,.73,1.06,1.32,1.72,1.68,2.99,.21,.75,.27,1.52,.62,2.22,0,0,0,0,0,0,.05,.79,.04,1.58-.02,2.34-.01,.15,.22,.19,.26,.04,1.22-4.33-.07-9.34-3.58-12.25Z"/>
        <path class="cls-7" d="M65.18,24.95c-1.42-.33-3.2-.38-4.63-.11-.87,.17-1.7,.41-2.4,.99-.67,.56-1.2,1.25-1.85,1.8-.07,.06,.01,.17,.09,.13,1.58-.87,2.7-2.14,4.64-2.28,1.3-.09,2.97,.39,4.19-.07,.21-.08,.16-.42-.04-.47Z"/>
        <path class="cls-7" d="M71.83,35.26c-.03-1.05,.54-2.04,.41-3.1-.08-.67-.23-1.47-.44-2.1-.66-2.01-1.95-3.7-3.47-5.11-.18-.17-.47,.01-.36,.25,.38,.85,1.18,1.43,1.64,2.26,.45,.81,.91,1.67,1.26,2.51,.3,.71,.55,1.52,.71,2.29,.2,1.04-.27,1.99,.07,3.01,.03,.09,.18,.09,.17-.02Z"/>
        <path class="cls-17" d="M45.29,63.1c-.14-.24-.3-.45-.6-.49-.14-.02-.28,0-.41,0-.03,0-.07-.02-.1-.02,3.27-5.91,6.48-11.91,8.72-18.3,.02-.06-.08-.11-.11-.05-1.58,3.15-3.22,6.29-4.69,9.5-.73,1.6-1.53,3.16-2.35,4.7-.68,1.28-1.49,2.54-2.11,3.84,0,0,0,0,0,0-.27,.34-.22,.74,.22,.88,.2,.06,.39,.05,.59,.02,.26-.03,.45,.08,.7,.12,.1,.02,.17-.11,.12-.19Z"/>
        <path class="cls-9" d="M44.16,64.39c.02-.08,0-.18-.05-.24-.23-.21-.24-.23-.55-.2-.05,0-.07,.07-.05,.1,.23,.5-.9,1.67-1.19,2.13-.47,.75-.82,1.58-1.28,2.33-.1,.16,.13,.3,.24,.15,.58-.8,1.05-1.62,1.66-2.4,.42-.54,1.04-1.21,1.21-1.88Z"/>
        <g>
          <path class="cls-4" d="M63.19,21.59c-.2-.93-.63-1.74-1.05-2.55,.68,.38,1.75-.38,1.66-1.29-.25-2.5-.57-4.89-.65-7.36,.36,.47,1.13,.55,1.52-.04,1.13-1.73,1.81-3.79,2.72-5.64,.4-.82,1.27-1.79,1.15-2.74-.01-.08-.1-.18-.18-.2-1.21-.21-2.09,.96-2.77,1.79-1.13,1.36-2.07,2.89-2.45,4.6,0-1.24-.1-2.91,.3-4.02,.08-.21-.21-.38-.37-.23-2.49,2.33-2.88,6.81-2.31,10.69-.18-.73-.42-1.44-.63-2.16-.11-.36-.61-.32-.65,.06-.09,.92-.36,1.71-.34,2.66,.02,.88,.09,1.83,.3,2.68,.38,1.57,1.47,2.89,2.18,4.32,.43,.86,1.77,.36,1.57-.57Z"/>
          <path class="cls-4" d="M75.69,.13c-2.84-.74-5.49,1.73-7.14,3.78-.6,.75,.53,1.44,1.18,.99,1.09-.76,2-1.72,3.06-2.49,.96-.69,2.04-1.23,2.96-1.97,.11-.09,.06-.28-.07-.31Z"/>
          <path class="cls-4" d="M79.88,3.4c.04-.23,0-.48-.22-.61-.96-.55-1.81,.5-2.44,1.12-1.06,1.04-1.93,2.18-2.83,3.36-.63,.84,.61,1.75,1.35,1.14,.93-.76,1.72-1.67,2.51-2.57,.6-.69,1.47-1.5,1.63-2.44Z"/>
          <path class="cls-4" d="M82.26,3.82c.24-.42-.3-.92-.67-.56-1.78,1.7-2.94,3.7-4.21,5.79-.41,.67,.45,1.37,1.04,.88,1.89-1.58,2.64-4.04,3.84-6.11Z"/>
          <path class="cls-4" d="M84.66,5.74c-.03-.43-.64-.74-.89-.28-1.27,2.39-2.49,4.82-3.7,7.24-.51,1.01,.71,2.3,1.63,1.37,2.02-2.01,3.12-5.53,2.95-8.33Z"/>
          <path class="cls-4" d="M87.42,8.35c-.06-.41-.69-.41-.79-.03-.55,1.97-1.01,3.77-2.61,5.2-1.51,1.35-3.57,1.66-5.04,3.07-.62,.59-.27,1.76,.65,1.77,2.3,.03,5.13-1.6,6.51-3.42,1.52-2.01,1.64-4.2,1.29-6.59Z"/>
          <path class="cls-4" d="M89.92,14.73c.12-.32-.33-.6-.57-.36-1.57,1.63-3.15,3.13-5.14,4.23-1.76,.97-3.92,.94-5.47,2.23-1.01,.85-.41,2.19,.59,2.65,2.22,1.01,5.32-.29,6.98-1.85,2.14-2.02,2.59-4.23,3.61-6.89Z"/>
          <path class="cls-4" d="M86.18,24.51c.07-.38-.19-.7-.59-.64-1.45,.23-2.84,.58-4.29,.88-1.86,.38-3.76,.58-5.63,.96-1.68,.34-1.26,2.61,.26,2.81,2.03,.28,4.74-.24,6.62-1.01,1.28-.52,3.34-1.48,3.63-3Z"/>
          <path class="cls-15" d="M70.25,7.43c1.65-1.17,2.87-2.97,4.4-4.3,.35-.3,.19-.87-.23-1.01-1.85-.61-3.66,.47-4.9,1.94,.07-.19,.13-.38,.16-.56,.05-.27-.13-.47-.41-.44-1.87,.19-3.19,2.06-4.13,3.88,.05-.36,.06-.72,0-1.07-.04-.27-.47-.44-.66-.21-1.29,1.52-2.58,2.98-3.06,5.01-.58,2.44,.02,5.4,.81,7.72,.33,.96,1.85,.99,1.88-.17,.06-2.57-.57-5.18,0-7.72,.03-.15,.08-.31,.12-.46,.43,.57,1.56,.67,2.1,.01,.77-.92,1.34-2.05,1.86-3.17,.22,.75,1.36,1.04,2.05,.56Z"/>
          <path class="cls-15" d="M78.76,3.12c-.77-.69-1.59-.29-2.42,.09-1.42,.64-2.62,2.05-3.41,3.36-.4,.68,.37,1.72,1.12,1.23,1.15-.75,1.84-1.87,2.86-2.75,.57-.49,1.23-.96,1.82-1.41,.15-.11,.16-.4,.03-.52Z"/>
          <path class="cls-15" d="M81.82,7.75c.31-.63,.67-1.27,.82-1.96,.15-.67-.57-1.15-1.12-.71-1.1,.89-1.89,2.58-2.45,3.85-.44,1.01,1.03,1.43,1.61,.74,.49-.59,.81-1.24,1.14-1.92Z"/>
          <path class="cls-15" d="M87.51,12.14c-.04-.43-.52-.6-.79-.25-1.13,1.46-2.03,3.08-3.39,4.34-.29,.27-.61,.48-.95,.67,1.64-1.13,2.89-3.11,3.07-5,.16-1.65,.26-4.14-1.34-5.17-.28-.18-.59,.08-.54,.38,.04,.29-.3,.98-.34,1.31-.11,.93-.15,1.79-.37,2.72-.49,2.04-2.17,3.28-3.03,5.14-.27,.59,.33,1.33,.95,1.35-1.11,.47-2.18,.98-2.76,2.19-.47,.98-.03,2.26,1.21,2.3,2.36,.07,5.59-1.55,6.93-3.51,1.43-2.09,1.56-4.04,1.35-6.49Z"/>
          <path class="cls-15" d="M80,27.42c-1.01-.51-2.24-.43-3.31-.75-.29-.09-.58-.19-.87-.29,.83,.15,1.69,.17,2.52,.21,.99,.04,2.08,.09,2.98-.42,1.42-.81,2.76-2.52,3.41-3.99,.23-.53-.44-.95-.89-.74-.6,.28-1.22,.52-1.82,.82-.61,.3-1.31,.97-1.97,1.09-.81,.15-1.76-.19-2.58-.28-1.01-.1-2.07-.09-3.06,.14-1.24,.3-1.32,1.61-.61,2.35-.77-.32-1.54-.61-2.35-.8-1.41-.32-2.41,1.55-1.09,2.38,2.7,1.72,6.99,3.66,9.71,1.11,.23-.22,.25-.68-.07-.85Z"/>
          <path class="cls-18" d="M77.21,26.57c2.46,0,3.53-1.3,4.63-3.28,.2-.36,.02-.69-.27-.83,.34-.25,.66-.51,.97-.78,.72-.63,1.07-1.52,1.72-2.14,.36-.35,.11-.92-.38-.98-.38-.05-.77,.03-1.17,.19,.47-.47,.9-.96,1.22-1.49,1.25-2.07,1.19-4.01,.7-6.28-.11-.53-.91-.56-1.05-.06-.1,.36-.2,.72-.31,1.08-.21-.72-.53-1.42-.98-2.07,.12-.61,.24-1.21,.38-1.79,.09-.36-.43-.64-.63-.29-.2,.36-.39,.72-.57,1.09-.35-.37-.73-.73-1.13-1.06,.26-.54,.44-1.11,.41-1.68-.01-.25-.24-.46-.5-.41-.63,.12-1.11,.49-1.53,.95-.39-.23-.8-.44-1.21-.61,.56-.39,1.12-.77,1.66-1.19,.33-.25,0-.74-.37-.69-1.61,.24-3.33,.22-4.67,1.24-.51-.09-1.02-.14-1.52-.14,.18-.23,.36-.45,.53-.67,.13-.16,.12-.45,.02-.63-.07-.13-.13-.23-.27-.28-1.15-.42-3.03,1.23-3.66,2.01-.11,.14-.21,.28-.31,.42-.22,.1-.44,.22-.65,.34,.03-.15,.05-.29,.07-.44,.03-.31-.33-.47-.58-.37-1.79,.7-2.8,2.54-3.37,4.6-1.02,1.6-1.68,3.44-1.87,5.31-.04,.37-.05,.73-.04,1.1-.31-.5-.63-.98-.98-1.45-.2-.27-.71-.1-.68,.23,.35,3.59,2.3,8.9,6.24,10.17,.68,.51,1.41,.92,2.18,1.22,.18,.1,.34,.21,.54,.31,1.32,.7,2.8,1.47,4.22,1.89,1.23,.36,2.28,.08,3.47,.11,.61,.02,.97-.86,.35-1.18-.72-.37-1.52-.51-2.25-.86-.17-.08-.32-.18-.48-.28,.27-.11,.54-.22,.81-.36,.46,.02,.92,.03,1.36,.03Z"/>
          <path class="cls-3" d="M79.44,23.31c.31-.27,.39-.76,.2-1.12-.16-.32-.45-.5-.8-.59,.94-.99,1.37-2.38,1.55-3.72,.14,.05,.29,.08,.43,.05,1.36-.24,2.04-2.02,2.55-3.15,.31-.68,.8-2.17-.14-2.55-.21-.08-.49,.11-.48,.34,.03,.4-.33,.69-.53,.99-.27,.4-.52,.78-.82,1.17-.47,.61-.99,1.27-1.34,1.98-.18-.08-.38-.11-.56,0-1.25,.72-1.86,2.21-3.17,2.8,.59-.76,1.03-1.56,1.06-2.25,0-.26-.14-.47-.35-.59,.25-.22,.47-.48,.64-.78,.56-.99,1-2.15,.57-3.24-.14-.36-.71-.44-.96-.17-.4,.43-1.04,1.05-1.59,1.55-.23,.21-.5,.37-.79,.51,.02-.03,.03-.06,.05-.08,.36-.67-.39-1.24-.98-.82-.03,.02-.07,.04-.11,.06,.74-1.23,1.2-2.61,1.21-4.05,0-.46-.47-.76-.88-.56-.93,.45-1.36,1.43-1.92,2.24-.51,.74-1.07,1.4-1.54,2.14,0-.05,.01-.11,.02-.16,0-.03-.01-.05-.02-.08,.35-.76,.96-1.66,.81-2.52-.03-.19-.26-.34-.45-.29-1.12,.33-2.14,1.36-2.86,2.56,.14-.99,.36-2.06,.04-2.94-.03-.07-.08-.12-.15-.14,.5-.65,.54-1.36,.66-2.17,.14-.95,.68-1.74,.84-2.67,.04-.25-.21-.6-.49-.41-1.59,1.08-2.04,2.99-2.28,4.8-.04,.27,.14,.5,.37,.63-.66,.34-1.14,1.04-1.46,1.78-.39-1.07-.79-2.13-.87-3.28-.02-.33-.42-.48-.62-.19-1.06,1.49-.72,3.38-.65,5.09,.02,.56,.11,1.15,.25,1.73-.22-.42-.45-.82-.74-1.2-.24-.32-.69,0-.63,.33,.13,.82-.27,1.64-.24,2.47,.03,.95,.29,1.91,.6,2.79,.59,1.68,1.84,3.41,3.42,4.31,.37,.21,.8,.2,1.17,.06,1.64,2.72,5.31,5.2,8.29,2.88,.35-.27,.23-.8-.09-1.02,.08,.06-.05-.06-.22-.21,.24-.08,.48-.16,.71-.28,1.17-.57,2.32-1.18,3.29-2.03Z"/>
          <path class="cls-12" d="M75.18,22.79c-.19-.32-.46-.44-.76-.47,.67-.3,1.3-.71,1.78-1.17,.38-.37,1.92-2.17,1.24-2.74-.9-.76-1.58,.16-2.36,.62-.91,.54-1.97,.77-2.93,1.23,.43-.79,.75-1.59,.93-2.23,.17-.63-.6-1.17-1.1-.7-.42,.39-.87,.81-1.34,1.21,.82-.8,1.14-1.98,1.43-3.12,.1,.69,.81,1.23,1.64,.89,1.07-.45,1.88-1.09,2.43-2.13,.63-1.19,.67-2.25,.77-3.56,.02-.35-.42-.54-.67-.31-.78,.71-1.28,1.5-1.96,2.3-.57,.68-1.28,1.16-1.88,1.8-.04,.04-.06,.09-.09,.14,.03-.09,.05-.19,.08-.28,.09-.28-.19-.65-.51-.55-.84,.29-1.27,.78-1.83,1.46-.41,.51-.85,1.04-1.16,1.62-.07-.37-.14-.74-.23-1.11-.1-.41-.28-.84-.38-1.26,.33,.3,.92,.32,1.16-.13,.98-1.82,1.05-4.02,2.07-5.84,.15-.27-.07-.66-.4-.57-.62,.16-1.01,.19-1.5,.68-.49,.5-.84,1.08-1.14,1.71-.55,1.17-.98,2.37-.5,3.59-.13-.04-.29-.02-.39,.07-1.72,1.67-1.58,4.68,.04,6.34-.14,.04-.29,.08-.43,.13-.23-.44-.46-.88-.7-1.29-.3-.51-.52-1-.67-1.57-.13-.5-.24-1.05-.64-1.42-.25-.23-.7-.19-.8,.18-.08,.28-.36,.52-.49,.77-.09,.17-.16,.34-.22,.52-.06-.15-.12-.31-.16-.45-.15-.47-.83-.43-.87,.08-.16,1.86-.49,3.24,.51,4.98,.82,1.43,2.25,3.1,4.02,2.9-.04,.33,.05,.66,.34,.91,.97,.86,2.16,1.33,3.48,1.28,.51-.02,.97-.21,1.45-.34,.33-.09,.75-.16,.85-.56,0-.01,0-.03,0-.04,.09-.35-.03-.65-.3-.87,.68-.35,1.4-.85,1.86-1.46,.2-.27,.59-.89,.37-1.26Zm-4.02-1.02c.04,.51,.32,.97,.84,1.08-.58,.04-1.16-.06-1.73-.15,.31-.27,.61-.59,.88-.93Z"/>
          <path class="cls-1" d="M72.39,23.78s0-.02,0-.03c0,0,0-.02,0-.02-.02-.27-.16-.57-.45-.63-.71-.16-1.54-.03-2.26,.05-.39,.04-.78,.08-1.16,.12-.15-.36-.35-.69-.53-1.04-.11-.2-.18-.41-.24-.61,.39,.49,1.19,.61,1.72-.06,.52-.67,.83-1.53,.87-2.37,.03-.72-.02-1.2-.32-1.85-.28-.6-1.03-.28-1.12,.25-.16,.98-.81,1.93-1.25,2.82-.11,.22-.13,.43-.12,.63-.36-.83-.6-1.74-.6-2.66,0-.4-.48-.52-.71-.22-.58,.77-.73,1.83-.81,2.8-.27-.37-.56-.75-.92-.94-.22-.11-.54-.1-.66,.15-.37,.71,.13,1.69,.4,2.38,.34,.88,1.04,1.91,1.99,2.19,.04,.32,.2,.62,.5,.78,1.13,.61,2.33,.58,3.54,.22,.95-.28,2.11-.78,2.13-1.93Z"/>
          <path class="cls-12" d="M81.37,13.61c.26-.68,.51-1.53,.16-2.21-.09-.18-.38-.21-.48-.02-.15,.26-.38,.48-.54,.74-.19,.32-.33,.67-.5,1-.36,.69-.94,1.33-1.13,2.09-.12,.46,.35,.9,.8,.67,.92-.49,1.34-1.34,1.7-2.27Z"/>
          <path class="cls-3" d="M79.87,5.89c-.49-.87-1.58-.12-2.2,.24-1.04,.62-2.3,1.57-2.6,2.8-.16,.66,.56,1.09,1.09,.69,.71-.54,1.13-1.38,1.79-1.98,.32-.28,.66-.53,.99-.8,.22-.18,.47-.52,.75-.57,.16-.03,.26-.23,.18-.38Z"/>
          <path class="cls-3" d="M73.18,9.71c.38-1.08,.66-2.13,1.2-3.16,.3-.58,.73-1.18,.91-1.79,.07-.25-.21-.52-.45-.38-.78,.45-1.21,.83-1.76,1.59-.74,1-1.01,2.12-1.27,3.32-.2,.89,1.06,1.3,1.37,.42Z"/>
          <path class="cls-3" d="M85.14,16.55c.18-.53-.5-.93-.9-.57-1.12,.99-2.39,1.84-3.47,2.88-.52,.5-.09,1.63,.7,1.36,1.72-.6,3.08-1.93,3.67-3.66Z"/>
          <path class="cls-1" d="M73.97,19.62c.18-.48,.13-.91,.23-1.4,.07-.32-.31-.64-.58-.37-.89,.88-1.56,2.06-2.65,2.73-.72,.45-.36,1.54,.51,1.4,.74-.12,1.5-.77,1.93-1.36,.23-.3,.43-.65,.56-1.01Z"/>
          <path class="cls-1" d="M67.45,16.65c-.22-1.21-.55-2.38-.71-3.6-.02-.16-.26-.24-.37-.12-.34,.39-.59,1.15-.57,1.66,.03,.77,.1,1.61,.31,2.36,.24,.85,1.5,.57,1.34-.3Z"/>
          <path class="cls-6" d="M84.98,14.14c.06-.49,.14-1,.06-1.49-.09-.49-.39-.83-.52-1.29-.02-.08-.13-.07-.14,.01-.13,.79-.12,1.58-.26,2.38-.12,.68-.42,1.32-.5,1.99-.03,.21,.2,.35,.38,.32,.78-.13,.91-1.28,.99-1.93Z"/>
          <path class="cls-6" d="M83.94,19.73c.12-.07,.07-.23-.05-.25-.45-.07-.96,.7-1.25,.97-.32,.31-.64,.66-1.02,.91-.33,.22-.71,.32-1.04,.53-.29,.17-.19,.58,.14,.62,.79,.09,1.42-.38,1.94-.94,.29-.32,.54-.65,.78-1.01,.11-.16,.35-.73,.5-.82Z"/>
          <path class="cls-6" d="M78.72,4.45c-.59-.72-1.88-.06-2.52,.22-1,.45-1.7,1.14-1.91,2.24-.04,.19,.15,.31,.31,.19,.65-.48,1.15-1.15,1.88-1.51,.71-.35,1.38-.74,2.17-.92,.11-.02,.14-.15,.07-.23Z"/>
          <path class="cls-6" d="M72.58,3.93c-.66-.35-1.58,.27-2.06,.7-.87,.8-1.29,1.43-1.53,2.56-.04,.18,.18,.38,.34,.22,1.07-1.11,1.87-2.5,3.24-3.3,.06-.04,.08-.14,0-.18Z"/>
          <path class="cls-6" d="M65.82,10.16c.3-.74,.09-1.52,.43-2.25,.29-.62,.69-1.3,1.17-1.79,.08-.08,.04-.24-.09-.24-.82-.01-1.3,.79-1.7,1.41-.55,.85-.65,1.86-.46,2.85,.07,.36,.54,.32,.66,.03Z"/>
          <path class="cls-6" d="M81.47,23.58c.1-.07,.12-.24-.03-.28-.02,0-.04,0-.06-.01-.06-.01-.13,0-.17,.04-.75,.83-1.47,1.54-2.58,1.85-.67,.18-1.42,.32-1.98,.76-.18,.14-.11,.5,.12,.54,.96,.18,2.06-.16,2.94-.55,.52-.23,.97-.58,1.3-1.04,.12-.17,.52-1.36,.44-1.3Z"/>
          <path class="cls-6" d="M77.71,28.42c-.41-.34-1.32-.08-1.8-.02-.48,.07-1.02,.07-1.49-.05-.45-.12-.78-.19-1.26-.13-.4,.05-.32,.57-.03,.69,.86,.37,1.59,.48,2.5,.37,.37-.04,.68-.15,1.04-.24,.25-.06,.66-.25,.92-.26,.21,0,.27-.25,.12-.37Z"/>
          <path class="cls-15" d="M79.07,5.76s0-.02,.01-.03c.03-.07-.02-.12-.08-.14-.03-.14-.19-.2-.31-.18-1.53,.24-3.07,1.54-3.44,3.04-.07,.3,.27,.53,.51,.32,.72-.62,1.12-1.54,1.93-2.09,.28-.19,.59-.32,.86-.51,.11-.07,.2-.16,.3-.23,.09-.06,.15-.08,.08-.08,.07,0,.11-.04,.13-.1Z"/>
          <path class="cls-15" d="M72.75,9.54c.32-.82,.25-1.66,.66-2.48,.37-.72,.86-1.38,1.22-2.11,.05-.11,0-.26-.14-.26-.88,0-1.6,1.01-2.03,1.67-.57,.86-1.05,2.11-.71,3.14,.17,.49,.8,.54,1,.04Z"/>
          <path class="cls-15" d="M73.48,10.82c.19-.32,.4-.61,.61-.92,.06-.08,.24-.28,.24-.4,0-.01,0-.03,0-.04,0-.12-.09-.26-.23-.25-.59,.05-1.09,.62-1.46,1.03-.56,.64-1.25,1.43-1.43,2.28-.09,.44,.44,.9,.82,.52,.6-.61,1.01-1.49,1.45-2.22Z"/>
          <path class="cls-15" d="M68.01,8.92c.11-.51,.27-.98,.43-1.48,.13-.39,.26-.75,.43-1.13,.09-.21,.13-.54,.25-.73,.06-.08-.03-.2-.12-.18-.61,.14-1.19,.96-1.46,1.48-.43,.81-.89,1.74-.71,2.67,.09,.46,.66,.49,.91,.16,.19-.25,.21-.5,.27-.8Z"/>
          <path class="cls-15" d="M64.71,15.11c-.13-.84-.09-1.64-.25-2.47-.22-1.15-.19-2.35-.1-3.52,0-.1-.13-.17-.21-.1-.93,.9-1.06,2.31-.86,3.53,.12,.77,.32,2.46,1.19,2.76,.14,.05,.25-.08,.23-.21Z"/>
          <path class="cls-15" d="M80.21,17.4c-.03-.06-.11-.08-.17-.05-.65,.34-.79,1.47-1.07,2.08-.58,1.25-1.48,1.99-2.42,2.94-.19,.19-.1,.61,.21,.59,2.32-.16,4.34-3.36,3.44-5.55Z"/>
          <path class="cls-15" d="M79.32,22.86c-.78,.13-1.55,.91-2.22,1.32-.89,.55-1.72,.78-2.72,1.06-.44,.13-.58,.89-.04,.99,1.1,.21,1.98-.16,2.9-.75,.49-.31,.88-.71,1.28-1.13,.35-.36,.61-.85,.95-1.19,.13-.13,.02-.33-.16-.31Z"/>
          <path class="cls-15" d="M77.89,16.1c.43-.81,1.02-1.72,.46-2.57-.05-.07-.17-.11-.22,0-.33,.71-.81,1.3-1.23,1.96-.31,.48-.6,.98-1.03,1.36-.41,.37-.87,.56-1.23,.99-.22,.26-.16,.84,.29,.8,1.5-.13,2.31-1.3,2.96-2.52Z"/>
          <path class="cls-15" d="M71.87,13.73c-.48-.12-1.04,.45-1.35,.73-.49,.43-1.04,1.02-1.21,1.66-.05,.18,.15,.29,.29,.18,.45-.35,.82-.77,1.2-1.19,.21-.24,.45-.46,.66-.69,.09-.1,.31-.43,.44-.48,.1-.04,.08-.2-.02-.22Z"/>
          <path class="cls-15" d="M77.01,10.7c0-.08-.12-.11-.17-.05-.57,.6-.62,1.7-1.04,2.4-.4,.66-.87,1.29-1.5,1.74-.39,.27-.78,.48-1.11,.82-.22,.23-.11,.65,.24,.66,1.3,.04,2.38-1.02,2.99-2.05,.69-1.16,.74-2.19,.59-3.51Z"/>
          <path class="cls-18" d="M76.12,13.13c.44-.79,.65-1.31,.48-2.15-.02-.12-.19-.11-.22,0-.54,1.46-1.79,2.71-2.72,3.93-.15,.2,.08,.53,.32,.45,1.09-.35,1.62-1.28,2.15-2.23Z"/>
          <path class="cls-18" d="M77.9,13.94c0-.17-.18-.28-.32-.21-.72,.38-1.06,1.25-1.53,1.87-.54,.73-1.29,1.28-1.82,2.01-.21,.3,.1,.65,.42,.6,1.57-.26,3.19-2.77,3.25-4.28Z"/>
          <path class="cls-18" d="M74.46,10.06c.08-.15-.07-.38-.25-.27-1.12,.67-1.93,1.88-2.45,3.07-.17,.39,.44,.78,.72,.46,.83-.96,1.38-2.15,1.98-3.25Z"/>
          <path class="cls-18" d="M68.98,13.49c.09-.33,.1-.58,.09-.91-.02-.71,.08-1.22,.35-1.88,.34-.83,.72-1.6,1.25-2.32,.1-.13-.05-.32-.2-.28-.93,.23-1.57,1-2.01,1.84-.65,1.24-.79,2.17-.41,3.52,.12,.44,.79,.52,.93,.04Z"/>
          <path class="cls-18" d="M77.64,18.85c.02-.17-.19-.3-.34-.21-.76,.46-1.12,1.38-1.89,1.85-.78,.48-1.66,.8-2.45,1.26-.39,.23-.24,.76,.18,.82,1.02,.14,2.11-.58,2.9-1.16,.74-.54,1.5-1.63,1.6-2.56Z"/>
          <path class="cls-18" d="M75.39,23.29c.08-.21-.23-.41-.38-.24-.47,.5-.91,.99-1.43,1.43-.55,.47-1.24,.65-1.79,1.11-.38,.32-.02,.9,.43,.82,1.62-.29,2.61-1.68,3.18-3.12Z"/>
          <path class="cls-18" d="M70.68,19.56c.12-.66,.07-1.9-.68-2.15-.15-.05-.29,.09-.26,.24,.32,1.47-.3,2.82-1.04,4.03-.22,.36,.16,.69,.51,.56,1.06-.38,1.29-1.72,1.46-2.68Z"/>
          <path class="cls-18" d="M66.9,17.3c-.05-.59-.38-1.12-.47-1.72-.11-.7-.07-1.38-.22-2.07-.03-.15-.22-.11-.24,.02-.13,.85-.58,1.53-.46,2.43,.09,.61,.26,1.44,.88,1.7,.21,.09,.52-.12,.5-.36Z"/>
          <path class="cls-18" d="M66.9,22.57c-.15-.68-.41-1.28-.44-2-.02-.71,.15-1.35,.23-2.04,.02-.17-.2-.31-.35-.22-.72,.46-.9,1.43-.94,2.22-.05,.85,.05,1.82,.66,2.47,.33,.36,.94,.04,.84-.44Z"/>
          <path class="cls-5" d="M71.8,24.35c-.69,.05-1.29,.39-1.96,.49-.34,.05-.71,.13-1.05,.16-.41,.04-.72-.06-1.11,.15-.2,.11-.3,.43-.11,.61,.67,.61,1.62,.29,2.4,.07,.76-.22,1.46-.67,1.94-1.26,.06-.08-.01-.22-.11-.21Z"/>
          <path class="cls-5" d="M67.74,23.84c.11-.23-.19-.44-.35-.22-.25,.36-.53,.69-.69,1.1-.21-.29-.5-.4-.85-.61-.62-.37-.97-.96-1.36-1.55-.4-.62-.86-1.2-1.34-1.76-.15-.17-.37,.03-.3,.21,.37,1.02,.56,2,1.14,2.95,.5,.83,1.47,1.85,2.53,1.63,.16-.03,.27-.14,.32-.28,.14,.08,.33,.09,.47-.04,.44-.41,.21-.95,.43-1.44Z"/>
        </g>
      </g>
      <g>
        <g>
          <path class="cls-13" d="M2.52,116.76c1.31-2.82,2.34-5.8,3.89-8.5,1.49-2.59,2.95-5.19,4.43-7.78,2.99-5.22,5.97-10.44,9.16-15.54,1.61-2.58,2.97-5.3,4.59-7.88,1.6-2.54,3.29-5.03,4.66-7.7,2.69-5.26,5.84-10.54,7.58-16.22,.97-3.17,2.17-6.24,3.01-9.46,.87-3.33,1.41-6.75,2.64-9.98,.07-.2-.22-.28-.31-.09-2.42,5.37-3.62,11.18-5.94,16.62-1.22,2.87-2.14,5.84-3.57,8.65-1.42,2.78-2.73,5.59-4.28,8.29-2.96,5.12-6.35,10.01-9.1,15.24-1.43,2.71-3.16,5.33-4.8,7.92-1.58,2.49-2.93,5.03-4.4,7.57-3.44,5.93-6.84,11.7-8.72,18.34-.19,.66,.84,1.21,1.16,.53Z"/>
          <path class="cls-10" d="M43.52,37.71c-.03-.59-.25-1.08-.66-1.5-.2-.2-.41-.42-.65-.6-.06-.39-.43-.75-.88-.63-1.57,.42-3.33,.46-4.98,.47-1.3,0-2.34-.35-3.58,.14-1.37,.55-3.93,2.97-2.62,4.6,.12,.15,.32,0,.31-.16-.07-.69,.37-1.39,.97-1.95,.77-.33,1.81-.43,2.41-.25,1.16,.34,2.1,1.02,3.31,1.22,1.62,.28,3.57-.5,4.46-1.95,.26,.23,.5,.42,.58,.84,.1,.51,.07,1.03-.02,1.53-.09,.5-.09,1.04-.2,1.53-.05,.21,.26,.4,.37,.17,.58-1.17,1.24-2.1,1.18-3.46Z"/>
          <path class="cls-11" d="M23.47,78.85c1.42-2.66,3.19-5.06,4.93-7.51,1.8-2.55,3.56-5.49,4.83-8.34,.71-1.6,1.62-3.38,2.28-5.16,1.07-2.04,1.73-4.24,2.54-6.41,.75-2.02,1.65-4.28,2.04-6.46,.11-.29,.21-.59,.31-.89,.66-2.08,1.35-4.19,1.8-6.34,.08,.12,.16,.26,.19,.33,.08,.23,.4,.22,.43-.04,.02-.15,.14-.29,.17-.44,.02-.1,.04-.23,.03-.32,0-.15-.06-.28-.13-.41-.02-.02-.03-.05-.05-.07,0,0,0-.01,0-.02-.07-.23-.23-.35-.37-.5,.03-.21,.06-.42,.09-.63,.05-.47-.66-.56-.8-.13,0,0,0,.01,0,.02-.03-.01-.05-.02-.08-.03-.32-.1-.58,.13-.63,.44-.07,.02-.13,.05-.2,.09-.34,.24-.67,.45-1.06,.63-.39,.18-.81,.21-1.22,.36-.78,.27-1.73,.19-2.55,.21-.17,0-.24,.26-.05,.31,.31,.08,.55,.26,.84,.37,.02,0,.04,.01,.06,.02-.8-.13-1.59-.36-2.37-.57-1.38-.37-3.42-.69-3.89,1.07-.05,.17,.14,.27,.28,.17,1.2-.91,2.87,.11,4.08,.48,1.06,.32,2.27,.61,3.39,.52,1.09-.09,1.95-.59,2.61-1.33-.51,1.92-.95,3.85-1.56,5.75-.77,2.42-1.86,4.77-2.48,7.24-.97,2.43-1.71,4.93-2.9,7.26-2.19,4.3-4.53,8.5-6.71,12.81-.03,.04-.06,.09-.09,.13-3.05,4.24-5.52,8.79-7.49,13.63-.05,.12,.14,.21,.21,.1,1.23-2.09,2.42-4.18,3.56-6.32Z"/>
          <path class="cls-7" d="M40.47,35.11c-.72,.22-1.31,.37-2.08,.34-.75-.03-1.46-.3-2.2-.39-.9-.1-2.39-.16-3.06,.54-.08,.09-.02,.25,.11,.22,.62-.16,1.59,.14,2.25,.28,.8,.17,1.56,.5,2.37,.66,1.14,.21,2.5,.28,3.23-.75,.28-.4-.14-1.04-.63-.89Z"/>
          <path class="cls-2" d="M40.45,35.14c-.41,.02-.81,.04-1.21,.06-.5,.02-.95-.08-1.45-.1-.42-.02-.97-.14-1.39-.04-.29,.07-.4,.29-.67,.41-.11,.05-.07,.24,.05,.23,.5-.03,.9,.13,1.37,.27,.45,.13,.92,.21,1.38,.32,.7,.16,1.65,.17,2.24-.27,.34-.26,.1-.89-.32-.87Z"/>
          <path class="cls-17" d="M3.15,111.89c.7-1.6,1.22-3.27,2.06-4.8,1.86-3.39,3.61-6.78,5.68-10.06,1.17-1.87,2.51-3.63,3.63-5.53,1.02-1.72,1.78-3.55,2.82-5.26,1.2-1.97,2.44-3.92,3.65-5.89,1.11-1.81,1.98-3.64,2.94-5.5,.03-.06-.04-.13-.09-.08-1.14,1.26-2.01,2.85-2.94,4.26-1.34,2.03-2.65,4.09-3.98,6.12-1.12,1.72-2.08,3.5-3.05,5.3-1.09,2.01-2.5,3.82-3.76,5.71-2.07,3.1-4.26,6.33-5.82,9.71-1.6,3.47-3.01,7.03-4.25,10.66-.15,.44,.49,.9,.82,.52,1.23-1.43,1.56-3.46,2.3-5.17Z"/>
        </g>
        <g>
          <path class="cls-15" d="M38.93,19.84c0-1.01-.76-1.79-.89-2.79-.07-.53-.12-1.06-.15-1.6-.03-.49,.07-1.01-.04-1.49-.05-.23-.28-.3-.48-.22-1.15,.43-1.16,2.36-1.12,3.36,.05,1.14,.43,2.75,1.51,3.35,.48,.27,1.16,0,1.16-.61Z"/>
          <path class="cls-15" d="M37.38,23.19c-.03-.61-.27-1.01-.68-1.45-.59-.62-.87-1.08-.98-1.96-.09-.68-.13-2.57-.97-2.79-.03,0-.07,0-.09,.02-.38,.39-.3,1.02-.3,1.52,0,.63-.04,1.27,0,1.9,.1,1.36,.89,2.25,1.79,3.21,.4,.42,1.27,.19,1.24-.45Z"/>
          <path class="cls-15" d="M37.9,27.04c-1.05-1.26-2.8-1.83-3.59-3.28-.48-.88-.76-1.83-1.37-2.64-.13-.18-.47-.06-.46,.17,.08,1.24,.07,2.62,.67,3.76,.7,1.34,2.42,2.53,3.68,3.27,.82,.48,1.68-.54,1.07-1.27Z"/>
          <path class="cls-15" d="M42.91,18.72c.25-1.41,.15-2.59,.9-3.87,.62-1.05,1.05-2.21,1.69-3.25,.16-.26-.12-.51-.38-.41-1.34,.51-2.41,2.04-3.15,3.22-.81,1.29-1.02,3.06-.32,4.43,.25,.49,1.16,.5,1.27-.11Z"/>
          <path class="cls-15" d="M46.85,17.33c.35-1.15,.52-2.36,.82-3.53,.28-1.12,.98-2.07,1.15-3.21,.02-.15-.18-.28-.31-.2-2.03,1.34-3.37,4.49-3.1,6.88,.09,.77,1.24,.72,1.44,.05Z"/>
          <path class="cls-15" d="M50.76,15.15c.34-1.36,.24-2.74,.51-4.1,.05-.25-.24-.5-.46-.29-.75,.75-1.01,1.6-1.38,2.57-.6,1.63-1.35,2.87-2.52,4.16-.82,.9,.33,2.23,1.29,1.42,1.16-.98,2.18-2.26,2.55-3.76Z"/>
          <path class="cls-15" d="M53.38,16.21c.4-1.13,.91-2.52,.3-3.66-.08-.15-.31-.22-.44-.08-.79,.86-1.21,2.15-1.73,3.19-.68,1.36-1.84,2.39-2.34,3.83-.29,.82,.81,1.49,1.43,.9,1.27-1.19,2.2-2.55,2.78-4.19Z"/>
          <path class="cls-15" d="M57.23,17.76c-.07-.24-.37-.29-.52-.09-1.11,1.54-1.6,3.29-3.15,4.53-1.38,1.11-3.17,1.47-4.48,2.66-.67,.61-.07,1.71,.8,1.54,3.68-.74,8.53-4.36,7.35-8.65Z"/>
          <path class="cls-15" d="M55.19,18.95c.57-1.01,1.14-2.34,.88-3.52-.07-.29-.48-.3-.57-.02-.3,.88-1.16,1.9-1.71,2.66-.66,.9-1.63,1.32-2.36,2.12-.43,.47-.1,1.28,.59,1.14,1.46-.3,2.43-1.08,3.16-2.38Z"/>
          <path class="cls-15" d="M59.12,23.96c.08-.21-.21-.39-.37-.23-.92,.93-1.91,2.07-3.11,2.65-.95,.46-2.03,.59-2.95,1.11-.54,.3-.4,.98,.11,1.21,1.13,.5,2.83-.24,3.82-.84,1.47-.9,1.94-2.37,2.5-3.89Z"/>
          <path class="cls-15" d="M57.98,28.29c-1.15,.47-2.14,1.32-3.37,1.61-1.2,.28-2.44,.08-3.62,.47-.78,.26-.98,1.44-.06,1.7,1.32,.38,3.18,.13,4.46-.33,1.34-.48,2.47-1.56,3.28-2.7,.33-.46-.24-.93-.68-.75Z"/>
          <path class="cls-15" d="M55.02,33.83c-.26-.25-.43-.25-.78-.25-.66,0-1.16,.08-1.83-.03-1.46-.25-3-.56-4.47-.69-.87-.08-1.21,1.16-.5,1.6,1.36,.84,3.09,.97,4.65,.96,.58,0,1.27,0,1.81-.23,.42-.18,.64-.53,1-.75,.2-.13,.31-.42,.11-.62Z"/>
          <path class="cls-15" d="M39.82,32.34c-2.46-2.19-6.2-3.12-7.71-6.33-.11-.23-.47-.14-.48,.11-.14,3.7,4.46,6.32,7.34,7.55,.72,.31,1.43-.8,.84-1.32Z"/>
          <path class="cls-15" d="M45.71,18.48c.12-1.09,.01-2.18,.25-3.25,.17-.79,.61-1.8,.56-2.59,0-.08-.07-.11-.14-.09-1.01,.37-1.4,1.62-1.68,2.58-.33,1.14-.38,2.45,.04,3.56,.2,.52,.92,.23,.97-.22Z"/>
          <path class="cls-15" d="M51.94,13.69c0-.11-.13-.15-.2-.06-.57,.68-.67,1.52-.91,2.35-.37,1.3-1.3,2.11-1.9,3.26-.24,.46,.23,1.2,.77,.84,2.22-1.47,2.44-3.97,2.24-6.39Z"/>
          <path class="cls-15" d="M53.74,20.44c.32-.7,.8-1.57,.42-2.32-.06-.12-.24-.16-.34-.06-.49,.48-.86,1.18-1.22,1.77-.33,.53-1.01,.94-1.16,1.54-.1,.39,.22,.77,.63,.68,.83-.17,1.32-.87,1.66-1.6Z"/>
          <path class="cls-15" d="M40.45,19.39c.23-.81-.01-1.7-.1-2.52-.06-.56-.1-1.09-.06-1.65,.03-.38,.06-.64-.12-.97-.08-.15-.3-.17-.39-.02-.93,1.57-.9,3.38-.49,5.12,.14,.57,.98,.63,1.15,.04Z"/>
          <path class="cls-4" d="M46.58,12.24c.45-1.09,1.08-2.09,1.68-3.1,.11-.18-.08-.36-.26-.29-2.41,1.06-3.19,3.61-3.97,5.91-.25,.74,.82,1.21,1.23,.57,.64-.98,.88-2.04,1.32-3.1Z"/>
          <path class="cls-4" d="M42.3,16.76c.41-1.59,.46-3.25,.92-4.83,.26-.9,.79-1.75,.95-2.65,.05-.25-.2-.4-.4-.26-2.26,1.62-3.15,5-2.78,7.68,.09,.68,1.15,.69,1.31,.05Z"/>
          <path class="cls-4" d="M39.65,18.95c.46-1.16,.04-2.35,.13-3.55,.04-.59,.14-1.19,.21-1.78,.06-.56,.33-1.1,.3-1.66,0-.17-.15-.25-.3-.19-1.29,.48-1.48,1.72-1.77,2.95-.32,1.37-.15,2.82,.16,4.18,.16,.67,1.03,.63,1.26,.05Z"/>
          <path class="cls-4" d="M36.44,23.36c-.46-1.14-1.58-2-1.91-3.18-.14-.52-.23-1.07-.36-1.6-.13-.55-.46-1.49-.32-2.03,.06-.23-.22-.44-.4-.26-.84,.82-.59,2.96-.43,4.03,.21,1.45,1.25,2.85,2.28,3.83,.59,.56,1.45-.05,1.14-.79Z"/>
          <path class="cls-4" d="M36.87,27.38c-1.1-.46-2.24-.82-3.13-1.65-.62-.57-.96-1.4-1.64-1.88-.19-.14-.4,.07-.37,.26,.36,2.48,2.33,4.48,4.93,4.56,.79,.02,.88-1.01,.22-1.29Z"/>
          <path class="cls-4" d="M55.41,15.49c.22-.51,.47-1.06,.58-1.61,.13-.63-.02-1.26,.05-1.89,.03-.27-.35-.29-.44-.07-.4,.94-1.03,1.72-1.55,2.6-.53,.89-1.08,1.77-1.82,2.51-.62,.62,.08,1.76,.91,1.31,1.14-.62,1.77-1.67,2.28-2.84Z"/>
          <path class="cls-4" d="M50.21,15.33c2.21-.85,2.83-3.48,2.79-5.61,0-.24-.28-.3-.42-.13-.46,.56-.71,1.23-1.02,1.87,.38-.92,.62-1.9,.93-2.89,.09-.29-.35-.52-.5-.23-.31,.59-.64,1.18-.97,1.76,.19-.43,.39-.86,.59-1.29,.09-.19-.18-.41-.36-.3-1.22,.81-1.94,1.47-2.54,2.89-.65,1.55-1.19,3.23-.89,4.92,.12,.7,1.15,.7,1.35,.05,.12-.39,.22-.77,.31-1.17,.19,.16,.48,.23,.73,.14Zm-.43-1.42c.04-.18,.08-.36,.13-.53,.1,.03,.2,.04,.3,.02-.14,.17-.29,.34-.43,.51Z"/>
          <path class="cls-4" d="M56.43,19.47c.45-.94,1.14-2.17,.87-3.24-.08-.31-.49-.38-.66-.12-1.3,1.99-2.44,4.01-3.91,5.88-.57,.72,.51,1.38,1.13,.95,1.2-.84,1.96-2.17,2.58-3.47Z"/>
          <path class="cls-4" d="M58.81,20.93c.08-.25-.25-.46-.44-.28-.82,.78-1.5,1.74-2.38,2.45-.96,.78-2.19,1.18-3.28,1.77-.48,.26-.43,1.01,.11,1.17,1.21,.35,3.07-.5,3.96-1.3,1.12-1.01,1.57-2.41,2.03-3.8Z"/>
          <path class="cls-4" d="M59.03,26.25c.1-.31-.3-.57-.54-.34-.86,.8-1.88,1.5-2.9,2.07-1.17,.65-2.51,.94-3.7,1.56-.66,.35-.48,1.51,.33,1.48,2.62-.07,5.99-2.2,6.81-4.77Z"/>
          <path class="cls-4" d="M57.22,32.31c.05-.19-.05-.36-.23-.43-.35-.14-.72,.01-1.07,.12-.65,.21-1.28,.36-1.96,.47-1.33,.23-2.69,.29-4.03,.43-.82,.08-.65,1.18-.05,1.43,1.28,.53,3.17,.19,4.46-.17,.95-.27,2.59-.76,2.88-1.85Z"/>
          <path class="cls-4" d="M52.02,37.83c-.21-.25-.45-.33-.76-.42-.63-.18-1.16-.41-1.77-.69-.77-.36-1.58-.76-2.21-1.35-.6-.56-1.05-1.19-1.69-1.71-.54-.44-1.28,.33-.98,.89,.87,1.61,1.88,2.91,3.69,3.53,1.26,.43,2.35,.73,3.63,.25,.2-.08,.21-.35,.09-.49Z"/>
          <path class="cls-18" d="M51.38,35.64c-.3-.2-.66-.31-1.05-.37,.88-.38,1.69-.85,2.38-1.49,.03,0,.05,0,.08-.01,1.37-.27,3.21-1.45,4.02-2.58,.2-.28-.1-.71-.43-.61-.68,.19-1.34,.31-2.01,.52,1.06-1.05,2.22-2.88,2.07-4.21-.02-.17-.24-.3-.4-.25-.26,.09-.5,.23-.74,.4,.81-.87,1.59-2.1,1.24-3.08-.09-.25-.27-.37-.54-.34-.39,.05-.72,.26-1.01,.53,.2-.49,.35-1.01,.43-1.57,.18-1.34,.55-4.08-.7-5.09-.25-.2-.55,.1-.52,.36,.06,.47-.21,1.09-.32,1.54-.08,.32-.15,.64-.21,.97-.13-.23-.26-.46-.4-.68,.8-1.87,.99-3.84-.29-5.12-.25-.25-.6-.03-.57,.3,.08,.79-.31,1.85-.77,2.81-.09-.09-.18-.18-.28-.27,.33-1.19,.24-2.09-.24-3.36-.11-.29-.54-.2-.62,.06-.21,.68-.51,1.36-.82,2.01-.07-.04-.13-.09-.2-.13-.03-.02-.06-.04-.09-.05,.11-.15,.2-.33,.29-.54,.16-.4,.89-2.63,.13-2.88-.02,0-.04-.01-.06-.02-.15-.05-.35-.01-.46,.1-.39,.41-.68,.94-1,1.42,.02-.09,.04-.17,.05-.26,.01-.16-.13-.32-.29-.32-1.01,0-1.94,.5-2.7,1.23-.08,0-.15,.01-.23,.02,.27-.63,.5-1.26,.6-1.93,.04-.24-.25-.47-.48-.4-1.38,.44-2.26,1.76-2.81,3.13-.17,.09-.35,.18-.53,.29,.22-.99,.55-1.96,1.05-2.87,.24-.44-.2-1.03-.69-.76-1.86,1.02-2.56,3.19-2.89,5.27-.07-1.09,.31-2.14,.23-3.21-.02-.25-.28-.39-.48-.23-1.53,1.19-1.72,3.24-1.65,5.17-.1-.12-.3-.15-.45-.07,0-.42,0-.84,.05-1.23,.04-.39-.54-.71-.82-.38-.91,1.07-1.15,2.64-1.04,4.18-.05-.14-.09-.27-.14-.41-.14-.4-.75-.52-.89-.03-.44,1.61-.12,3.09,.51,4.52-.1,.65-.14,1.28-.09,1.9-.32-.42-.63-.84-.92-1.27-.17-.26-.72-.25-.69,.15,.23,2.8,2.02,5.17,4.41,6.69,.89,.98,1.96,1.76,3.18,1.84,.19,.06,.38,.12,.57,.17,.79,.73,1.84,1.1,2.96,1.24,.56,.27,1.16,.46,1.79,.56,1.18,.17,2.27,.21,3.45-.04,.7-.15,1.3-.6,1.96-.73,.28-.06,.33-.44,.1-.59Z"/>
          <path class="cls-15" d="M45.27,17.22c.18-.55,.11-1.14,.23-1.7,.13-.61,.33-1.2,.46-1.81,.03-.12-.1-.2-.2-.13-1.07,.8-1.85,2.21-1.55,3.6,.12,.54,.89,.55,1.05,.04Z"/>
          <path class="cls-15" d="M42.53,18.95c.1-.88,0-1.8,.05-2.69,.06-.89,.58-1.73,.57-2.59,0-.11-.11-.18-.22-.14-1.69,.78-2.13,3.94-1.78,5.54,.17,.81,1.29,.63,1.38-.13Z"/>
          <path class="cls-15" d="M39.05,22.08c-.11-.86-.69-1.61-.84-2.48-.16-.93-.24-1.85-.22-2.8,0-.19-.26-.28-.36-.11-.59,.95-.81,2.03-.8,3.14,0,.96,.35,2.44,1.28,2.91,.5,.25,1.01-.11,.94-.66Z"/>
          <path class="cls-15" d="M49.97,16.66c.04-.16-.16-.31-.29-.19-.4,.39-.71,1.01-1,1.49-.31,.5-.74,.91-1.04,1.42-.3,.51,.24,1.15,.79,.86,1.26-.67,1.23-2.37,1.55-3.58Z"/>
          <path class="cls-15" d="M54.21,17.96c.03-.27-.33-.32-.47-.14-.58,.75-1.03,1.6-1.57,2.38-.59,.86-1.23,1.54-1.98,2.25-.51,.48-.08,1.5,.66,1.28,2.13-.63,3.13-3.77,3.35-5.76Z"/>
          <path class="cls-15" d="M54.75,24.75c.04-.22-.21-.43-.4-.25-.55,.53-1.08,1.14-1.58,1.71-.75,.85-1.69,1.44-2.36,2.36-.39,.54,.29,1.18,.84,.92,1.88-.9,3.09-2.76,3.49-4.74Z"/>
          <path class="cls-15" d="M55.94,29.34c-.91,.28-1.58,1.25-2.43,1.72-1.13,.62-2.49,.32-3.64,.86-.52,.24-.44,1.07,.11,1.22,1.15,.31,2.87,.13,3.88-.55,.99-.67,1.59-1.83,2.35-2.71,.18-.21,.06-.64-.28-.53Z"/>
          <path class="cls-15" d="M38.02,30.37c-.63-1.2-1.91-1.73-2.59-2.84-.36-.6-.65-1.84-1.41-2.05-.15-.04-.3,.09-.26,.24,.22,.93,.31,2.07,.8,2.9,.56,.96,1.75,1.84,2.62,2.51,.48,.37,1.1-.28,.84-.77Z"/>
          <path class="cls-15" d="M42.23,25.14c-.25-.57-.68-1.01-.97-1.56-.25-.48-.38-.99-.51-1.51-.2-.81-.16-1.68-.48-2.46-.07-.18-.31-.08-.33,.07-.14,1.1-.52,2.05-.37,3.19,.16,1.21,.77,2.37,1.75,3.1,.54,.4,1.13-.3,.9-.82Z"/>
          <path class="cls-15" d="M45.6,18.69c0-.11-.11-.19-.22-.14-.57,.28-.65,1.09-.83,1.64-.29,.91-.75,1.73-1.05,2.64-.18,.55,.54,1.01,.96,.61,1.34-1.28,1.26-3.05,1.13-4.75Z"/>
          <path class="cls-15" d="M49.74,21.62c.09-.33-.34-.51-.53-.24-.43,.59-.73,1.28-1.14,1.9-.45,.69-1.05,1.16-1.57,1.77-.35,.41-.11,1.15,.52,1.01,2.05-.49,2.26-2.76,2.72-4.43Z"/>
          <path class="cls-15" d="M54.01,23.52c.24-.44,.66-1,.47-1.52-.04-.1-.16-.11-.24-.08-.39,.15-.76,.78-1,1.11-.47,.63-.92,1.23-1.47,1.79-.44,.46,.17,1.15,.67,.73,.7-.58,1.15-1.24,1.58-2.03Z"/>
          <path class="cls-3" d="M40.83,20.26c.2-1-.15-2.08-.22-3.09-.07-1.04,.08-2,.2-3.03,.02-.19-.22-.26-.34-.16-1.62,1.31-1.9,4.9-.69,6.52,.27,.37,.97,.21,1.06-.24Z"/>
          <path class="cls-3" d="M48.45,13.31c0-.23-.36-.41-.49-.15-.4,.8-.79,1.59-1.15,2.42-.3,.7-.56,1.39-1.06,1.97-.34,.39-.66,.66-.88,1.13-.2,.41,.08,.92,.58,.82,2.54-.5,3.09-4.04,3-6.19Z"/>
          <path class="cls-3" d="M52.41,15.97c.04-.23-.3-.29-.41-.13-.89,1.29-1.61,2.65-2.56,3.88-.49,.63,.36,1.26,.95,1.04,1.89-.73,1.76-3.14,2.02-4.79Z"/>
          <path class="cls-3" d="M51.91,32.52c.47-.22,.35-.88-.09-1.04-.08-.03-.15-.04-.22-.04,.54-.24,1.05-.58,1.47-.98,.96-.91,1.34-1.96,1.8-3.15,.09-.23-.25-.45-.42-.27-.67,.74-1.41,1.39-2.21,1.98-.36,.27-.74,.46-1.13,.63,.38-.43,.71-.91,.99-1.43,.26-.49-.3-.96-.74-.62-.67,.52-1.4,1.03-2.17,1.41,1.07-1.03,1.88-2.4,2.17-3.51,.07-.28-.25-.48-.47-.3-.36,.29-.74,.55-1.13,.8,1.31-1.13,2.1-2.99,2.66-4.53,.09-.26-.26-.48-.46-.29-.92,.92-1.75,1.92-2.66,2.86-.44,.45-1.06,.66-1.58,.98,.1-.51,.12-1.02,.29-1.54,.09-.31-.34-.64-.58-.36-.04,.05-.08,.1-.12,.15,.35-1.2,.55-2.5,.93-3.39,.14-.32-.34-.47-.52-.24-.67,.84-1.18,1.83-1.74,2.75-.62,1.02-1.3,1.69-2.14,2.5-.01,.01-.02,.03-.04,.04-.08-.76-.25-1.55-.26-2.28-.03-1.23-.35-2.61-.09-3.83,.06-.28-.31-.48-.47-.22-.79,1.22-.99,2.58-1.17,3.98-.14,1.07-.19,2.2,.23,3.18-.07,.04-.13,.08-.19,.12,0-.02-.02-.05-.02-.07-.11-.43-.17-.85-.3-1.27-.13-.41-.39-.88-.42-1.31-.02-.32-.5-.46-.6-.1-.13,.48-.28,.94-.39,1.4-.23-.93-.46-2.12-.32-3.01,.05-.34-.43-.43-.6-.19-.84,1.21-1.12,2.78-.87,4.26-.4-.79-.99-1.56-1.34-2.31-.24-.53-.4-1.07-.61-1.6-.07-.18-.14-.44-.36-.48-.02,0-.03,0-.05,0-.15-.02-.28,.11-.33,.24-.39,.96-.18,2.15,.12,3.1,.19,.61,.46,1.4,.88,2.02-.19-.24-.4-.45-.66-.6-.22-.13-.48,.01-.5,.26-.05,.6,.03,1.27,.23,1.94-.36-.11-.83,.09-.67,.55,.7,1.98,1.88,3.41,3.45,4.78,.95,.83,1.91,1.66,3.08,2.18,.12,.06,.25,.11,.38,.15,1.09,.71,2.46,.86,3.75,1.05,1.4,.21,2.53-.7,3.63-1.45,.25-.17,.28-.59,.04-.74,.04-.02,.09-.03,.13-.05,.57-.23,1.14-.58,1.6-.99,.23-.21,.42-.43,.6-.69,.09-.12,.39-.5,.23-.43Zm-14.32-4.49c-.3-.39-.54-.87-.84-1.3,.21,.26,.44,.49,.72,.63,.04,.02,.09,.04,.14,.05,0,.23,.02,.47,.05,.7-.02-.03-.05-.06-.07-.08Zm9.48-1.39c.16,.23,.44,.37,.79,.3,.32-.06,.62-.16,.9-.3-.21,.14-.42,.29-.62,.44-.66,.5-1.37,.79-2.09,1.12,.27-.34,.51-.7,.7-1.01,.11-.18,.21-.38,.32-.57Z"/>
          <path class="cls-12" d="M48.99,33.21c-.48,.18-1.27,.08-1.8,.14-.41,.05-.8,.05-1.18,.04,.51-.07,1.01-.15,1.49-.33,.58-.21,1.13-.55,1.54-1.01,.48-.53,.62-1.21,1.06-1.76,.28-.35-.27-.77-.58-.49-.76,.68-2.1,1.1-3.09,1.23-.45,.06-.97,.08-1.48,.12,.02-.08,.03-.15,.04-.22,1.13-.69,1.61-2.13,1.91-3.36,.1-.4-.36-.72-.69-.44-.45,.39-.82,.85-1.21,1.3-.35,.41-.77,.76-1.13,1.17,0,0,0,0-.01,0,.76-.95,.89-2.37,.96-3.53,.02-.39-.42-.53-.7-.32-.48,.35-.69,.88-.97,1.4-.16,.3-.36,.59-.54,.89-.06-.56-.26-1.14-.34-1.7-.13-1.03,.1-2.07-.07-3.08-.04-.26-.37-.27-.51-.09-.84,1.11-1.37,3.07-1.08,4.65-.1-.21-.22-.45-.22-.6,0-.36-.45-.6-.72-.34-.33,.32-.47,.81-.5,1.32-.14-.25-.27-.52-.4-.78-.4-.79-.35-1.83-.84-2.55-.08-.11-.27-.2-.38-.07-.76,.9-.83,2.66-.32,4.1-.13-.01-.27,.03-.33,.17,0,0,0,.02-.01,.03-.02,.05-.03,.11-.03,.17h-.01c.03,1.85,1.12,3.64,2.81,4.53,.51,.27,1.14,.51,1.75,.56,.02,.02,.02,.04,.04,.06,.97,1.06,2.54,1.26,3.91,1.21,.73-.03,1.43-.1,2.11-.41,.8-.36,1.24-.91,1.89-1.45,.33-.27-.05-.69-.39-.57Zm-9.05-2.12c.03,.06,.07,.11,.11,.17,0,.08,.03,.16,.06,.24-.17-.12-.33-.25-.49-.39,.05,0,.1,0,.16,0,.06,0,.11-.01,.17-.02Z"/>
          <path class="cls-1" d="M40.04,26.47c-.05-1.07-.73-1.95-.87-3.01-.12-.92-.22-1.88-.42-2.78-.04-.17-.26-.13-.28,.03-.05,.36-.29,.71-.37,1.08-.12,.58-.17,1.21-.22,1.8-.09,1.17,.29,2.18,.88,3.18,.32,.54,1.32,.44,1.28-.29Z"/>
          <path class="cls-1" d="M46.77,32.61c-.45-.22-1-.3-1.51-.38,.13-.06,.26-.12,.39-.18,.38-.19,.82-.35,1.15-.63,.29-.25,.44-.57,.65-.88,.04-.05,.05-.11,.06-.17,.89-.8,1.19-2.07,1.79-3.23,.14-.28-.22-.51-.41-.26-.85,1.11-1.85,1.97-2.94,2.81,.25-.29-.04-.77-.42-.58,0,0,0,0-.01,0,.02-.04,.05-.08,.07-.13,.35-.7,.36-1.49,.63-2.21,.1-.25-.27-.4-.42-.19-.38,.54-.83,1.06-1.23,1.59-.39,.51-.92,.92-1.24,1.48-.17,.29-.07,.62,.15,.8-.17,.1-.35,.2-.53,.29,.16-.75,.05-1.6,.15-2.35,.11-.85,.22-1.69,.32-2.54,.02-.16-.19-.29-.32-.2-.91,.57-1.14,1.37-1.47,2.34-.05,.14-.08,.27-.11,.41-.09-.6-.14-1.2-.02-1.8,.04-.22-.18-.38-.37-.23-.92,.72-1.17,1.92-1.13,3.11-.1-.09-.2-.18-.3-.28-.61-.67-1.07-1.44-1.72-2.08-.24-.24-.58-.03-.55,.29,.06,.56,.01,1.03,.16,1.6,.15,.56,.43,1.03,.75,1.51,.04,.07,.1,.13,.14,.2-.06-.03-.11-.06-.17-.08-.4-.2-.79,.23-.5,.6,.86,1.12,2.12,2.39,3.65,2.29,.09,0,.19-.03,.27-.07,.12,.08,.27,.13,.45,.14,.87,.04,1.74,.11,2.61,.12,.32,0,.66,0,.97-.06,.32-.07,.57-.3,.89-.34,.32-.04,.41-.56,.12-.7Z"/>
          <path class="cls-5" d="M45.47,33.47c.13-.23-.06-.62-.36-.52-.63,.21-1.13,.68-1.79,.85-.22,.06-.44,.1-.66,.14,.12-.35,.17-.74,.29-1.08,.13-.35-.37-.67-.63-.4-.13,.14-.27,.29-.41,.46-.09-.19-.18-.39-.25-.59-.07-.2-.07-.39-.1-.6-.02-.16-.17-.33-.35-.29-.44,.09-.37,.78-.43,1.13-.35-.13-.57-.29-.91-.63-.49-.48-1.02-1.15-1.75-1.15-.24,0-.36,.23-.28,.44,.26,.66,.45,1.31,.78,1.91-.1-.01-.2-.01-.31,0-.22,.04-.21,.3-.07,.41,.2,.16,.31,.41,.51,.58,.21,.18,.44,.36,.66,.53,.29,.22,.61,.39,.96,.43,.05,.35,.33,.69,.71,.7,.94,.03,2.02-.11,2.86-.54,.75-.39,1.11-1.1,1.51-1.8Z"/>
          <path class="cls-18" d="M40.87,30.14c0-.25-.11-.45-.15-.7-.06-.3-.03-.64-.02-.95,0-.57,0-1.15,0-1.72,0-.11-.12-.16-.2-.09-.59,.43-.69,1.39-.77,2.06-.08,.64-.07,1.69,.79,1.74,.18,.01,.37-.15,.37-.34Z"/>
          <path class="cls-18" d="M49.17,28.53c-.01-.13-.17-.16-.27-.13-.46,.17-.76,.71-1.08,1.07-.29,.33-.71,.72-1.11,.9-.33,.15-.21,.71,.16,.7,.6-.02,1.09-.41,1.48-.84,.41-.45,.89-1.05,.83-1.69Z"/>
          <path class="cls-18" d="M42.55,23.53c-.15-.98,.28-1.93,.25-2.9,0-.09-.1-.18-.19-.12-.44,.3-.72,1.05-.87,1.55-.14,.5-.21,1.29,.05,1.75,.23,.42,.84,.18,.77-.28Z"/>
          <path class="cls-18" d="M47.59,24.94c.04-.18-.18-.28-.29-.14-.39,.5-.69,1.03-.96,1.6-.39,.81-.94,1.41-1.6,2-.32,.28,.04,.72,.4,.58,1.67-.68,2.08-2.46,2.46-4.04Z"/>
          <path class="cls-18" d="M39.18,29.22c-.49-.82-1.18-1.45-1.4-2.41-.1-.45-.17-.9-.25-1.35-.06-.3-.04-.57-.24-.81-.09-.1-.27-.09-.34,.03-.39,.71-.19,1.91-.04,2.68,.21,1.03,.86,1.79,1.69,2.39,.32,.23,.77-.18,.57-.52Z"/>
          <path class="cls-15" d="M51.03,23.66c.04-.15-.14-.26-.26-.16-.56,.47-.88,.98-1.34,1.53-.36,.44-1.04,.71-1.28,1.22-.12,.25,.05,.49,.33,.46,1.44-.17,2.23-1.83,2.55-3.05Z"/>
          <path class="cls-15" d="M44.43,25.12c-.19-.49-.61-.87-.8-1.37-.1-.25-.19-.5-.26-.75-.04-.15-.06-.24-.19-.34-.11-.08-.22,.04-.21,.15,.02,.21-.08,.49-.09,.7-.01,.26,.02,.51,.09,.77,.15,.49,.44,.95,.77,1.33,.33,.38,.85-.06,.69-.48Z"/>
          <path class="cls-15" d="M50.79,32.32c-.84,.17-1.63,.59-2.51,.68-.47,.05-.96,.14-1.43,.15-.42,0-.77-.04-1.16,.12-.36,.14-.18,.66,.15,.69,.53,.05,1,.21,1.54,.17,.46-.03,.96-.06,1.41-.15,.43-.09,.79-.3,1.17-.51,.41-.23,.63-.53,1.01-.79,.18-.12,0-.39-.18-.35Z"/>
          <path class="cls-15" d="M38.79,30.83c-.38-.6-.79-1.19-1.25-1.73-.23-.27-.37-.52-.52-.83-.12-.27-.27-.43-.44-.68-.06-.09-.22-.08-.22,.05-.02,.73-.18,1.19,.25,1.85,.47,.71,.91,1.36,1.59,1.88,.32,.25,.8-.2,.59-.54Z"/>
          <path class="cls-15" d="M48.21,16.35c.12-.54,.34-1.23,.07-1.76-.02-.04-.08-.03-.09,0-.08,.28-.26,.47-.39,.71-.14,.26-.2,.55-.29,.83-.23,.71-.69,1.25-1.06,1.88-.19,.32,.23,.7,.51,.43,.62-.57,1.06-1.27,1.25-2.1Z"/>
          <path class="cls-15" d="M39.1,25.53c-.11-.27-.3-.49-.4-.76-.11-.28-.2-.61-.27-.91-.13-.6,.06-1.28-.12-1.86-.04-.13-.26-.17-.29-.01-.14,.69-.43,1.29-.3,2.03,.05,.31,.1,.71,.22,1,.13,.31,.33,.57,.5,.85,.25,.42,.85,.1,.67-.35Z"/>
          <path class="cls-6" d="M53.96,20.54c.3-.75,.33-1.6,.46-2.39,.02-.09-.12-.19-.17-.08-.34,.71-.56,1.47-.9,2.18-.33,.71-.84,1.31-1.2,2-.2,.38,.31,.7,.56,.36,.47-.63,.96-1.34,1.25-2.07Z"/>
          <path class="cls-6" d="M42.86,19.5c-.04-.84-.17-1.64-.09-2.48,.07-.74,.13-1.47,.2-2.21,.02-.15-.2-.21-.28-.09-.49,.77-.61,1.36-.76,2.27-.13,.81-.2,1.95,.25,2.67,.17,.27,.7,.24,.68-.15Z"/>
          <path class="cls-6" d="M38.38,25.12c-.16-.35-.4-.61-.52-.97-.1-.31-.22-.62-.32-.94-.18-.57-.06-1.21-.28-1.77-.04-.11-.18-.05-.2,.04-.19,1.35-.3,3.09,.93,3.99,.23,.17,.49-.12,.38-.35Z"/>
          <path class="cls-6" d="M54.56,26.02c.11-.21-.17-.39-.31-.2-.68,.91-1.45,1.77-2.29,2.55-.55,.51-1.21,.78-1.78,1.24-.13,.11-.04,.32,.12,.32,2.16,.12,3.44-2.31,4.27-3.91Z"/>
          <path class="cls-6" d="M43.41,29.45c-.25-1.1,.05-2.41,.36-3.47,.03-.12-.12-.24-.22-.14-.49,.52-.64,1.19-.77,1.88-.13,.68-.25,1.29,.07,1.94,.15,.31,.64,.13,.57-.21Z"/>
        </g>
      </g>
      <g>
        <g>
          <path class="cls-13" d="M63.29,54.55c1.4-3,3.17-5.46,3.17-8.9,0-2.91-.68-5.27-3.31-6.88-2.03-1.25-5.36-.28-7.36,.7-3.15,1.54-5.19,3.49-7.35,6.24-2.63,3.35-5.06,6.78-7.19,10.47-.9,1.56-1.61,3.24-2.54,4.78-1.04,1.72-2.25,3.34-3.38,5-4.52,6.6-8.21,13.88-13.05,20.24-5.51,7.24-11.93,13.7-17.32,21.05-.66,.91,.67,1.93,1.38,1.06,4.41-5.4,9.15-10.51,13.66-15.82,4.55-5.36,8.06-11.36,11.79-17.3,3.49-5.56,7.36-10.87,10.41-16.68,1.74-3.31,3.83-6.44,6.09-9.42,2.15-2.83,4.07-5.62,7.2-7.4,1.57-.89,3.16-1.46,4.97-1.67,2-.24,3.93,1.56,4.31,3.52,.77,3.88-.55,7.28-1.95,10.83-.12,.3,.33,.48,.46,.19Z"/>
          <path class="cls-13" d="M63.29,54.55c1.4-3,3.17-5.46,3.17-8.9,0-2.91-.68-5.27-3.31-6.88-2.03-1.25-5.36-.28-7.36,.7-3.15,1.54-5.19,3.49-7.35,6.24-2.63,3.35-5.06,6.78-7.19,10.47-.9,1.56-1.61,3.24-2.54,4.78-1.04,1.72-2.25,3.34-3.38,5-4.52,6.6-8.21,13.88-13.05,20.24-5.51,7.24-11.93,13.7-17.32,21.05-.66,.91,.67,1.93,1.38,1.06,4.41-5.4,9.15-10.51,13.66-15.82,4.55-5.36,8.06-11.36,11.79-17.3,3.49-5.56,7.36-10.87,10.41-16.68,1.74-3.31,3.83-6.44,6.09-9.42,2.15-2.83,4.07-5.62,7.2-7.4,1.57-.89,3.16-1.46,4.97-1.67,2-.24,3.93,1.56,4.31,3.52,.77,3.88-.55,7.28-1.95,10.83-.12,.3,.33,.48,.46,.19Z"/>
          <path class="cls-14" d="M64.41,51.37c1.2-1.89,1.55-4.29,.94-6.5-.05-.17-.32-.16-.32,.03-.04,3.21-1.21,6.1-3.35,8.54-.15,.17,.01,.48,.24,.35,.23-.14,.46-.29,.67-.45-.21,.33-.42,.67-.51,1.03-.04,.17,.15,.3,.29,.18,.85-.75,1.85-1.99,2.04-3.19Z"/>
          <path class="cls-14" d="M63.33,41.07c-1.91-2.51-5.01-1.86-7.5-.49-1.5,.83-2.54,1.92-3.78,3.07-1.31,1.21-2.39,2.28-3.07,3.94-.03,.08,.08,.15,.14,.09,1.8-1.97,3.87-4.08,6.13-5.5,1.04-.65,2.1-1.13,3.29-1.43,1.75-.44,3,.11,4.69,.47,.09,.02,.15-.07,.09-.15Z"/>
          <path class="cls-7" d="M62.75,38.34c-2.58-1.12-6.52,.29-8.41,2.11-.12,.12,.05,.31,.18,.2,1.87-1.57,4.69-2.37,7.08-1.9,1.62,.32,3.02,1.68,3.61,3.23,.33,.85,.33,1.81,.64,2.68,.02,.05,.09,.06,.11,0,.8-2.51-.77-5.26-3.22-6.32Z"/>
        </g>
        <g>
          <path class="cls-4" d="M51.39,66.65c.69-2.14,2.29-3.77,3.34-5.7,.29-.53-.49-1.12-.94-.73-1.62,1.44-3.25,4.18-2.85,6.37,.04,.21,.37,.3,.45,.06Z"/>
          <path class="cls-4" d="M52.3,61.44c.86-1.28,2.15-2.17,2.98-3.44,.4-.61-.26-1.25-.87-.89-1.26,.73-2.42,2-3.13,3.28-.31,.56-.63,1.11-.86,1.71-.18,.47-.14,1.06-.33,1.49-.12,.27,.23,.57,.47,.37,.34-.29,.33-.46,.54-.86,.31-.59,.82-1.1,1.19-1.65Z"/>
          <path class="cls-4" d="M51.95,71.01c.34-1.48,.84-3.14,1.74-4.4,.82-1.15,2.06-1.91,2.81-3.07,.31-.49-.13-1.38-.77-1.03-3.36,1.84-4.22,4.86-4.36,8.42-.01,.38,.5,.45,.59,.08Z"/>
          <path class="cls-4" d="M56.68,70.4c.39-1.22,1.36-2.39,1.45-3.66,.03-.48-.34-.75-.72-.71,.01-.04,.03-.08,.04-.12,.21-.73-.52-1.41-1.2-.94-.75,.51-1.24,1.32-1.75,2.07-.5,.74-1.15,1.51-1.47,2.36-.37,.99-.54,2.48-.04,3.43,.19,.36,.7,.24,.69-.18-.03-.89,1-2.58,1.52-3.28-.39,1.28-.5,2.65-.24,3.81,.04,.16,.25,.31,.39,.17,.75-.72,1.02-2.02,1.32-2.97Z"/>
          <path class="cls-4" d="M63.74,65c-.31-.62-1.39-.63-1.45,.18-.07,1.02-.28,1.98-.54,2.92,.16-.88,.1-1.8-.22-2.65-.29-.78-1.48-.61-1.58,.2-.12,.86,0,1.75-.23,2.59-.22,.83-.75,1.51-1.17,2.25-.29,.51-1.25,2.19-.92,2.84,.1,.2,.36,.2,.46,0,.19-.38,.86-.81,1.14-1.13,.65-.73,1.32-1.5,1.85-2.33,.15-.23,.27-.48,.37-.73-.36,1.14-.77,2.27-1.09,3.45-.09,.35,.38,.44,.58,.24,1.67-1.73,4.05-5.3,2.8-7.83Z"/>
          <path class="cls-4" d="M68.16,68.44c.18-.42,.43-.71,.47-1.18,.05-.53-.17-.97-.35-1.45-.43-1.15-.96-2.25-1.35-3.43-.3-.91-1.6-.47-1.55,.4,.01,.2,.04,.39,.08,.58-.39-.49-1.18-.35-1.32,.33-.28,1.39,.25,2.85,.16,4.25-.07,1.13-.75,2.11-.67,3.24,.02,.32,.41,.35,.59,.16,1.48-1.51,2.21-4.09,1.82-6.29,.5,1.07,1.11,2.1,1.28,3.27,.06,.43,.66,.52,.83,.11Z"/>
          <path class="cls-18" d="M67.43,66.04c.04-.43,.3-.8,.41-1.21,.1-.36,.11-.75,.13-1.12,.03-.66,.11-1.4-.05-2.04-.03-.13-.08-.25-.13-.37,0-.03,.02-.06,.02-.09,.18-.86,.02-1.65-.23-2.46,.15,.25,.27,.5,.34,.75,.08,.3,.55,.21,.58-.07,.14-1.57-.3-2.85-1.41-3.99-.64-.66-1.39-1.04-2.2-1.16-.25-.15-.51-.27-.79-.33-.11-.28-.41-.47-.69-.51-.19-.03-.39-.04-.59-.04-1.01-.91-2.86-1.08-4.11-.63-.56,.2-1.03,.48-1.43,.83-.06,.03-.11,.06-.16,.09-2.5,1.49-3.57,3.52-4.82,6.05-.15,.3,.27,.62,.52,.41,.67-.57,1.27-1.24,1.87-1.9-.35,.55-.64,1.13-.87,1.7-.58,1.01-.7,2-.93,3.32-.06,.33,.43,.55,.62,.26,.22-.34,.45-.68,.68-1.02-.2,.56-.36,1.14-.45,1.71-.34,1.02-.48,2.12-.33,3.28,.07,.53,.84,.53,.93,0,.15-.89,.58-1.84,1.12-2.73,.02,.27,.04,.54,.06,.82-.04,.06-.08,.12-.12,.19-.93,1.61-1.04,3.21-1,4.98,0,.37,.5,.35,.64,.09,.3-.57,.55-1.17,.81-1.76,.12,0,.23-.05,.33-.19,.05-.08,.1-.17,.15-.25,0,.02-.02,.05-.03,.07-.44,1.07-.35,1.87-.48,2.99-.05,.38,.46,.6,.7,.29,.53-.68,.99-1.41,1.42-2.17,.13,.09,.31,.1,.4-.05,.05-.07,.09-.14,.14-.22-.05,.39-.09,.78-.13,1.18-.04,.42,.49,.65,.76,.32,.53-.65,.94-1.43,1.25-2.26,.01-.01,.03-.02,.04-.03,.05-.05,.09-.11,.14-.16-.15,.74-.35,1.49-.56,2.14-.14,.44,.43,.85,.74,.43,.49-.66,.95-1.28,1.32-1.94,.02-.02,.05-.03,.06-.05,.2-.24,.39-.49,.57-.75-.05,.51-.09,1.01-.09,1.51,0,.43,.67,.74,.82,.22,.19-.66,.62-1.2,.8-1.87,.21-.76,.46-1.54,.5-2.33,0-.04,0-.08,0-.12,.08,.45,.17,.9,.1,1.35-.05,.34,.42,.55,.63,.26,.71-.95,.92-2.25,.95-3.46,0-.01,.01-.02,.02-.04,.07,.7,.12,1.39,.26,2.07,.09,.4,.72,.47,.77,0Z"/>
          <path class="cls-8" d="M62.34,54.82c-.38-.78-1.25-1.15-2.08-1.33-1-.21-2.27-.39-3.29-.3-1.87,.17-3.15,1.36-4.11,2.89-.26,.42,.26,.83,.6,.47,.78-.81,2.66-1.51,3.78-1.51,.74,0,1.53,.24,2.26,.33,.69,.08,1.28,.47,1.97,.55,.57,.06,1.13-.53,.86-1.1Z"/>
          <path class="cls-15" d="M54.27,63.61c.87-1.04,2.11-1.62,2.85-2.77,.31-.48-.11-1.17-.7-.93-1.37,.56-2.66,1.78-3.46,3.01-.85,1.32-.86,2.69-1.15,4.17-.06,.29,.35,.36,.48,.13,.64-1.22,1.08-2.53,1.97-3.61Z"/>
          <path class="cls-15" d="M57.13,58.55c.61-.67-.12-1.41-.83-1.35,.07-.03,.14-.05,.2-.08,.56-.24,.51-.96,0-1.23-1.11-.58-2.42,.29-3.36,.85-.73,.43-1.65,1.46-1.27,2.4,.08,.19,.32,.25,.48,.14,.57-.4,1.05-.91,1.71-1.21,.55-.25,1.12-.44,1.68-.65-2.07,1.22-4.93,3.61-4.18,6.33,.07,.27,.52,.34,.66,.09,.49-.83,1.21-1.68,1.8-2.45,.86-1.13,2.15-1.8,3.11-2.84Z"/>
          <path class="cls-15" d="M53.97,69.65c.83-2.25,2.05-4.33,3.93-5.84,.52-.42,.22-1.38-.51-1.26-2.87,.47-3.97,4.45-4.27,6.87-.06,.49,.67,.71,.85,.23Z"/>
          <path class="cls-15" d="M58.77,70.21c.39-1.05,.93-2.42,.98-3.55,.03-.84-1.09-1.22-1.46-.39-.48,1.07-.77,2.15-.96,3.31-.08,.51-.31,.96-.42,1.47-.09,.44,.05,.78,0,1.21-.02,.23,.32,.43,.46,.19,.44-.75,1.1-1.43,1.4-2.24Z"/>
          <path class="cls-15" d="M63.77,64.52c-.19-.82-1.56-1.01-1.61,0-.06,1.13,.08,2.25-.06,3.39-.14,1.04-.47,2.05-.62,3.1-.05,.35,.37,.45,.58,.24,1.68-1.69,2.25-4.44,1.71-6.72Z"/>
          <path class="cls-15" d="M66.85,66.15c.08-1.5-.19-3.26-1.67-4-.35-.17-.89,.11-.89,.51,0,.63,.22,1.03,.43,1.61,.23,.64,.24,1.29,.24,1.96,0,1.15-.07,2.35,.13,3.49,.04,.21,.24,.34,.44,.26,1.21-.47,1.26-2.75,1.32-3.83Z"/>
          <path class="cls-15" d="M66.8,57.73c-.79-.53-1.85,.38-1.24,1.21,.85,1.15,1.72,2,2.22,3.4,.21,.6,.26,2,.83,2.37,.15,.1,.39,.11,.5-.06,1.46-2.38-.26-5.55-2.31-6.91Z"/>
          <path class="cls-15" d="M62.88,54.23c-1.63-1.34-3.25-2.12-5.37-2.14-.83-.01-1.67,.1-2.46,.36-.21,.07-1.74,1.19-1.34,1.19-.22,0-.41,.23-.25,.43,.01,.01,.02,.03,.03,.04,.09,.11,.22,.14,.35,.1,1.4-.45,2.86-.57,4.32-.26,.69,.15,1.42,.33,2.02,.67,.79,.44,1.2,.85,2.13,.97,.76,.1,1.15-.88,.57-1.36Z"/>
          <path class="cls-15" d="M70.23,60.11c.44-1.21-.46-2.65-1.3-3.48-1.25-1.24-3.24-2.31-5.02-2.15-.78,.07-1.02,1.35-.21,1.58,1.24,.36,2.35,.86,3.45,1.54,.63,.38,2.27,1.63,2.42,2.42,.06,.32,.54,.44,.67,.09Z"/>
          <path class="cls-18" d="M67.43,66.04c.04-.43,.3-.8,.41-1.21,.1-.36,.11-.75,.13-1.12,.03-.66,.11-1.4-.05-2.04-.03-.13-.08-.25-.13-.37,0-.03,.02-.06,.02-.09,.18-.86,.02-1.65-.23-2.46,.15,.25,.27,.5,.34,.75,.08,.3,.55,.21,.58-.07,.14-1.57-.3-2.85-1.41-3.99-.64-.66-1.39-1.04-2.2-1.16-.25-.15-.51-.27-.79-.33-.11-.28-.41-.47-.69-.51-.19-.03-.39-.04-.59-.04-1.01-.91-2.86-1.08-4.11-.63-.56,.2-1.03,.48-1.43,.83-.06,.03-.11,.06-.16,.09-2.5,1.49-3.57,3.52-4.82,6.05-.15,.3,.27,.62,.52,.41,.67-.57,1.27-1.24,1.87-1.9-.35,.55-.64,1.13-.87,1.7-.58,1.01-.7,2-.93,3.32-.06,.33,.43,.55,.62,.26,.22-.34,.45-.68,.68-1.02-.2,.56-.36,1.14-.45,1.71-.34,1.02-.48,2.12-.33,3.28,.07,.53,.84,.53,.93,0,.15-.89,.58-1.84,1.12-2.73,.02,.27,.04,.54,.06,.82-.04,.06-.08,.12-.12,.19-.93,1.61-1.04,3.21-1,4.98,0,.37,.5,.35,.64,.09,.3-.57,.55-1.17,.81-1.76,.12,0,.23-.05,.33-.19,.05-.08,.1-.17,.15-.25,0,.02-.02,.05-.03,.07-.44,1.07-.35,1.87-.48,2.99-.05,.38,.46,.6,.7,.29,.53-.68,.99-1.41,1.42-2.17,.13,.09,.31,.1,.4-.05,.05-.07,.09-.14,.14-.22-.05,.39-.09,.78-.13,1.18-.04,.42,.49,.65,.76,.32,.53-.65,.94-1.43,1.25-2.26,.01-.01,.03-.02,.04-.03,.05-.05,.09-.11,.14-.16-.15,.74-.35,1.49-.56,2.14-.14,.44,.43,.85,.74,.43,.49-.66,.95-1.28,1.32-1.94,.02-.02,.05-.03,.06-.05,.2-.24,.39-.49,.57-.75-.05,.51-.09,1.01-.09,1.51,0,.43,.67,.74,.82,.22,.19-.66,.62-1.2,.8-1.87,.21-.76,.46-1.54,.5-2.33,0-.04,0-.08,0-.12,.08,.45,.17,.9,.1,1.35-.05,.34,.42,.55,.63,.26,.71-.95,.92-2.25,.95-3.46,0-.01,.01-.02,.02-.04,.07,.7,.12,1.39,.26,2.07,.09,.4,.72,.47,.77,0Z"/>
          <path class="cls-15" d="M55.87,70.1c.11-.37,.34-.67,.47-1.03,.18-.47,.25-.91,.54-1.35,.48-.72,1.14-1.23,1.37-2.1,.13-.49-.59-.71-.87-.36-1.13,1.38-2.51,2.89-1.89,4.84,.05,.16,.33,.17,.38,0Z"/>
          <path class="cls-15" d="M60.86,69.25c.33-.87,.55-1.76,.55-2.69,0-.72-1.17-.7-1.25,0-.18,1.52-.37,2.91-1.1,4.27-.11,.21,.2,.46,.38,.29,.61-.57,1.13-1.07,1.43-1.87Z"/>
          <path class="cls-15" d="M65.4,65.54c.05-.9,.05-2.08-.35-2.9-.26-.52-1.09-.5-1.17,.15-.22,1.7,.28,3.42-.13,5.13-.06,.24,.25,.37,.42,.25,.81-.56,1.19-1.67,1.23-2.62Z"/>
          <path class="cls-15" d="M67.32,62.82c.07-.25,.17-.48,.21-.75,.08-.62,0-1.28-.44-1.74-.37-.39-1.12-.21-1.04,.42,.07,.47,.14,.94,.26,1.4,.1,.39,.19,.83,.39,1.17,.05,.09,.21,.13,.3,.08,.26-.13,.26-.33,.33-.58Z"/>
          <path class="cls-15" d="M55.54,61.17c.41-.79,1.13-1.42,1.41-2.27,.19-.57-.4-1.01-.9-.7-.77,.48-1.37,1.5-1.68,2.34-.15,.41-.28,.88-.3,1.32-.02,.43,.19,.76,.24,1.17,.01,.09,.14,.13,.2,.05,.45-.59,.69-1.25,1.03-1.91Z"/>
          <path class="cls-15" d="M59.35,62.26c.51-.79,1.27-1.38,1.59-2.28,.21-.57-.42-1.06-.92-.72-1.46,1-2.45,3.04-2.22,4.8,.03,.24,.33,.31,.48,.13,.47-.55,.68-1.32,1.07-1.93Z"/>
          <path class="cls-15" d="M65.47,60.41c.24-.7,.59-1.69,.01-2.32-.24-.26-.74-.38-.97-.01-.35,.55-.38,1.3-.49,1.94-.1,.63-.29,1.26-.31,1.89,0,.25,.29,.52,.52,.31,.57-.52,.98-1.07,1.23-1.81Z"/>
          <path class="cls-15" d="M60.16,65.01c-.02-.71-.97-.68-1.24-.17-.37,.7-.48,1.5-.82,2.21-.36,.74-.58,1.53-.93,2.27-.07,.14,.12,.28,.24,.19,1.35-1.07,2.82-2.65,2.76-4.51Z"/>
          <path class="cls-15" d="M55.18,66.61c.35-.73,.63-1.47,.91-2.22,.27-.73,.74-1.34,.82-2.14,.05-.55-.67-.9-1.02-.43-1.01,1.35-1.26,2.99-1.32,4.62-.01,.36,.45,.5,.61,.16Z"/>
          <path class="cls-4" d="M63.06,65.38c-.05-.2-.38-.3-.53-.15-.84,.82-.91,2.23-1.48,3.24-.13,.23,.22,.5,.41,.32,.9-.84,1.95-2.06,1.6-3.41Z"/>
          <path class="cls-4" d="M56.9,69.12c.27-.65,.56-1.32,.76-1.99,.21-.72,.61-1.36,.75-2.09,.11-.52-.61-.76-.92-.38-1.05,1.27-.76,2.85-1.01,4.35-.04,.25,.33,.34,.42,.11Z"/>
          <path class="cls-4" d="M55.09,63.73c.4-.73,.97-1.34,1.32-2.11,.19-.42-.37-.88-.73-.57-.63,.53-1.19,1.28-1.47,2.05-.21,.59-.19,1.1-.29,1.7-.03,.19,.2,.32,.36,.21,.42-.31,.57-.84,.81-1.28Z"/>
          <path class="cls-4" d="M65.65,64.57c.14-.44,.39-.82,.52-1.27,.11-.35,.17-.73,.24-1.09,.14-.75,.13-1.52-.22-2.21-.25-.49-1.07-.49-1.14,.14-.15,1.42-.05,2.93,.05,4.35,.02,.28,.46,.35,.55,.07Z"/>
          <path class="cls-4" d="M61.96,64.28c.17-.25,.3-.52,.4-.81,.21-.64,.27-1.29,.27-1.96,0-.73-1.12-.91-1.15-.15-.03,.75-.07,1.5-.2,2.24-.06,.31-.34,.96-.1,1.23,.11,.13,.33,.12,.4-.05,.07-.17,.29-.33,.39-.49Z"/>
          <path class="cls-4" d="M55.75,57.66c.3-.28,.65-.43,.92-.74,.3-.36-.03-1.05-.53-.93-.88,.22-1.45,.83-1.94,1.56-.53,.81-.64,1.58-.85,2.48-.04,.17,.19,.28,.31,.18,.56-.45,.89-1.13,1.34-1.68,.23-.29,.48-.63,.75-.88Z"/>
          <path class="cls-3" d="M55.51,68.15c.21-.64,.38-1.25,.57-1.89,.29-.98,.89-1.73,1.28-2.65,.21-.5-.42-1.01-.86-.67-1.54,1.22-1.72,3.37-1.39,5.16,.03,.18,.33,.26,.39,.05Z"/>
          <path class="cls-3" d="M56.62,58.14c.42-.29,.6-.46,.71-.96,.07-.29-.24-.54-.51-.51-2.23,.26-3.62,2.97-3.4,5,.02,.19,.29,.27,.4,.11,.54-.78,.87-1.65,1.46-2.4,.43-.55,.75-.85,1.33-1.25Z"/>
          <path class="cls-3" d="M60.44,66.94c.31-.66,.69-1.72,.23-2.38-.33-.47-.94-.1-.94,.38,.02,1.33-.88,2.45-.93,3.75,0,.15,.2,.22,.26,.07,.11-.26,.48-.5,.66-.71,.28-.34,.52-.69,.72-1.1Z"/>
          <path class="cls-3" d="M66.51,62.04c.29-.53,.61-.97,.78-1.56,.14-.5,.26-1.07,.22-1.59-.06-.8-.26-1.64-.67-2.34,.3,.18,.6,.35,.87,.51,.21,.12,.5,0,.47-.27-.22-1.77-2.39-3.28-4.36-3.55-.64-.66-1.8-.99-2.53-1.19-.67-.18-1.43-.26-2.13-.32-.69-.05-1.09,.26-1.71,.35-.26,.03-.27,.42,0,.46,.33,.05,.67,.13,1.01,.23-.3,.02-.6,.06-.87,.12-1.85,.4-2.79,1.71-3.74,3.2-.16,.25,.1,.5,.35,.36,1.05-.6,2.02-1.47,3.19-1.84-.08,.04-.16,.08-.23,.13-.56,.36-.74,.67-.99,1.27-.11,.26,.21,.51,.44,.34,.5-.38,1.37-.58,2.13-.63-.16,.15-.31,.31-.43,.48-.32,.46-.32,.93-.51,1.43-.03,.08-.02,.15,.02,.21-.23,.27-.43,.57-.59,.87-.2,.37-.35,.77-.42,1.19-.08,.44,.07,.72,.14,1.14,.03,.17,.29,.28,.4,.11,.35-.54,.62-1.14,1.02-1.65,.23-.3,.53-.56,.8-.85-.01,.18-.01,.36,0,.54,.02,.21,.25,.35,.45,.26,.79-.33,1.2-1.37,1.77-1.99,.18-.19,.36-.4,.56-.56-.01,.07-.02,.15-.03,.22-.08,.65-.13,1.3-.23,1.95-.25-.21-.68-.27-.89,.05-.34,.54-.29,1.19-.43,1.8-.19,.85-.46,1.67-.62,2.53-.06,.31,.36,.37,.49,.13,.26-.47,.72-.79,.99-1.26,.22-.38,.42-.81,.56-1.22,.14-.42,.3-.92,.24-1.37,.15,0,.31-.06,.38-.22,.2-.45,.43-.88,.67-1.32,0,.08,.01,.16,.02,.23,.03,.36,.05,.73,.09,1.09,.03,.29,.14,.6,.14,.9-.07-.03-.15-.06-.24-.07-.27-.04-.56,.17-.58,.45-.03,.31,.09,.58,.13,.88,.05,.36,0,.71,.02,1.07,.03,.63,.13,1.31,.02,1.94-.03,.18,.19,.29,.33,.19,.68-.51,.68-1.45,.82-2.22,.09-.48,.19-1.24-.03-1.76,.06-.02,.12-.05,.17-.11,.31-.36,.48-.78,.58-1.22,.12,.19,.48,.2,.57-.05,.17-.47,.31-.9,.39-1.34,.12,.31,.24,.61,.33,.92,.11,.39,.08,.79,.09,1.19,.02,.54,.11,1.08,.09,1.61-.01,.31,.37,.41,.52,.14Z"/>
          <path class="cls-12" d="M58.45,60.48c.16-.54,.6-1.11,.88-1.61,.3-.54,.83-.97,1.04-1.54,.15-.4-.23-.75-.62-.63-1.26,.39-2.23,2.56-1.65,3.77,.06,.13,.3,.17,.34,0Z"/>
          <path class="cls-12" d="M66.12,57.61c.33-.93,.26-1.76-.35-2.59-.33-.44-.71-.86-1.16-1.14,.05-.02,.1-.03,.15-.05,.24-.08,1.58-.16,1.3-.73-.33-.67-1.33-.71-1.96-.56-.28,.07-.58,.14-.86,.24-.09-.08-.18-.15-.29-.24-.47-.36-.86-.82-1.42-1.06-.7-.3-2.08-.28-2.29,.66-.04,.19,.17,.3,.32,.25,.28-.08,.58,0,.86,.14-.39,.06-.77,.17-1.19,.28-.75,.18-1.39,.72-1.75,1.42-.12,.24,.2,.43,.39,.31,.25-.17,.7-.24,.99-.35,.33-.12,.7-.09,1.04-.13,.28-.03,.5-.1,.75-.1-.08,.09-.17,.2-.25,.31-.62-.1-1.21,.24-1.79,.57-.79,.46-1.12,1.16-1.31,2.03-.04,.17,.17,.32,.32,.25,.61-.3,1.05-.8,1.7-1.01,.18-.06,.39-.11,.59-.17,.06,.07,.14,.1,.24,.1,.49-.03,.86-.47,1.2-.78-.02,.12-.04,.24-.07,.35-.13,.54-.4,1.11-.41,1.67,0,.23,.18,.39,.41,.32,.34-.11,.5-.39,.72-.65,.22-.26,.4-.49,.55-.79,.06,.07,.11,.15,.17,.22,.08,.11,.23,.26,.27,.38,.02,.07,.07,.12,.12,.17-.09,.02-.18,.08-.25,.16-.46,.54-.4,1.27-.63,1.9-.18,.52-.42,1.09-.48,1.65-.03,.26,.29,.37,.45,.19,.22-.24,.47-.4,.68-.64,.26-.31,.49-.65,.67-1.02,.29-.57,.54-1.54,.08-2.07-.04-.04-.08-.07-.12-.1,.12-.03,.22-.11,.27-.23,.13-.32,.16-.68,.13-1.05,.11,.09,.22,.17,.32,.27,.46,.45,1.04,1,1.29,1.61,.1,.24,.49,.27,.58,0Z"/>
          <path class="cls-1" d="M64.78,57.74c.09-.36,.36-.6,.41-.99,.04-.33,.04-.69-.01-1.02-.12-.67-.54-1.45-1.1-1.88,.16-.78-.52-1.46-1.1-1.89-.29-.21-.59-.56-.97-.6-.26-.02-.54,.12-.55,.41,0,.14,.05,.25,.18,.31-.13-.06-.07-.07-.03,.06,.03,.09,.09,.17,.14,.25,.05,.08,.1,.16,.15,.23-.18-.03-.36-.05-.53-.05-.46,0-1.64-.04-1.68,.62,0,.12,.07,.23,.19,.25,.44,.07,.9,.2,1.33,.34,.23,.08,.44,.22,.64,.36-.03,.04-.07,.09-.1,.13-.3,.37-.42,.77-.58,1.21-.14,.38,.33,.62,.6,.35,.29-.3,.59-.57,.93-.82,.18-.13,.34-.25,.47-.39,.12,.51,.52,.9,.75,1.41,.24,.55,.17,1.12,.3,1.68,.08,.32,.49,.33,.57,0Z"/>
          <path class="cls-1" d="M62.31,56.55c-.18-.1-.39,0-.52,.14-.27,.29-.47,.71-.68,1.05-.21,.34-.41,.69-.6,1.05-.11,.21,.18,.4,.35,.27,.45-.33,2.56-1.91,1.45-2.5Z"/>
          <path class="cls-1" d="M59.67,54.03c-1.2-.19-2.44,.34-3.05,1.4-.08,.13,.12,.25,.22,.18,.18-.13,.43-.17,.63-.27,.25-.12,.48-.25,.74-.34,.5-.17,1.05-.12,1.52-.35,.28-.14,.25-.56-.08-.61Z"/>
          <path class="cls-15" d="M63.93,57c-.33-.16-.67,.22-.54,.54,.21,.55-.03,1.02-.21,1.55-.08,.25-.24,.48-.32,.72-.07,.22-.04,.4-.16,.62-.09,.16,.14,.3,.27,.21,.81-.6,2.46-2.92,.97-3.64Z"/>
          <path class="cls-15" d="M60.8,55.46c-.53-.12-1.21,.19-1.66,.46-.61,.36-.81,.77-1.09,1.38-.05,.12,.1,.24,.2,.16,.41-.33,.87-.65,1.35-.86,.42-.18,.88-.23,1.29-.41,.37-.16,.27-.65-.09-.73Z"/>
          <path class="cls-15" d="M64.74,53.82c-.34-.22-.88,.2-.55,.54,.4,.42,.88,.83,1.22,1.3,.15,.2,.6,.8,.52,1.06-.08,.23,.25,.47,.39,.23,.69-1.19-.66-2.53-1.57-3.13Z"/>
        </g>
        <path class="cls-14" d="M29.23,79.87c2.45-4.06,4.97-8.07,7.14-12.29,.04-.07-.06-.13-.1-.07-2.84,3.7-5.41,7.5-7.9,11.43-1.14,1.79-2.18,3.47-3.48,5.15-.97,1.24-2.03,2.39-2.88,3.71-4.52,7.02-11.48,12.08-15.73,19.26-.29,.5,.43,.96,.76,.48,4.67-6.88,11.2-12.25,15.86-19.18,.96-1.42,2.08-2.77,3.2-4.06,1.25-1.44,2.16-2.8,3.14-4.43Z"/>
        <path class="cls-7" d="M40.36,61.4c-.18-.19-.46-.27-.7-.35-.1-.03-.2-.08-.29-.11,.71-1,1.23-2.11,1.77-3.21,.78-1.58,1.79-2.98,2.78-4.44,1.58-2.32,3.55-4.47,4.72-7.04,.02-.05-.06-.1-.09-.06-.9,1.02-1.87,1.77-2.7,2.9-.9,1.24-1.7,2.54-2.47,3.86-1.55,2.67-3.13,5.28-4.55,8.03-.02,.03-.02,.06-.03,.09-.06,.05-.13,.1-.16,.15-.07,.11-.07,.27-.11,.4-.05,.13,.13,.19,.21,.09,.07-.08,.06-.1,.13-.12,.08-.02,.16,0,.24-.03,.01,.01,.03,.03,.04,.04,.07,.05,.14,.08,.21,.11,.12,.05,.25,.1,.36,.18,0,0,.1,.09,.07,.06,.04,.04,.23,.33,.08,.09,.1,.17,.31,.22,.47,.08,.24-.2,.22-.52,.01-.73Z"/>
        <path class="cls-14" d="M37.65,66.06c.69-1.05,1.66-2.03,2.19-3.17,.31-.68,.49-.94-.37-1.36-.15-.08-.35-.09-.48,.04-.03,.03-.06,.06-.1,.1-.1,.1-.1,.24-.02,.35,.25,.34,.3,.2,.24,.57-.08,.45-.75,1.11-1.02,1.5-.71,1.03-1.37,1.99-1.99,3.09-.87,1.54-1.92,2.95-2.92,4.4-.61,.87-.93,2.03-1.56,2.86-.13,.17,.12,.34,.27,.23,.95-.71,1.7-2.15,2.37-3.12,1.22-1.76,2.23-3.68,3.4-5.47Z"/>
        <path class="cls-16" d="M41.21,60.36c.12-.22,.22-.45,.33-.68,.02-.03,.03-.07,.05-.1,.11-.22,.21-.43,.31-.65,.07-.15,.14-.29,.21-.44,0-.02,0-.04,0-.05,.11-.26,.23-.52,.35-.78,.32-.58,.67-1.15,1-1.73,.02-.04-.03-.08-.06-.05-1.28,1.4-2.43,3.27-3.1,5.06,0,0,0,0,0,.01-.02,.04-.04,.08-.06,.12-.05-.04-.11-.08-.17-.11-.14-.07-.28-.1-.42,0-.03,.02-.04,.07,0,.09,.18,.1,.34,.15,.48,.31,.07,.08,.13,.2,.25,.22,.08,.01,.14-.03,.2-.09,.33-.22,.47-.79,.64-1.12Z"/>
      </g>
    </g>
  </g>
</svg>