<?xml version="1.0" encoding="UTF-8"?>
<svg id="Layer_2" data-name="Layer 2" xmlns="http://www.w3.org/2000/svg" viewBox="0 0 102.24 139.22">
  <defs>
    <style>
      .cls-1 {
        fill: #f6a420;
      }

      .cls-2 {
        fill: #fee262;
      }

      .cls-3 {
        fill: #506035;
      }

      .cls-4 {
        fill: #59743b;
      }

      .cls-5 {
        fill: #f7e7b7;
      }

      .cls-6 {
        fill: #344025;
      }

      .cls-7 {
        fill: #d9b152;
      }

      .cls-8 {
        fill: #708c50;
      }

      .cls-9 {
        fill: #edd584;
      }

      .cls-10 {
        fill: #c2892b;
      }

      .cls-11 {
        fill: #7b7c43;
      }

      .cls-12 {
        fill: #fefad6;
      }

      .cls-13 {
        fill: #fffdea;
      }

      .cls-14 {
        fill: #8f3a1e;
      }

      .cls-15 {
        fill: #b4c788;
      }

      .cls-16 {
        fill: #485a33;
      }

      .cls-17 {
        fill: #c65027;
      }
    </style>
  </defs>
  <g id="_Ådalen_Gård_sommerhonning" data-name="Ådalen Gård, sommerhonning">
    <g>
      <g>
        <path class="cls-10" d="M79.42,7.91c-2.78,1.25-4.49,6.28-3.29,9,.23,.51,1.15,.42,1.04-.22-.46-2.64,.41-6.7,2.35-8.64,.06-.06-.02-.18-.1-.15Z"/>
        <g>
          <path class="cls-5" d="M95.83,1.67c-2.23-2.55-8.48-1.66-11.25-.7-4.37,1.52-6.73,5.33-8.09,9.56-1.19,3.72-.74,8.54,3.78,9.53,1.59,.35,3.19,.07,4.69-.57,2.92-.49,5.53-2.14,7.48-4.68,1.48-1.92,2.49-4.17,3.17-6.49,.55-1.88,1.71-4.95,.21-6.66Z"/>
          <path class="cls-9" d="M94.32,9.76c-1.75,2.3-3.62,4.53-6.13,6.05-1.77,1.07-3.53,1.09-5.33,1.1,.87-.55,1.71-1.17,2.54-1.72,1.1-.74,.49-2.4-.64-2.5,1.47-1.48,3.05-2.85,4.53-4.38,.16-.16-.04-.39-.23-.34-.48,.14-.96,.31-1.43,.5,2.04-1.5,3.97-3.1,5.12-5.33,.1-.2-.16-.34-.3-.2-3.41,3.22-8.2,4.62-11.71,7.4,.26-.9,.55-1.8,.88-2.69,.08-.23,.04-.45-.06-.65,1.78-2.55,4.41-4.55,7.89-6.2,.11-.05,.12-.23-.02-.25-8.89-1.31-15.68,8.98-12.6,16.96,.25,.65,.88,.78,1.37,.57,.06,0,.12-.02,.18-.03-.16,.62,.35,1.2,.93,1.38,3.09,.96,6.93,.72,9.69-1.02,3-1.9,4.37-5.23,5.76-8.35,.12-.27-.25-.56-.45-.3Z"/>
          <path class="cls-7" d="M90.76,16.01c-1.63,.92-3.55,1.56-5.43,1.58-1.29,.01-2.55-.25-3.84-.3,.08-.11,.17-.22,.25-.34,.47-.68,.93-1.36,1.21-2.14,.12-.34-.07-.82-.51-.75-.14,.02-.27,.06-.38,.11,.38-.57,.81-1.12,1.38-1.68,1.35-1.34,2.66-2.71,3.92-4.13,.12-.13-.05-.3-.2-.22-2.67,1.46-6.01,3.01-7.79,5.6,.09-.45,.18-.89,.3-1.33,.32-1.23,.82-2.38,1.22-3.59,.07-.21-.22-.37-.38-.25-.39,.29-.75,.63-1.09,1,.11-.45,.23-.89,.34-1.29,1.22-2.43,3.26-4.55,5.28-6.65,.14-.15-.03-.42-.23-.34-4.38,1.84-8.71,6.09-8.64,10.91-.7,2.31-.05,5.3,1.67,6.91,1.8,1.69,4.14,1.26,6.33,.52,.77,.03,1.55-.05,2.35-.33,1.67-.59,3.3-1.7,4.53-2.97,.19-.2-.09-.46-.3-.34Z"/>
          <path class="cls-10" d="M83.95,11.11c-2.74,1.13-5.5,3.84-5.89,6.91-.09,.73,.85,1.06,1.22,.41,.72-1.27,1.18-2.64,1.99-3.87,.79-1.19,1.77-2.31,2.76-3.33,.05-.06-.01-.16-.09-.13Z"/>
          <path class="cls-12" d="M96.02,4.62c.24-.39,.4-.78,.36-1.32-.05-.67-.37-1.27-.83-1.75-.17-.25-.39-.43-.64-.54-1.27-.85-3.26-1.18-4.56-.39-.31,.19-.3,.75,.06,.88,.2,.07,.4,.11,.6,.15-.09,.03-.17,.07-.26,.1-2.71,1.03-5.72,2.64-6.87,5.48-.07,.17,.11,.34,.27,.23,1.84-1.21,3.39-2.46,5.51-3.2,1.07-.37,2.16-.64,3.24-.97,.15-.05,.48-.2,.8-.32,0,0,0,.01,.02,.02,.3,.13,.21,.64,.01,1.2-.16-.02-.32,.02-.47,.16-.6,.61-1.17,1.31-1.76,1.98-.85,.7-1.69,1.42-2.35,2.25h0c-.35,.43-.08,1.21,.56,1.13,.61-.08,1.21-.26,1.8-.52-1.1,1.83-2.44,3.51-4.02,4.93-.44,.4,.21,1.1,.68,.77,3.51-2.41,6.09-5.29,7.85-9.19,.19-.41,.14-.79-.01-1.1Z"/>
          <path class="cls-13" d="M96.14,3.46c-.02-.76-.48-1.3-1.04-1.46-.49-.44-.96-.72-1.62-.93-.58-.18-.76,.75-.18,.93,.17,.11,.35,.23,.52,.34-.02,.02-.04,.02-.05,.04-.49,.48,.13,1.37,.75,1.11,.06-.03,.1-.05,.15-.07-.06,.09-.2,1.34-.24,1.49-.12,.41-.25,.82-.39,1.23-.31,.93-.66,1.84-1.1,2.72-.14,.27,.23,.51,.43,.29,1.28-1.37,2.82-3.72,2.77-5.68Z"/>
        </g>
        <path class="cls-11" d="M86.47,19c-1.03-.25-7.14,.95-7.59,.75-.13-.89-.4-1.77-.43-2.68-.03-1.17,.26-2.3,.36-3.46,.02-.2-.22-.35-.37-.18-.54,.61-1.23,1-1.69,1.68-.05,.08-.1,.17-.15,.25,0-.02,0-.05,0-.07,.1-1.44,.19-2.92,.36-4.35,.02-.17-.21-.32-.33-.16-1.44,1.88-2.74,3.55-2.82,6.06-.03,1.05,.16,2.14,.7,2.99-.53,1.05-1.05,2.05-1.75,3.04-5.76,5.36-9.85,12.5-12.36,19.89-.12,.36,.39,.63,.54,.27,3.09-7.79,7.85-13.96,13.68-19.64,.85-.53,1.77-.74,2.71-1.02,.9,.32,2.05,.33,2.88,.22,2.6-.34,4.21-1.59,6.38-2.89,.3-.18,.16-.61-.14-.68Z"/>
        <path class="cls-3" d="M84.76,20.37c-2.42,1.54-5.51,.21-8.14,1.11-1.83,.63-3.17,1.64-4.03,3.38-.09,.19,.18,.39,.31,.21,3-4.12,9.09-.45,12.1-4.43,.12-.16-.06-.39-.24-.27Z"/>
        <path class="cls-3" d="M77.56,14.55c-1.41,1.15-2.37,3.05-2.15,4.89,.08,.64,1.01,.72,1.15,.06,.34-1.65,.6-3.18,1.23-4.75,.05-.13-.1-.31-.23-.2Z"/>
      </g>
      <g>
        <path class="cls-16" d="M34.48,116.08c.85-1.56,1.59-3.17,2.23-4.8,.61-1.13,1.24-2.25,1.87-3.37,.96-1.71,2.46-3.04,3.26-4.82,.04-.1-.07-.18-.16-.13-1.15,.79-2.24,1.78-3.2,2.9,.97-3.62,1.59-7.34,2.04-11.11,.86-7.23,.77-14.91,2.82-21.95,.74-1.62,1.48-3.27,2.8-4.48,1.45-1.34,3.11-2.1,4.77-3.1,.19-.12,.04-.39-.15-.38-2.43,.15-4.38,1.51-5.8,3.36,2.46-6.36,5.33-12.6,7.16-19.18,.05-.18-.22-.22-.3-.08-3.94,6.97-7.35,14.84-10,22.39-.6,1.72-1.05,3.49-1.39,5.3-.43-1.72-1.12-3.36-2.01-4.77-.08-.13-.25,0-.22,.12,.89,3.44,1.26,6.66,1.46,10.13-.4,3.92-.58,7.88-1.03,11.68-.94,7.99-2.67,15.51-6.65,22.57-.72,1.28-1.39,2.56-2.01,3.83-.3-.32-.6-.63-.9-.95-.09-.09-.18-.1-.27-.06-.81-1.39-1.92-2.45-2.84-3.8-.09-.13-.28-.01-.23,.13,.5,1.58,1.58,2.88,2.17,4.43,.41,1.08,.62,1.96,.47,3.11-.04,.33-.1,.65-.14,.96-1.87,4.54-3.11,9.23-3.47,14.42-.06,.88,1.26,1.09,1.38,.2,1.09-8.39,4.37-15.25,8.36-22.57Z"/>
        <g>
          <path class="cls-8" d="M37.35,84.84c-.1-.38-.62-.4-.84-.15-.03,.03-.05,.07-.08,.09,1.46-7.25-1.79-15.27-6.66-20.75-.23-.25-.77-.25-.8,.18-.03,.39-.04,.76-.02,1.12-2.75-4.3-6.67-7.98-10.79-10.56-.52-.32-.92,.4-.68,.82,.09,.15,.17,.3,.24,.44-1.17-.75-2.33-1.52-3.46-2.33-1.21-1.16-2.36-2.39-3.36-3.77-.26-.36-.84-.23-.92,.2-.03,.15-.04,.3-.06,.45,0,.02-.01,.04,0,.06-.28,2.96,1.51,6.32,.48,9.12-.13-.22-.27-.44-.44-.66-.37-.48-1-.16-1.02,.37-.1,2.12-1.28,3.9-2.22,5.74-.89,1.74-1.72,3.53-2.44,5.34-.39,.96-.65,1.88-.8,2.77-.17-.33-.33-.66-.51-1-.18-.35-.66-.41-.85-.03-3.93,7.73-1.98,17.78,3.08,24.85-.7-.47-1.45-.89-2.27-1.23-.4-.17-.75,.2-.64,.59,1,3.69,5.14,6.55,8.35,8.25,2.97,1.57,6.16,2.5,9.2,3.83,1.14,.66,2.21,1.4,3.1,2.36,.59,1.56,1.3,3.08,2.18,4.54,.1,.17,.25,.21,.39,.19,.58,.89,1.21,1.72,1.76,2.48,.26,.34,.89,.05,.69-.37-.75-1.52-1.77-2.93-2.45-4.47-.98-2.2-.32-4.07,.96-5.98,1.66-2.47,3.69-4.69,5.57-7,1.76-2.17,3.45-4.43,4.61-6.98,1.32-2.88,1.56-5.47,.73-8.54Z"/>
          <path class="cls-4" d="M33.6,77.85c.06-.29-.33-.47-.52-.24-2.36,2.89-4.21,6.15-6.6,9.04-.46,.55-.28,1.39,.2,1.85-.02,.06-.05,.12-.07,.18-.05-.16-.11-.31-.19-.45-.23-.37-.47-.62-.72-.76,.56-1.49,1.12-2.98,1.67-4.48,.47-1.29,1.16-2.77,.73-4.18-.31-.99-.85-1.49-1.51-1.66,.71-1.51,1.18-2.57,.72-4.31-.15-.58-.74-.82-1.28-.74,.35-1.9,.74-3.76,.55-5.78-.04-.39-.69-.45-.72-.03-.05,.82-.19,1.63-.39,2.43-.08-.33-.17-.66-.28-.99-.27-.8-1.42-1-1.95-.33-.18,.23-.33,.45-.48,.66-1.57-4.11-4.66-11.23-6.95-8.48-1.84-2.25-3.54-4.61-4.67-7.38-.1-.23-.41-.1-.36,.13,.11,.44,.24,.86,.37,1.28-.04,.04-.07,.1-.04,.16,.6,1.43,1.05,2.89,1.39,4.36,.35,1.63,.7,3.59,.41,3.54-.49-.08-1.07,.34-.97,.89,.46,2.66,1.13,5.28,1.72,7.91,.01,.07,.03,.13,.04,.2,.03,.96,.06,1.92,.11,2.88-.36,.47-.82,.43-1.38-.13-.28,.03-.8-.05-1.17-.09-1.27-2.38-2.37-4.82-3.62-7.22-.13-.25-.54-.2-.51,.12,.23,2.4,.9,4.68,1.79,6.88-1.02,1.23-.26,2.24,.46,3.53,1.76,3.13,3.78,6.13,6.05,8.9,.1,.28,.2,.57,.27,.86-.98-.18-2.04,.89-1.28,1.91,1.6,2.14,3.17,3.97,4.4,6.34-.2,.05-.39,.15-.54,.28-.24-.25-.72-.44-1.45-.56-.82-.6-1.56-1.3-2.22-2.09-.77-.87-2.33-.49-2.24,.8,0,0,0,0,0,0-.16-1.57-2.62-3.49-3.59-4.7-1.31-1.64-2.88-3.27-3.62-5.26-.16-.42-.76-.18-.64,.24,.82,3.03,3.28,8.39,6.35,10.84,1.8,2.01,4.1,3.5,6.02,5.48,2.26,2.34,3.79,5.23,5.21,8.16,.36,1.44,1.02,2.84,2.11,4.19,.14,.17,.43,.08,.41-.15-.17-1.75-.31-3.4-.37-5.02,.05-.08,.09-.16,.12-.25,.31-1,.22-2.12-.08-3.26,.1-1.58,.31-3.18,.71-4.86,.31-1.31,.55-2.61,.66-3.91,.42-.68,.87-1.36,1.35-2.05,1.27-1.81,2.67-3.25,2.54-5.56,0-.07-.02-.12-.04-.18,1.83-2.75,3.46-5.64,4.09-8.91Z"/>
          <path class="cls-16" d="M30.11,85c.12-.16-.1-.35-.24-.2-1.33,1.46-2.64,3.13-3.81,4.94-.52,.75-1,1.53-1.44,2.34-.23-.28-.68-.35-.87,.08-.57,1.33-1.06,2.68-1.46,4.07-.12,.43-.22,.87-.33,1.3,0-1.97,.15-3.86,.69-5.84,.62-2.25,1.48-4.42,2.29-6.61,.19-.51-.51-.85-.77-.36-.88,1.62-1.78,3.24-2.67,4.85,0-.74,.02-1.49,.07-2.23,.09-.12,.14-.28,.1-.44-.01-.05-.04-.11-.05-.16,.05-.57,.13-1.13,.26-1.68,.33-1.44,1.05-2.74,1.48-4.15,1.06-3.4,1.46-6.96,2.56-10.38,.2-.63-.58-1.01-.93-.44-1.47,2.38-2.15,4.97-2.7,7.6-.28,.82-.54,1.63-.79,2.46-.18,.59-.35,1.2-.52,1.82-.06-1.64-.13-3.27-.28-4.9-.36-3.88-1.11-7.72-2.75-11.27-1.53-3.3-3.66-6.28-5.13-9.61-.14-.4-.28-.8-.41-1.2-.01-.04-.06-.06-.1-.05-.02-.07-.05-.13-.08-.19-.03-.08-.15-.04-.13,.05,.07,.25,.15,.49,.23,.73,.58,3.53,2.06,6.72,3.45,9.99,.55,1.3,1.01,2.62,1.44,3.95-.69-1.22-1.5-2.39-2.47-3.5,0,0,0,0-.01,0-.19-.22-.63-.05-.47,.25,1.57,3.03,3.42,5.7,4.17,9.1,.48,2.18,.89,4.37,1.4,6.54,0,.27,.02,.54,.03,.81-.92-1.62-2.01-3.15-3.08-4.52-.39-.5-1.25-.09-1,.53,0,0,0,0,0,.01-.83-.88-1.66-1.77-2.49-2.65-1.26-1.33-2.52-3-3.82-4.18-.02-.05-.06-.1-.08-.15-.03-.07-.1-.08-.15-.06-.01-.01-.03-.03-.04-.04,.05,.04,.11-.02,.08-.07-.08-.15-.17-.3-.25-.45-.08-.14-.33-.01-.26,.14,.27,.59,.58,1.16,.92,1.71,1.45,2.95,3.6,5.41,5.65,7.99,1.27,1.59,2.51,3.23,3.28,5.14,.69,1.68,1.03,3.5,1.49,5.26,.02,.4,.07,.8,.1,1.2-.84-1.68-1.87-3.28-3.08-4.71-.35-.41-1.03,.07-.68,.49,1.44,2.12,2.69,4.27,3.74,6.61,.06,.13,.15,.21,.25,.25,.06,.62,.11,1.23,.19,1.85,.11,1.12,.21,2.25,.33,3.37-.08-.11-.17-.22-.25-.33-1.14-1.54-2.42-2.97-3.79-4.32-.3-.29-.86-.08-.97,.29-.72-.56-1.46-1.11-2.18-1.69-.09-.07-.19-.03-.24,.05-1.84-1.51-3.61-3.09-5.3-4.76-.1-.1-.27,.06-.18,.17,2.6,3.02,5.37,5.8,8.41,8.37,.29,.24,.78,.11,.93-.21,.59,.57,1.14,1.16,1.64,1.79,1.11,1.41,1.69,3.06,2.43,4.66,.14,.88,.3,1.76,.5,2.63,1.28,5.5,3.8,11.49,9.22,13.95,.11,.05,.23-.11,.12-.19-5.06-3.74-7.52-9.95-8.5-16.01-.02-.1-.03-.21-.05-.31,.22-3.37,.75-6.39,1.98-9.65,1.32-3.5,3.1-6.85,5.34-9.85Z"/>
          <path class="cls-15" d="M17.97,103.17c-1.27-.76-2.58-1.4-3.78-2.29-.05-.04-.1-.08-.15-.12-3.77-3.67-6.6-8.26-8.79-13-.43-1.71-.9-3.4-1.1-5.15-.14-1.21-.18-2.43-.19-3.65,1.64,3.79,3.98,8,7.32,10.27,.03,.04,.06,.09,.09,.14,.06,.09,.17,.11,.26,.09,.5,.31,1.02,.59,1.57,.81,.12,.05,.24-.02,.3-.12,.44,.45,.88,.89,1.33,1.33,.24,.24,.62-.13,.43-.4-2.31-3.27-4.4-6.81-5.56-10.66-.66-2.2-.98-4.46-1.51-6.67-.1-.82-.17-1.63-.2-2.47-.04-.93,.63-4.74,.31-5.15,.67,.89,2.04,.36,2-.74-.06-1.35-.06-2.69-.04-4.03,.58,1.18,.97,2.8,1.23,3.5,.05,.14,.26,.09,.25-.06-.15-2.01,.11-5.18-1.9-6.28-.46-.25-1.11,.09-1.18,.61-.21,1.5-.36,2.99-.46,4.5-.67,.01-1.34,.44-1.84,1.28-.71,1.18-.93,2.89-.92,4.68-.26,.16-.43,.45-.36,.86,.11,.6,.22,1.21,.33,1.82-.31-.09-.63-.14-.99-.12-.54,.04-.97,.47-1.08,.99-.01,.07-.02,.14-.03,.21-.02-.2-.05-.4-.07-.61-.07-.82-1.28-.87-1.43-.07-.28,1.47-.56,2.95-.75,4.44-.03,.02-.05,.05-.06,.09-1.4,8.49,1.36,15.46,6.82,21.61-.89-.49-1.77-.99-2.64-1.53-.06-.03-.11-.05-.16-.05-.32-.07-.67,.23-.53,.59,.94,2.44,2.83,3.92,5.18,4.95,1.37,.6,2.8,1.07,4.22,1.53,.59,.19,1.22,.35,1.84,.54,1.88,1.05,3.74,2.14,5.16,3.74,.19,.22,.66,.14,.6-.22-.4-2.33-1.48-3.98-3.54-5.21Z"/>
          <path class="cls-15" d="M29.63,67.01c-2.5-3.67-5.25-6.89-9.37-8.9-.17-.08-.33,.17-.18,.28,3.86,2.76,6.25,7.07,8.49,11.14,.45,.82,1.57,.47,1.96-.17,.56-.94-.02,.67,.03,1.19,.09,.79,.62,1.86,.86,2.59,.37,1.12,2.2,.72,2.04-.46-.29-2.11-1.88-6.83-3.83-5.67Z"/>
          <path class="cls-6" d="M18.98,75.63c-.55-1.59-1.21-3.16-1.9-4.74-.03-.07-.13-.03-.11,.04,.88,2.72,1.76,5.48,2.34,8.29,.08,.74,.14,1.49,.14,2.28,0,1.82-.03,3.58,.51,5.34,.02,.05,.1,.04,.11,0,.31-3.39,1.26-8.3-1.09-11.2Z"/>
          <path class="cls-6" d="M28.06,118.27c-1.88-3.11-3.62-6.35-4.75-9.81-.85-2.58-1.05-5.63-3.08-7.61-.48-.88-1.05-1.73-1.74-2.53-.08-.09-.24,0-.16,.11,1.5,2.08,2.33,4.47,3.04,6.92,.04,.16,.09,.32,.12,.48,.35,1.56,.74,3.1,1.32,4.6,.16,.41,.33,.81,.5,1.21,.65,1.66,1.46,3.24,2.66,4.65,.03,.04,.07,.04,.11,.02,.56,.73,1.17,1.43,1.84,2.1,.09,.09,.21-.04,.15-.14Z"/>
          <path class="cls-6" d="M17.35,89.29c-.07-.06-.15,.03-.11,.1,.64,1.11,1.32,2.3,1.95,3.52,.45,1.08,.92,2.16,1.22,3.27,.4,1.45,.33,2.97,.67,4.43,.05,.2,.35,.11,.34-.08-.05-.82-.03-1.68-.05-2.54,.22-3.33-1.55-6.53-4.02-8.71Z"/>
        </g>
        <g>
          <path class="cls-8" d="M77.16,68.41c-.28-.18-.55-.34-.83-.5,6.18-.76,11.33-4.68,15.61-9.08,.26-.26,.18-.83-.26-.83-.25,0-.49,0-.73,0,3.02-3.28,5.54-6.93,7.43-10.99,.08-.17-.04-.39-.21-.46-.37-.13-.64-.16-.91-.1,.43-1.91,.83-3.89,2.06-5.28,.28-.31-.1-.7-.42-.67-2.06,.15-3.96,.82-5.89,1.45-.42,.12-.84,.23-1.26,.35,.05-.04,.09-.09,.15-.13,.24-.2,.03-.55-.24-.52-4.88,.42-9.73,1.07-14.61,1.54,.31-.29,.6-.61,.88-.97,.18-.24,0-.65-.31-.66-4.97-.01-9.59,1.96-13,5.52-.06-.36-.11-.72-.17-1.07-.06-.36-.46-.46-.73-.27-2.49,1.74-3.82,4.47-4.67,7.31-.51,1.72-.93,3.44-1.43,5.13-.86,1.87-1.86,3.66-3.34,5.15-2.72,.93-5.38,2.04-7.89,3.51-.46,.27-.13,1.02,.36,.77,2.36-1.26,4.81-2.25,7.3-3.09,1.73-.31,3.47-.42,5.2,0,1.26,.31,2.43,.85,3.61,1.4,4.42,2.74,9.21,5.59,14.25,3.23,.3-.14,.35-.57,.06-.75Z"/>
          <path class="cls-4" d="M79.38,63.23c-1.24,.06-2.5,0-3.76-.18,.06-.15,.08-.31,.04-.44-.03-.11-.07-.21-.12-.3,1.29-.13,2.52-.44,3.57-1.02,.25-.14,.51-.4,.5-.71,0-.22-.03-.41-.06-.6,.64-.15,1.28-.29,1.92-.42,.37-.08,.59-.29,.7-.55,1.21,.02,2.49-.06,3.31-.92,.28-.29,.46-.74,.25-1.13-.07-.13-.14-.24-.2-.34,.02,0,.03-.01,.05-.02,.1-.04,.14-.12,.14-.2,2.63-.98,4.92-2.36,7.09-4.31,.28-.25-.07-.63-.37-.43-2.59,1.74-5.38,2.86-8.42,3.45,.02-.35-.09-.45,.65-1.14,1.56-1.45,7.03-2.44,7.05-4.96,0-.42-.2-.79-.6-.95-.02,0-.03,0-.05-.01,1.55-1.5,2.97-3.08,4.29-4.81,.14-.15,.29-.3,.44-.45,.04-.04,.03-.09,.02-.13,0,0,.01-.01,.02-.02,.05-.07-.04-.15-.11-.1-.93,.69-1.85,1.39-2.77,2.08-.95,.46-2.13,.92-2.28,.37-.15-.6-.76-.81-1.26-.46-2.22,1.53-3.36,4.53-5.41,6.25-.26-1.02-.19-2.24-1.93-1.69-.65,.2-1.34,1.02-1.95,1.81-.17-.3-.55-.48-.88-.31-1.79,.92-2.82,2.52-4.27,3.85-.14,.13-.29,.25-.43,.37-.28-.26-.71-.37-1.09-.23-.15,.06-.28,.12-.41,.19,.82-1.11,1.55-2.28,2.19-3.46,.29-.53-.01-1.08-.51-1.16,.27-.73,.66-1.37,1.16-1.95,.27-.27,.53-.55,.8-.82,.17-.18,.19-.38,.13-.56,0,0,.02-.02,.03-.03,.06-.06,0-.19-.09-.14,0,0-.01,0-.02,.01-.15-.2-.44-.29-.72-.08-.91,.68-1.61,1.46-2.14,2.38-.36,.4-.68,.84-.98,1.29,0-.02,0-.04,0-.05,0,0,0,0-.01,0,.07-.69-1.04-1.04-1.26-.29-.2,.65-.42,1.27-.66,1.87-1.67,1.56-3.41,2.92-5.2,4.2,.16-.36,.31-.72,.42-1.1,.33-1.08,.33-2.64-1.13-2.84-1.63-.23-2.37,2.13-2.83,3.27-.48,1.17-.95,2.23-1.76,3.22-.57,.7-1.18,1.36-1.72,2.07-.1,.08-.2,.17-.3,.25-.18,.12-.36,.24-.54,.36-.11,.07-.17,.16-.22,.25-.2,.15-.39,.29-.59,.44-.02,0-.05,.01-.07,.02-.21,.06-.37,.19-.48,.36-.24,.16-.49,.32-.74,.46-4.06,1.07-8.12,2.56-10.99,5.66-.1,.11,.02,.26,.15,.18,2.86-1.85,5.87-3.12,8.99-4.11,1.23-.03,2.34-.39,3.38-.93,1.8-.03,3.57-.35,5.37-.04,1.89,.33,3.67,1.16,5.47,1.78,1.34,.46,3.74,1.51,5.16,.71,.24-.04,.45-.15,.61-.37,.22-.31,.3-.54,.31-.76,1.8,.36,3.6,.41,5.46,.16,1.18-.16,.83-1.84-.3-1.79Z"/>
          <path class="cls-15" d="M83.5,63.83c.33-.12,.66-.25,.98-.39,3.41-1.33,8.81-4.12,6.98-6.65,2.82-2.53,4.66-5.83,6.9-8.88,.46-.62-.01-1.44-.71-1.53-.15-.02-.27-.04-.39-.05,.05-.25,.1-.49,.15-.74,.18-.37,.35-.76,.52-1.15,.09-.21,.04-.4-.08-.53,.29-.94,.65-1.86,1.16-2.78,.05-.09-.04-.26-.16-.19-1.53,.96-2.38,2.36-2.97,3.93-1.03,1.13-1.81,2.44-2.78,3.66-1.8,2.26-4.31,3.51-6.63,5.14-.25,.18-.04,.62,.26,.55,2.31-.53,4.24-1.4,5.87-2.61-.37,.46-.74,.92-1.16,1.34-1.51,1.52-3.31,2.7-5.23,3.64-.19,.09-.13,.37,.07,.4,.9,.14,1.78,.07,2.64-.15,0,.1,.04,.2,.07,.3-3.21,3.16-7.7,4.75-12.15,5.31-.27,.03-.28,.41-.05,.5,1.03,.41,2.2,.59,3.41,.58,0,.33,.14,.68,.41,.86,.02,.02,.04,.03,.06,.04-2.26,.8-4.56,1.19-6.94,1.73-.18,.04-.23,.31-.03,.37,3.24,.96,6.56,.16,9.6-1.12,.71-.3,.66-1.15,.18-1.59Z"/>
          <path class="cls-15" d="M75.92,51.93c3.58-4.05,9.04-6.63,14.26-8.13,.22,.13,.5,.17,.81,.04,1.6-.68,3.14-1.35,4.61-2.29,.25-.16,.16-.54-.16-.51-1.07,.11-2.11,.33-3.13,.58-.13-.41-.48-.74-.98-.6-4.02,1.17-8.21,1.38-12.31,2.11-.02-.04-.03-.08-.06-.12,.04-.08,.07-.16,.11-.25,.55-.68-.18-1.72-.99-1.56-3.89,.75-8.02,1.73-10.82,4.45-4.42,2.95-8.07,7.24-8.27,12.44,0,.22,.27,.27,.36,.08,1.48-3.12,3.36-5.95,5.93-8.27,.22-.2,.45-.38,.68-.57,.06,0,.11-.03,.17-.06-.29,.41-.57,.82-.82,1.25-.13,.23,.13,.48,.35,.31,3.46-2.61,6.75-4.47,10.68-5.81,.21,.36,.63,.6,1.05,.51,1.65-.37,3.31-.65,4.98-.91-.4,.23-.78,.45-1.15,.68-2.62,1.59-4.58,3.52-5.75,6.37-.12,.29,.27,.44,.45,.23Z"/>
          <path class="cls-16" d="M76.8,64.26c-2.74-1.28-5.52-2.23-8.41-2.91,1.03-.17,2.05-.35,3.08-.52,.39-.07,.72-.56,.49-.94-.04-.07-.08-.14-.12-.2,1.28-.31,2.57-.58,3.85-.86,2.85-.23,5.67-.81,7.84-2.32,.1-.07,.01-.24-.1-.21-2.47,.63-5.08,.8-7.69,.98,1.35-.56,2.68-1.17,3.95-1.87,4.71-2.59,8.97-5.86,12.75-9.67,.11-.11-.03-.28-.16-.18-3.91,3.13-8.07,6.08-12.58,8.31,.9-1,1.82-1.94,2.56-3.09,.08-.13-.07-.26-.19-.17-1,.75-1.94,1.57-2.99,2.26-.14-.06-.3-.08-.45-.06-.75,.08-1.18,.66-1.71,1.16-.66,.62-1.32,1.25-1.96,1.89-1.98,.65-4.04,1.18-6.01,1.87,.36-.32,.71-.64,1.06-.99,.21-.21,.26-.51,.2-.77,1.78-2.29,3.33-4.7,4.7-7.27,.13-.24-.2-.49-.36-.25-1.82,2.75-3.94,5.26-6.29,7.57-.13,.13-.19,.28-.21,.44-.97,.89-2.01,1.68-3.09,2.42,0-.05,.02-.09,.02-.15,0-.4-.18-.73-.56-.89-.1-.04-.21-.07-.31-.09,.55-1.11,.89-2.28,.88-3.65,0-.3-.41-.34-.46-.04-.28,1.6-1.34,2.95-2.44,4.15,.37-.75,.67-1.51,.89-2.24,.11-.35-.38-.53-.53-.19-1.18,2.63-4.5,6.15-7.32,7.02-.03,.01-.06,.03-.09,.05-.5,.17-1.01,.34-1.51,.5-3.91,1.25-7.54,2.23-9.89,5.83-.1,.15,.08,.28,.22,.2,3.75-2.45,7.23-3.9,11.47-5.26,1.37-.44,2.76-.86,4.14-1.28,.12,.05,.27,.04,.44-.03,.13-.06,.25-.13,.38-.2,1.81-.13,3.61-.02,5.37,.53,.4,.13,.8-.08,1.01-.4,3.35,.54,6.68,1.24,9.96,2.08,.35,.09,.52-.37,.19-.52Z"/>
          <path class="cls-6" d="M48.51,66.07c1.01-.59,1.96-1.12,3.06-1.53,.08-.03,.12-.08,.15-.14,2.08-.68,4.31-1.06,6.24-2.19,2.48-1.45,4.76-3.31,6.18-5.84,.02-.04-.03-.08-.06-.04-1.78,2.64-4.95,4.67-7.82,5.92-2.25,.97-4.81,1.15-6.89,2.44-.5,.28-1,.58-1.51,.89-1.02,.61-1.96,1.02-2.69,2-.06,.08,.05,.17,.13,.12,.95-.74,2.17-1.04,3.2-1.63Z"/>
          <path class="cls-6" d="M78.64,54.98c.06-.04,0-.13-.06-.1-4.55,2.52-9.29,4.39-14.25,5.93-.34,.11-.27,.66,.1,.57,5.08-1.21,9.9-3.49,14.22-6.4Z"/>
          <path class="cls-6" d="M68.46,62.01c-2.17-.41-4.34-.47-6.53-.17-.25,.03-.18,.42,.07,.39,2.15-.28,4.3-.32,6.45-.1,.08,0,.08-.1,.01-.11Z"/>
        </g>
        <g>
          <path class="cls-8" d="M65.02,41.5c.03-.25-.16-.42-.37-.44,.6-1.09,.83-2.44,1.12-3.61,.63-2.47,1.03-4.99,1.29-7.53,.04-.38-.3-.61-.64-.51-.14,.04-.26,.08-.38,.13,.27-3.47,.67-6.93,1.2-10.36,.05-.37-.36-.57-.64-.38-.1,.07-.2,.14-.29,.2,.22-1.79,.57-3.55,1.14-5.3,.14-.43-.25-1-.74-.76-1.9,.9-3.78,1.83-5.59,2.84,0-.16-.01-.3-.02-.45-.01-.33-.39-.41-.63-.27-2.82,1.65-5.3,3.7-7.45,6.13-.03-.15-.07-.3-.12-.46-.11-.35-.53-.38-.8-.23-1.81,1.02-3,3.91-3.85,5.71-.89,1.9-1.57,3.88-2.09,5.9-.13-.28-.25-.57-.4-.85-.18-.33-.73-.45-.89-.02-2.3,6.4-.79,13.26,2.54,19,.47,1.35,.94,2.7,1.3,4.09-.59,2.34-1.24,4.65-2.04,6.93-.18,.53,.59,.89,.81,.35,.53-1.3,1-2.62,1.41-3.97,.04-.05,.07-.11,.09-.18,1.3-4.63,6.52-5.41,10.12-7.72,2.96-1.9,5.57-4.6,5.93-8.25Z"/>
          <path class="cls-4" d="M61.65,41.55c-1.41,.35-2.71,.84-4,1.42,.38-1.08,.75-2.17,1.09-3.27,.14-.45,.06-1.08-.4-1.34,.02-.1,.05-.21,.07-.31,1.34-2.32,2.67-4.64,4-6.96,.45-.79-.56-1.72-1.33-1.38-.44,.2-.89,.39-1.33,.59,.38-2.23,.81-4.43,1.45-6.63,1.51-2.78,3.18-5.47,4.69-8.25,.08-.14-.13-.31-.25-.2-.54,.48-1.07,.99-1.58,1.52-.02,0-.04,.02-.07,.04-.38,.34-.76,.69-1.14,1.04-1.67,1.38-3.21,2.92-4.75,4.46,.02-.23,.04-.45,.06-.68,.08-.9-1.16-1.61-1.74-.76-2.91,4.22-4.16,8.99-5.17,13.93-.89-.35-1.78-.62-2.75-.86-.89-.21-1.45,.8-1.21,1.54,1.01,3.11,1.66,6.31,2.41,9.48-.07,1.48-.07,2.95,0,4.4-1.29,4.77-2.48,9.55-3.58,14.31-.06,.27,.34,.36,.45,.13,1.77-3.81,3.41-7.77,4.89-11.81,1.23-1.04,2.42-2.13,3.75-3.07,1.35-.96,2.96-1.55,4.21-2.63,.2-.17,.33-.37,.38-.59,1.17-.49,2.03-1.25,2.79-2.44,.42-.66,.05-1.93-.93-1.69Z"/>
          <path class="cls-15" d="M66.35,30.06c-.07-.81-.46-1.45-.52-2.27-.17-2.4,.78-5.46,1.42-7.74,.15-.55-.41-1.04-.94-1.03,.44-1.83,.93-3.66,1.15-5.52,.01-.1-.12-.16-.18-.08-.04,.04-.07,.09-.11,.14,0-.02-.02-.03-.04-.04,0,0,0,0,0,0-.03-.02-.07-.02-.1,0-.03,.03-.06,.07-.08,.1-.05-.11-.18-.19-.31-.15-2.14,.64-3.93,2.01-5.51,3.6,.13-.36,.26-.71,.42-1.07,.26-.6-.39-1.43-1.05-1.09-3.37,1.74-5.76,4.59-7.44,7.88-.11-.09-.24-.17-.38-.22-.01-.23-.03-.47-.05-.71-.08-.73-1.13-1.09-1.58-.46-2.05,2.91-3.45,6.06-4.35,9.4-.5-.79-1.8-.38-1.99,.51-.7,3.2-.35,6.8,0,10.05,.36,3.38,2.21,6.05,3.56,9.09,.03,.06,.06,.1,.1,.14,.04,.35,.09,.69,.13,1.04,.04,.36,.61,.38,.64,0,.29-2.98,.39-5.88,.05-8.86-.29-2.52-.84-4.95-1.08-7.46,.4-2.48,1.05-4.84,1.89-7.14,.01,.27,.03,.54,.05,.81,.25,3.22,.58,6.43,.86,9.64,.03,.37,.57,.35,.63,0,.46-2.45,.93-4.81,.94-7.32,.59-1.85,1.17-3.63,1.84-5.33,.42,.46,1.11,.62,1.51-.05,.1-.16,.18-.32,.27-.48-.05,1.34,.07,2.7,.38,4.06,.05,.23,.37,.25,.41,0,.47-2.42,1.02-4.82,1.8-7.15,.34,.1,.73,0,1.04-.39,1.94-2.5,3.99-4.76,6.14-7.03-1.61,2.19-2.76,4.76-3.92,7.18-.33,.69,.44,1.48,1.14,1.18,.24-.1,.48-.2,.72-.31-.31,2.98,.76,5.38,1.08,8.3-.11,2.79-1.17,5.14-2.95,7.75-.34,.5,.35,1.08,.74,.6,2.02-2.49,3.99-6.28,3.68-9.61Z"/>
          <path class="cls-16" d="M54.74,49.5c1.65-2.07,3.49-3.97,5.41-5.81,.11-.1-.04-.3-.17-.23-3.02,1.5-5.39,3.57-7.59,6.1,0,0,0,0,0,.01,0,0-.01,.02-.02,.03,.25-.9,.48-1.8,.69-2.69,1.7-4.26,3.65-8.39,6.02-12.35,.11-.19-.19-.36-.32-.2-1.28,1.53-2.44,3.11-3.5,4.75,1.82-5.8,3.79-11.54,6.16-17.2,.06-.14-.14-.22-.21-.09-2.05,3.8-3.95,7.73-5.6,11.76,.07-1.41,.18-2.81,.25-4.22,.02-.51-.71-.63-.79-.11-.42,2.47-.89,4.9-1.47,7.31-.2-.35-.84-.24-.93,.21-.44,2.13-.9,4.44-1.03,6.69-.06-.18-.12-.35-.18-.53-.3-1.9-.8-3.79-1.35-5.58-.19-.62-1.22-.36-1.1,.28,.89,4.04,1.82,7.71,1.02,11.87-.04,.19,0,.34,.09,.46-1.76,4.9-3.4,9.98-4.53,14.93-.02,.08,.1,.13,.14,.06,2.05-3.15,3.76-6.81,5.13-10.56,1.12-1.37,2.36-2.59,3.94-3.55,.48-.29,.41-1.03-.01-1.33Z"/>
          <path class="cls-6" d="M52.03,50.57c-.13-.05-.29-.04-.43,.06-.03,.02-.06,.05-.09,.07,1.48-5.2,2.67-10.45,3.56-15.79,.02-.12-.16-.14-.18-.03-1.45,5.88-3.08,11.73-4.85,17.52,0,.02,0,.03,0,.05,0,.01-.01,.03-.02,.04,.98-4.62,.82-9.46-.24-14.12-.02-.07-.13-.06-.12,.01,1.07,7.01-.13,13.98-2.59,20.55-.03,.07-.02,.14-.01,.2-.99,2.65-1.83,5.36-2.55,8.02-.03,.13,.16,.17,.22,.06,2.04-4.45,4.16-8.99,5.9-13.58,.21,.19,.6,.2,.77-.13,.42-.8,.84-1.6,1.18-2.44,.15-.37-.23-.64-.54-.5Z"/>
        </g>
        <g>
          <path class="cls-8" d="M87.26,95.37c.35-.26,.37-.87-.13-1-.27-.07-.55-.12-.82-.18,3.45-2.48,5.96-5.9,8.39-9.38,.19-.27-.04-.66-.34-.73,2.12-2.28,4.49-4.28,7.48-5.49,.41-.16,.58-.74,.13-.99-.32-.17-.65-.36-.98-.53-2.29-1.67-4.78-2.93-7.39-4.01,.25-.19,.5-.38,.73-.6,.29-.26,.09-.67-.21-.78-4.58-1.82-9.45-2.5-14.28-2.05-.88,0-1.75,.03-2.62,.12,.08-.06,.16-.12,.24-.18,.37-.3,.06-.99-.4-.97-6.5,.47-12.91,3.44-17.17,8.41,.08-.27,.17-.54,.22-.84,.07-.35-.22-.68-.59-.59-3.51,.92-5.91,5.36-7.55,8.31-1.37,2.49-2.64,5.26-3.52,8.07-1.24,2.1-2.38,4.23-3.44,6.36-2.91,2.53-5.55,5.38-7.81,8.67-.31,.45,.43,1.03,.78,.58,2.35-2.97,4.86-5.76,7.64-8.29,1.9-1.3,3.86-2.11,6.25-2.04,.94,.18,1.87,.51,2.73,.85,2.52,1,4.81,2.45,7.2,3.7,3.86,2.03,8.56,3.68,12.5,.91,.33-.24,.29-.73-.12-.87-.48-.16-.97-.32-1.45-.48,1.7,.08,3.4-.04,5.04-.51,3.55-1.01,6.57-3.28,9.47-5.49Z"/>
          <path class="cls-4" d="M75.49,93.17c.63-.07,1.25-.15,1.87-.24,2.25-.14,4.46-.46,6.56-1.06,.16-.05,.18-.3,0-.34-1.21-.22-2.44-.38-3.67-.52-1.24-.37-2.48-.61-3.75-.79,1.76-1.18,3.78-1.94,5.31-3.51,.69-.71,.07-1.91-.87-1.81,4.06-1.96,8.04-4.08,12.36-5.46,1.2-.2,2.4-.41,3.6-.63,.09,.01,.18,.02,.27,.04,.07,.01,.13-.05,.13-.11,.6-.12,1.21-.22,1.81-.35,.21-.04,.17-.38-.05-.38-1.14,0-2.28,.01-3.42,.03-3.58-1.25-7.34-1.83-11.13-1.91,1.35-.61,2.69-1.22,4.05-1.82,.96-.42,.25-1.78-.67-1.62-6.21,1.14-12.41,2.59-18.19,5.03,.42-.46,.83-.93,1.23-1.41,.44-.53,.5-1.53-.26-1.87-3.42-1.51-6.83,2.86-8.86,5.04-3.29,3.54-6.44,7.41-9.47,11.25-.54,.59-1.07,1.18-1.59,1.76-.17,.19-.24,.39-.25,.58-.03,.03-.05,.07-.08,.1-5.76,4.32-11.23,9.58-13.81,16.38-.1,.25,.28,.37,.41,.17,3.54-5.47,8.02-9.93,13.06-13.67,2.48-.96,4.82-2.26,7.38-3.04,.14-.04,.28-.07,.41-.11,3.4,.13,6.62,.74,10.05,1.43,2.13,.43,5.64,1.64,7.43-.02,.3-.28,.35-.8,.13-1.15Z"/>
          <path class="cls-15" d="M101.53,78.25c-1.53-1.72-3.55-2.64-5.72-3.33-.22-.07-1.82-.5-2.91-.73,.37-.3,.7-.64,.7-.65,.24-.42,.15-.93-.18-1.27-3.75-3.96-11.61-1.5-16.34,.87-.55,.2-1.1,.42-1.63,.64,1.01-.99,1.93-2.11,2.73-3.44,.47-.79-.32-1.66-1.14-1.49-5.9,1.21-10.77,4.44-15.53,7.95-.68-.46-1.75-.43-2.64,.16-1.83,1.21-3.57,4.27-4.71,6.04-1.47,2.3-2.61,4.7-3.48,7.28-.25,.73,.86,1.16,1.23,.51,1.2-2.09,2.4-4.18,3.71-6.2,1.31-2.01,3.75-4.1,4.34-6.36-.11,.41,.09,.85,.41,1.14-2.06,2.43-3.68,5.25-4.79,8.17-.12,.33,.38,.51,.55,.23,3.5-5.77,8.22-9.35,13.84-12.58,.32-.08,.65-.16,.97-.25,.05-.01,.1-.03,.15-.04-.57,.83-1.19,1.6-1.86,2.33-2.07,1.46-3.97,3.18-5.64,5.18-.19,.22,.06,.62,.34,.44,4-2.72,8.2-5.2,12.74-6.92,2.77-1.05,6.25-2.32,9.5-2.36-1.21,.45-2.38,1.07-3.57,1.64-1.2,.33-2.33,.78-3.37,1.37-.19,.11-.12,.46,.12,.44,2.69-.22,5.39-.42,8.09-.26,2.27,.13,4.53,.54,6.79,.67,1.66,.32,3.36,.53,5.03,.7,.65,.24,1.3,.46,1.96,.65,.3,.08,.47-.28,.28-.5Z"/>
          <path class="cls-15" d="M84.95,93.63c2.78-1.01,6.66-2.86,7.61-5.46,.65-1.78-.45-2.33-1.73-2.86,1.31-1.66,2.76-3.02,4.51-4.29,.3-.22,.04-.7-.3-.51-.46,.25-.89,.52-1.33,.79-.01,0-.02,0-.04,0-2.95,1.34-5.74,2.98-8.56,4.57-.79,.44-.48,1.82,.47,1.76,1.6-.1,3.86,.22,1.98,1.93-.86,.78-1.8,1.36-2.8,1.88-.56,.21-1.09,.39-1.54,.54-.76,.25-1.08,1.19-.48,1.79,.4,.4-4.47,2.08-5.16,2.24-2.03,.48-4.09,.61-6.17,.69-.59,.02-.59,.89,0,.92,2.08,.11,14.02-.32,13.52-3.97Z"/>
          <path class="cls-16" d="M77.46,90.29c-2.65-.92-5.28-1.83-7.94-2.7-.41-.13-.72,.05-.89,.33-.63-.17-1.25-.3-1.88-.39,.17-.12,.24-.28,.25-.45,8.28-3.49,16.53-6.39,25.57-7.94,.22-.04,.17-.4-.05-.39-2.64,.17-5.31,.46-7.98,.88-.75,.06-1.49,.12-2.24,.19,0-.39-.35-.78-.82-.67-3.29,.8-6.6,1.81-9.82,3.04,1.88-1.82,3.76-3.64,5.65-5.46,.18-.17-.07-.51-.27-.35-2.19,1.64-4.37,3.28-6.56,4.92-.3-.28-.82-.33-1.21,0-2.81,2.29-5.82,4.18-8.83,6.11,1.64-2.65,3.42-5.22,5.06-7.86,.3-.48-.41-1.02-.8-.6-3.88,4.16-6.86,8.68-11.44,12.1-1.73,1.04-3.36,2.21-4.83,3.48-4.64,4.02-9.58,8.72-12.22,14.34-.11,.23,.19,.5,.38,.28,2.7-3.17,5.54-6.21,8.54-9.09,2.99-1.87,6.13-3.38,9.64-4.23,.72-.17,.94-1.23,.34-1.66,3.97-1.36,8.05-2.39,12.2-2.99,.25-.04,.19-.44-.05-.43-4.1,.13-8.01,.63-11.91,1.62,1.98-.99,4.03-1.83,6.11-2.66,2.75-.71,5.54-.74,8.84,.68,.66,.28,1.27-.16,1.32-.73,1.93,.31,3.85,.62,5.79,.91,.18,.03,.24-.21,.07-.27Z"/>
          <path class="cls-6" d="M38.65,105.59c1.35-1.58,2.74-3.08,4.18-4.51,2.94-1.8,5.57-3.7,8.96-4.81,.42-.14,.47-.78,0-.89-.11-.03-.21-.04-.32-.06,2.27-1.25,4.67-2.22,7.2-2.84,.16-.04,.09-.27-.06-.25-3.4,.52-6.5,1.6-9.45,3.37-.31,.18-.28,.5-.1,.69-.64,.26-1.29,.54-1.92,.84,1.9-1.57,3.91-3.04,6.06-4.38,.48-.25,.94-.53,1.39-.84,.05-.03,.1-.06,.15-.09,3.93-1.82,7.92-3.33,12.22-4.12,.14-.03,.11-.25-.03-.25-2.04,.07-4.03,.46-5.97,1.06,4.98-2.45,10.12-4.62,15.17-6.87,.06-.03,.02-.14-.05-.12-6.13,2.36-12.3,4.55-18.17,7.48,2.11-2.28,3.84-4.99,5.39-7.54,.04-.07-.07-.16-.12-.09-2.69,3.4-5.3,6.59-8.53,9.37-.19,.11-.38,.2-.57,.31-6.01,3.47-12.35,8.05-15.81,14.23-.13,.24,.2,.51,.39,.29Z"/>
        </g>
        <g>
          <path class="cls-8" d="M46.11,48.97c-.42,.23-.83,.47-1.22,.73,.05-.21,.09-.42,.13-.64,1.36-4.14,2.05-8.52,0-12.61-.16-.34-.74-.37-.85,.03-.09,.29-.17,.56-.27,.84-.65-3.57-2.19-6.94-4.53-9.74-.59-.71-1.24-1.38-1.93-2.01-.38-.35-.94-1.05-1.52-1.08-.41-.01-.56,.2-.77,.5-.03,.05-.06,.1-.08,.15-.1-.09-.2-.18-.3-.27-1.78-1.52-4.37-3.08-5.26-5.32-.11-.28-.59-.2-.59,.1-.01,.93-.14,1.82-.35,2.68-.39,1.02-.79,2.04-1.26,3.03,0-.1-.02-.21-.02-.31-.03-.3-.5-.41-.66-.15-1.21,2.15-2.87,4.45-3.55,6.91-.2-.46-.42-.92-.68-1.36-.19-.32-.67-.34-.81,.04-1.25,3.2-1.56,6.57-1.44,9.95-.16,1.15-.22,2.31-.19,3.48-.49-.28-.96-.26-1.21,.58-.3,1,.19,2.42,.48,3.36,.4,1.3,.94,2.57,1.54,3.8,1.05,2.13,2.41,3.9,4.33,5.3,.51,.37,1.02,.76,1.51,1.13,1.2,1.22,2.5,2.34,3.87,3.36,1.83,1.36,3.84,2.47,5.55,3.98,.7,2.66,1.49,5.3,2.41,7.9,.15,.44,.92,.2,.79-.26-.25-.93-.52-1.85-.79-2.77-.28-1.66-.52-3.33-.36-5,.23-2.48,1.54-4.41,2.99-6.35,1.37-1.85,2.76-3.69,4.13-5.54,.96-1.29,2.1-2.57,1.53-4.25-.08-.24-.42-.33-.63-.23Z"/>
          <path class="cls-4" d="M41.67,44.45c.07-.24,.13-.48,.2-.73,.66-1.01,1.02-2.05,.45-2.92-.31-.47-1.06-.25-1.23,.21-.57,1.52-.99,2.93-1.56,4.33-.22,.33-.42,.61-.57,.83-.46-.49-1.19-.26-1.82,.28-.04-.31-.28-.59-.56-.65,.5-1.18,1.05-2.35,1.47-3.57,.4-1.16,1.26-3.26,.07-4.15-.1-.08-.23-.11-.36-.11,0,0,0,0,0-.01,.99-2.6,1.25-4.78,.59-7.5-.05-.2-.37-.21-.38,.01-.07,1.95-.47,3.53-1.04,5.08-.03-.08-.06-.16-.1-.24-.16-.28-.46-.49-.8-.41-.46,.1-.78,.46-1.03,.92-.02-.16-.05-.32-.07-.48,.08-1.21,.15-2.42,.23-3.64,.1-1.46,.33-2.72-.36-4.03-.27-.51-.83-.59-1.29-.28-.38,.26-.71,.53-.99,.82-.44-1.91-1.04-3.78-2.07-5.45-.08-.21-.16-.43-.24-.64-.03-.09-.16-.06-.19,0-.04-.05-.07-.11-.11-.17-.09-.12-.28-.01-.26,.12,.12,.99,.31,1.97,.52,2.94,.19,1.18,.27,2.35,.21,3.55-.17-.05-.36-.08-.73-.14-.42-.07-.86,.39-.75,.81,.63,2.4,1.38,4.81,2.08,7.22,.08,.56,.14,1.12,.17,1.69-.51-.15-1.03,.33-.93,.85,.13,.71,.29,1.41,.47,2.1-.11-.1-.21-.19-.32-.29-.59-.78-1.15-1.57-1.67-2.11-1.53-1.56-2.92-3.01-3.82-5.05-.31-.71-1.21-.39-1.35,.24-.43,1.85,.32,4.24,1.43,5.77,.84,1.15,2.07,1.87,3.2,2.7-.61,.2-.89,1.05-.26,1.48,2.07,1.43,3.79,3.08,4.87,5.4,.18,.4,.35,.8,.5,1.21-.53-.76-1.12-1.54-1.79-2.02-1.17-.83-1.7-.12-1.87,.82-1.04-.46-1.94-1.2-3.06-1.42-1.05-.88-1.97-1.87-2.59-3.13-.43-.87-1.59-.39-1.54,.49,.12,2.12,1.83,6.21,3.93,7.18,.62,.29,1.22,.29,1.69,.08,0,.01,0,.02-.01,.03-.12,.44,0,.81,.34,1.1,.78,.67,1.84,.7,2.76,1.08,1.89,.77,2.61,2.05,3.4,3.81,.06,.13,.13,.23,.21,.31,.03,1.03,.34,2.07,.7,3.09,.64,3.34,1.44,6.66,2.65,9.83,.02,.06,.12,.03,.11-.04-.24-1.62-.53-3.23-.83-4.83-.32-5.04,.56-10.36,3.24-14.69,.35-.56-.03-1.3-.68-1.3,.89-1.86,1.73-3.74,2.53-5.64,.2-.47-.34-.96-.8-.76Z"/>
          <path class="cls-16" d="M37.19,62.16c.25-5.18,1.44-10.65,3.47-15.18,.08-.18-.18-.37-.32-.22-2,2.1-3.32,5.17-4.04,8.44-.26-2.35-.52-4.69-.83-7.03,0-.49,.01-.97,.05-1.46,.11-1.61,.89-3.31,.92-4.86,0-.47,.15-.67-.1-1.11-.03-.05-.07-.1-.12-.15,.77-1.92,1.05-3.72,1.01-5.9,0-.15-.2-.17-.23-.02-.42,2.17-1.32,4.21-2.55,6.03-.48-4.44-1.64-8.86-3.27-12.95-.03-.07-.14-.03-.13,.04,.87,5.46,1.44,10.92,2.14,16.4-.25-.49-.52-.98-.79-1.46-.42-.72-1.46-.49-1.52,.29-1.28-1.24-2.52-2.53-3.69-3.88-.11-.13-.29,.03-.2,.17,1.52,2.28,3.07,4.51,4.8,6.64,.15,.19,.34,.26,.53,.26,.56,1.24,1.06,2.5,1.54,3.78,.16,1.38,.34,2.76,.53,4.13-.65-.76-1.71-1.92-2.62-1.99-.27-.02-.54,.16-.78,.14-.12,.06-.21,.14-.29,.24-.12,.35-.27,.23-.42-.37-2.02-.9-3.94-2.3-5.86-3.38-.17-.1-.34,.13-.18,.26,1.32,1.06,2.64,2.11,3.97,3.14,.63,.48,1.81,1.83,2.71,1.82,1.03-.01,.63-.51,1.57,.49,.94,1,1.7,1.96,2.36,3.07,.24,1.7,.48,3.4,.7,5.09,.09,.68,.2,1.35,.33,2.01,.06,.45,.14,.88,.22,1.3,.02,.09,.05,.16,.09,.23,1.16,5.02,3.18,9.66,4.7,14.66,.03,.1,.18,.11,.19,0,.19-2.59-.41-4.96-1.2-7.41-1.12-3.51-2.03-6.89-2.6-10.53-.04-.23-.07-.47-.1-.7Z"/>
          <path class="cls-15" d="M29.48,22.7c-.1-.55-.91-.57-1.03,.04-.18,.95-.37,1.7-.64,2.46-.02-.05-.04-.1-.06-.14-.27-.63-1.15-.51-1.39,.06-.92,2.15-1.61,4.29-2.1,6.54-.33-.13-.64-.22-1.14,0-.98,.45-1.2,1.57-1.41,2.52-.07,.33-.12,.66-.16,.99-.01,0-.02,.02-.04,.03-.15-.36-.31-.71-.5-1.04-.04-.06-.13-.05-.14,.03-.47,3.24-.49,6.65-.38,9.97l-.32-.25c-.55-.63-1.45-.11-1.39,.65,.64,7.98,8.14,14.08,14.64,17.67,.56,.31,1.05-.39,.57-.81-2.13-1.87-4.63-3.77-6.92-5.87-.53-.56-1.04-1.13-1.53-1.72-1.91-2.31-2.9-4.87-3.29-7.64,.01-.05,.03-.09,.03-.14,.06-1.55,.19-3.27,.18-5,.39,.86,.9,1.68,1.51,2.44,.09,.11,.21,.18,.33,.22,.83,1.01,1.8,1.88,2.88,2.52,.19,.11,.5-.08,.37-.31-.98-1.67-2.08-3.27-2.94-5-.53-1.06-.92-2.16-1.31-3.26-.46-2.15-.33-4.1,1.54-4.03,.5,.02,.88-.3,.96-.79,.04-.23,.08-.46,.13-.69,.08,0,.16-.03,.24-.07,.13-.07,1.22,1.96,1.86,3.21,.65,1.99,1.58,3.91,2.57,5.68,.14,.25,.57,.15,.5-.16-.72-3.42-1.58-6.8-2.28-10.24-.04-1.08-.06-2.17-.07-3.25,.18-.44,.33-.87,.44-1.3,.08,.06,.21,.03,.21-.09,0-.37,.01-.73,.02-1.09,.09-.68,.11-1.38,.06-2.12h-.01Z"/>
          <path class="cls-15" d="M36.71,28.55c-.39-1.27-.44-2.35-1.46-3.35-1.07-1.04-2.61-1.71-3.89-2.45-.14-.08-.33,.09-.2,.22,1.96,2.03,3.73,3.57,4.14,6.52,.06,.44,.5,.69,.91,.64,.37-.04-.37,3.61-.46,3.97-.11,.41,.48,.65,.63,.24,.48-1.26,1.16-3.08,.91-4.48-.09-.53-.47-.93-.58-1.31Z"/>
          <path class="cls-15" d="M40.24,39.66c.38-1.99,.89-3.95,.58-6.02-.04-.24-.44-.24-.44,.02,0,2.59-1.24,4.93-1.82,7.42-.13,.08-.25,.2-.31,.38-.25,.69-.38,1.3-.4,1.99-.51,1.43-.85,2.91-.93,4.49,0,.19,.27,.27,.33,.08,.57-1.87,1.46-3.61,2.36-5.35,.18-.11,.31-.28,.32-.55,0-.03,0-.06,0-.09,.25-.49,.5-.99,.74-1.49,.18-.38-.08-.75-.43-.88Z"/>
          <path class="cls-6" d="M31.94,32.04s-.07-.01-.06,.02c.23,3.05,.65,6.29,1.55,9.21,.05,.17,.35,.21,.35-.01,.02-3.09-.75-6.34-1.84-9.22Z"/>
          <path class="cls-6" d="M35.75,58.67c-.56-2.07-1.9-3.42-3.48-4.79-.11-.09-.25,.08-.17,.18,3.39,4.08,3.19,9.84,4.72,14.75,.08,.26,.43,.2,.41-.07-.21-3.27-.63-6.9-1.49-10.07Z"/>
        </g>
        <path class="cls-6" d="M28.6,125.25c.31-1.73,.59-3.5-.44-5.02-.05-.07-.15-.02-.15,.06-.04,4.29-1.4,8.55-2.19,12.75-.05,.26,.35,.37,.44,.13,.98-2.56,1.85-5.2,2.33-7.91Z"/>
        <path class="cls-6" d="M42.54,103.1c.04-.05-.03-.11-.08-.08-3.28,1.91-6.35,5.46-6.89,9.32-.04,.3,.39,.53,.57,.25,.97-1.5,1.4-3.24,2.35-4.76,1.11-1.78,2.74-3.1,4.05-4.72Z"/>
        <path class="cls-6" d="M39.88,86.63c.95-5.42,.38-10.7-1.81-15.72-.05-.11-.24-.07-.21,.05,1.26,5.09,1.75,10.35,1.34,15.57-.04,.44,.61,.54,.69,.1Z"/>
        <path class="cls-6" d="M46.32,68.2c.05-.08-.07-.13-.13-.08-2.8,2.76-4.53,6.4-5.09,10.31-.04,.29,.43,.45,.52,.15,1.15-3.71,2.73-7.03,4.7-10.38Z"/>
        <path class="cls-6" d="M38.91,91.56c0-.06-.11-.07-.11,0-.16,6.24-1.71,12.37-3.76,18.23-.11,.31,.31,.49,.47,.2,3.15-5.8,3.97-11.94,3.41-18.43Z"/>
        <path class="cls-8" d="M41.41,80.2c0-.11-.17-.1-.18,0-.8,5.48-1.19,10.88-1.45,16.41,0,.14,.19,.17,.22,.03,1.21-5.53,1.76-10.79,1.42-16.43Z"/>
        <path class="cls-8" d="M44.58,64.37c.01-.06-.09-.09-.11-.03-.78,2.42-1.85,4.77-2.43,7.25-.1,.42,.58,.61,.73,.21,.91-2.38,1.26-4.95,1.81-7.43Z"/>
        <path class="cls-8" d="M34.46,112.36c.06-.16-.17-.33-.28-.17-.71,1.15-1.43,2.29-2.09,3.47-.45,.81-1.64,4.09-2.62,4.2-.41,.05-.38,.61,0,.69,1.11,.25,1.57-.75,2.05-1.6,1.2-2.1,2.11-4.34,2.94-6.6Z"/>
      </g>
      <g>
        <g>
          <path class="cls-5" d="M58.71,120.32c-1.04-6.35-6.07-9.57-11.71-10.23,.22-.21,.43-.43,.64-.66,.77-.68,1.49-1.46,2.15-2.33,2.02-2.68,5.31-9.06,4.39-12.53-1.6-6.04-12.83,.81-14.92,3.22-.85,.98-1.75,2.28-2.56,3.72-.13-.87-.31-1.72-.57-2.55-1.14-3.66-5.05-5.82-8.02-7.89-2.3-1.61-3.5-1.39-4.78,1.33-1.52,3.24-1.02,7.07,.57,10.19,.39,.76,1.66,2.47,3.24,4.22-3.32-.19-6.85,1.26-10.09,3.01-.52,.28-.91,.99-.57,1.56,2.2,3.79,5.53,7.29,10.25,7.12,.92-.03,1.92-.24,2.93-.56-.07,.26-.12,.52-.13,.77-.13,2.14,.65,9.77,3.66,10.02,1.74,.14,4.14-1.56,5.5-2.49,1.8-1.23,3.2-2.9,3.69-5.07,.02-.08,.02-.17,.04-.26,.52,.36,1.09,.67,1.72,.91,4.02,1.51,9.46,.53,13.56-.07,.68-.1,1.13-.81,1.02-1.46Z"/>
          <path class="cls-12" d="M31.78,114.81c-.86,.53-1.68,1.02-2.51,1.43,0-.06-.03-.13-.11-.11-1.3,.27-2.54,.51-3.83,.4,1.47-.12,2.95-.51,4.3-1.09,.15-.07,.07-.3-.09-.28-1.78,.3-3.48,.36-5.11,.11,1.83-.05,3.71-.47,5.44-1.05,.16-.05,.07-.31-.09-.28-2.44,.48-4.88,.82-7.31,.1-2.12-.62-3.87-1.95-5.53-3.36-.09-.07-.18-.06-.27-.01-.01-.02-.03-.04-.04-.06-.05-.09-.17-.05-.17,.05,0,.07,.03,.13,.04,.19-.02,.06-.01,.12,.02,.18,0,.01,.02,.03,.02,.04,.5,3.35,3.16,5.97,6.32,7.07,3.62,1.26,6.71-.01,9.58-2.27,.55-.43-.05-1.45-.67-1.06Z"/>
          <path class="cls-13" d="M30.92,114.96c-1.91,.96-4.03,1.44-6.08,1.26,1.26-.2,2.45-.73,3.71-.92,.13-.02,.12-.22-.01-.22-1.08-.03-2.14,.1-3.21,.18-1.58,.12-2.8-.35-4.21-1-.21-.1-.39-.02-.5,.12-1.52-.78-2.88-1.9-3.64-3.28-.02-.03-.07-.03-.07,.01,.08,1.81,1.47,3.38,3.19,4.36,.02,.03,.02,.06,.05,.08,3.03,3.65,7.68,1.85,10.92-.35,.13-.09,0-.31-.15-.24Z"/>
          <path class="cls-9" d="M35.18,110.83c-1.67,.88-3.55,1.42-5.41,1.78,1.63-.45,3.18-1.22,4.39-2.06,.16-.11,0-.35-.18-.28-1.35,.56-2.97,.98-4.62,1.15,.22-.06,.44-.12,.65-.2,1.31-.22,2.55-.66,3.66-1.47,.14-.1,0-.29-.15-.24-1.07,.37-2.27,.61-3.5,.72,.32-.14,.61-.33,.86-.58,.4-.2,.78-.43,1.13-.71,.2-.16,0-.43-.22-.35-.2,.07-.4,.12-.6,.17-.02-.06-.04-.12-.08-.18,.16,.01,.32,.02,.48,.03,.7,.06,.98-1.05,.26-1.24-.05-.01-.11-.02-.16-.03h0s-.03,0-.05,0c-1.36-.33-2.69-.4-4-.28,.04,0,.07-.02,.11-.02,.09-.02,.08-.14,0-.15-1.95-.27-3.96-.07-5.83,.56-1.5,.51-3.85,1.41-4.68,2.88-.06,.11-.04,.22,.04,.29-.1,.09-.13,.24-.01,.36,2.95,3.1,7.7,5.22,11.8,3.24,.19-.04,.38-.07,.58-.13,2.16-.59,3.92-1.67,5.73-2.93,.18-.13-.01-.43-.2-.32Z"/>
          <path class="cls-9" d="M52.95,92.94c.14-.34-.14-.67-.47-.72-4.69-.64-9.47,1.76-12.03,5.66-.07,.11,.07,.25,.17,.16,.91-.89,1.87-1.62,2.88-2.25-.14,.16-.28,.32-.4,.46-.25,.3,.23,.73,.51,.46,.23-.22,.88-.85,1.48-1.19-.13,.13-.25,.27-.39,.4-.62,.6,.15,1.52,.85,1.03,1.03-.72,2.09-1.36,3.19-1.92-.62,.46-1.25,.89-1.83,1.3-1.51,1.08-3.09,2.07-4.7,2.99-.16,.09-.05,.31,.12,.26,.98-.32,2.07-.73,3.18-1.22,.15,.13,.35,.2,.59,.12,3.12-1.07,5.56-2.39,6.85-5.54Z"/>
          <path class="cls-9" d="M41.63,101.84c.45-.65-.41-1.43-1.02-.93-1.09,.88-2.07,1.85-2.96,2.91,.56-2.25,1.5-4.27,2.8-6.38,.06-.1-.05-.19-.14-.13-2.4,1.58-3.55,4.38-4.16,7.16,.24-2.91-.09-5.89-2.17-8.13-.05-.05-.15,0-.11,.07,.97,1.65,1.27,3.42,1.25,5.22-.14-.41-.28-.81-.45-1.21-.31-.75-1.53-.37-1.35,.43,.1,.45,.18,.91,.24,1.37-.32-.31-.92-.23-1.16,.15-.75-1.19-1.65-2.33-2.26-3.39-.05-.08-.18-.03-.14,.06,.41,1.01,.75,2.04,1.13,3.06,.23,.63,.68,1.43,.94,2.2,0,.44,.07,.89,.21,1.34,.17,.54,.73,.67,1.09,.45,.09,.28,.18,.56,.27,.85,.27,.85,1.63,.66,1.4-.25,0,0,0,0,0,0,.26,.06,.58-.04,.77-.26,0,.06-.02,.11-.02,.17-.09,.69,.9,1.02,1.27,.45,.17-.26,.35-.51,.53-.77-.02,.05-.04,.1-.05,.15-.18,.62,.67,1.12,1.05,.54,1.08-1.68,1.91-3.48,3.06-5.12Z"/>
          <path class="cls-9" d="M53.52,95.58c-.02-.15-.25-.14-.26,.01-.06,1.07-.3,2.11-.68,3.14,0-.36-.02-.71-.09-1.07-.09-.46-.81-.71-1.07-.23-.38,.72-.8,1.4-1.23,2.07,.16-.35,.31-.71,.45-1.08,.01-.04,0-.08,0-.12,.06-.15,.13-.3,.19-.46,.18-.49-.52-.85-.82-.42-1.83,2.69-3.61,5.19-5.92,7.29,.36-.6,.7-1.22,1.02-1.83,.06-.11-.06-.23-.17-.15-1.09,.82-1.93,1.94-2.8,3.01-.09,.05-.18,.1-.27,.15,.76-1.39,1.42-2.86,2.02-4.24,.06-.15-.15-.24-.24-.13-1.06,1.38-2.2,2.81-3.18,4.3,.61-1.4,1.28-2.78,2.06-4.11,.06-.11-.08-.21-.16-.11-1.55,1.71-2.83,3.62-3.73,5.76-.17,.41,.18,.71,.53,.71-.04,.11-.03,.21,0,.3-.04,.02-.08,.05-.12,.07-.66,.3-.33,1.29,.37,1.19,.28-.04,.54-.15,.78-.27,.06,.2,.23,.36,.49,.39,.41,.05,.84,0,1.26-.09,.78,.09,1.61-.1,2.45-.47-.42,.43,.08,1.3,.65,.95,4.58-2.8,9.18-8.91,8.48-14.54Z"/>
          <path class="cls-7" d="M52.87,98.75c.05-.13-.16-.25-.23-.12-1.23,2.3-2.53,4.64-4.22,6.58,1.01-1.3,1.87-2.71,2.5-4.34,.18-.46-.47-.76-.75-.39-.9,1.16-1.78,2.29-2.7,3.38,.72-1.04,1.33-2.16,1.76-3.37,.02-.05-.06-.09-.09-.05-.67,.95-1.36,1.84-2.09,2.68,.09-.1,.18-.2,.26-.3,.1-.12-.08-.24-.19-.17-1.58,1.03-3.02,2.2-4.68,3.12-.42,.24-.1,.93,.32,.68,1.39-.83,2.82-1.77,3.95-2.95-1.79,1.97-3.81,3.61-6.32,4.88-.68,.35-.19,1.42,.5,1.08,.42-.21,.83-.44,1.23-.68-.1,.07-.19,.14-.29,.2-.47,.3,.03,1.07,.52,.82,.17-.09,.32-.19,.48-.29,0,.41,.43,.79,.91,.61,5.01-1.89,7.23-6.73,9.12-11.37Z"/>
          <path class="cls-7" d="M38.45,107.79c.65-1.6,1.63-2.95,2.49-4.44,.05-.09-.05-.18-.13-.12-1.01,.72-1.78,1.7-2.41,2.77,.15-.29,.29-.58,.45-.86,.44-.75,1.07-2.04,1.81-2.53,.11-.07,.01-.24-.1-.22-.83,.15-1.47,1.06-1.98,1.67-.84,1.01-1.62,2.16-2.06,3.41-.18,.52,.62,.98,.9,.46,.05-.1,.1-.2,.15-.3-.04,.42,.69,.65,.89,.16Z"/>
          <path class="cls-7" d="M36.69,106.69c.3-1.18,.67-2.32,1.02-3.48,.05-.16-.18-.3-.27-.14-.58,1.08-1.03,2.23-1.43,3.38-.15,.44,.56,.68,.67,.24Z"/>
          <path class="cls-12" d="M51.73,95.7c.07-.09-.05-.23-.14-.17-2.05,1.09-4.83,2.09-7.16,3.51,.5-.48,1.03-.95,1.62-1.38,0,0,0,0,0,0,.36-.3,.01-.97-.47-.75-1.17,.55-2.29,1.38-3.27,2.35,.33-.39,.68-.76,1.05-1.09,.46-.41-.15-1.14-.61-.73-.83,.75-1.66,1.5-2.46,2.29-.43,.43,.14,1.15,.62,.74-.08,.17-.17,.34-.25,.52-.03,.08,.02,.14,.08,.17-.22,.33-.43,.67-.61,1.01-.23,.44,.07,.82,.44,.83-.08,.18-.16,.36-.23,.55-.2,.6,.57,.93,.95,.48,1.35-1.59,2.72-2.79,4.3-3.88-.72,.61-1.42,1.26-2.1,1.91-.35,.34,.13,.92,.49,.58,.52-.5,1.03-.99,1.53-1.51,.23-.24,1.23-1.54,1.53-1.49,.14,.02,.18-.17,.09-.25-.07-.06-.15-.08-.23-.09,.27-.17,.55-.33,.84-.5,1.5-.87,2.89-1.76,4.01-3.11Z"/>
          <path class="cls-7" d="M29.6,108.99c.37,.02,.58-.49,.25-.7-3.62-2.3-9.62-.83-12.42,2.14-.09,.1,0,.28,.14,.21,1.88-.89,3.8-1.69,5.88-1.97,.09-.01,.17-.02,.25-.02-1.83,.63-3.6,1.54-5.16,2.63-.05,.03,0,.1,.05,.08,.51-.23,1.02-.44,1.53-.64-.12,.11-.23,.23-.34,.35-.29,.32,.17,.8,.53,.63,.83-.41,1.6-.9,2.39-1.35,.12-.02,.24-.03,.36-.04-.34,.15-.67,.29-.99,.46-.69,.36-.21,1.34,.5,1.09,1.68-.6,3.33-1.18,5.07-1.61,.64-.16,.69-1.27-.06-1.23-.66,.03-1.31,.06-1.96,.11,.52-.14,1.04-.27,1.57-.36,.8,.09,1.6,.2,2.43,.25Z"/>
          <path class="cls-10" d="M29.36,113.4c-4.25,.83-8.87,.81-11.9-2.83-.04-.05-.13,0-.1,.06,2.43,4.56,7.7,5.46,12.31,3.75,.55-.21,.26-1.08-.31-.97Z"/>
          <path class="cls-9" d="M31.8,105.69c-.89-1.53-2.31-2.44-3.46-3.76-.18-.2-.33-.43-.5-.64,.05-.04,.1-.07,.13-.12,.84,1.1,1.89,2.03,3.11,2.81,.09,.06,.19-.03,.16-.13-.28-.7-.69-1.25-1.13-1.8,.28,.19,.56,.38,.84,.56,.14,.09,.35-.1,.21-.23-1.75-1.62-3.28-3.31-3.87-5.69-.48-1.93-.75-3.92-1.15-5.87-.09-.46-.73-.78-1.1-.4-4.64,4.73-3.04,11.99,2.04,15.7,.37,.27,.9-.27,.56-.61-1.52-1.56-2.83-3.52-3.52-5.58,.91,2.09,2.43,3.95,4.25,5.27,.12,.09,.27-.08,.18-.19-1.12-1.32-2.02-2.7-2.66-4.13,.22,.31,.44,.62,.68,.91,1.43,1.73,3.56,2.42,5,4.04,.1,.12,.32,0,.24-.15Z"/>
          <path class="cls-7" d="M29.17,100.22c-.96-1.83-1.64-3.62-2-5.66-.25-1.46-.44-2.89-1.14-4.21-.18-.34-.62-.38-.86-.07-1.73,2.21-2.87,4.7-2.86,7.56,0,3.04,.96,4.4,2.81,6.69,.14,.18,.47-.02,.35-.22-.52-.85-1.21-1.74-1.59-2.67-.34-.82-.41-1.8-.39-2.74,0,.05,0,.1,.01,.15,.06,.55,.94,.5,.96-.05,.04-1.12,.1-2.24,.31-3.32,.02,.41,.07,.82,.14,1.23,.18,1.07,.54,2.68,1.4,3.41,.29,.25,.66-.09,.63-.4-.22-2.05-.83-4.02-1.07-6.05,0,0,0,0,0,0,.17,.79,.35,1.58,.59,2.34,.52,1.6,1.46,2.85,2.45,4.19,.11,.14,.35,0,.26-.17Z"/>
          <path class="cls-12" d="M35.94,98.53c-.83-4.32-5.95-5.5-8.69-8.33-.32-.33-.91,0-.7,.45,1.58,3.41,.75,7.2,4.49,9.36,.19,.11,.36,0,.43-.14,.35,.24,.72,.47,1.12,.65,.15,.07,.27-.14,.18-.25-1.17-1.41-2.24-2.78-3-4.33,.04,.04,.08,.08,.12,.13,.28,.3,.71,.26,.97,.04,.38,.5,.75,.99,1.14,1.47,.36,.44,1.14-.02,.86-.55-.43-.8-.94-1.54-1.47-2.26,1.64,1.04,3.25,2.12,4.33,3.84,.06,.1,.24,.07,.21-.07Z"/>
          <path class="cls-13" d="M35.09,96.91c-1.21-3.25-4.84-4.45-7.59-6.13,0,0-.02,0-.02,0-.09-.14-.18-.29-.28-.43-.02-.03-.06,0-.06,.03,.01,.14,.05,.27,.07,.41-.14,.06-.24,.2-.15,.36,.13,.21,.27,.4,.43,.59,.52,1.26,1.53,2.37,2.72,2.9,.37,.16,.61-.28,.46-.57,1.53,.81,3.11,1.57,4.18,3,.1,.13,.28,0,.23-.15Z"/>
          <path class="cls-9" d="M55.13,121.63c-3.6-2.09-6.54-6.77-11.06-6.61-.15,0-.25,.08-.31,.17-.76-.25-1.55-.45-2.39-.56-.17-.02-.23,.25-.06,.3,1.83,.52,3.44,1.43,4.94,2.52-.57-.19-1.16-.33-1.75-.42-.44-.07-.71,.63-.3,.85,.7,.37,1.38,.76,2.07,1.15-.5,.09-.71,.85-.12,1.02,1.05,.3,2.12,.55,3.2,.76,.33,.06,.68,.11,1.03,.15,.01,0,.03,0,.04,.02-.76-.06-1.52-.1-2.29-.14-1.82-.09-3.38-.37-4.7-1.78-.91-.96-1.77-1.99-2.23-3.24-.07-.19-.37-.09-.34,.1-.37-1.52-.79-3.04-1.02-4.46-.07-.41-.57-.46-.8-.21-.01,0-.03,0-.04,0-.01-.34-.3-.69-.65-.75-2.2-.35-3.83,1.83-4.78,3.85-.95,1.33-1.62,2.85-1.96,4.43-.03,.13,.18,.2,.25,.09,.43-.78,.88-1.5,1.37-2.19,.16,.09,.35,.13,.51,.06-.21,.75-.35,1.54-.42,2.37-.01,.18,.27,.25,.32,.07,.03-.12,.07-.23,.1-.35,0,.04,0,.07,0,.11-.02,.5,.39,.71,.75,.64-.14,1.11-.25,2.25-.42,3.4-.03,.19,.24,.23,.31,.07,.15-.35,.27-.71,.38-1.06-.34,2.08-.77,4.15-1.9,5.96-.11,.18,.1,.35,.26,.24,1.86-1.26,2.62-3.16,3.1-5.23-.06,.33-.12,.66-.21,.99-.04,.15,.16,.22,.23,.08,.61-1.29,1.07-2.71,1.45-4.18,.3,.19,.76,.15,.96-.3,.42-.95,.72-1.92,.89-2.91,.75,3.45,1.51,6.71-2.04,9.64-.14,.12,0,.35,.17,.27,4.75-2.29,4.2-6.42,3.22-10.53,.57,2.18,1.76,4.85,4,5.66,1.38,.5,2.85,.42,4.29,.42,1.92,0,3.81,.15,5.72,.26,.36,.02,.61-.51,.25-.71Z"/>
          <path class="cls-7" d="M35.09,122.78c.03-.4-.54-.43-.61-.05-.38,1.93-.97,3.92-1.77,5.71-.02,.06,.06,.09,.09,.05,1.38-1.7,2.14-3.51,2.29-5.71Z"/>
          <path class="cls-7" d="M37.86,116.71c-.04-.53-.06-1.03-.07-1.5,.16-.06,.3-.17,.36-.36,.44-1.26,.83-2.54,1.12-3.84,.14-.62-.58-1.01-.97-.66-.19-.08-.43-.09-.61,.05-.21,.16-.39,.32-.54,.5-.02,.02-.03,.04-.04,.06-.61,.71-.82,1.57-.84,2.51-.06,.21-.12,.41-.16,.63-.2,1.06-.2,2.1-.06,3.17,.03,.2,.33,.14,.31-.06-.06-.66-.07-1.43,0-2.21,.27,1.98,.92,4.09,.41,5.69-.07,.21,.22,.29,.31,.11,.67-1.34,.87-2.58,.77-4.07Z"/>
          <path class="cls-12" d="M39.8,123.07c.64-1.77,.39-3.66,.12-5.47-.02-.17-.29-.16-.3,.01-.04,1.59-.05,3.33-.73,4.81-.4,.86-1,1.6-1.66,2.29,.23-.46,.46-.92,.63-1.38,.4-1.07,.64-2.16,.83-3.28,.05-.28-.38-.43-.53-.19-1.17,1.97-2.16,4.06-3.07,6.17-.11,.24,0,.43,.19,.51-.05,.11-.11,.22-.16,.33-.3,.61,.59,1.16,1.07,.74,1.41-1.24,2.95-2.75,3.6-4.54Z"/>
          <path class="cls-12" d="M32.86,126.3c.28,.1,.64-.04,.69-.42,.22-1.86,.35-3.68,.27-5.55,0-.2-.3-.24-.32-.03-.09,.92-.2,1.85-.35,2.77-.08-.57-.14-1.14-.13-1.71,.01-.68-1.01-.78-1.07-.08-.05,.66-.11,1.32-.17,1.97-.13-.47-.26-.95-.33-1.42-.27-1.83,.1-3.54,.34-5.35,0-.05-.06-.07-.09-.03-1.04,1.59-1.57,3.08-1.49,5.01,.07,1.71,.4,3.86,1.4,5.28,.14,.2,.42,.21,.62,.09-.07,.33-.15,.67-.24,1-.05,.18,.21,.28,.28,.1,.22-.54,.41-1.08,.58-1.63Z"/>
          <path class="cls-12" d="M58.48,121.15c-.16-7.47-8.18-11.85-14.95-10.97-.29,.04-.28,.53,.03,.53,4.81-.04,10.84,2.56,12.88,7.19-3.07-3.87-7.39-6.48-12.36-7.02-.16-.02-.22,.24-.06,.28,2.81,.74,5.36,1.96,7.58,3.64-.59-.03-1.04,.82-.44,1.26,1.11,.81,2.09,1.67,3.03,2.64-3.38-2.19-6.26-5.36-10.67-5.42-.22,0-.24,.3-.03,.33,5.73,.85,8.66,6.78,14.12,8.09,.37,.09,.88-.1,.87-.57Z"/>
          <path class="cls-9" d="M49.18,114.07c-2.89-1.81-5.79-3.39-8.94-4.71-.61-.26-1.24,.61-.76,1.1,.04,.04,.08,.08,.12,.12-.19-.06-.38-.12-.57-.17-.14-.03-.27-.01-.39,.04-.47-.06-.92,.59-.55,1.02,.16,.19,.33,.37,.51,.55-.22,.03-.39,.33-.15,.54,1.23,1.09,2.54,2.1,4.1,2.66,.17,.06,.31-.2,.15-.29-.67-.38-1.33-.76-1.96-1.19,1.28,.79,2.7,1.34,4.21,1.68,.14,.03,.27-.16,.13-.24-1.2-.7-2.31-1.5-3.39-2.35,.2,.07,.4,.15,.6,.22,.78,.29,1.15-.67,.68-1.18,2.04,.78,4.08,1.57,6.09,2.42,.13,.06,.24-.15,.12-.23Z"/>
          <path class="cls-13" d="M57.6,120.24c-.11-.19-.21-.38-.32-.57,.05-.16,.05-.35-.06-.52-.74-1.17-.5-2.66-1.34-3.87-.84-1.21-2.07-1.87-3.31-2.59-.08-.05-.19,.05-.12,.13,.83,.8,1.73,1.72,2.33,2.76-2.04-2.89-4.57-5.07-8.77-5.14-.14,0-.15,.19-.02,.21,3.45,.6,6.18,2.57,7.87,5.63,.21,.39,.42,.79,.63,1.19-.07-.07-.14-.15-.21-.22-.51-.55-.99-1.15-1.59-1.6,0,0,0,0,0,0-.14-.12-.35,.06-.29,.24,.43,1.24,1.46,2.52,2.49,3.45-1.14-.51-2.18-1.24-3.18-2.05-.28-.22-.69,.22-.43,.47,1.74,1.66,3.64,2.34,5.96,2.86,.22,.05,.5-.16,.36-.4Z"/>
          <path class="cls-7" d="M52.31,119.82c-.82-1.43-1.74-2.9-3.31-3.61-2.39-1.08-5.08-.72-7.07-2.76-.26-.27-.69-.22-.94,0-.18,.1-.3,.3-.24,.57,.56,2.41,2.79,4.81,5.31,5.12,.17,.02,.22-.24,.06-.29-1.16-.35-2.05-1.35-2.77-2.47,1.64,1.01,3.57,1.72,5.26,2.47,.14,.06,.26-.16,.13-.24-.86-.54-1.7-1.15-2.54-1.76,.44,.06,.89,.11,1.33,.19,1.97,.35,3.22,1.56,4.57,2.93,.09,.1,.29,0,.21-.14Z"/>
        </g>
        <g>
          <path class="cls-1" d="M40.26,112.91c-.11-.06-.21-.14-.31-.22,.12-.06,.21-.17,.23-.31,.09-.02,.19-.03,.28-.06,.32-.12,.61-.3,.87-.52,.21-.18-.05-.47-.26-.32-.23,.16-.48,.29-.76,.35-.02,0-.05,0-.07,.01,.54-.58,.98-1.17,1.24-1.56,.34-.52-.3-1.3-.86-.94-.49,.32-1,.63-1.5,.95,.5-.95,.87-1.94,.68-3.08-.05-.31-.52-.4-.68-.12-.29,.52-.58,1.08-.9,1.64-.04,0-.08,.02-.12,.02,.24-.6,.44-1.21,.62-1.84,.07-.25-.29-.35-.38-.12-.22,.57-.49,1.1-.79,1.63,0-.2,0-.39-.05-.56,0-.4-.03-.8-.1-1.19-.03-.15-.25-.12-.26,.02-.02,.22-.03,.44-.05,.66-.13-.07-.26-.07-.38-.04,.14-.43,.26-.86,.28-1.32,.02-.35-.51-.56-.69-.21-.41,.8-.79,1.58-1.12,2.4,.06-.33,.13-.66,.23-.99,.04-.02,.07-.06,.08-.11,.03-.13,.04-.17,.03-.3-.02-.22-.29-.42-.48-.22-.2,.21-.37,.44-.51,.69-.35-.39-.91-.32-1.3,.01-.48,.42-.61,1.16-.47,1.76,.11,.43,.4,.99,.79,1.35-.24-.09-.46-.19-.67-.31-.17-.09-.38,.13-.23,.27,.38,.36,.8,.6,1.25,.79,.1,.22,.3,.4,.55,.44,.19,.03,.38,.07,.57,.11-.03,.12,.05,.26,.23,.25,.14-.01,.27-.02,.41-.03-.19,.07-.2,.38,.04,.38,.32,0,.6-.1,.86-.26,0,0,0,0,0,.01,.02,.09,.12,.19,.22,.18,.11,0,.2-.05,.29-.1,0,.06,0,.13,.04,.19-.29,.24-.61,.44-1.03,.56-.29,.09-.2,.49,.1,.46,.13-.01,.27-.03,.41-.06,.72,.55,1.6,.28,2.43-.31,.36,.15,.74,.25,1.16,.28,.17,.01,.28-.23,.12-.33Z"/>
          <path class="cls-17" d="M39.42,111.07c.08-.05,.17-.09,.24-.14,.16-.1,.02-.36-.15-.32-.32,.08-.59,.14-.93,.14-.06-.22-.17-.44-.32-.59,.09-.14,.17-.28,.22-.44,.03-.1-.07-.2-.17-.15-.24,.12-.47,.25-.71,.38-.05-.06-.11-.13-.16-.19,.04-.08,.09-.16,.12-.24,.06-.13,.12-.25,.06-.4-.09-.21-.38-.26-.5-.05-.03,.05-.02,.12,0,.17-.02,0-.04,.05-.07,.07-.08-.07-.15-.15-.24-.21-.14-.09-.29-.13-.44-.13,0-.11,0-.22,0-.34,.01-.33-.39-.59-.66-.34-.04,.04-.08,.08-.12,.12,.03-.23,.07-.46,.13-.68,.03-.14-.15-.26-.24-.12-.18,.26-.3,.53-.41,.8,0,0,0,0,0,0-.14-.3-.68-.33-.77,.04-.22,.92,.54,1.51,1.1,2.11,.22,.24,.3,.54,.61,.69,.21,.1,.43,.1,.65,.08,.28,.12,.56,.21,.85,.27-.02,.11,.02,.22,.17,.24,.62,.07,1.16-.03,1.68-.38,.15-.1,.12-.27,.02-.38Z"/>
          <path class="cls-14" d="M38.12,111.12c-.26-.02-.5-.08-.73-.17,0,0,0,0,0-.01,.02-.09-.04-.16-.11-.22,.02,0,.04,0,.06-.01,.12-.05,.07-.21-.04-.23-.08-.01-.15-.06-.22-.09-.02-.22-.05-.43-.11-.65-.03-.11-.11-.21-.24-.22-.1,0-.2,0-.3,0-.17,0-.32,.26-.13,.36,.04,.02,.08,.04,.12,.06,0,.05-.01,.11-.02,.16-.18,0-.29,.24-.17,.4,0,0,.01,0,.02,.02-.18,0-.37,0-.55-.02,.15-.05,.28-.17,.33-.33,.03,0,.06,.02,.09,.02,.09,.01,.12-.13,.03-.16-.04-.01-.08-.04-.12-.05-.05-.45-.36-.83-.75-1.05-.27-.15-.55,.14-.37,.4,.2,.3,.26,.61,.37,.94,.05,.15,.15,.22,.25,.23-.13,.04-.14,.23,0,.3,.27,.13,.54,.18,.84,.2,.06,0,.1-.02,.14-.05,.02,.02,.04,.05,.07,.07-.03,.13,.01,.27,.19,.35,.45,.2,.89,.27,1.37,.19,.25-.04,.23-.43-.02-.45Z"/>
          <path class="cls-2" d="M37.77,106.46c-.22-.06-.58-.05-.64-.33-.04-.18-.22-.29-.39-.29,.46-.2,.81-.46,1.15-.84,.28-.31-.16-.68-.47-.56-.18,.07-.33,.09-.53,.1-.24,0-.3,.29-.14,.41-.16,.12-.31,.25-.47,.37-.3,.21-.04,.62,.26,.6-.03,.02-.07,.04-.09,.07-.03,.05-.04,.09-.05,.14-.19,.07-.2,.3-.05,.42,.13,.51,.92,.73,1.45,.49,0,0,0,0,0,0,.22-.11,.27-.5-.02-.57Z"/>
          <path class="cls-2" d="M35.79,106.99c-.21-.31-.31-.35-.55-.5,.11-.1,.23-.18,.38-.24,.05-.02,.02-.11-.03-.09-.2,.05-.38,.14-.55,.24-.1-.02-.18,.02-.23,.1-.06,.03-.11,.06-.18,.08-.2,.06-.52-.03-.81,.04-.28,.07-.42,.46-.14,.64,.33,.21,.71,.22,.97-.11,.09-.11,.12-.18,.21-.29,.15,.25,.2,.36,.51,.58,.3,.22,.6-.18,.42-.45Z"/>
          <path class="cls-2" d="M34.07,108.77c-.13-.08-.23-.19-.31-.32-.13-.18-.4,0-.32,.2,.02,.04,.02,.09,.04,.13,0,0-.01,0-.02,0-.39,.14-.14,.65,.2,.63,.15,0,.22-.03,.36-.08,.23-.09,.26-.44,.05-.57Z"/>
          <path class="cls-2" d="M34.18,110.55c-.14-.15-.28-.26-.44-.38-.23-.17-.52,.15-.34,.37,.13,.16,.25,.29,.4,.42,.24,.2,.58-.18,.37-.41Z"/>
          <path class="cls-2" d="M36.16,112.2s-.02-.07-.03-.1c-.06-.21-.36-.16-.34,.06,0,.03,0,.07,0,.1,.02,.23,.42,.16,.35-.06Z"/>
          <path class="cls-2" d="M36.42,112.88c-.24-.17-.5,.2-.26,.37,.24,.17,.5-.2,.26-.37Z"/>
          <path class="cls-2" d="M37.83,113.49c-.1-.07-.21,.09-.11,.16,.1,.07,.21-.09,.11-.16Z"/>
          <path class="cls-2" d="M39.59,112.76c-.06,.02-.12,.05-.18,.07-.18,.07-.13,.38,.07,.38,.07,0,.13,0,.2,0,.39,0,.27-.58-.08-.45Z"/>
          <path class="cls-2" d="M41.82,110.26c-.05-.32-.52-.44-.7-.15-.13,.2-.18,.41-.23,.62-.02,.02-.03,.04-.05,.06-.07,.09-.08,.18-.04,.27-.13,.34-.29,.66-.43,1-.11,.28,.26,.53,.48,.33,.53-.46,1.09-1.41,.97-2.13Z"/>
          <path class="cls-2" d="M41.36,108.72c-.44-.35-.74-.86-1.2-1.22,0-.06,0-.11-.04-.18-.11-.22-.24-.42-.37-.63-.06-.11-.15-.17-.23-.2,.15-.38,.21-.81,.05-1.19-.2-.45-.69-.69-1.16-.59-.24,.05-.24,.43,.02,.45,.73,.04,.12,1.12,.02,1.41-.06,.17-.01,.32,.08,.43-.04,.13,0,.28,.17,.36,0,.02-.01,.04-.02,.07-.17,.16-.07,.37,.1,.41,0,.02,0,.04,0,.07,.06,.32,.57,.21,.49-.09-.03-.1-.06-.18-.09-.27,.02-.06,.04-.11,.05-.17,.09,.12,.17,.23,.27,.34h0s.03,.02,.05,.03c-.02,.11-.02,.23,.05,.34,0,.01,.02,.02,.02,.03-.09-.03-.17-.07-.28-.08-.32-.04-.45,.48-.12,.57-.02-.06-.03-.01,0,.13-.03,.07-.02,.13-.01,.19-.05-.04-.1-.06-.15-.11-.23-.27-.62,.06-.42,.35,.13,.18,.28,.32,.45,.4,.15,.32,.22,.68,.45,.96,0,0,0-.01,.01-.02,.13,.14,.36,.16,.43-.06,.1-.33,0-.62-.15-.89,.07-.09,.05-.22-.02-.32,.05-.03,.09-.07,.13-.13,.1-.18,.12-.33,.1-.48,.24,.25,.48,.49,.67,.79h0c.38,.48,1.24-.23,.64-.7Z"/>
          <path class="cls-2" d="M37.63,108.13v-.14c-.02-.24-.3-.32-.49-.25-.2,.08-.44,.07-.66,.08-.26,.01-.23,.43,.02,.45,.11,0,.21,.01,.32,.02,0,.23,.26,.43,.47,.31,.04-.02,.08-.04,.12-.07,.17-.09,.23-.23,.22-.41Z"/>
        </g>
      </g>
      <g>
        <path class="cls-5" d="M61.79,53.27c-5.86-.72-12.25,.82-15.57,5.1-.32-4.8-2.52-9.35-6.77-12.33-6.46-4.53-7.54,8.14-6.46,11.95,.11,.4,.33,.92,.62,1.51-.06-.02-.13-.04-.19-.06-3.63-1.03-8.73-.21-11.6,2.39-.41,.37-.42,.98-.31,1.47,.9,4.02,6.91,7.08,10.49,7.89,.15,.03,.31,.05,.46,.08-3.88,2.71-5.76,7.53-4.94,12.37,.12,.72,.7,1.6,1.58,1.44,1.95-.34,3.87-.95,5.69-1.77,2.51-.75,4.8-2.12,6.49-4.31,.07-.09,.13-.18,.2-.28,.1-.1,.22-.2,.32-.3,.82-.85,1.41-1.8,1.83-2.8,.69,1.43,2.16,2.59,3.61,3.4,3.39,1.89,7.47,2.18,11.27,1.89,.82-.06,1.75-.83,1.6-1.74-.8-4.87-2.57-9.69-6.39-12.18,4.18-2.06,7.13-6.73,9.16-11.44,.37-.85,0-2.14-1.07-2.27Z"/>
        <path class="cls-9" d="M57.84,79.32c-2.52-.51-5.08-1.11-7.42-2.21-.31-.15-.6-.31-.88-.48,1.58,.82,3.35,1.31,5.02,1.57,.35,.05,.43-.41,.11-.52-1.96-.67-3.51-1.77-4.99-3.01,.76,.31,1.57,.53,2.43,.63,.47,.05,.6-.55,.16-.71-2.04-.71-3.59-2.4-5.26-3.69-.84-.65-1.89,.5-1.1,1.24,.11,.11,.23,.2,.34,.31-.31,.2-.5,.59-.34,.98-.13-.14-.27-.27-.4-.41-.43-.43-1.09-.2-1.36,.25-.04-.34-.33-.65-.66-.73-.54-.14-.92,.07-1.27,.38-.31-.35-.82-.5-1.32-.18-.19-.22-.46-.36-.8-.3-1.17,.2-2.17,.51-3.15,1.2-.39,.27-.44,.71-.29,1.07-.42,.38-.83,.76-1.24,1.14-.34,.32,.15,.89,.53,.63-.41,.5-.81,1-1.22,1.5-.09,.11-.1,.24-.06,.36-.82,.82-1.71,1.57-2.73,2.17-.23,.14-.05,.52,.21,.43,1.3-.47,2.53-1.06,3.63-1.81-1.01,.84-2.11,1.58-3.27,2.25-.17,.09-.14,.34,0,.44-.9,.18-1.82,.25-2.72,.42,.12-2.34,1.5-5.17,2.81-7.05,1.43-2.05,3.52-3.15,5.6-4.41-.03,.35,.04,.7,.35,.98,.27,.25,.61-.11,.46-.4-.14-.27,.98-1.59,1.15-1.81,.04-.05,.08-.11,.13-.16,.1,.02,.2,.04,.29,.06-.25,.61-.49,1.23-.68,1.85-.06,.19,.23,.28,.32,.11,.34-.61,.64-1.24,.95-1.87,.15,.02,.29,.04,.44,.06,.1,0,.18-.01,.26-.03,.08,.09,.15,.19,.23,.28,.69,.82,1.52,1.7,2.63,1.85h0c.19,.03,.39-.16,.27-.38-.36-.64-.87-1.19-1.34-1.77,.8,.37,1.65,.61,2.6,.61,.26,0,.36-.4,.11-.5-.55-.22-1.05-.52-1.53-.84,1.57,.07,3.12-.08,4.43-.56,.27-.1,.25-.49-.03-.56-1.52-.41-3.08-.52-4.63-.78-.69-.12-1.37-.29-2.04-.46,.09-.11,.17-.21,.25-.31,.63-.73,1.18-1.52,1.8-2.25,.29-.33-.15-.9-.53-.61-1.01,.79-2.1,1.5-3.14,2.25-.01,0-.02,0-.03-.01-.36-.31-.83-.48-1.22-.76-.45-.33-.83-.67-1.16-1.11-.25-.33-.73-.01-.54,.35,.17,.32,.35,.64,.55,.96-.27-.12-.53-.24-.8-.35-.98-.41-1.92-.58-2.98-.64-.38-.02-.43,.6-.06,.66,.68,.11,1.32,.42,1.94,.79-1.27-.16-2.55-.31-3.78-.65-.47-.13-.61,.59-.16,.73,.35,.11,.7,.23,1.05,.36-1.56-.16-3.04-.47-4.49-1.21-.95-.49-1.81,.74-1.14,1.5-1.57-.8-3.02-1.92-4.23-2.93-.12-.1-.3,.05-.21,.18,1.73,2.47,4.22,4.86,7.12,5.55-1.37-.13-2.71-.66-3.85-1.6-1.62-1.34-2.95-2.94-4.17-4.64,1.93-1.17,3.99-2.01,5.96-3.12,.15-.08,.06-.32-.1-.31-2.58,.09-5.19,1.31-7.41,2.55-.38,.21-.43,.75-.22,1.09,1.65,2.71,4.19,5.89,7.14,7.28,2.34,1.1,6.14,.75,8.05-.98,.28-.26,.29-.56,.17-.82,.82,.13,1.62,.36,2.43,.6-.09,.2-.17,.41-.25,.6-.03,.07-.06,.15-.09,.22-.06-.1-.14-.18-.24-.25-.08-.38-.41-.7-.89-.53-1.72,.6-3.35,1.58-4.73,2.84-4.15,2.41-5.65,7.52-4.79,12.04,.11,.55,.85,.86,1.34,.68,3.02-1.08,5.98-.61,8.21-3.15,.24,.02,.49-.01,.68-.14,1.18-.79,2.19-1.67,3.01-2.81,1.36-1.32,2.35-2.92,2.97-4.75,0,.06,0,.13,.03,.19,1.89,5.23,9.08,6.02,13.74,5.87,.28,0,.32-.43,.04-.49Zm-21.93-11.5s-.07,.06-.1,.09c-.1-.03-.2-.05-.31-.05,0-.09,0-.18-.02-.26,.29-.09,.47-.28,.56-.5,.04,.04,.08,.07,.14,.08,.48,.1,.93,.24,1.38,.39-.56-.02-1.11,.01-1.64,.25Z"/>
        <path class="cls-12" d="M35.48,73.53c-2.31,.78-4.14,3.2-4.37,5.63-.09,.94,1.13,1.22,1.43,.31,.36-1.05,.67-2.07,1.2-3.05,.52-.97,1.17-1.89,1.8-2.8,.03-.05,0-.12-.06-.1Z"/>
        <path class="cls-7" d="M41.1,72.14s-.01,.03-.02,.04c-.25-.09-.54-.05-.75,.18-1.38,1.54-2.55,3.17-4.08,4.58-.28,.26,.12,.64,.42,.48,.9-.48,1.82-1.07,2.65-1.76-.18,.26-.37,.51-.58,.76-1.22,1.43-2.7,2.63-4.03,3.95-.15,.14,.03,.42,.22,.34,.91-.38,1.88-.85,2.82-1.42-.6,.55-1.24,1.06-1.95,1.52-2.13,1.39-4.58,1.63-6.71,2.92-.13,.08-.06,.32,.1,.3,3.12-.33,5.3-.02,8.02-1.89,2.21-1.52,4.11-3.56,5.24-5.99,.19-.42-.07-.85-.43-1,.43-.81,.72-1.69,.78-2.65,.06-.9-1.35-1.16-1.69-.37Z"/>
        <path class="cls-7" d="M38.67,72.56c-.65,.61-1.29,1.23-1.92,1.87-.3,.3,.15,.84,.49,.57,.7-.55,1.38-1.12,2.06-1.7,.53-.46-.11-1.23-.64-.74Z"/>
        <path class="cls-10" d="M41.66,74.85c-2.95,4.24-5.77,7.11-10.78,8.83-.08,.03-.06,.14,.03,.14,4.98-.08,10.37-3.48,11.9-8.39,.19-.62-.77-1.13-1.15-.59Z"/>
        <path class="cls-12" d="M58.29,79.73c-5.25-1.23-10.02-.8-13.66-5.52-.53-.68-1.7-.21-1.42,.68,1.92,5.94,9.99,6.75,15.09,5.21,.19-.06,.16-.33-.02-.37Z"/>
        <path class="cls-12" d="M51.72,67.2c-.84-.28-1.27,.9-.73,1.43-.43-.16-.88-.23-1.36-.16-.5,.08-.79,.58-.72,.99-.57,.19-.84,.98-.28,1.36-.16,.16-.2,.42,.01,.64,.94,.92,1.96,1.74,2.95,2.61,.24,.21,.64-.11,.44-.38-.53-.69-1.09-1.35-1.7-1.96,1.44,.87,2.68,1.96,3.6,3.43,.17,.27,.64,.06,.52-.25-.57-1.5-1.43-2.88-2.6-3.94,2.05,1.26,3.84,3.41,5.07,5.15,.2,.27,.56,0,.42-.28-.45-.94-.96-1.84-1.53-2.68,.05,.06,.09,.11,.14,.17,1.4,1.89,2.37,3.95,3.08,6.18,.08,.26,.47,.18,.46-.08-.11-4.79-2.95-10.65-7.77-12.25Z"/>
        <path class="cls-13" d="M51.67,67.6c-.83-.35-1.74,.75-.94,1.38,3.17,2.49,6.23,3.99,7.82,7.99,.07,.18,.35,.14,.34-.06-.17-4.4-3.3-7.64-7.22-9.3Z"/>
        <path class="cls-13" d="M49.99,72.34c-.79-.85-1.61-1.61-2.59-2.24-.43-.28-.81,.45-.36,.71,.93,.55,1.85,1.13,2.69,1.81,.2,.16,.43-.11,.26-.29Z"/>
        <path class="cls-9" d="M63.22,54.18c-.78-1.6-4.1-1.42-5.55-1.3,0,0,0,0,0,0-4.25,.03-7.89,1.56-10.53,5.23-.13,.18,.08,.5,.28,.33,1.05-.86,2.23-1.62,3.48-2.2,0,.03,0,.05,0,.08-.72,.55-1.35,1.22-1.81,2.06-.16,.3,.26,.57,.49,.33,1.36-1.45,3.46-1.89,5.32-2.38,.4-.1,.8-.21,1.21-.31-.85,.56-1.62,1.24-2.36,1.95-.51,.48-.19,1.52,.52,1.6,.91,.11,1.81-.15,2.69-.46,.32,.25,.78,.32,1.21,.06,.28-.17,.54-.37,.79-.59-.16,.3-.34,.59-.52,.88-.84,1.32-1.72,2.7-2.93,3.71-.32,.27,.01,.81,.37,.56,.66-.48,1.33-1,1.98-1.58-.92,1.15-1.92,2.25-2.91,3.34-.19,.21,.09,.55,.33,.38,2.31-1.68,4.59-3.35,6.18-5.76,.88-1.33,2.62-4.24,1.79-5.93Z"/>
        <path class="cls-12" d="M63.59,53.84c-1.74-.98-4.28-1.1-6.25-1.16-2.19-.07-4.32,.28-5.83,1.98-.2,.23,.04,.53,.31,.47,3.2-.68,7.27-1.44,10.43,0-.65,4.05-3.49,6.39-6.08,9.41-.1,.12,.04,.29,.18,.21,3.63-2.13,7.2-5.57,7.7-9.94,.05-.41-.09-.76-.46-.96Z"/>
        <path class="cls-7" d="M59.98,54.57c-1.59-.18-3.3,.19-4.86,.47-.37,.07-.37,.59,.03,.59,1.06,0,2.11-.05,3.17-.09,.95-.04,2.85-.26,2.47,1.15-.24,.87-.91,1.82-1.36,2.6-.59,1.03-1.23,2.06-1.99,2.98-.13,.16,.09,.34,.23,.21,1.14-1.03,2.21-2.05,3.06-3.34,.5-.75,1.8-2.47,1.48-3.45-.26-.8-1.55-1.04-2.24-1.11Z"/>
        <path class="cls-12" d="M55.61,60.41c-1.08,1.06-2.4,1.89-3.72,2.62-.34,.18-.81,.46-1.34,.74,.91-.9,1.77-1.81,2.57-2.86,.17-.23-.1-.62-.35-.41-.25,.21-.51,.41-.76,.62,.13-.45-.08-.93-.49-1.17-.69-.41-1.56-.08-2.39,.44,.01-.08,.03-.15,.04-.23,.1-.82-.97-1.29-1.4-.5-.15,.28-.33,.56-.51,.83,.09-.25,.18-.49,.27-.74,.16-.43,.26-1.02,.59-1.36,.1-.1-.02-.25-.14-.22-1.24,.39-1.79,1.66-2.3,2.78-.54,1.19-1.28,2.83-.74,4.12,.27,.66,1.16,.69,1.48,.18-.08,.23-.08,.48,.05,.68-.28,.58,.09,1.41,.89,1.41,3.35,0,5.95-2.32,8.13-4.57,.29-.29-.15-.82-.48-.55,0,0-.02,.01-.03,.02,.4-.42,.78-.88,1.15-1.37,.27-.35-.19-.77-.51-.46Z"/>
        <path class="cls-9" d="M38.67,46.19c-.23-.13-.48,.22-.26,.39,2.68,2.05,4.48,4.98,4.9,8.37,.03,.22,.04,.45,.06,.67-.55-1.75-1.37-3.4-2.59-4.78,0,0,0,0,0,0,0,0-.01-.02-.02-.03,0,0,0,0,0,0-.27-.23-.77,0-.64,.41,.42,1.32,.83,2.59,1.17,3.87-.44-.03-.87,.2-.97,.66-.68-3.22-1.42-6.39-3.27-9.22-.14-.22-.49-.05-.41,.2,.84,2.71,1,5.61,1.32,8.46-.35,.07-.65,.37-.68,.82-.04,.67-.02,1.31,.03,1.94-1.99-2.94-2.81-6.29-1.89-10.26,.06-.26-.29-.36-.42-.15-.91,1.51-1.39,3.01-1.52,4.48-1.1,4.64,.49,10.35,5.2,12.37,.66,.28,1.24-.24,1.2-.81,.15-.03,.29-.07,.43-.14,.07,.11,.13,.23,.2,.34,.56,.87,2.06,.2,1.68-.8-.05-.13-.09-.25-.13-.38,.08-.03,.15-.06,.22-.1,.08,.2,.22,.37,.43,.5,.08,.05,.15,.1,.23,.15,.41,.27,.98,.07,1.29-.24,1.99-1.98,1.69-6.4,1.01-8.85-.99-3.54-3.43-6.07-6.55-7.87Z"/>
        <path class="cls-7" d="M36.97,46.41c-.09-.22-.49-.19-.45,.08,.39,2.39,1.01,4.71,1.57,7.07,.65,2.7,.6,5.13,.6,7.87,0,.18,.06,.33,.15,.46-1.56-2.2-3.23-4.44-3.63-7.15-.37-2.53-.31-5.29,.34-7.75,.07-.27-.29-.35-.43-.15-3.78,5.62-2.11,13.26,3.05,17.43,.83,.67,2.09-.31,1.45-1.25-.22-.32-.44-.65-.67-.97,.45,.46,1.36,.49,1.63-.2,2.03-5.21-1.7-10.77-3.61-15.42Z"/>
        <path class="cls-10" d="M37.54,49.14c-.06-.1-.23-.02-.18,.09,1.83,4.15,1.77,8,1.76,12.42,0,.67,.98,.71,1.14,.1,1.05-4.24-.52-8.99-2.71-12.61Z"/>
        <path class="cls-12" d="M34.58,46.88c-3.03,4.81-2.59,9.93,.14,14.29-3.34-1.28-7.14-1.22-10.06,1.03-.3,.23,0,.68,.33,.5,1.67-.91,3.31-1.04,4.93-.81-1.21,.14-2.41,.46-3.53,.81-.23,.07-.17,.43,.07,.41,1.91-.12,3.64-.25,5.35,.07-.76,0-1.51,.09-2.25,.27-.25,.06-.16,.44,.08,.44,1.52,0,2.96,.18,4.43,.55,.27,.07,.46-.08,.54-.29,.43,.21,.88-.14,.97-.54,.13,.05,.27,.09,.4,.14,.26,.09,.48,.05,.65-.05,.24,.26,.48,.53,.73,.78,.53,.53,1.45-.25,1-.86-3.92-5.32-5.63-10.12-3.53-16.65,.05-.15-.17-.2-.24-.08Z"/>
        <path class="cls-13" d="M33.26,50.51c-1.68,3.78-.79,8.17,1.77,11.35-2.31-.95-5.08-.94-7.44-.46-.22,.05-.15,.4,.07,.39,3.05-.2,5.44,.75,8.18,1.92,.77,.33,1.25-.68,.58-1.13-.19-.13-.4-.23-.61-.34,.25-.1,.41-.37,.2-.65-2.5-3.27-3.16-6.97-2.57-11,.02-.1-.13-.17-.18-.06Z"/>
        <path class="cls-13" d="M53.49,62.86c-.77,.38-1.59,.71-2.41,1.01,.01-.23-.08-.48-.32-.77-.32-.38-.68-.38-1.13-.33-.88,.09-1.79,.31-2.66,.49-.68,.14-.48,1.3,.22,1.22,.58-.07,1.15-.16,1.73-.25,.02,0,.04,0,.06,0-.24,.27-.42,.62-.5,.9-.16,.61,.56,1,1.04,.72,1.42-.84,2.98-1.49,4.33-2.44,.35-.24,0-.71-.35-.54Z"/>
        <path class="cls-13" d="M63.41,54.01c-1.78-1.33-4.15-1.42-6.29-1.42-.15,0-.17,.25-.02,.26,2.13,.19,4,1.17,6.05,1.66,.27,.06,.49-.32,.26-.5Z"/>
        <path class="cls-7" d="M35.16,66.94c-2.02-.4-4.04-.6-6.03-1.12-.24-.06-.41,.18-.39,.38-.87-.46-1.71-1.02-2.51-1.74-.17-.15-.39,.06-.29,.25,.89,1.61,2.39,2.74,4.06,3.55-3.44-.94-6.25-2.9-8.38-6.07-.14-.2-.47-.05-.39,.19,.69,2.15,2.04,3.87,3.74,5.18,2.13,1.79,5.06,3.35,7.86,3.04-1.7,1.11-3.21,2.43-4.15,4.32-1.12,2.23-1.38,4.92-.99,7.37,.02,.11,.16,.13,.19,.02,.64-2.15,1.12-4.34,2.22-6.31,1.28-2.29,3.37-3.35,5.29-4.98,.49-.41,.39-1.03,.04-1.34,.05-.03,.11-.06,.16-.1,.48-.33,.12-1.13-.45-.94-.22,.08-.44,.12-.66,.19,.01-.33-.15-.66-.56-.77-.18-.05-.36-.1-.54-.14,.56,.1,1.12,.18,1.68,.2,.66,.03,.74-1.02,.1-1.15Z"/>
        <path class="cls-10" d="M32.31,69.51c-3.9,.16-7.35-2.5-9.97-5.18-.05-.05-.14,.02-.1,.09,2.03,3.08,6.1,7.73,10.32,6.46,.76-.23,.54-1.4-.25-1.37Z"/>
        <path class="cls-1" d="M46.12,64.74c-.64,.22-1.22,.54-1.81,.85,.04-.28,.07-.55,.09-.83,.16-.81,.48-1.6,.71-2.37,.06-.22-.26-.38-.4-.2-.1,.13-.19,.27-.28,.41,0-.18,0-.36,0-.54,0-.64-.91-.81-1.19-.26-.25,.49-.55,1.01-.83,1.54-.14-.72-.2-1.56-.72-2.1-.15-.15-.34-.06-.42,.09,0,0,0,0-.01,0-.39,.65-.22,1.58-.19,2.31,.02,.38,.01,.78,.04,1.17-.14-.43-.25-.88-.38-1.28-.21-.65-.44-1.3-.68-1.94-.15-.41-.75-.21-.64,.21,.12,.46,.27,.96,.43,1.47-.13-.15-.25-.3-.39-.44-.47-.53-1.32,.12-1.11,.72,.11,.34,.24,.67,.38,1-.48-.31-.97-.61-1.44-.92-.29-.19-.62,.29-.35,.5,.28,.23,.55,.48,.8,.74-.67-.36-1.34-.71-1.97-1.08-.17-.1-.32,.15-.19,.28,.83,.84,1.71,1.81,2.7,2.54-.84-.01-1.7-.18-2.48-.37-.39-.09-.63,.52-.24,.68,.8,.32,1.63,.55,2.45,.79,.01,0,.03,.01,.04,.02-.4,.38-.8,.76-1.18,1.16-.12,.12,.02,.37,.19,.29,.36-.17,.72-.34,1.07-.52-.1,.21-.19,.43-.29,.65-.23,.51,.28,1.11,.79,.89-.07,.26-.16,.51-.21,.78-.08,.41,.43,.86,.8,.55,.43-.35,.82-.98,.97-1.62,.13,.08,.26,.14,.42,.19,.02,.09,.03,.19,.05,.28,.12,.57,.1,1.46,.67,1.76,.25,.13,.49-.22,.28-.41-.18-.16-.18-.68-.14-1.18,.42,.63,.99,1.37,1.64,1.56,.61,.18,1.28-.23,1.29-.88,0-.07,0-.15-.02-.22,.63,.01,1.06-.97,.5-1.38-.42-.3-.86-.57-1.29-.84,0-.02,.01-.05,.02-.07,.54,.27,1.22,.38,1.79,.42,.03,0,.05,0,.08,0,.12,.13,.27,.22,.46,.24,0,0,.01,0,.02,.01,.22,.27,.61,.08,.57-.21,.41-.37,.22-1.09-.26-1.29,.34-.02,.68-.02,.98,.09,.41,.14,.64-.53,.26-.71-.28-.13-.55-.26-.84-.36,.09-.12,.17-.24,.25-.38,.22-.43-.29-.86-.69-.62-.42,.26-.89,.49-1.36,.65,.77-.72,1.89-1.68,2.11-1.48,.08,.07,.25-.01,.2-.13-.21-.47-.63-.33-1.05-.19Z"/>
        <g>
          <path class="cls-17" d="M41.71,68.49s-.03-.01,0,0h0Z"/>
          <path class="cls-17" d="M44.31,66.33c-.19-.56-1.04-.79-1.45-.13-.02,.03-.03,.05-.03,.05-.24,.15-.41,.38-.39,.69,0,0,0,0,0,0-.03,0-.07,0-.1-.01,.05-.16,.06-.31,.03-.46,.29-.15,.52-.44,.62-.78,0,0,0-.02,0-.02,0-.01,.01-.03,.02-.04,0,0,0,0,0,0,.04-.27-.14-.6-.45-.55-.47,.08-1.04,.09-1.27,.59-.03,.07-.05,.14-.05,.22-.29-.15-.58-.07-.79,.13-.14,0-.27,.03-.4,.08-.48,.2-.72,.68-.74,1.18-.02,.5,.11,1.03,.5,1.37,.31,.27,.72,.38,1.1,.27,.1,0,.19-.04,.27-.1-.03,.11-.02,.23,.04,.36,.15,.3,.48,.47,.8,.52,.49,.08,.86-.11,1.13-.51,.01-.02,.01-.03,.02-.05,.24-.1,.44-.3,.49-.57,.06-.32-.03-.63-.2-.89,.21-.04,.39-.12,.54-.24,.04,0,.08,0,.12-.02,0,0,0-.01,0-.02,.09-.03,.17-.07,.22-.16,.09-.17,.07-.35,.03-.53,0-.12,0-.24-.03-.37h0Z"/>
        </g>
        <path class="cls-14" d="M43.16,66.71c-.22,.03-.44,0-.66-.02-.11,0-.2,.03-.25,.09-.03-.2-.22-.4-.42-.36-.08-.06-.16-.09-.27-.08-.19,.02-.3,.16-.31,.34,0,.01,0,.02,0,.04-.03,0-.05-.02-.08-.03-.44-.16-.65,.63-.16,.73,.11,.02,.2,.02,.29,0h0c.05,.07,.17,.06,.19-.03,0-.06,.02-.12,.04-.17,.1,.08,.24,.1,.39,0,.06-.04,.11-.07,.17-.11,.03-.02,.05-.04,.07-.06,0,.07,.02,.14,.05,.2-.15,.04-.29,.1-.43,.19-.12,.08-.17,.2-.16,.3-.15,0-.29,.07-.37,.22,0,.01,0,.03-.01,.04-.01-.02-.02-.03-.05-.04-.07-.11-.26-.2-.38-.24-.19-.07-.35,.14-.2,.3,.28,.29,.25,.7,.73,.78,.17,.03,.35,0,.49-.1,.04-.03,.07-.06,.09-.1,.04,.12,.13,.22,.28,.24,.18,.02,.35-.03,.53-.01,.19,.02,.3-.24,.2-.38-.11-.15-.21-.25-.34-.32,.33-.05,.57-.4,.38-.69,.15-.05,.29-.14,.42-.25,.18-.16,0-.5-.22-.47Z"/>
        <path class="cls-14" d="M40.24,67.14c-.07-.12-.11-.2-.23-.28-.1-.06-.26-.05-.35,.02-.01,.01-.03,.02-.04,.03-.16,.13-.22,.33-.1,.51l.03,.04c.16,.26,.45,.18,.57-.02,.12-.04,.2-.17,.12-.31Z"/>
        <path class="cls-2" d="M36.88,63.97c0-.16-.17-.26-.32-.19-.37-.08-.8,.18-.78,.63h-.02c0,.11,0,.22,.04,.32,0,0,0,0,0,0,0,.26,.28,.48,.55,.44,.18,.03,.36,0,.49-.16,.22-.27,.26-.51,.15-.83-.03-.08-.07-.15-.12-.2Z"/>
        <path class="cls-2" d="M36.84,66.78c-.11-.07-.29,.02-.31,.15-.05,.3-.05,.7,.08,.97,.12,.25,.35,.41,.63,.32,.24-.08,.43-.38,.32-.63-.14-.33-.42-.62-.73-.81Z"/>
        <path class="cls-2" d="M39.3,69.9c-.13-.24-.32-.35-.57-.42-.24-.07-.49,.16-.47,.39,.01,.16,.01,.32,.01,.48,0,.33,.38,.38,.57,.19,.3,.07,.67-.28,.47-.64Z"/>
        <path class="cls-2" d="M42,71.03c.23-.17,.3-.54-.02-.7-.23-.1-.51-.24-.78-.21-.04,0-.07,0-.11,.02,0,0-.02,0-.03,0,0,0,0,0,.01,0-.03,0-.06,.01-.08,.03,0,0-.02,.01-.03,.02-.15,.11-.22,.3-.17,.48,.09,.28,.36,.4,.65,.44-.06,.02-.11,.03-.17,.05-.21,.06-.41,.18-.51,.37-.18,.33-.02,.69,.32,.81,.15,.05,.27-.07,.31-.21,0,0,0,0,0,0,.06,.03,.12,.06,.18,.09,.21,.09,.38,.08,.58,0,.63-.22,.49-1.15-.15-1.19Z"/>
        <path class="cls-2" d="M44.76,70.13c-.29-.11-.63-.14-.83,.14-.12,.18-.18,.41-.04,.6,.04,.05,.08,.1,.13,.15,.13,.13,.3,.12,.45,.05,.24,.01,.45-.08,.54-.32,.08-.21,0-.53-.24-.62Z"/>
        <path class="cls-2" d="M46.15,68.84c-.66,.37-.06,1.38,.56,.96,.56-.38,.03-1.29-.56-.96Z"/>
        <path class="cls-2" d="M47.53,66.59s-.04-.04-.06-.06c-.06-.06-.13-.09-.2-.11,0,0,0,0,0-.01-.09-.52-.86-.53-.85,.04,0,.29,.06,.58,.07,.86,0,.63,.8,.69,1.09,.24,.07-.11,.11-.22,.14-.34,.07-.22-.04-.45-.2-.61Z"/>
        <g>
          <path class="cls-2" d="M45.08,63.99c-.12-.07-.22-.09-.36-.09-.05,0-.11,.01-.15,.02,0,0,0,0-.01,0,.01,.01,.02,.01,.04,.04-.01-.02-.03-.02-.05-.04-.05,0-.07-.03-.04-.03-.34-.22-.9,.19-.72,.6,.14,.32,.39,.52,.75,.43,.14-.03,.26-.1,.36-.21,.03-.03,.14-.27,.16-.28,.21-.08,.21-.33,.04-.45Z"/>
          <path class="cls-2" d="M44.55,63.93s-.04-.03-.05-.03c.01,0,.03,.02,.04,.03,0,0,0,0,0,0Z"/>
        </g>
        <path class="cls-2" d="M43.64,61.47c-.48,.05-1.02,.11-1.4,.44-.35,.3-.37,1.02,.2,1.1,.45,.06,.84-.06,1.23-.24,.31,.05,.65-.13,.63-.55,0-.11-.03-.21-.05-.32-.06-.25-.37-.46-.62-.43Z"/>
        <path class="cls-2" d="M40.27,61.77c-.33-.07-.67,.06-.86,.33-.23,.32,.02,.83,.45,.68,.14-.05,.43-.08,.56,0,.24,.16,.59-.15,.48-.41-.12-.3-.28-.53-.62-.61Z"/>
        <path class="cls-2" d="M38.29,62.29s-.03,0-.04,0c-.38,.04-.55,.58-.17,.76,0,0,.02,0,.03,.01,.16,.08,.31,.03,.44-.08,.02-.02,.04-.04,.06-.05,.22-.23,.03-.68-.31-.64Z"/>
        <path class="cls-2" d="M43,63.62c-.18-.29-.62-.16-.69,.12-.26,.18-.36,.54-.12,.81,.31,.36,.83,.18,.96-.24,.07-.23-.03-.5-.15-.7Z"/>
        <path class="cls-2" d="M39.24,64.54c-.16-.1-.37-.09-.49,.06-.01,.01-.02,.03-.03,.04-.12,.15-.15,.43,.03,.56,.01,0,.03,.02,.04,.03,.16,.11,.31,.13,.48,.04,.01,0,.03-.02,.04-.02,.29-.16,.18-.59-.07-.7Z"/>
        <path class="cls-2" d="M37.52,66c-.02,.09-.05,.19-.07,.28-.13,.49,.69,.61,.72,.06,0-.09,0-.19,.01-.28,.02-.39-.57-.41-.66-.06Z"/>
        <path class="cls-2" d="M44.68,68.54s.02,.03,.04,.05c.26,.38,.86,.18,.84-.27,0-.02,0-.04,0-.06-.02-.8-1.33-.38-.88,.28Z"/>
        <path class="cls-2" d="M39.67,65.18c-.51,.17-.25,.96,.26,.79,.51-.17,.25-.96-.26-.79Z"/>
        <path class="cls-2" d="M39.4,68.14s-.04,0-.06,.01c-.18,.04-.08,.35,.09,.28,.02,0,.04-.02,.06-.03,.16-.07,.09-.3-.09-.26Z"/>
      </g>
    </g>
  </g>
</svg>